<svg xmlns="http://www.w3.org/2000/svg" xmlns:xlink="http://www.w3.org/1999/xlink" viewBox="0 0 797.67 860.21"><defs><style>.cls-1,.cls-10,.cls-11,.cls-12,.cls-13,.cls-14,.cls-15,.cls-16,.cls-17,.cls-18,.cls-19,.cls-2,.cls-22,.cls-3,.cls-4,.cls-5,.cls-6,.cls-7,.cls-8,.cls-9{stroke-miterlimit:10;}.cls-1,.cls-15,.cls-18,.cls-2,.cls-6,.cls-7{stroke-width:6px;}.cls-1{fill:url(#Dégradé_sans_nom_109);stroke:url(#Dégradé_sans_nom_62);}.cls-10,.cls-11,.cls-12,.cls-13,.cls-14,.cls-15,.cls-16,.cls-17,.cls-18,.cls-19,.cls-2,.cls-22,.cls-3,.cls-4,.cls-5,.cls-6,.cls-7,.cls-8,.cls-9{stroke:#000;}.cls-2{fill:url(#Dégradé_sans_nom_17);}.cls-3,.cls-6{fill:#fff;}.cls-3{stroke-width:5px;}.cls-5{fill:#999;}.cls-10,.cls-11,.cls-12,.cls-13,.cls-14,.cls-22,.cls-8,.cls-9{stroke-width:0.5px;}.cls-8{fill:url(#Dégradé_sans_nom_4);}.cls-9{fill:url(#Dégradé_sans_nom_4-2);}.cls-10{fill:url(#Dégradé_sans_nom_4-3);}.cls-11{fill:url(#Dégradé_sans_nom_40);}.cls-12{fill:url(#Dégradé_sans_nom_40-2);}.cls-13{fill:url(#Dégradé_sans_nom_34);}.cls-14{fill:url(#Dégradé_sans_nom_4-4);}.cls-15,.cls-16,.cls-17,.cls-18,.cls-19{fill:none;}.cls-16,.cls-17,.cls-18,.cls-19{stroke-linecap:round;}.cls-16{stroke-width:7px;}.cls-17,.cls-19{stroke-width:2px;}.cls-19{stroke-dasharray:10 10;}.cls-20{mask:url(#mask);}.cls-21{mask:url(#mask-2);}.cls-22{fill:url(#Dégradé_sans_nom_40-3);}</style><linearGradient id="Dégradé_sans_nom_109" x1="402.06" y1="277.43" x2="402.06" y2="520.65" gradientUnits="userSpaceOnUse"><stop offset="0" stop-color="#fff" stop-opacity="0.2"/><stop offset="0.04" stop-color="#bababa" stop-opacity="0.15"/><stop offset="0.11" stop-color="#666" stop-opacity="0.08"/><stop offset="0.2" stop-color="#2b2b2b" stop-opacity="0.03"/><stop offset="0.32" stop-color="#090909" stop-opacity="0.01"/><stop offset="0.66" stop-opacity="0"/></linearGradient><linearGradient id="Dégradé_sans_nom_62" x1="18.51" y1="399.04" x2="785.61" y2="399.04" gradientUnits="userSpaceOnUse"><stop offset="0.16" stop-color="#fff"/><stop offset="0.2" stop-color="#ebebeb"/><stop offset="0.48" stop-color="#444"/><stop offset="0.61"/></linearGradient><linearGradient id="Dégradé_sans_nom_17" x1="438.8" y1="724.98" x2="438.8" y2="1043.03" gradientUnits="userSpaceOnUse"><stop offset="0" stop-color="#fff" stop-opacity="0.2"/><stop offset="0.01" stop-color="#f3f3f3" stop-opacity="0.19"/><stop offset="0.16" stop-color="#878787" stop-opacity="0.11"/><stop offset="0.32" stop-color="#3b3b3b" stop-opacity="0.05"/><stop offset="0.51" stop-color="#0e0e0e" stop-opacity="0.01"/><stop offset="0.79" stop-opacity="0"/></linearGradient><radialGradient id="Dégradé_sans_nom_4" cx="369.07" cy="343.71" fx="360.07097805076745" fy="329.74461029239507" r="27.92" gradientTransform="translate(100.48 430.67) scale(0.36 0.36)" xlink:href="#Dégradé_sans_nom_62"/><radialGradient id="Dégradé_sans_nom_4-2" cx="396.99" cy="394.99" fx="387.99222805076687" fy="381.02794620759056" r="27.92" gradientTransform="translate(100.48 430.67) scale(0.36 0.36)" xlink:href="#Dégradé_sans_nom_62"/><radialGradient id="Dégradé_sans_nom_4-3" cx="341.15" cy="394.99" fx="332.14972805076803" fy="381.02794620759056" r="27.92" gradientTransform="translate(100.48 430.67) scale(0.36 0.36)" xlink:href="#Dégradé_sans_nom_62"/><radialGradient id="Dégradé_sans_nom_40" cx="396.99" cy="362.48" fx="387.99222805076687" fy="348.52000202721143" r="27.92" gradientTransform="translate(100.48 430.67) scale(0.36 0.36)" gradientUnits="userSpaceOnUse"><stop offset="0.19" stop-color="#fff"/><stop offset="0.29" stop-color="#fafafa"/><stop offset="0.41" stop-color="#eaeaea"/><stop offset="0.55" stop-color="#d0d0d0"/><stop offset="0.7" stop-color="#acacac"/><stop offset="0.85" stop-color="#7f7f7f"/><stop offset="1" stop-color="#4d4d4d"/></radialGradient><radialGradient id="Dégradé_sans_nom_40-2" cx="369.07" cy="412.02" fx="360.07097805076745" fy="398.05183512539776" r="27.92" xlink:href="#Dégradé_sans_nom_40"/><radialGradient id="Dégradé_sans_nom_34" cx="341.15" cy="362.48" fx="332.14972805076803" fy="348.52000202721143" r="27.92" gradientTransform="translate(100.48 430.67) scale(0.36 0.36)" gradientUnits="userSpaceOnUse"><stop offset="0.19" stop-color="#fff"/><stop offset="0.25" stop-color="#f6f6f6"/><stop offset="0.36" stop-color="#dedede"/><stop offset="0.49" stop-color="#b6b6b6"/><stop offset="0.65" stop-color="#7f7f7f"/><stop offset="0.82" stop-color="#3a3a3a"/><stop offset="0.95"/></radialGradient><radialGradient id="Dégradé_sans_nom_4-4" cx="369.07" cy="384.1" fx="360.07097805076745" fy="370.13058512163667" r="27.92" gradientTransform="translate(100.48 430.67) scale(0.36 0.36)" xlink:href="#Dégradé_sans_nom_62"/><mask id="mask" x="18.51" y="274.43" width="767.1" height="249.21" maskUnits="userSpaceOnUse"><rect class="cls-1" x="21.51" y="277.43" width="761.1" height="243.21"/></mask><mask id="mask-2" x="70.66" y="721.98" width="736.28" height="324.05" maskUnits="userSpaceOnUse"><rect class="cls-2" x="73.66" y="724.98" width="730.28" height="318.05"/></mask><radialGradient id="Dégradé_sans_nom_40-3" cx="232.66" cy="866.02" fx="232.6625957338847" fy="866.0231318436217" r="10" gradientTransform="matrix(1, 0, 0, 1, 0, 0)" xlink:href="#Dégradé_sans_nom_40"/></defs><title>Logo_SPC</title><g id="Calque_1" data-name="Calque 1"><path class="cls-3" d="M156.66,65.45V216.23a17.22,17.22,0,0,1-17.22,17.22h0a17.22,17.22,0,0,1-17.22-17.22V65.45Z"/><path class="cls-4" d="M151.66,154.45v62a12,12,0,0,1-12,12h0a12,12,0,0,1-12-12v-62Z"/><path class="cls-3" d="M218.66,65.45V216.23a17.22,17.22,0,0,1-17.22,17.22h0a17.22,17.22,0,0,1-17.22-17.22V65.45Z"/><path class="cls-4" d="M213.66,139.45v77a12,12,0,0,1-12,12h0a12,12,0,0,1-12-12v-77Z"/><path class="cls-3" d="M280.66,65.45V216.23a17.22,17.22,0,0,1-17.22,17.22h0a17.22,17.22,0,0,1-17.22-17.22V65.45Z"/><path class="cls-4" d="M275.66,130.45v86a12,12,0,0,1-12,12h0a12,12,0,0,1-12-12v-86Z"/><path class="cls-3" d="M342.66,65.45V216.23a17.22,17.22,0,0,1-17.22,17.22h0a17.22,17.22,0,0,1-17.22-17.22V65.45Z"/><path class="cls-5" d="M337.66,149.45v67a12,12,0,0,1-12,12h0a12,12,0,0,1-12-12v-67Z"/><rect class="cls-4" x="73.66" y="98.45" width="318" height="7"/><path class="cls-4" d="M393,267.45H72.3a5.22,5.22,0,0,1-4.86-7.12l4.92-12.57a5.22,5.22,0,0,1,4.86-3.32H388.1a5.22,5.22,0,0,1,4.86,3.32l4.92,12.57A5.23,5.23,0,0,1,393,267.45Z"/><rect class="cls-4" x="87.23" y="102.95" width="6.37" height="145"/><rect class="cls-4" x="372.23" y="102.95" width="6.37" height="145"/><path class="cls-6" d="M676,100.42l-41.21,102a40,40,0,0,1-52.07,22.11l-15,37.09A80,80,0,0,0,671.92,217.4l41.21-102Z"/><path class="cls-7" d="M560.66,172.45l41.2-102-37.08-15-41.21,102a80,80,0,0,0,44.21,104.15l15-37.09A40,40,0,0,1,560.66,172.45Z"/><circle class="cls-8" cx="232.66" cy="553.77" r="10"/><circle class="cls-9" cx="242.66" cy="572.14" r="10"/><circle class="cls-10" cx="222.66" cy="572.14" r="10"/><circle class="cls-11" cx="242.66" cy="560.5" r="10"/><circle class="cls-12" cx="232.66" cy="578.24" r="10"/><circle class="cls-13" cx="222.66" cy="560.5" r="10"/><circle class="cls-14" cx="232.66" cy="568.24" r="10"/><ellipse class="cls-15" cx="232.66" cy="566" rx="53.39" ry="140.31" transform="translate(-373.84 484.49) rotate(-60)"/><ellipse class="cls-15" cx="232.66" cy="566" rx="53.39" ry="140.31"/><ellipse class="cls-15" cx="232.66" cy="566" rx="140.31" ry="53.39" transform="translate(-251.83 192.16) rotate(-30)"/><line class="cls-16" x1="509.14" y1="439.65" x2="509.14" y2="706.32"/><line class="cls-17" x1="507.14" y1="680.02" x2="497.14" y2="680.02"/><line class="cls-17" x1="507.14" y1="650.02" x2="497.14" y2="650.02"/><line class="cls-17" x1="507.14" y1="620.02" x2="497.14" y2="620.02"/><line class="cls-17" x1="507.14" y1="590.02" x2="497.14" y2="590.02"/><line class="cls-17" x1="507.14" y1="560.02" x2="497.14" y2="560.02"/><line class="cls-17" x1="507.14" y1="530.02" x2="497.14" y2="530.02"/><line class="cls-17" x1="507.14" y1="500.02" x2="497.14" y2="500.02"/><line class="cls-17" x1="507.14" y1="470.02" x2="497.14" y2="470.02"/><line class="cls-16" x1="748.76" y1="680.02" x2="482.09" y2="680.02"/><line class="cls-17" x1="508.39" y1="682.02" x2="508.39" y2="692.02"/><line class="cls-17" x1="538.39" y1="682.02" x2="538.39" y2="692.02"/><line class="cls-17" x1="568.39" y1="682.02" x2="568.39" y2="692.02"/><line class="cls-17" x1="598.39" y1="682.02" x2="598.39" y2="692.02"/><line class="cls-17" x1="628.39" y1="682.02" x2="628.39" y2="692.02"/><line class="cls-17" x1="658.39" y1="682.02" x2="658.39" y2="692.02"/><line class="cls-17" x1="688.39" y1="682.02" x2="688.39" y2="692.02"/><line class="cls-17" x1="718.39" y1="682.02" x2="718.39" y2="692.02"/><path class="cls-18" d="M509.82,674C538.39,568.24,634.59,481.59,723,487.26"/><line class="cls-17" x1="507.14" y1="680.02" x2="583.57" y2="439.65"/><line class="cls-19" x1="717.03" y1="483.26" x2="512.03" y2="483.26"/></g><g id="Ombres"><g class="cls-20"><path class="cls-3" d="M156.66,486.47V335.69a17.22,17.22,0,0,0-17.22-17.22h0a17.22,17.22,0,0,0-17.22,17.22V486.47Z"/><path class="cls-4" d="M151.66,397.47v-62a12,12,0,0,0-12-12h0a12,12,0,0,0-12,12v62Z"/><path class="cls-3" d="M218.66,486.47V335.69a17.22,17.22,0,0,0-17.22-17.22h0a17.22,17.22,0,0,0-17.22,17.22V486.47Z"/><path class="cls-4" d="M213.66,412.47v-77a12,12,0,0,0-12-12h0a12,12,0,0,0-12,12v77Z"/><path class="cls-3" d="M280.66,486.47V335.69a17.22,17.22,0,0,0-17.22-17.22h0a17.22,17.22,0,0,0-17.22,17.22V486.47Z"/><path class="cls-4" d="M275.66,421.47v-86a12,12,0,0,0-12-12h0a12,12,0,0,0-12,12v86Z"/><path class="cls-3" d="M342.66,486.47V335.69a17.22,17.22,0,0,0-17.22-17.22h0a17.22,17.22,0,0,0-17.22,17.22V486.47Z"/><path class="cls-5" d="M337.66,402.47v-67a12,12,0,0,0-12-12h0a12,12,0,0,0-12,12v67Z"/><rect class="cls-4" x="73.66" y="446.47" width="318" height="7"/><path class="cls-4" d="M393,284.47H72.3a5.22,5.22,0,0,0-4.86,7.12l4.92,12.57a5.22,5.22,0,0,0,4.86,3.32H388.1a5.22,5.22,0,0,0,4.86-3.32l4.92-12.57A5.23,5.23,0,0,0,393,284.47Z"/><rect class="cls-4" x="87.23" y="303.97" width="6.37" height="145"/><rect class="cls-4" x="372.23" y="303.97" width="6.37" height="145"/><path class="cls-6" d="M676,451.5l-41.21-102a40,40,0,0,0-52.07-22.1l-15-37.09a80,80,0,0,1,104.14,44.2l41.21,102Z"/><path class="cls-7" d="M560.66,379.48l41.2,102-37.08,15-41.21-102a80,80,0,0,1,44.21-104.14l15,37.09A40,40,0,0,0,560.66,379.48Z"/></g><g class="cls-21"><circle class="cls-22" cx="232.66" cy="866.02" r="10"/><path class="cls-15" d="M354.18,808.1C339.44,782.56,273.08,793.27,206,832c-25.1,14.49-46.75,30.85-63.24,47,59.25-.1,118.57.21,177.87.43C349.58,851.75,363.63,824.47,354.18,808.1Z"/><path class="cls-15" d="M232.66,737.94c-29.48,0-53.39,62.82-53.39,140.32,0,.24,0,.49,0,.73q53.37,0,106.77.31v-1C286.05,800.76,262.15,737.94,232.66,737.94Z"/><path class="cls-15" d="M111.15,808.1c-9.4,16.28,4.45,43.37,33.12,70.9,59.56-.09,119.17.23,178.78.44-16.56-16.28-38.37-32.8-63.69-47.42C192.25,793.27,125.89,782.56,111.15,808.1Z"/><line class="cls-16" x1="509.14" y1="1004.62" x2="509.14" y2="737.94"/><line class="cls-17" x1="507.14" y1="764.24" x2="497.14" y2="764.24"/><line class="cls-17" x1="507.14" y1="794.24" x2="497.14" y2="794.24"/><line class="cls-17" x1="507.14" y1="824.24" x2="497.14" y2="824.24"/><line class="cls-17" x1="507.14" y1="854.24" x2="497.14" y2="854.24"/><line class="cls-16" x1="748.76" y1="764.24" x2="482.09" y2="764.24"/><line class="cls-17" x1="508.39" y1="762.24" x2="508.39" y2="752.24"/><line class="cls-17" x1="538.39" y1="762.24" x2="538.39" y2="752.24"/><line class="cls-17" x1="568.39" y1="762.24" x2="568.39" y2="752.24"/><line class="cls-17" x1="598.39" y1="762.24" x2="598.39" y2="752.24"/><line class="cls-17" x1="628.39" y1="762.24" x2="628.39" y2="752.24"/><line class="cls-17" x1="658.39" y1="762.24" x2="658.39" y2="752.24"/><line class="cls-17" x1="688.39" y1="762.24" x2="688.39" y2="752.24"/><line class="cls-17" x1="718.39" y1="762.24" x2="718.39" y2="752.24"/><path class="cls-18" d="M509.82,770.3C538.39,876,634.59,962.67,723,957"/><line class="cls-17" x1="507.14" y1="764.24" x2="583.57" y2="1004.62"/></g><path d="M700.49,804.71c0-.74,0-1.34,0-1.89h.95l.05,1h0a2.27,2.27,0,0,1,2.06-1.12c1.41,0,2.46,1.18,2.46,2.95,0,2.08-1.27,3.11-2.64,3.11a2,2,0,0,1-1.78-.91h0V811h-1Zm1,1.55a2.68,2.68,0,0,0,.05.43,1.63,1.63,0,0,0,1.58,1.24c1.12,0,1.77-.91,1.77-2.25,0-1.16-.61-2.16-1.73-2.16a1.68,1.68,0,0,0-1.59,1.31,1.56,1.56,0,0,0-.08.43Z"/><path d="M712.57,805.67a2.83,2.83,0,0,1-2.89,3.08,2.76,2.76,0,0,1-2.78-3,2.83,2.83,0,0,1,2.88-3.08A2.75,2.75,0,0,1,712.57,805.67Zm-4.6.06c0,1.27.73,2.23,1.76,2.23s1.76-.94,1.76-2.25c0-1-.49-2.23-1.74-2.23S708,804.63,708,805.73Z"/><path d="M714,808.62v-5h-.81v-.8H714v-.28a2.73,2.73,0,0,1,.68-2,2,2,0,0,1,1.41-.54,2.52,2.52,0,0,1,.9.17l-.14.82a1.67,1.67,0,0,0-.68-.13c-.9,0-1.12.79-1.12,1.68v.31h1.4v.8h-1.4v5Z"/><path d="M719.86,805v.78h-3V805Z"/><path d="M725.45,808.41a4,4,0,0,1-1.67.33,2.76,2.76,0,0,1-2.89-3A2.94,2.94,0,0,1,724,802.7a3.44,3.44,0,0,1,1.46.3l-.24.81a2.5,2.5,0,0,0-1.22-.27,2.19,2.19,0,0,0,0,4.36,2.9,2.9,0,0,0,1.3-.29Z"/><path d="M726.69,804.71c0-.74,0-1.34-.05-1.89h.94l0,1h0a2.26,2.26,0,0,1,2.06-1.12c1.4,0,2.46,1.18,2.46,2.95,0,2.08-1.27,3.11-2.64,3.11a2,2,0,0,1-1.79-.91h0V811h-1Zm1,1.55a1.88,1.88,0,0,0,0,.43,1.63,1.63,0,0,0,1.58,1.24c1.11,0,1.76-.91,1.76-2.25,0-1.16-.61-2.16-1.72-2.16a1.69,1.69,0,0,0-1.6,1.31,1.55,1.55,0,0,0-.07.43Z"/><path d="M738.37,807c0,.6,0,1.13,0,1.58h-.94l-.06-1h0a2.19,2.19,0,0,1-1.92,1.08c-.91,0-2-.5-2-2.54v-3.39h1V806c0,1.1.34,1.85,1.3,1.85a1.53,1.53,0,0,0,1.39-1,1.57,1.57,0,0,0,.1-.54v-3.56h1Z"/><path d="M741,807.89a1.76,1.76,0,0,1,.84.22,1.58,1.58,0,0,1,.64.64,1.76,1.76,0,0,1,.23.86,1.71,1.71,0,0,1-.22.85,1.64,1.64,0,0,1-.64.64,1.7,1.7,0,0,1-1.71,0,1.64,1.64,0,0,1-.64-.64,1.71,1.71,0,0,1-.22-.85,1.66,1.66,0,0,1,.23-.86,1.58,1.58,0,0,1,.64-.64A1.77,1.77,0,0,1,741,807.89Zm0,.29a1.5,1.5,0,0,0-.71.18,1.31,1.31,0,0,0-.54.53,1.55,1.55,0,0,0-.19.72,1.4,1.4,0,0,0,.19.71,1.29,1.29,0,0,0,.53.53,1.44,1.44,0,0,0,1.43,0,1.29,1.29,0,0,0,.53-.53,1.51,1.51,0,0,0,.19-.71,1.45,1.45,0,0,0-.2-.72,1.23,1.23,0,0,0-.53-.53A1.52,1.52,0,0,0,741,808.18Zm.55,1.71.28.08a.89.89,0,0,1-1.48.36,1,1,0,0,1-.25-.72,1.08,1.08,0,0,1,.11-.52.73.73,0,0,1,.32-.33,1,1,0,0,1,.49-.12.82.82,0,0,1,.5.15.77.77,0,0,1,.27.39l-.27.07a.52.52,0,0,0-.2-.26.54.54,0,0,0-.31-.09.56.56,0,0,0-.44.19,1,1,0,0,0,0,1.06.51.51,0,0,0,.41.18.56.56,0,0,0,.36-.12A.64.64,0,0,0,741.53,809.89Z"/></g></svg>