<svg xmlns="http://www.w3.org/2000/svg" xmlns:xlink="http://www.w3.org/1999/xlink" viewBox="0 0 685.68 970"><defs><style>.cls-1,.cls-10,.cls-11,.cls-12,.cls-13,.cls-14,.cls-15,.cls-16,.cls-17,.cls-18,.cls-19,.cls-2,.cls-22,.cls-23,.cls-24,.cls-25,.cls-26,.cls-27,.cls-28,.cls-29,.cls-3,.cls-30,.cls-31,.cls-32,.cls-33,.cls-4,.cls-5,.cls-6,.cls-7,.cls-8,.cls-9{stroke-miterlimit:10;}.cls-1,.cls-15,.cls-18,.cls-2,.cls-6,.cls-7{stroke-width:6px;}.cls-1{fill:url(#Dégradé_sans_nom_109);stroke:url(#Dégradé_sans_nom_62);}.cls-10,.cls-11,.cls-12,.cls-13,.cls-14,.cls-15,.cls-16,.cls-17,.cls-18,.cls-19,.cls-2,.cls-22,.cls-23,.cls-24,.cls-25,.cls-26,.cls-27,.cls-28,.cls-29,.cls-3,.cls-30,.cls-31,.cls-32,.cls-33,.cls-4,.cls-5,.cls-6,.cls-7,.cls-8,.cls-9{stroke:#000;}.cls-2{fill:url(#Dégradé_sans_nom_17);}.cls-3,.cls-6{fill:#fff;}.cls-3{stroke-width:5px;}.cls-5{fill:#999;}.cls-10,.cls-11,.cls-12,.cls-13,.cls-14,.cls-22,.cls-23,.cls-24,.cls-25,.cls-26,.cls-27,.cls-28,.cls-29,.cls-30,.cls-31,.cls-32,.cls-33,.cls-8,.cls-9{stroke-width:0.5px;}.cls-8{fill:url(#Dégradé_sans_nom_4);}.cls-9{fill:url(#Dégradé_sans_nom_4-2);}.cls-10{fill:url(#Dégradé_sans_nom_4-3);}.cls-11{fill:url(#Dégradé_sans_nom_40);}.cls-12{fill:url(#Dégradé_sans_nom_40-2);}.cls-13{fill:url(#Dégradé_sans_nom_34);}.cls-14{fill:url(#Dégradé_sans_nom_4-4);}.cls-15,.cls-16,.cls-17,.cls-18,.cls-19{fill:none;}.cls-16,.cls-17,.cls-18,.cls-19{stroke-linecap:round;}.cls-16{stroke-width:7px;}.cls-17,.cls-19{stroke-width:2px;}.cls-19{stroke-dasharray:10 10;}.cls-20{mask:url(#mask);}.cls-21{mask:url(#mask-2);}.cls-22{fill:url(#Dégradé_sans_nom_4-5);}.cls-23{fill:url(#Dégradé_sans_nom_4-6);}.cls-24{fill:url(#Dégradé_sans_nom_4-7);}.cls-25{fill:url(#Dégradé_sans_nom_4-8);}.cls-26{fill:url(#Dégradé_sans_nom_4-9);}.cls-27{fill:url(#Dégradé_sans_nom_40-3);}.cls-28{fill:url(#Dégradé_sans_nom_40-4);}.cls-29{fill:url(#Dégradé_sans_nom_40-5);}.cls-30{fill:url(#Dégradé_sans_nom_34-2);}.cls-31{fill:url(#Dégradé_sans_nom_34-3);}.cls-32{fill:url(#Dégradé_sans_nom_4-10);}.cls-33{fill:url(#Dégradé_sans_nom_4-11);}</style><linearGradient id="Dégradé_sans_nom_109" x1="335.48" y1="225.87" x2="335.48" y2="469.08" gradientUnits="userSpaceOnUse"><stop offset="0" stop-color="#fff" stop-opacity="0.2"/><stop offset="0.04" stop-color="#bababa" stop-opacity="0.15"/><stop offset="0.11" stop-color="#666" stop-opacity="0.08"/><stop offset="0.2" stop-color="#2b2b2b" stop-opacity="0.03"/><stop offset="0.32" stop-color="#090909" stop-opacity="0.01"/><stop offset="0.66" stop-opacity="0"/></linearGradient><linearGradient id="Dégradé_sans_nom_62" x1="-48.07" y1="347.47" x2="719.03" y2="347.47" gradientUnits="userSpaceOnUse"><stop offset="0.16" stop-color="#fff"/><stop offset="0.2" stop-color="#ebebeb"/><stop offset="0.48" stop-color="#444"/><stop offset="0.61"/></linearGradient><linearGradient id="Dégradé_sans_nom_17" x1="372.22" y1="673.42" x2="372.22" y2="991.47" gradientUnits="userSpaceOnUse"><stop offset="0" stop-color="#fff" stop-opacity="0.2"/><stop offset="0.01" stop-color="#f3f3f3" stop-opacity="0.19"/><stop offset="0.16" stop-color="#878787" stop-opacity="0.11"/><stop offset="0.32" stop-color="#3b3b3b" stop-opacity="0.05"/><stop offset="0.51" stop-color="#0e0e0e" stop-opacity="0.01"/><stop offset="0.79" stop-opacity="0"/></linearGradient><radialGradient id="Dégradé_sans_nom_4" cx="302.49" cy="292.14" fx="293.49018527027937" fy="278.17834139151097" r="27.92" gradientTransform="translate(57.74 397.58) scale(0.36 0.36)" xlink:href="#Dégradé_sans_nom_62"/><radialGradient id="Dégradé_sans_nom_4-2" cx="330.41" cy="343.43" fx="321.4114352702788" fy="329.46167730670646" r="27.92" gradientTransform="translate(57.74 397.58) scale(0.36 0.36)" xlink:href="#Dégradé_sans_nom_62"/><radialGradient id="Dégradé_sans_nom_4-3" cx="274.57" cy="343.43" fx="265.56893527027995" fy="329.46167730670646" r="27.92" gradientTransform="translate(57.74 397.58) scale(0.36 0.36)" xlink:href="#Dégradé_sans_nom_62"/><radialGradient id="Dégradé_sans_nom_40" cx="330.41" cy="310.92" fx="321.4114352702788" fy="296.95373312632734" r="27.92" gradientTransform="translate(57.74 397.58) scale(0.36 0.36)" gradientUnits="userSpaceOnUse"><stop offset="0.19" stop-color="#fff"/><stop offset="0.29" stop-color="#fafafa"/><stop offset="0.41" stop-color="#eaeaea"/><stop offset="0.55" stop-color="#d0d0d0"/><stop offset="0.7" stop-color="#acacac"/><stop offset="0.85" stop-color="#7f7f7f"/><stop offset="1" stop-color="#4d4d4d"/></radialGradient><radialGradient id="Dégradé_sans_nom_40-2" cx="302.49" cy="360.45" fx="293.49018527027937" fy="346.48556622451366" r="27.92" xlink:href="#Dégradé_sans_nom_40"/><radialGradient id="Dégradé_sans_nom_34" cx="274.57" cy="310.92" fx="265.56893527027995" fy="296.95373312632734" r="27.92" gradientTransform="translate(57.74 397.58) scale(0.36 0.36)" gradientUnits="userSpaceOnUse"><stop offset="0.19" stop-color="#fff"/><stop offset="0.25" stop-color="#f6f6f6"/><stop offset="0.36" stop-color="#dedede"/><stop offset="0.49" stop-color="#b6b6b6"/><stop offset="0.65" stop-color="#7f7f7f"/><stop offset="0.82" stop-color="#3a3a3a"/><stop offset="0.95"/></radialGradient><radialGradient id="Dégradé_sans_nom_4-4" cx="302.49" cy="332.53" fx="293.49018527027937" fy="318.5643162207526" r="27.92" gradientTransform="translate(57.74 397.58) scale(0.36 0.36)" xlink:href="#Dégradé_sans_nom_62"/><mask id="mask" x="-48.07" y="222.87" width="767.1" height="249.21" maskUnits="userSpaceOnUse"><rect class="cls-1" x="-45.07" y="225.87" width="761.1" height="243.21"/></mask><mask id="mask-2" x="4.08" y="670.42" width="736.28" height="324.05" maskUnits="userSpaceOnUse"><rect class="cls-2" x="7.08" y="673.42" width="730.28" height="318.05"/></mask><radialGradient id="Dégradé_sans_nom_4-5" cx="302.49" cy="743.77" fx="293.49018527027937" fy="729.8039169768782" r="27.92" gradientTransform="matrix(0.36, 0, 0, -0.36, 57.74, 1105.3)" xlink:href="#Dégradé_sans_nom_62"/><radialGradient id="Dégradé_sans_nom_4-6" cx="176.06" cy="829.05" r="5.15" xlink:href="#Dégradé_sans_nom_62"/><radialGradient id="Dégradé_sans_nom_4-7" cx="176.08" cy="819.08" r="9.29" xlink:href="#Dégradé_sans_nom_62"/><radialGradient id="Dégradé_sans_nom_4-8" cx="156.07" cy="829.02" r="5.19" xlink:href="#Dégradé_sans_nom_62"/><radialGradient id="Dégradé_sans_nom_4-9" cx="156.08" cy="819.04" r="9.27" xlink:href="#Dégradé_sans_nom_62"/><radialGradient id="Dégradé_sans_nom_40-3" cx="176.08" cy="834.87" fx="176.08180295339662" fy="834.8683619661779" r="8.77" gradientTransform="matrix(1, 0, 0, 1, 0, 0)" xlink:href="#Dégradé_sans_nom_40"/><radialGradient id="Dégradé_sans_nom_40-4" cx="176.1" cy="824.9" fx="176.09730588308412" fy="824.9005885286779" r="6.55" gradientTransform="matrix(1, 0, 0, 1, 0, 0)" xlink:href="#Dégradé_sans_nom_40"/><radialGradient id="Dégradé_sans_nom_40-5" cx="166.08" cy="814.46" fx="166.08180295339662" fy="814.4568629427376" r="10" gradientTransform="matrix(1, 0, 0, 1, 0, 0)" xlink:href="#Dégradé_sans_nom_40"/><radialGradient id="Dégradé_sans_nom_34-2" cx="156.09" cy="824.86" fx="156.09285031667787" fy="824.8642115755529" r="6.52" gradientTransform="matrix(1, 0, 0, 1, 0, 0)" xlink:href="#Dégradé_sans_nom_34"/><radialGradient id="Dégradé_sans_nom_34-3" cx="156.08" cy="834.84" fx="156.08180295339662" fy="834.8412623568029" r="8.78" gradientTransform="matrix(1, 0, 0, 1, 0, 0)" xlink:href="#Dégradé_sans_nom_34"/><radialGradient id="Dégradé_sans_nom_4-10" cx="166.07" cy="830.98" r="7.16" xlink:href="#Dégradé_sans_nom_62"/><radialGradient id="Dégradé_sans_nom_4-11" cx="166.08" cy="821.01" r="8.46" xlink:href="#Dégradé_sans_nom_62"/></defs><title>Fichier 4</title><g id="Calque_2" data-name="Calque 2"><g id="Calque_1-2" data-name="Calque 1"><path class="cls-3" d="M90.08,13.89V164.67a17.22,17.22,0,0,1-17.22,17.22h0a17.22,17.22,0,0,1-17.22-17.22V13.89Z"/><path class="cls-4" d="M85.08,102.89v62a12,12,0,0,1-12,12h0a12,12,0,0,1-12-12v-62Z"/><path class="cls-3" d="M152.08,13.89V164.67a17.22,17.22,0,0,1-17.22,17.22h0a17.22,17.22,0,0,1-17.22-17.22V13.89Z"/><path class="cls-4" d="M147.08,87.89v77a12,12,0,0,1-12,12h0a12,12,0,0,1-12-12v-77Z"/><path class="cls-3" d="M214.08,13.89V164.67a17.22,17.22,0,0,1-17.22,17.22h0a17.22,17.22,0,0,1-17.22-17.22V13.89Z"/><path class="cls-4" d="M209.08,78.89v86a12,12,0,0,1-12,12h0a12,12,0,0,1-12-12v-86Z"/><path class="cls-3" d="M276.08,13.89V164.67a17.22,17.22,0,0,1-17.22,17.22h0a17.22,17.22,0,0,1-17.22-17.22V13.89Z"/><path class="cls-5" d="M271.08,97.89v67a12,12,0,0,1-12,12h0a12,12,0,0,1-12-12v-67Z"/><rect class="cls-4" x="7.08" y="46.89" width="318" height="7"/><path class="cls-4" d="M326.44,215.89H5.72a5.22,5.22,0,0,1-4.86-7.12L5.78,196.2a5.22,5.22,0,0,1,4.86-3.32H321.52a5.22,5.22,0,0,1,4.86,3.32l4.92,12.57A5.23,5.23,0,0,1,326.44,215.89Z"/><rect class="cls-4" x="20.65" y="51.39" width="6.37" height="145"/><rect class="cls-4" x="305.65" y="51.39" width="6.37" height="145"/><path class="cls-6" d="M609.46,48.86l-41.21,102A40,40,0,0,1,516.18,173l-15,37.09a80,80,0,0,0,104.15-44.21l41.2-102Z"/><path class="cls-7" d="M494.08,120.88l41.2-102-37.08-15L457,105.9A80,80,0,0,0,501.19,210l15-37.09A40,40,0,0,1,494.08,120.88Z"/><circle class="cls-8" cx="166.08" cy="502.21" r="10"/><circle class="cls-9" cx="176.08" cy="520.57" r="10"/><circle class="cls-10" cx="156.08" cy="520.57" r="10"/><circle class="cls-11" cx="176.08" cy="508.93" r="10"/><circle class="cls-12" cx="166.08" cy="526.67" r="10"/><circle class="cls-13" cx="156.08" cy="508.93" r="10"/><circle class="cls-14" cx="166.08" cy="516.67" r="10"/><ellipse class="cls-15" cx="166.08" cy="514.44" rx="53.39" ry="140.31" transform="translate(-362.48 401.05) rotate(-60)"/><ellipse class="cls-15" cx="166.08" cy="514.44" rx="53.39" ry="140.31"/><ellipse class="cls-15" cx="166.08" cy="514.44" rx="140.31" ry="53.39" transform="translate(-234.97 151.96) rotate(-30)"/><line class="cls-16" x1="442.56" y1="388.08" x2="442.56" y2="654.75"/><line class="cls-17" x1="440.56" y1="628.45" x2="430.56" y2="628.45"/><line class="cls-17" x1="440.56" y1="598.45" x2="430.56" y2="598.45"/><line class="cls-17" x1="440.56" y1="568.45" x2="430.56" y2="568.45"/><line class="cls-17" x1="440.56" y1="538.45" x2="430.56" y2="538.45"/><line class="cls-17" x1="440.56" y1="508.45" x2="430.56" y2="508.45"/><line class="cls-17" x1="440.56" y1="478.45" x2="430.56" y2="478.45"/><line class="cls-17" x1="440.56" y1="448.45" x2="430.56" y2="448.45"/><line class="cls-17" x1="440.56" y1="418.45" x2="430.56" y2="418.45"/><line class="cls-16" x1="682.18" y1="628.45" x2="415.51" y2="628.45"/><line class="cls-17" x1="441.81" y1="630.45" x2="441.81" y2="640.45"/><line class="cls-17" x1="471.81" y1="630.45" x2="471.81" y2="640.45"/><line class="cls-17" x1="501.81" y1="630.45" x2="501.81" y2="640.45"/><line class="cls-17" x1="531.81" y1="630.45" x2="531.81" y2="640.45"/><line class="cls-17" x1="561.81" y1="630.45" x2="561.81" y2="640.45"/><line class="cls-17" x1="591.81" y1="630.45" x2="591.81" y2="640.45"/><line class="cls-17" x1="621.81" y1="630.45" x2="621.81" y2="640.45"/><line class="cls-17" x1="651.81" y1="630.45" x2="651.81" y2="640.45"/><path class="cls-18" d="M443.24,622.39C471.81,516.67,568,430,656.45,435.69"/><line class="cls-17" x1="440.56" y1="628.45" x2="516.99" y2="388.08"/><line class="cls-19" x1="650.45" y1="431.69" x2="445.45" y2="431.69"/></g><g id="Ombres"><g class="cls-20"><path class="cls-3" d="M90.08,434.91V284.13a17.22,17.22,0,0,0-17.22-17.22h0a17.22,17.22,0,0,0-17.22,17.22V434.91Z"/><path class="cls-4" d="M85.08,345.91v-62a12,12,0,0,0-12-12h0a12,12,0,0,0-12,12v62Z"/><path class="cls-3" d="M152.08,434.91V284.13a17.22,17.22,0,0,0-17.22-17.22h0a17.22,17.22,0,0,0-17.22,17.22V434.91Z"/><path class="cls-4" d="M147.08,360.91v-77a12,12,0,0,0-12-12h0a12,12,0,0,0-12,12v77Z"/><path class="cls-3" d="M214.08,434.91V284.13a17.22,17.22,0,0,0-17.22-17.22h0a17.22,17.22,0,0,0-17.22,17.22V434.91Z"/><path class="cls-4" d="M209.08,369.91v-86a12,12,0,0,0-12-12h0a12,12,0,0,0-12,12v86Z"/><path class="cls-3" d="M276.08,434.91V284.13a17.22,17.22,0,0,0-17.22-17.22h0a17.22,17.22,0,0,0-17.22,17.22V434.91Z"/><path class="cls-5" d="M271.08,350.91v-67a12,12,0,0,0-12-12h0a12,12,0,0,0-12,12v67Z"/><rect class="cls-4" x="7.08" y="394.91" width="318" height="7"/><path class="cls-4" d="M326.44,232.91H5.72A5.22,5.22,0,0,0,.86,240L5.78,252.6a5.22,5.22,0,0,0,4.86,3.32H321.52a5.22,5.22,0,0,0,4.86-3.32L331.3,240A5.23,5.23,0,0,0,326.44,232.91Z"/><rect class="cls-4" x="20.65" y="252.41" width="6.37" height="145"/><rect class="cls-4" x="305.65" y="252.41" width="6.37" height="145"/><path class="cls-6" d="M609.46,399.93l-41.21-102a40,40,0,0,0-52.07-22.1l-15-37.09A80,80,0,0,1,605.34,283l41.2,102Z"/><path class="cls-7" d="M494.08,327.91l41.2,102-37.08,15L457,342.9a80,80,0,0,1,44.2-104.15l15,37.09A40,40,0,0,0,494.08,327.91Z"/></g><g class="cls-21"><circle class="cls-22" cx="166.08" cy="838.92" r="10"/><path class="cls-23" d="M176.08,830.55a10,10,0,0,0,7.1-2.95l-14.24-.05A10,10,0,0,0,176.08,830.55Z"/><path class="cls-24" d="M176.08,810.55a10,10,0,0,0-7.14,17l14.24.05a10,10,0,0,0-7.1-17.05Z"/><path class="cls-25" d="M156.08,830.55a10,10,0,0,0,7.16-3l-14.35,0A9.93,9.93,0,0,0,156.08,830.55Z"/><path class="cls-26" d="M156.08,810.55a10,10,0,0,0-7.19,16.94l14.35,0a10,10,0,0,0-7.16-17Z"/><path class="cls-27" d="M166.08,832.2A10,10,0,1,0,185,827.6l-17.72-.06A9.87,9.87,0,0,0,166.08,832.2Z"/><path class="cls-28" d="M176.08,822.2a10,10,0,0,0-8.84,5.34l17.72.06A10,10,0,0,0,176.08,822.2Z"/><circle class="cls-29" cx="166.08" cy="814.46" r="10"/><path class="cls-30" d="M156.08,822.2a10,10,0,0,0-8.82,5.29l17.66,0A10,10,0,0,0,156.08,822.2Z"/><path class="cls-31" d="M146.08,832.2a10,10,0,1,0,18.84-4.67l-17.66,0A9.94,9.94,0,0,0,146.08,832.2Z"/><path class="cls-32" d="M166.08,834.46a10,10,0,0,0,9.5-6.89l-19-.06A10,10,0,0,0,166.08,834.46Z"/><path class="cls-33" d="M166.08,814.46a10,10,0,0,0-9.52,13l19,.06a10,10,0,0,0-9.5-13.11Z"/><path class="cls-15" d="M287.6,756.53c-14.75-25.53-81.1-14.82-148.21,23.92-25.1,14.49-46.75,30.85-63.25,47,59.26-.1,118.58.21,177.88.43C283,800.18,297.05,772.9,287.6,756.53Z"/><path class="cls-15" d="M76.14,827.44c-27.62,27-40.8,53.42-31.57,69.41,14.74,25.53,81.1,14.82,148.21-23.92,24.09-13.92,45-29.55,61.24-45.06C194.72,827.65,135.4,827.34,76.14,827.44Z"/><path class="cls-15" d="M166.08,967c29.35,0,53.17-62.25,53.39-139.26q-53.4-.22-106.77-.31C112.85,904.58,136.69,967,166.08,967Z"/><path class="cls-15" d="M166.08,686.37c-29.48,0-53.39,62.83-53.39,140.32,0,.25,0,.49,0,.74q53.37,0,106.77.31v-1C219.47,749.2,195.57,686.37,166.08,686.37Z"/><path class="cls-15" d="M77.69,827.44c16.3,15.65,37.38,31.44,61.7,45.49,67.11,38.74,133.46,49.45,148.21,23.92,9.18-15.9-3.82-42.11-31.13-69C196.86,827.66,137.25,827.35,77.69,827.44Z"/><path class="cls-15" d="M44.57,756.53c-9.4,16.28,4.45,43.37,33.12,70.91,59.56-.09,119.17.22,178.78.44-16.56-16.28-38.37-32.81-63.69-47.43C125.67,741.71,59.31,731,44.57,756.53Z"/><line class="cls-16" x1="442.56" y1="953.05" x2="442.56" y2="686.37"/><line class="cls-17" x1="440.56" y1="712.68" x2="430.56" y2="712.68"/><line class="cls-17" x1="440.56" y1="742.68" x2="430.56" y2="742.68"/><line class="cls-17" x1="440.56" y1="772.68" x2="430.56" y2="772.68"/><line class="cls-17" x1="440.56" y1="802.68" x2="430.56" y2="802.68"/><line class="cls-17" x1="440.56" y1="832.68" x2="430.56" y2="832.68"/><line class="cls-17" x1="440.56" y1="862.68" x2="430.56" y2="862.68"/><line class="cls-17" x1="440.56" y1="892.68" x2="430.56" y2="892.68"/><line class="cls-17" x1="440.56" y1="922.68" x2="430.56" y2="922.68"/><line class="cls-16" x1="682.18" y1="712.68" x2="415.51" y2="712.68"/><line class="cls-17" x1="441.81" y1="710.68" x2="441.81" y2="700.68"/><line class="cls-17" x1="471.81" y1="710.68" x2="471.81" y2="700.68"/><line class="cls-17" x1="501.81" y1="710.68" x2="501.81" y2="700.68"/><line class="cls-17" x1="531.81" y1="710.68" x2="531.81" y2="700.68"/><line class="cls-17" x1="561.81" y1="710.68" x2="561.81" y2="700.68"/><line class="cls-17" x1="591.81" y1="710.68" x2="591.81" y2="700.68"/><line class="cls-17" x1="621.81" y1="710.68" x2="621.81" y2="700.68"/><line class="cls-17" x1="651.81" y1="710.68" x2="651.81" y2="700.68"/><path class="cls-18" d="M443.24,718.74C471.81,824.46,568,911.1,656.45,905.43"/><line class="cls-17" x1="440.56" y1="712.68" x2="516.99" y2="953.05"/><line class="cls-19" x1="650.45" y1="909.43" x2="445.45" y2="909.43"/></g><path d="M633.91,753.15c0-.75,0-1.35,0-1.9h.95l.05,1h0a2.28,2.28,0,0,1,2.06-1.13c1.41,0,2.46,1.19,2.46,3,0,2.09-1.27,3.12-2.64,3.12a2,2,0,0,1-1.78-.91h0v3.15h-1Zm1,1.54a2.68,2.68,0,0,0,0,.43,1.62,1.62,0,0,0,1.58,1.24c1.12,0,1.77-.91,1.77-2.24,0-1.17-.62-2.16-1.73-2.16a1.69,1.69,0,0,0-1.6,1.31,1.93,1.93,0,0,0-.07.43Z"/><path d="M646,754.11a2.84,2.84,0,0,1-2.89,3.08,2.76,2.76,0,0,1-2.78-3,2.83,2.83,0,0,1,2.88-3.08A2.75,2.75,0,0,1,646,754.11Zm-4.61.06c0,1.27.74,2.23,1.77,2.23s1.76-.95,1.76-2.26c0-1-.49-2.23-1.74-2.23S641.38,753.06,641.38,754.17Z"/><path d="M647.43,757.06v-5h-.81v-.8h.81V751a2.75,2.75,0,0,1,.67-2,2,2,0,0,1,1.42-.54,2.36,2.36,0,0,1,.9.17l-.14.81a1.67,1.67,0,0,0-.68-.13c-.9,0-1.12.79-1.12,1.68v.31h1.4v.8h-1.4v5Z"/><path d="M653.28,753.42v.78h-3v-.78Z"/><path d="M658.87,756.84a4,4,0,0,1-1.67.34,2.76,2.76,0,0,1-2.89-3,3,3,0,0,1,3.12-3.08,3.6,3.6,0,0,1,1.46.3l-.24.82a2.37,2.37,0,0,0-1.22-.28,2,2,0,0,0-2,2.2,2,2,0,0,0,2,2.17,3,3,0,0,0,1.3-.29Z"/><path d="M660.1,753.15c0-.75,0-1.35,0-1.9H661l0,1h0a2.27,2.27,0,0,1,2.06-1.13c1.4,0,2.46,1.19,2.46,3,0,2.09-1.27,3.12-2.64,3.12a2.05,2.05,0,0,1-1.79-.91h0v3.15h-1Zm1,1.54a1.88,1.88,0,0,0,.05.43,1.61,1.61,0,0,0,1.58,1.24c1.11,0,1.76-.91,1.76-2.24,0-1.17-.61-2.16-1.73-2.16a1.67,1.67,0,0,0-1.59,1.31,1.49,1.49,0,0,0-.07.43Z"/><path d="M671.79,755.47c0,.6,0,1.13.05,1.59h-.94l-.06-.95h0a2.19,2.19,0,0,1-1.92,1.08c-.91,0-2-.51-2-2.54v-3.4H668v3.22c0,1.1.34,1.84,1.3,1.84a1.47,1.47,0,0,0,1.48-1.5v-3.56h1.06Z"/><path d="M674.39,756.32a1.78,1.78,0,0,1,.85.23,1.55,1.55,0,0,1,.64.63,1.79,1.79,0,0,1,.23.86,1.68,1.68,0,0,1-.23.86,1.59,1.59,0,0,1-.63.63,1.7,1.7,0,0,1-1.71,0,1.62,1.62,0,0,1-.64-.63,1.79,1.79,0,0,1-.23-.86,1.7,1.7,0,0,1,.24-.86,1.5,1.5,0,0,1,.64-.63A1.74,1.74,0,0,1,674.39,756.32Zm0,.29a1.49,1.49,0,0,0-.7.18A1.45,1.45,0,0,0,673,758a1.44,1.44,0,0,0,.19.72,1.42,1.42,0,0,0,.53.53,1.44,1.44,0,0,0,1.43,0,1.5,1.5,0,0,0,.53-.53,1.55,1.55,0,0,0,.19-.72,1.41,1.41,0,0,0-.2-.71,1.31,1.31,0,0,0-.53-.54A1.53,1.53,0,0,0,674.39,756.61Zm.56,1.71.28.08a.81.81,0,0,1-.83.63.86.86,0,0,1-.65-.26,1,1,0,0,1-.25-.72,1.05,1.05,0,0,1,.11-.52.75.75,0,0,1,.32-.34,1.07,1.07,0,0,1,.49-.11.89.89,0,0,1,.5.14.76.76,0,0,1,.27.4l-.27.06a.52.52,0,0,0-.2-.26.54.54,0,0,0-.31-.09.6.6,0,0,0-.44.19.78.78,0,0,0-.17.54.79.79,0,0,0,.16.52.54.54,0,0,0,.42.18.56.56,0,0,0,.36-.12A.6.6,0,0,0,675,758.32Z"/></g></g></svg>