<svg xmlns="http://www.w3.org/2000/svg" viewBox="0 0 336.52747 303.82418">
  <defs>
    <style>
      .cls-1 {
        fill: #e30350;
      }

      .cls-2 {
        fill: #e2071b;
      }

      .cls-3 {
        fill: #f29404;
      }

      .cls-4 {
        fill: #fdeb19;
      }

      .cls-5 {
        fill: #96bf1f;
      }

      .cls-6 {
        fill: #009039;
      }

      .cls-7 {
        fill: #016ab3;
      }

      .cls-8 {
        fill: #921c7f;
      }

      .cls-9 {
        fill: #0e9cd9;
      }

      .cls-10 {
        fill: #009790;
      }

      .cls-11 {
        fill: #283577;
      }

      .cls-12 {
        fill: #e2067a;
      }

      .cls-13 {
        fill: #fff;
      }

      .cls-14 {
        font-size: 12px;
        fill: #1d1d1b;
        font-family: MyriadPro-Regular, Myriad Pro;
      }

      .cls-15 {
        fill: none;
      }
    </style>
  </defs>
  <g id="Calque_2" data-name="Calque 2">
    <path class="cls-1" d="M429.92633,395.46075,297.63782,360.01416,394.46271,456.839a137.52,137.52,0,0,0,20.0249-25.40894l3.61578-6.26275A136.046,136.046,0,0,0,429.92633,395.46075Z" transform="translate(-124.58242 -206.43956)"/>
    <path class="cls-2" d="M297.63782,360.0141v.00006l132.28851,35.44659a136.97536,136.97536,0,0,0,4.61432-33.21423v-4.46484a136.9746,136.9746,0,0,0-4.61432-33.21418Z" transform="translate(-124.58242 -206.43956)"/>
    <path class="cls-3" d="M394.46271,263.18921,297.63782,360.0141h0l132.28851-35.4466a136.04647,136.04647,0,0,0-11.82269-29.70623l-3.61627-6.26343A137.52163,137.52163,0,0,0,394.46271,263.18921Z" transform="translate(-124.58242 -206.43956)"/>
    <path class="cls-4" d="M297.63782,360.0141l96.82489-96.82489a137.52272,137.52272,0,0,0-25.40918-20.025l-6.26221-3.61553a136.04388,136.04388,0,0,0-29.70691-11.82306Z" transform="translate(-124.58242 -206.43956)"/>
    <path class="cls-5" d="M297.63782,360.0141l35.44659-132.28851a136.973,136.973,0,0,0-33.219-4.61438h-4.4552a136.97351,136.97351,0,0,0-33.21906,4.61438Z" transform="translate(-124.58242 -206.43956)"/>
    <path class="cls-6" d="M297.63782,360.0141,262.19116,227.72559a136.04408,136.04408,0,0,0-29.70691,11.82306l-6.2622,3.61553a137.52238,137.52238,0,0,0-25.40918,20.025Z" transform="translate(-124.58242 -206.43956)"/>
    <path class="cls-7" d="M200.81287,456.839l96.82489-96.82483L165.34924,395.46075a136.047,136.047,0,0,0,11.82294,29.70655l3.61578,6.26275A137.52048,137.52048,0,0,0,200.81287,456.839Z" transform="translate(-124.58242 -206.43956)"/>
    <path class="cls-8" d="M297.63782,360.01416v-.00006l-.00006.00006-35.4466,132.28845a136.974,136.974,0,0,0,33.21906,4.61438h4.4552a136.9735,136.9735,0,0,0,33.219-4.61438Z" transform="translate(-124.58242 -206.43956)"/>
    <path class="cls-9" d="M297.63776,360.01416v-.00006L165.34924,324.5675a136.97558,136.97558,0,0,0-4.61432,33.21418v4.46484a136.97634,136.97634,0,0,0,4.61432,33.21423Z" transform="translate(-124.58242 -206.43956)"/>
    <path class="cls-10" d="M297.63776,360.0141h.00006l-96.82495-96.82489a137.52121,137.52121,0,0,0-20.02466,25.40863l-3.61627,6.26343a136.0465,136.0465,0,0,0-11.8227,29.70623Z" transform="translate(-124.58242 -206.43956)"/>
    <path class="cls-11" d="M297.63776,360.01416h0L200.81287,456.839a137.52191,137.52191,0,0,0,25.40918,20.025l6.2622,3.61554a136.04408,136.04408,0,0,0,29.70691,11.82306Z" transform="translate(-124.58242 -206.43956)"/>
    <path class="cls-12" d="M297.63782,360.01416h0l35.44659,132.28845a136.04388,136.04388,0,0,0,29.70691-11.82306l6.26221-3.61554a137.52224,137.52224,0,0,0,25.40918-20.025Z" transform="translate(-124.58242 -206.43956)"/>
  </g>
  <g id="Calque_4" data-name="Calque 4">
    <circle class="cls-13" cx="173.0554" cy="153.5746" r="73.19215"/>
  </g>
  <g id="Calque_3" data-name="Calque 3">
    <text class="cls-14" transform="translate(321.23082 161.93397)">R</text>
    <text class="cls-14" transform="translate(93.3627 29.01089)">V</text>
    <text class="cls-14" transform="translate(93.41035 296.43947)">B</text>
    <text class="cls-14" transform="translate(251.65211 20.92313)">J</text>
    <text class="cls-14" transform="translate(11.65211 158.59346)">C</text>
    <text class="cls-14" transform="translate(246.2477 296.43924)">M</text>
    <rect class="cls-15" width="336.52747" height="303.82418"/>
  </g>
</svg>
