<svg xmlns="http://www.w3.org/2000/svg" viewBox="0 0 223.13428 146.97803">
  <defs>
    <style>
      .cls-1, .cls-10, .cls-2, .cls-7, .cls-8, .cls-9 {
        fill: none;
        stroke-miterlimit: 10;
      }

      .cls-1 {
        stroke: #dadada;
      }

      .cls-1, .cls-10, .cls-2, .cls-9 {
        stroke-width: 1.00063px;
      }

      .cls-10, .cls-2, .cls-7, .cls-9 {
        stroke: #1d1d1b;
      }

      .cls-3, .cls-4, .cls-5, .cls-6 {
        fill: #1d1d1b;
      }

      .cls-4, .cls-5, .cls-6 {
        font-size: 10px;
      }

      .cls-4 {
        font-family: MyriadPro-Regular, Myriad Pro;
      }

      .cls-5 {
        font-family: CMUSerif-Roman, CMU Serif;
      }

      .cls-6 {
        font-family: CMUSerif-Italic, CMU Serif;
        font-style: italic;
      }

      .cls-7 {
        stroke-width: 0.70866px;
      }

      .cls-8 {
        stroke: #334a9a;
      }

      .cls-9 {
        stroke-dasharray: 5.63435 5.63435;
      }

      .cls-10 {
        stroke-dasharray: 5.7053 5.7053;
      }
    </style>
  </defs>
  <g id="Calque_2" data-name="Calque 2">
    <line class="cls-1" x1="21.5477" y1="106.06304" x2="216.18507" y2="106.06304"/>
    <line class="cls-1" x1="64.06322" y1="118.17836" x2="64.06322" y2="11.11799"/>
    <line class="cls-1" x1="42.70075" y1="118.17836" x2="42.70075" y2="11.11799"/>
    <line class="cls-1" x1="85.2034" y1="118.17836" x2="85.2034" y2="11.11799"/>
    <line class="cls-1" x1="127.50842" y1="117.8777" x2="127.50842" y2="10.81732"/>
    <path class="cls-1" d="M353.14874,357.97343" transform="translate(-185.26611 -348.15674)"/>
    <path class="cls-1" d="M353.14874,465.0338" transform="translate(-185.26611 -348.15674)"/>
    <path class="cls-1" d="M397.51648,359.27473" transform="translate(-185.26611 -348.15674)"/>
    <path class="cls-1" d="M397.51648,466.3351" transform="translate(-185.26611 -348.15674)"/>
    <line class="cls-1" x1="106.34359" y1="118.17836" x2="106.34359" y2="11.11799"/>
    <line class="cls-1" x1="169.81337" y1="118.17836" x2="169.81337" y2="11.11799"/>
    <line class="cls-1" x1="191.03187" y1="118.17836" x2="191.03187" y2="11.11799"/>
    <line class="cls-1" x1="148.67326" y1="118.17836" x2="148.67326" y2="11.11799"/>
    <path class="cls-1" d="M376.21959,359.27473" transform="translate(-185.26611 -348.15674)"/>
    <path class="cls-1" d="M374.36724,358.32341" transform="translate(-185.26611 -348.15674)"/>
    <path class="cls-1" d="M376.298,359.62471" transform="translate(-185.26611 -348.15674)"/>
    <path class="cls-1" d="M376.298,466.68508" transform="translate(-185.26611 -348.15674)"/>
    <line class="cls-1" x1="212.25037" y1="118.52834" x2="212.25037" y2="11.46797"/>
    <path class="cls-1" d="M397.43809,359.62471" transform="translate(-185.26611 -348.15674)"/>
    <path class="cls-1" d="M376.21959,466.3351" transform="translate(-185.26611 -348.15674)"/>
    <line class="cls-1" x1="21.5477" y1="93.60151" x2="216.18507" y2="93.60151"/>
    <line class="cls-1" x1="21.50578" y1="81.13998" x2="216.14314" y2="81.13998"/>
    <line class="cls-1" x1="21.50578" y1="68.67844" x2="216.14314" y2="68.67844"/>
    <line class="cls-1" x1="21.50578" y1="56.21691" x2="216.14314" y2="56.21691"/>
    <line class="cls-1" x1="21.50578" y1="43.75537" x2="216.14314" y2="43.75537"/>
    <line class="cls-1" x1="21.5477" y1="31.29384" x2="216.18507" y2="31.29384"/>
    <line class="cls-1" x1="21.5477" y1="18.83231" x2="216.18507" y2="18.83231"/>
    <g>
      <line class="cls-2" x1="17.77785" y1="118.52457" x2="217.79358" y2="118.5246"/>
      <path class="cls-3" d="M402.16168,466.68134l-1.0964-1.80268.06158-.04077,2.93933,1.16748q1.53616.33783,3.07227.676-1.53616.33783-3.07227.676l-2.93933,1.16748-.06158-.03079Z" transform="translate(-185.26611 -348.15674)"/>
    </g>
    <g>
      <line class="cls-2" x1="21.33829" y1="121.49161" x2="21.33829" y2="9.28088"/>
      <path class="cls-3" d="M206.6044,358.33566l-1.80266,1.09638-.04078-.06156,1.16748-2.93936q.33785-1.53617.676-3.07223.33786,1.53612.676,3.07223l1.16749,2.93936-.03078.06156Z" transform="translate(-185.26611 -348.15674)"/>
    </g>
    <text class="cls-4" transform="translate(14.37354 131.51345)">300</text>
    <text class="cls-4" transform="translate(4.08782 58.72224)">0,5</text>
    <text class="cls-4" transform="translate(56.57134 131.62407)">400</text>
    <text class="cls-4" transform="translate(98.24167 131.51274)">500</text>
    <text class="cls-4" transform="translate(141.23068 131.73399)">600</text>
    <text class="cls-5" transform="translate(167.60431 127.03017)">λ</text>
    <text class="cls-5" transform="translate(172.60431 130.36025) scale(0.583)">max</text>
    <text class="cls-5" transform="translate(116.43948 143.44804)">Longueur d’onde λ (nm)</text>
    <text class="cls-5" transform="translate(26.76915 8.41507)">Absorbance</text>
    <text class="cls-6" transform="translate(-0.00008 22.65683)">A</text>
    <text class="cls-6" transform="translate(7.42667 25.98691) scale(0.583)">max</text>
    <text class="cls-4" transform="translate(186.32959 131.51328)">700</text>
    <line class="cls-7" x1="64.06355" y1="118.8708" x2="64.06356" y2="121.83783"/>
    <line class="cls-7" x1="106.34377" y1="118.8708" x2="106.34378" y2="121.83783"/>
    <line class="cls-7" x1="148.67344" y1="118.8708" x2="148.67345" y2="121.83783"/>
    <line class="cls-7" x1="190.95366" y1="118.8708" x2="190.95367" y2="121.83783"/>
    <line class="cls-7" x1="17.97565" y1="56.21691" x2="20.92036" y2="56.21692"/>
    <path class="cls-7" d="M206.18648,367.48352" transform="translate(-185.26611 -348.15674)"/>
  </g>
  <g id="Calque_3" data-name="Calque 3">
    <path class="cls-8" d="M207.52747,431.47253s.92308,6.1978,1.31868,8.76923.31128,5.29056,1.513,8.17726c1.45409,3.49307,2.17936,5.40516,4.553,6.19636s3.16483.26374,4.54945,2.24176,1.978,3.49451,4.15384,4.87912,2.76924,2.17583,6.52748,2.967,13.84739.49458,19.05494.65934c4.95838.15687,16.35165-.3,21.49451-.38076s10.54945-1.06979,15.89011-1.4654,10.155-.3576,14.32417-.52747c4.2017-.17119,5.81051-.6066,8.02748-1.54945a35.2695,35.2695,0,0,0,9.13186-6.41209c2.82461-2.9411,7.81319-8.91758,9.79121-12.67582s2.32239-5.376,4.25275-10.978a63.31513,63.31513,0,0,1,4.12088-10.15385c1.36551-2.59447,1.81319-3.59341,4.35165-5.17582,3.00274-1.87184,4.05494-2.27473,5.27472-3.56044,1.92531-2.02938,2.6044-1.45055,3.79121-6.39561s2.11616-7.439,2.9011-11.67033c.75374-4.06317,1.31868-6.23077,2.63736-11.9011a70.37547,70.37547,0,0,1,3.32967-11.17582,12.694,12.694,0,0,1,1.35165-2.67033c.73386-1.2231,2.011-.72528,2.8022,2.044a35.19168,35.19168,0,0,1,1.18681,5.967c.59341,3.56044,1.78022,16.81319,2.76923,22.35165s3.16484,31.45055,3.75825,35.60439,1.18681,10.08791,2.17582,14.044,1.78022,7.38461,3.0989,9.46154c1.97215,3.10614,2.72727,4.37625,6.08991,5.56306a22.83477,22.83477,0,0,0,7.75624,1.72265c4.35165.46076,8.011.46154,8.011.46154" transform="translate(-185.26611 -348.15674)"/>
    <g>
      <line class="cls-2" x1="17.77785" y1="19.32678" x2="20.61249" y2="19.32678"/>
      <line class="cls-9" x1="26.24684" y1="19.32678" x2="169.92273" y2="19.32678"/>
      <line class="cls-2" x1="172.7399" y1="19.32678" x2="175.57455" y2="19.32678"/>
    </g>
    <g>
      <line class="cls-2" x1="175.57455" y1="121.54108" x2="175.57455" y2="118.70642"/>
      <line class="cls-10" x1="175.57455" y1="113.00113" x2="175.57455" y2="24.56906"/>
      <line class="cls-2" x1="175.57455" y1="21.7164" x2="175.57455" y2="18.88174"/>
    </g>
  </g>
</svg>
