<svg id="Calque_1" data-name="Calque 1" xmlns="http://www.w3.org/2000/svg" viewBox="0 0 190.17 64.57"><defs><style>.cls-1,.cls-2,.cls-4,.cls-5{fill:none;stroke:#000;}.cls-1,.cls-2{stroke-miterlimit:10;}.cls-2{stroke-dasharray:4.35 4.35;}.cls-3{font-size:12px;font-family:CambriaMath, Cambria Math;}.cls-4{stroke-linecap:round;}.cls-4,.cls-5{stroke-linejoin:round;}</style></defs><title>trajectoire rectiligne</title><line class="cls-1" x1="13.21" y1="27.6" x2="15.34" y2="27.6"/><line class="cls-2" x1="19.69" y1="27.6" x2="139.31" y2="27.6"/><line class="cls-1" x1="141.48" y1="27.6" x2="143.61" y2="27.6"/><circle cx="13.21" cy="27.6" r="2.13"/><circle cx="58.57" cy="27.6" r="2.13"/><circle cx="95.42" cy="27.6" r="2.13"/><circle cx="123.76" cy="27.6" r="2.13"/><circle cx="143.61" cy="27.6" r="2.13"/><text class="cls-3" transform="translate(7.37 16)">M</text><text class="cls-3" transform="translate(17.16 19.99) scale(0.58)">1</text><text class="cls-3" transform="translate(27.37 54)">Δt = 10 ms</text><text class="cls-3" transform="translate(53.37 16)">M</text><text class="cls-3" transform="translate(63.16 19.99) scale(0.58)">2</text><text class="cls-3" transform="translate(90.37 16)">M</text><text class="cls-3" transform="translate(100.16 19.99) scale(0.58)">3</text><text class="cls-3" transform="translate(119.37 16)">M</text><text class="cls-3" transform="translate(129.16 19.99) scale(0.58)">4</text><text class="cls-3" transform="translate(138.37 16)">M</text><text class="cls-3" transform="translate(148.16 19.99) scale(0.58)">5</text><text class="cls-3" transform="translate(152.37 46)">12 cm</text><line class="cls-4" x1="154.95" y1="55.95" x2="183.29" y2="55.95"/><line class="cls-5" x1="154.95" y1="55.95" x2="154.95" y2="51.7"/><line class="cls-5" x1="183.29" y1="55.95" x2="183.29" y2="51.7"/></svg>