<svg id="Calque_1" data-name="Calque 1" xmlns="http://www.w3.org/2000/svg" viewBox="0 0 176.42 77.57"><defs><style>.cls-1,.cls-2,.cls-4,.cls-5{fill:none;stroke:#000;}.cls-1,.cls-2{stroke-miterlimit:10;}.cls-2{stroke-dasharray:4.35 4.35;}.cls-3{font-size:12px;font-family:CambriaMath, Cambria Math;}.cls-4{stroke-linecap:round;}.cls-4,.cls-5{stroke-linejoin:round;}</style></defs><title>trajectoire rectiligne</title><line class="cls-1" x1="5.84" y1="21.6" x2="7.97" y2="21.6"/><line class="cls-2" x1="12.32" y1="21.6" x2="131.93" y2="21.6"/><line class="cls-1" x1="134.11" y1="21.6" x2="136.23" y2="21.6"/><circle cx="5.84" cy="21.6" r="2.13"/><circle cx="51.19" cy="21.6" r="2.13"/><circle cx="88.04" cy="21.6" r="2.13"/><circle cx="116.39" cy="21.6" r="2.13"/><circle cx="136.23" cy="21.6" r="2.13"/><text class="cls-3" transform="translate(0 10)">M</text><text class="cls-3" transform="translate(9.78 13.99) scale(0.58)">1</text><text class="cls-3" transform="translate(20 48)">Δt = 10 ms</text><text class="cls-3" transform="translate(46 10)">M</text><text class="cls-3" transform="translate(55.78 13.99) scale(0.58)">2</text><text class="cls-3" transform="translate(83 10)">M</text><text class="cls-3" transform="translate(92.78 13.99) scale(0.58)">3</text><text class="cls-3" transform="translate(112 10)">M</text><text class="cls-3" transform="translate(121.78 13.99) scale(0.58)">4</text><text class="cls-3" transform="translate(131 10)">M</text><text class="cls-3" transform="translate(140.78 13.99) scale(0.58)">5</text><text class="cls-3" transform="translate(145 40)">12 cm</text><line class="cls-4" x1="147.57" y1="49.95" x2="175.92" y2="49.95"/><line class="cls-5" x1="147.57" y1="49.95" x2="147.57" y2="45.7"/><line class="cls-5" x1="175.92" y1="49.95" x2="175.92" y2="45.7"/></svg>