<svg xmlns="http://www.w3.org/2000/svg" viewBox="0 0 167.19 121.25"><defs><style>.cls-1,.cls-4,.cls-5,.cls-6,.cls-7,.cls-8{fill:none;}.cls-1,.cls-3{stroke:#1d1d1b;}.cls-1,.cls-3,.cls-4,.cls-5,.cls-6,.cls-7{stroke-miterlimit:10;stroke-width:0.99px;}.cls-2{fill:#1d1d1b;}.cls-3{fill:#fff;}.cls-4{stroke:#2a4b9b;}.cls-5,.cls-6,.cls-7{stroke:#e30613;}.cls-6{stroke-dasharray:2.97 2.97;}.cls-7{stroke-dasharray:2.9 2.9;}</style></defs><g id="Calque_2" data-name="Calque 2"><g id="Calque_1_-_copie" data-name="Calque 1 - copie"><line class="cls-1" x1="15.47" y1="101.46" x2="149.12" y2="101.46"/><path class="cls-2" d="M147.34,101.46l-2.18-3.57.12-.08,5.83,2.31,6.1,1.34-6.1,1.34-5.83,2.32-.12-.06Z"/><line class="cls-1" x1="21.41" y1="111.96" x2="21.41" y2="15.17"/><path class="cls-2" d="M21.41,17l-3.57,2.17L17.76,19l2.31-5.83q.67-3,1.34-6.09l1.35,6.09L25.07,19l-.06.12Z"/><path class="cls-3" d="M24.6,97.48C42.63,97.19,53,94,59,91.94a48.55,48.55,0,0,0,12-7.52c5.87-4.82,13.85-14.53,17.9-22.35,3.69-7.11,5.54-13.35,12.46-21.16,6-6.81,8.7-9.1,18.59-10.49s32.84-3,32.84-3"/><line class="cls-4" x1="29.56" y1="54.21" x2="127.28" y2="28.02"/><line class="cls-4" x1="51.88" y1="40.44" x2="66.92" y2="96.56"/><line class="cls-4" x1="33.13" y1="99.39" x2="130.85" y2="73.2"/><rect class="cls-4" x="54.14" y="47.27" width="2.9" height="2.9" transform="translate(-10.72 16.05) rotate(-15)"/><rect class="cls-4" x="62.92" y="91.12" width="2.9" height="2.9" transform="translate(-21.77 19.82) rotate(-15)"/><line class="cls-4" x1="37.49" y1="76.65" x2="135.2" y2="50.47"/><line class="cls-5" x1="88.39" y1="63.01" x2="88.39" y2="64.43"/><line class="cls-6" x1="88.39" y1="67.4" x2="88.39" y2="101.54"/><line class="cls-5" x1="88.39" y1="103.02" x2="88.39" y2="104.44"/><line class="cls-5" x1="18.85" y1="63.01" x2="20.27" y2="63.01"/><line class="cls-7" x1="23.17" y1="63.01" x2="85.52" y2="63.01"/><line class="cls-5" x1="86.97" y1="63.01" x2="88.39" y2="63.01"/><line class="cls-4" x1="57.32" y1="55.24" x2="54.88" y2="57.13"/><line class="cls-4" x1="57.32" y1="56.18" x2="54.88" y2="58.08"/><line class="cls-4" x1="63.67" y1="78.44" x2="61.22" y2="80.33"/><line class="cls-4" x1="63.67" y1="79.38" x2="61.22" y2="81.27"/><rect class="cls-8" x="9.1" width="152.7" height="121.25"/><rect class="cls-4" x="57.6" y="71.24" width="2.9" height="2.9" transform="translate(-16.8 17.76) rotate(-15)"/><path class="cls-2" d="M90.51,105.73v.21a1.31,1.31,0,0,0-.64.27,2.56,2.56,0,0,0-.55.88l-2.77,6.76h-.22l-3-6.85a3.88,3.88,0,0,0-.32-.64,1.12,1.12,0,0,0-.36-.29,2,2,0,0,0-.58-.13v-.21h3.24v.21a1.53,1.53,0,0,0-.71.19.42.42,0,0,0-.16.35,2.64,2.64,0,0,0,.27.91l2,4.66,1.87-4.6a3,3,0,0,0,.28-1,.45.45,0,0,0-.17-.32,1.17,1.17,0,0,0-.58-.22l-.1,0v-.21Z"/><path class="cls-2" d="M92.12,113.29v1.83h1a.84.84,0,0,0,.53-.12.8.8,0,0,0,.2-.55H94v1.61h-.12a1.79,1.79,0,0,0-.1-.44.39.39,0,0,0-.2-.18,1,1,0,0,0-.43-.07h-1v1.52a1.35,1.35,0,0,0,0,.38.22.22,0,0,0,.09.1.56.56,0,0,0,.26,0h.79a2,2,0,0,0,.57,0,.86.86,0,0,0,.34-.22,2.59,2.59,0,0,0,.44-.64h.13l-.4,1.17H90.8v-.13H91a.68.68,0,0,0,.31-.08.29.29,0,0,0,.15-.16,1.93,1.93,0,0,0,0-.45v-3a1,1,0,0,0-.09-.54.55.55,0,0,0-.41-.14H90.8V113h3.57l0,1h-.13a1.61,1.61,0,0,0-.16-.5.55.55,0,0,0-.26-.21,1.38,1.38,0,0,0-.48,0Z"/><path class="cls-2" d="M0,61.57l1.65-.67H1.9v1.25a3.09,3.09,0,0,1,.84-1,1.53,1.53,0,0,1,.88-.28A1.71,1.71,0,0,1,5,61.51a3,3,0,0,1,.66,2,3.31,3.31,0,0,1-.8,2.3,2.08,2.08,0,0,1-1.65.75,2.1,2.1,0,0,1-.75-.13,1.84,1.84,0,0,1-.53-.35v1.64a2.34,2.34,0,0,0,.07.7.54.54,0,0,0,.24.23,1.38,1.38,0,0,0,.6.09V69H0v-.22H.15a1.2,1.2,0,0,0,.55-.12.45.45,0,0,0,.17-.21,2.58,2.58,0,0,0,.06-.73V62.62A2.39,2.39,0,0,0,.88,62a.46.46,0,0,0-.14-.21.58.58,0,0,0-.28-.07,1.13,1.13,0,0,0-.36.08Zm1.87.93v2a3.82,3.82,0,0,0,.06.86,1.14,1.14,0,0,0,.4.6,1.23,1.23,0,0,0,.8.25,1.16,1.16,0,0,0,1-.45,2.64,2.64,0,0,0,.48-1.69,2.92,2.92,0,0,0-.54-1.89,1.13,1.13,0,0,0-.89-.45,1.16,1.16,0,0,0-.56.14A3.42,3.42,0,0,0,1.9,62.5Z"/><path class="cls-2" d="M8.51,62.14H12.2V59.87a2.57,2.57,0,0,0-.08-.8.54.54,0,0,0-.24-.26,1.14,1.14,0,0,0-.54-.14h-.28v-.21h3.4v.21h-.28a1.08,1.08,0,0,0-.53.14.48.48,0,0,0-.26.28,3.06,3.06,0,0,0-.07.78V65a2.61,2.61,0,0,0,.08.8.52.52,0,0,0,.24.25,1,1,0,0,0,.54.14h.28v.22h-3.4v-.22h.28a.84.84,0,0,0,.71-.28A1.73,1.73,0,0,0,12.2,65V62.57H8.51V65a2.72,2.72,0,0,0,.07.8.55.55,0,0,0,.25.25,1,1,0,0,0,.53.14h.29v.22H6.25v-.22h.28a.84.84,0,0,0,.71-.28A1.76,1.76,0,0,0,7.38,65V59.87a2.68,2.68,0,0,0-.07-.8.54.54,0,0,0-.24-.26,1.21,1.21,0,0,0-.54-.14H6.25v-.21h3.4v.21H9.36a1.13,1.13,0,0,0-.53.14.46.46,0,0,0-.25.28,2.65,2.65,0,0,0-.07.78Z"/><path class="cls-2" d="M16.17,66v1.83h1a.84.84,0,0,0,.53-.12.8.8,0,0,0,.2-.55H18v1.61h-.12a2.46,2.46,0,0,0-.1-.44.39.39,0,0,0-.2-.18,1,1,0,0,0-.43-.07h-1v1.53a1.31,1.31,0,0,0,0,.37.31.31,0,0,0,.09.11.75.75,0,0,0,.26,0h.79a2,2,0,0,0,.57,0,.86.86,0,0,0,.34-.22,2.44,2.44,0,0,0,.43-.63h.14l-.4,1.16H14.85v-.13H15a.71.71,0,0,0,.31-.08.25.25,0,0,0,.14-.16,1.45,1.45,0,0,0,0-.45v-3a1.13,1.13,0,0,0-.08-.54.55.55,0,0,0-.41-.14h-.17v-.13h3.57l0,1h-.13a1.61,1.61,0,0,0-.16-.5.55.55,0,0,0-.26-.21,1.38,1.38,0,0,0-.48,0Z"/><path class="cls-2" d="M142.87,105.5v.22a1.23,1.23,0,0,0-.63.27,2.34,2.34,0,0,0-.55.88l-2.78,6.76h-.21l-3-6.85a4.16,4.16,0,0,0-.32-.65,1.09,1.09,0,0,0-.36-.28,1.66,1.66,0,0,0-.58-.13v-.22h3.25v.22a1.43,1.43,0,0,0-.72.19.41.41,0,0,0-.16.34,2.67,2.67,0,0,0,.27.92l2,4.65,1.87-4.6a2.9,2.9,0,0,0,.28-.94.45.45,0,0,0-.17-.32,1,1,0,0,0-.58-.22l-.09,0v-.22Z"/><path class="cls-2" d="M146.75,115.8V116a5.5,5.5,0,0,1-1.48-1,5.86,5.86,0,0,1-1.3-2,6.56,6.56,0,0,1-.46-2.4,6.28,6.28,0,0,1,.9-3.31,5.2,5.2,0,0,1,2.34-2.15v.25a3.45,3.45,0,0,0-1.19,1.09,5.42,5.42,0,0,0-.69,1.75,10.72,10.72,0,0,0-.22,2.22,12.36,12.36,0,0,0,.19,2.28,5.48,5.48,0,0,0,.37,1.29,4.33,4.33,0,0,0,.58,1A4.56,4.56,0,0,0,146.75,115.8Z"/><path class="cls-2" d="M149,109.06c.39-.39.62-.61.69-.67a2.08,2.08,0,0,1,.57-.35,1.61,1.61,0,0,1,.6-.12,1.36,1.36,0,0,1,.87.29,1.46,1.46,0,0,1,.48.85,4.5,4.5,0,0,1,1-.92,1.8,1.8,0,0,1,.86-.22,1.33,1.33,0,0,1,.76.22,1.5,1.5,0,0,1,.52.72,3.14,3.14,0,0,1,.13,1.07v2.3a2.16,2.16,0,0,0,.08.7.62.62,0,0,0,.21.22,1.13,1.13,0,0,0,.52.09v.21h-2.65v-.21h.11a.94.94,0,0,0,.54-.14.46.46,0,0,0,.19-.3,2.86,2.86,0,0,0,0-.57v-2.3a1.91,1.91,0,0,0-.16-.93.8.8,0,0,0-.73-.38,1.47,1.47,0,0,0-.63.16,3.39,3.39,0,0,0-.76.58v2.87a2.16,2.16,0,0,0,.07.69.51.51,0,0,0,.23.23,1.31,1.31,0,0,0,.58.09v.21H150.4v-.21a1.26,1.26,0,0,0,.62-.11.55.55,0,0,0,.23-.32,3,3,0,0,0,0-.58v-2.3a1.74,1.74,0,0,0-.2-1,.82.82,0,0,0-.72-.37,1.19,1.19,0,0,0-.62.17,2.19,2.19,0,0,0-.75.58v2.87a2,2,0,0,0,.07.69.56.56,0,0,0,.22.24,1.41,1.41,0,0,0,.58.08v.21h-2.65v-.21a1.22,1.22,0,0,0,.51-.08.52.52,0,0,0,.22-.26,1.87,1.87,0,0,0,.08-.67v-2A8.3,8.3,0,0,0,148,109a.49.49,0,0,0-.13-.27.43.43,0,0,0-.24-.07,1.08,1.08,0,0,0-.39.09l-.09-.21,1.61-.66H149Z"/><path class="cls-2" d="M163.23,111.25l.19,0-.68,2.16h-6.15v-.22h.3a.79.79,0,0,0,.72-.33,1.91,1.91,0,0,0,.12-.87v-5.12a1.62,1.62,0,0,0-.16-.93.83.83,0,0,0-.68-.26h-.3v-.22h3.6v.22a2,2,0,0,0-.89.12.72.72,0,0,0-.35.31,2.6,2.6,0,0,0-.09.89v5a1.67,1.67,0,0,0,.09.67.4.4,0,0,0,.22.18,3.7,3.7,0,0,0,.91.06h.58a4.3,4.3,0,0,0,1.29-.13,1.67,1.67,0,0,0,.67-.48A4,4,0,0,0,163.23,111.25Z"/><path class="cls-2" d="M164,105.36v-.25a5.41,5.41,0,0,1,1.48,1,6.06,6.06,0,0,1,1.3,2,6.56,6.56,0,0,1,.46,2.4,6.3,6.3,0,0,1-.9,3.31A5.07,5.07,0,0,1,164,116v-.21a3.48,3.48,0,0,0,1.19-1.1,4.93,4.93,0,0,0,.69-1.75,10.71,10.71,0,0,0,.23-2.22,12.32,12.32,0,0,0-.2-2.28,6.24,6.24,0,0,0-.36-1.29,4.74,4.74,0,0,0-.59-.94A4.3,4.3,0,0,0,164,105.36Z"/></g></g></svg>