<svg id="TP" xmlns="http://www.w3.org/2000/svg" viewBox="0 0 240 96">
  <defs>
    <style>
      .cls-1, .cls-4, .cls-7 {
        fill: none;
      }

      .cls-1, .cls-4 {
        stroke: #1d1d1b;
        stroke-miterlimit: 10;
      }

      .cls-1 {
        stroke-width: 0.75px;
      }

      .cls-2, .cls-3, .cls-5, .cls-6 {
        fill: #1d1d1b;
      }

      .cls-3, .cls-5, .cls-6 {
        font-size: 12px;
      }

      .cls-3, .cls-6 {
        font-family: TimesNewRomanPSMT, Times New Roman;
      }

      .cls-4 {
        stroke-width: 0.75px;
      }

      .cls-5 {
        font-family: TimesNewRomanPS-ItalicMT, Times New Roman;
        font-style: italic;
      }

      .cls-6 {
        letter-spacing: -0.06em;
      }
    </style>
  </defs>
  <g>
    <line class="cls-1" x1="70.87" y1="80.72" x2="70.87" y2="40.98"/>
    <path class="cls-2" d="M324.37,201a14.06,14.06,0,0,1,2.22-4l-2.22.8-2.21-.8A14,14,0,0,1,324.37,201Z" transform="translate(-253.5 -117.5)"/>
    <path class="cls-2" d="M324.37,155.67a14.06,14.06,0,0,0,2.22,4l-2.22-.8-2.21.8A14,14,0,0,0,324.37,155.67Z" transform="translate(-253.5 -117.5)"/>
  </g>
  <g>
    <line class="cls-1" x1="162.98" y1="78.32" x2="162.98" y2="38.58"/>
    <path class="cls-2" d="M416.48,198.63a14.29,14.29,0,0,1,2.21-4l-2.21.8-2.21-.8A14,14,0,0,1,416.48,198.63Z" transform="translate(-253.5 -117.5)"/>
    <path class="cls-2" d="M416.48,153.27a14.15,14.15,0,0,0,2.21,4l-2.21-.8-2.21.8A13.9,13.9,0,0,0,416.48,153.27Z" transform="translate(-253.5 -117.5)"/>
  </g>
  <line class="cls-1" x1="7.41" y1="60.85" x2="237" y2="61"/>
  <text class="cls-3" transform="translate(154.8 29.77)">(L</text>
  <text class="cls-3" transform="translate(166.13 33.76) scale(0.58)">2</text>
  <text class="cls-3" transform="translate(169.62 29.77)">)</text>
  <text class="cls-3" transform="translate(61.38 30.22)">(L</text>
  <text class="cls-3" transform="translate(72.71 34.21) scale(0.58)">1</text>
  <text class="cls-3" transform="translate(76.2 30.22)">)</text>
  <g>
    <line class="cls-4" x1="76.99" y1="90.21" x2="156.87" y2="90.21"/>
    <path class="cls-2" d="M331.83,207.71l1.65-2.7-.09-.06L329,206.7l-4.61,1,4.61,1,4.41,1.75.09,0Z" transform="translate(-253.5 -117.5)"/>
    <path class="cls-2" d="M409,207.71l-1.64-2.7.09-.06,4.41,1.75,4.6,1-4.6,1-4.41,1.75-.09,0Z" transform="translate(-253.5 -117.5)"/>
  </g>
  <g>
    <line class="cls-4" x1="21.01" y1="90.16" x2="31.89" y2="90.06"/>
    <path class="cls-2" d="M275.86,207.65l1.62-2.72-.1-.06L273,206.66l-4.59,1.05,4.61,1,4.43,1.71.09,0Z" transform="translate(-253.5 -117.5)"/>
    <path class="cls-2" d="M284,207.57l-1.67-2.69.09-.06,4.43,1.71,4.61,1-4.6,1.06-4.39,1.79-.09,0Z" transform="translate(-253.5 -117.5)"/>
  </g>
  <g>
    <line class="cls-4" x1="191.88" y1="90.21" x2="204.44" y2="90.21"/>
    <path class="cls-2" d="M446.73,207.71l1.64-2.7-.09-.06-4.4,1.75-4.61,1,4.61,1,4.4,1.75.09,0Z" transform="translate(-253.5 -117.5)"/>
    <path class="cls-2" d="M456.59,207.71,455,205,455,205l4.41,1.75,4.6,1-4.6,1L455,210.48l-.09,0Z" transform="translate(-253.5 -117.5)"/>
  </g>
  <g>
    <line class="cls-1" x1="37.9" y1="80.72" x2="37.9" y2="40.98"/>
    <path class="cls-2" d="M291.4,201a14,14,0,0,1,2.21-4l-2.21.8-2.21-.8A14.29,14.29,0,0,1,291.4,201Z" transform="translate(-253.5 -117.5)"/>
    <path class="cls-2" d="M291.4,155.67a14,14,0,0,0,2.21,4l-2.21-.8-2.21.8A14.29,14.29,0,0,0,291.4,155.67Z" transform="translate(-253.5 -117.5)"/>
  </g>
  <line class="cls-4" x1="211.55" y1="83.12" x2="211.55" y2="37.76"/>
  <text class="cls-5" transform="translate(113.61 81.13)">d</text>
  <text class="cls-5" transform="translate(22.84 81.13)">d</text>
  <text class="cls-5" transform="translate(28.84 85.13) scale(0.58)">0</text>
  <text class="cls-5" transform="translate(195.58 81.13)">d</text>
  <text class="cls-5" transform="translate(201.58 85.13) scale(0.58)">3</text>
  <g>
    <line class="cls-4" x1="14.49" y1="60.85" x2="14.49" y2="47.95"/>
    <path class="cls-2" d="M268,162.64a14.29,14.29,0,0,0,2.21,4l-2.21-.8-2.21.8A14,14,0,0,0,268,162.64Z" transform="translate(-253.5 -117.5)"/>
  </g>
  <text class="cls-6" transform="translate(10.59 74.36)">A</text>
  <text class="cls-3" transform="translate(10.69 40.57)">B</text>
  <path class="cls-2" d="M297.55,133.21a6.28,6.28,0,0,0-.62-1.18,2.71,2.71,0,0,0-1-.8,9.87,9.87,0,0,0-1.21-.53,5.55,5.55,0,0,0-1.25-.27,39.1,39.1,0,0,0-5.33-.39c-1.8,0-3.6-.06-5.43-.24a12.72,12.72,0,0,1-2.73-.51,3.12,3.12,0,0,1-1.28-.78,3.64,3.64,0,0,1-.74-1.28v0h0l0-.1.67,0a3.77,3.77,0,0,1-.73,1.28,3.22,3.22,0,0,1-1.29.78,12.49,12.49,0,0,1-2.73.51c-1.82.18-3.63.19-5.42.24a38.87,38.87,0,0,0-5.33.39,6.4,6.4,0,0,0-1.26.26,11.78,11.78,0,0,0-1.21.54,2.79,2.79,0,0,0-1,.8,6.93,6.93,0,0,0-.62,1.18,7.06,7.06,0,0,1,.45-1.29,3,3,0,0,1,1-1,10.93,10.93,0,0,1,1.18-.72,6.19,6.19,0,0,1,1.35-.47,39.94,39.94,0,0,1,5.44-.4c1.8,0,3.6-.06,5.37-.23s3.74-.36,4.16-2.13l.3-1.25.37,1.28,0,.1v0c.43,1.77,2.45,1.92,4.17,2.13s3.57.18,5.37.23a40.18,40.18,0,0,1,5.44.4,6.29,6.29,0,0,1,1.34.47,11,11,0,0,1,1.19.71,3.06,3.06,0,0,1,1,1A7.86,7.86,0,0,1,297.55,133.21Z" transform="translate(-253.5 -117.5)"/>
  <path class="cls-2" d="M425,134.37a7.7,7.7,0,0,0-2.48-2.82,16.23,16.23,0,0,0-3.52-1.39,25.75,25.75,0,0,0-3.69-.9c-1.24-.2-2.51-.31-3.78-.4-5.06-.44-10.16-.5-15.26-.59s-10.2-.12-15.31-.39a73.1,73.1,0,0,1-7.65-.76,15.5,15.5,0,0,1-3.77-1.06,6.43,6.43,0,0,1-1.67-1.12,8,8,0,0,1-1.24-1.57v0l-.08-.18.62,0a8,8,0,0,1-1.24,1.57,6.32,6.32,0,0,1-1.68,1.12,15.75,15.75,0,0,1-3.76,1.06,73.1,73.1,0,0,1-7.65.76c-5.11.27-10.21.3-15.31.39s-10.21.15-15.27.59a28.68,28.68,0,0,0-7.46,1.29,17.31,17.31,0,0,0-3.52,1.39,7.72,7.72,0,0,0-2.48,2.83,7.83,7.83,0,0,1,2.38-3,16.49,16.49,0,0,1,3.51-1.58,25.81,25.81,0,0,1,3.7-1.09c1.26-.26,2.54-.43,3.81-.57,5.11-.45,10.21-.51,15.32-.6s10.2-.12,15.28-.39a73.21,73.21,0,0,0,7.57-.75,14.59,14.59,0,0,0,3.58-1,5.8,5.8,0,0,0,2.62-2.43l.33-.56.29.6.08.18,0,0a5.83,5.83,0,0,0,2.61,2.43,14.79,14.79,0,0,0,3.59,1,70.55,70.55,0,0,0,7.57.75c5.08.27,10.18.3,15.28.39s10.21.15,15.32.59c1.27.14,2.55.32,3.81.58a25.81,25.81,0,0,1,3.7,1.09,16.49,16.49,0,0,1,3.51,1.58A7.83,7.83,0,0,1,425,134.37Z" transform="translate(-253.5 -117.5)"/>
  <path class="cls-2" d="M470.33,133.37a6.61,6.61,0,0,0-.62-1.18,2.79,2.79,0,0,0-1-.8,9.87,9.87,0,0,0-1.21-.53,5.8,5.8,0,0,0-1.25-.27,39.1,39.1,0,0,0-5.33-.39c-1.8,0-3.61-.06-5.43-.24a12.6,12.6,0,0,1-2.73-.51,3.22,3.22,0,0,1-1.29-.78,3.77,3.77,0,0,1-.73-1.28v0h0l0-.1.67,0a3.77,3.77,0,0,1-.73,1.28,3.22,3.22,0,0,1-1.29.78,13.26,13.26,0,0,1-2.73.52c-1.82.17-3.63.18-5.43.23a39.1,39.1,0,0,0-5.33.39,6.15,6.15,0,0,0-1.25.26,11.78,11.78,0,0,0-1.21.54,2.71,2.71,0,0,0-1,.8,7,7,0,0,0-.62,1.18,7.06,7.06,0,0,1,.45-1.29,2.93,2.93,0,0,1,1-1,10,10,0,0,1,1.18-.72,6.9,6.9,0,0,1,1.34-.47,40.18,40.18,0,0,1,5.44-.4c1.81,0,3.61-.06,5.38-.23s3.74-.35,4.16-2.13l.3-1.25.37,1.28,0,.1v0c.42,1.77,2.45,1.92,4.16,2.13s3.57.18,5.38.23a40.18,40.18,0,0,1,5.44.4,6.29,6.29,0,0,1,1.34.47,10,10,0,0,1,1.18.71,3,3,0,0,1,1,1A7.06,7.06,0,0,1,470.33,133.37Z" transform="translate(-253.5 -117.5)"/>
  <g>
    <line class="cls-1" x1="185.55" y1="78.62" x2="185.55" y2="38.88"/>
    <path class="cls-2" d="M439.05,198.93a13.87,13.87,0,0,1,2.22-4l-2.22.8-2.21-.8A13.61,13.61,0,0,1,439.05,198.93Z" transform="translate(-253.5 -117.5)"/>
    <path class="cls-2" d="M439.05,153.58a14,14,0,0,0,2.22,4l-2.22-.8-2.21.8A13.74,13.74,0,0,0,439.05,153.58Z" transform="translate(-253.5 -117.5)"/>
  </g>
  <rect class="cls-7" width="240" height="96"/>
</svg>
