<svg xmlns="http://www.w3.org/2000/svg" xmlns:xlink="http://www.w3.org/1999/xlink" viewBox="0 0 1718.01 1380.96"><defs><style>.cls-1,.cls-14,.cls-19,.cls-2,.cls-26,.cls-28,.cls-5,.cls-8{fill:none;}.cls-2{stroke:#1d1d1b;stroke-miterlimit:10;stroke-width:4.25px;}.cls-3{clip-path:url(#clip-path);}.cls-4{fill:#d9d9d9;}.cls-19,.cls-20,.cls-4{stroke:#404040;}.cls-14,.cls-19,.cls-20,.cls-26,.cls-28,.cls-4,.cls-5,.cls-6,.cls-7,.cls-8{stroke-linejoin:round;}.cls-4,.cls-8{stroke-width:2.29px;}.cls-13,.cls-20,.cls-21,.cls-4,.cls-6,.cls-7,.cls-9{fill-rule:evenodd;}.cls-5{stroke:#bfbfbf;stroke-width:13.75px;}.cls-6{fill:#4f81bd;}.cls-14,.cls-6{stroke:#385d8a;}.cls-19,.cls-20,.cls-6,.cls-7{stroke-width:6.88px;}.cls-20,.cls-7{fill:#a6a6a6;}.cls-7{stroke:#376092;}.cls-28,.cls-8{stroke:#000;}.cls-9{fill:#404040;}.cls-10,.cls-11,.cls-12,.cls-15,.cls-17{isolation:isolate;}.cls-11{font-size:46px;}.cls-11,.cls-13,.cls-24{fill:#fff;}.cls-11,.cls-12,.cls-15{font-family:ArialMT, Arial;}.cls-12,.cls-17{font-size:32px;}.cls-14{stroke-width:9.17px;}.cls-15{font-size:28px;}.cls-16{letter-spacing:-0.04em;}.cls-17{font-family:Arial-BoldMT, Arial;font-weight:700;}.cls-18{letter-spacing:-0.07em;}.cls-22{letter-spacing:-0.02em;}.cls-23{clip-path:url(#clip-path-2);}.cls-25{clip-path:url(#clip-path-3);}.cls-26{stroke:#868686;stroke-width:3.44px;}.cls-27{clip-path:url(#clip-path-10);}.cls-28{stroke-linecap:round;stroke-width:4.58px;}</style><clipPath id="clip-path" transform="translate(0 -33.58)"><rect class="cls-1" x="12.9" width="1749" height="1438"/></clipPath><clipPath id="clip-path-2" transform="translate(0 -33.58)"><rect class="cls-1" x="32.98" y="142.08" width="793.7" height="793.7"/></clipPath><clipPath id="clip-path-3" transform="translate(0 -33.58)"><rect class="cls-1" x="34.09" y="143.18" width="789.28" height="789.28"/></clipPath><clipPath id="clip-path-10" transform="translate(0 -33.58)"><rect class="cls-1" x="89.36" y="198.45" width="682.05" height="682.05"/></clipPath></defs><g id="Calque_2" data-name="Calque 2"><g id="Calque_1-2" data-name="Calque 1"><rect class="cls-2" x="2.13" y="2.13" width="1713.76" height="1376.7" rx="143.6"/><g class="cls-3"><path class="cls-4" d="M895.9,1211a30,30,0,0,1,30-30h646a30,30,0,0,1,30,30v120a30,30,0,0,1-30,30h-646a30,30,0,0,1-30-30Z" transform="translate(0 -33.58)"/><path class="cls-5" d="M1285.9,324.5c0-78.7,64-142.5,143-142.5s143,63.8,143,142.5-64,142.5-143,142.5S1285.9,403.2,1285.9,324.5Z" transform="translate(0 -33.58)"/><path class="cls-6" d="M1476.88,269.34l33.24-19.79-22,31.84Z" transform="translate(0 -33.58)"/><path class="cls-7" d="M1358.4,326a71.5,71.5,0,1,1,71.5,71.5A71.5,71.5,0,0,1,1358.4,326Z" transform="translate(0 -33.58)"/><path class="cls-8" d="M1279.9,325.5A149.5,149.5,0,1,1,1429.4,475,149.5,149.5,0,0,1,1279.9,325.5Z" transform="translate(0 -33.58)"/><path class="cls-9" d="M1550.9,392.5a6.5,6.5,0,1,1,6.5,6.5A6.5,6.5,0,0,1,1550.9,392.5Z" transform="translate(0 -33.58)"/><path class="cls-9" d="M1564.9,346.5a6.5,6.5,0,1,1,6.5,6.5A6.5,6.5,0,0,1,1564.9,346.5Z" transform="translate(0 -33.58)"/><path class="cls-9" d="M1564.9,307a6.52,6.52,0,1,1,6.5,6A6.27,6.27,0,0,1,1564.9,307Z" transform="translate(0 -33.58)"/><path class="cls-9" d="M1295.9,390.5a6.5,6.5,0,1,1,6.5,6.5A6.5,6.5,0,0,1,1295.9,390.5Z" transform="translate(0 -33.58)"/><path class="cls-9" d="M1282.9,347.5a6,6,0,1,1,6,6.5A6.27,6.27,0,0,1,1282.9,347.5Z" transform="translate(0 -33.58)"/><path class="cls-9" d="M1295.9,260.5a6.5,6.5,0,1,1,6.5,6.5A6.5,6.5,0,0,1,1295.9,260.5Z" transform="translate(0 -33.58)"/><path class="cls-9" d="M1280.9,305.5a6.5,6.5,0,1,1,6.5,6.5A6.5,6.5,0,0,1,1280.9,305.5Z" transform="translate(0 -33.58)"/><path class="cls-9" d="M1325.9,223a6,6,0,1,1,6,6A6,6,0,0,1,1325.9,223Z" transform="translate(0 -33.58)"/><path class="cls-9" d="M1361.9,197.5a6.5,6.5,0,1,1,6.5,6.5A6.5,6.5,0,0,1,1361.9,197.5Z" transform="translate(0 -33.58)"/><path class="cls-9" d="M1445.9,184.5a6,6,0,1,1,6,6.5A6.27,6.27,0,0,1,1445.9,184.5Z" transform="translate(0 -33.58)"/><path class="cls-9" d="M1402.9,184.5a6.5,6.5,0,1,1,6.5,6.5A6.5,6.5,0,0,1,1402.9,184.5Z" transform="translate(0 -33.58)"/><path class="cls-9" d="M1488.9,199a6.52,6.52,0,1,1,6.5,6A6.27,6.27,0,0,1,1488.9,199Z" transform="translate(0 -33.58)"/><path class="cls-9" d="M1523.9,225.5a6.5,6.5,0,1,1,6.5,6.5A6.5,6.5,0,0,1,1523.9,225.5Z" transform="translate(0 -33.58)"/><path class="cls-9" d="M1550.9,261.5a6.5,6.5,0,1,1,6.5,6.5A6.5,6.5,0,0,1,1550.9,261.5Z" transform="translate(0 -33.58)"/><g class="cls-10"><text class="cls-11" transform="translate(1545.8 191.42)">0</text></g><path class="cls-9" d="M1322.9,426.5a6.5,6.5,0,1,1,6.5,6.5A6.5,6.5,0,0,1,1322.9,426.5Z" transform="translate(0 -33.58)"/><path class="cls-9" d="M1359.9,453.5a6,6,0,1,1,6,6.5A6.27,6.27,0,0,1,1359.9,453.5Z" transform="translate(0 -33.58)"/><path class="cls-9" d="M1400.9,467.5a6,6,0,1,1,6,6.5A6.27,6.27,0,0,1,1400.9,467.5Z" transform="translate(0 -33.58)"/><path class="cls-9" d="M1523.9,427.5a6,6,0,1,1,6,6.5A6.27,6.27,0,0,1,1523.9,427.5Z" transform="translate(0 -33.58)"/><path class="cls-9" d="M1487.9,453.5a6.5,6.5,0,1,1,6.5,6.5A6.5,6.5,0,0,1,1487.9,453.5Z" transform="translate(0 -33.58)"/><path class="cls-9" d="M1443.9,467.5a6,6,0,1,1,6,6.5A6.27,6.27,0,0,1,1443.9,467.5Z" transform="translate(0 -33.58)"/><g class="cls-10"><text class="cls-12" transform="translate(1445.68 467.42)">.</text><text class="cls-12" transform="translate(1453.77 467.42)">1</text><text class="cls-12" transform="translate(1498.33 449.42)">.</text><text class="cls-12" transform="translate(1506.42 449.42)">2</text><text class="cls-12" transform="translate(1537.77 417.42)">.</text><text class="cls-12" transform="translate(1545.86 417.42)">5</text><text class="cls-12" transform="translate(1571.44 380.42)">1</text><text class="cls-12" transform="translate(1590.34 329.42)">2</text><text class="cls-12" transform="translate(1593.78 283.42)">5</text><text class="cls-12" transform="translate(1576.96 234.42)">10</text><text class="cls-12" transform="translate(1548.97 186.42)">20</text><text class="cls-12" transform="translate(1510.74 148.42)">50</text><text class="cls-12" transform="translate(1442.49 131.42)">.</text><text class="cls-12" transform="translate(1450.58 131.42)">1</text><text class="cls-12" transform="translate(1387.77 129.42)">.</text><text class="cls-12" transform="translate(1395.86 129.42)">2</text><text class="cls-12" transform="translate(1340.26 147.42)">.</text><text class="cls-12" transform="translate(1348.35 147.42)">5</text><text class="cls-12" transform="translate(1297.26 175.42)">1</text><text class="cls-12" transform="translate(1262.57 227.42)">2</text><text class="cls-12" transform="translate(1248.58 277.42)">5</text><text class="cls-12" transform="translate(1236.57 326.42)">10</text><text class="cls-12" transform="translate(1255.06 379.42)">20</text><text class="cls-12" transform="translate(1282.12 421.42)">50</text><text class="cls-12" transform="translate(1331.77 453.42)">.</text><text class="cls-12" transform="translate(1339.86 453.42)">1</text><text class="cls-12" transform="translate(1356.13 453.42)">s</text><text class="cls-12" transform="translate(1380.43 467.42)">.</text><text class="cls-12" transform="translate(1388.52 467.42)">2</text><text class="cls-12" transform="translate(1404.79 467.42)">s</text></g><path class="cls-13" d="M1492.5,215.87c-16.43-6.7-26.72-19.57-23-28.75s20.09-11.2,36.52-4.5c-19.24.19-27.87,11.86-19.29,26.06A37.78,37.78,0,0,0,1492.5,215.87Z" transform="translate(0 -33.58)"/><path class="cls-13" d="M1453.1,165.9c19.3,6.11,32.53,18.69,29.56,28.09s-21,12.09-40.34,6c21.53-1,29.67-13.07,18.17-27A45.91,45.91,0,0,0,1453.1,165.9Z" transform="translate(0 -33.58)"/><path class="cls-13" d="M1335.23,410.55c15.87,12.56,23.77,29,17.65,36.75s-20,5.4-35.84-7.16c20.47,6.76,28.38-3.25,22.6-20.41A45.76,45.76,0,0,0,1335.23,410.55Z" transform="translate(0 -33.58)"/><path class="cls-13" d="M1360.94,468.58c-17.74-9.73-26.52-21-21.78-29.62s23-7.78,40.73,2c-21.31-3.24-31.64,7.06-23.07,23C1358.29,466.66,1358.51,465.8,1360.94,468.58Z" transform="translate(0 -33.58)"/><path class="cls-13" d="M1404.15,447.88c19.8,4.2,34.19,15.44,32.14,25.09s-11.87,12.31-31.67,8.11c21.34-3,20.37-14.12,7.57-26.93A46.16,46.16,0,0,0,1404.15,447.88Z" transform="translate(0 -33.58)"/><path class="cls-13" d="M1454,484c-20.21,1.17-31.28-5-31.85-14.84s15.35-18.79,35.55-20C1438,457.8,1434.67,472,1450.39,481,1453.09,482.53,1450.49,483,1454,484Z" transform="translate(0 -33.58)"/><g class="cls-10"><text class="cls-12" transform="translate(1557.87 458.42)">μs</text><text class="cls-12" transform="translate(1263.75 131.42)">ms</text></g><path class="cls-5" d="M890.9,888a143,143,0,1,1,143,143A143,143,0,0,1,890.9,888Z" transform="translate(0 -33.58)"/><path class="cls-6" d="M1026.4,817.5l8.5-38,8.5,38Z" transform="translate(0 -33.58)"/><path class="cls-7" d="M963.4,889c0-39.49,31.79-71.5,71-71.5s71,32,71,71.5-31.79,71.5-71,71.5S963.4,928.49,963.4,889Z" transform="translate(0 -33.58)"/><path class="cls-8" d="M884.9,888a149,149,0,1,1,149,149A149,149,0,0,1,884.9,888Z" transform="translate(0 -33.58)"/><path class="cls-9" d="M1109.9,1005.5a6.5,6.5,0,1,1,6.5,6.5A6.5,6.5,0,0,1,1109.9,1005.5Z" transform="translate(0 -33.58)"/><path class="cls-9" d="M1144.9,969.5a6.5,6.5,0,1,1,6.5,6.5A6.5,6.5,0,0,1,1144.9,969.5Z" transform="translate(0 -33.58)"/><path class="cls-9" d="M1165.9,922.5a6.5,6.5,0,1,1,6.5,6.5A6.5,6.5,0,0,1,1165.9,922.5Z" transform="translate(0 -33.58)"/><path class="cls-9" d="M927.9,989.5a6.5,6.5,0,1,1,6.5,6.5A6.5,6.5,0,0,1,927.9,989.5Z" transform="translate(0 -33.58)"/><path class="cls-9" d="M897.9,947.5a6.5,6.5,0,1,1,6.5,6.5A6.5,6.5,0,0,1,897.9,947.5Z" transform="translate(0 -33.58)"/><path class="cls-9" d="M885.9,892.5a6,6,0,1,1,6,6.5A6.27,6.27,0,0,1,885.9,892.5Z" transform="translate(0 -33.58)"/><path class="cls-9" d="M895.9,836a6.52,6.52,0,1,1,6.5,6A6.27,6.27,0,0,1,895.9,836Z" transform="translate(0 -33.58)"/><path class="cls-9" d="M922.9,792.5a6.5,6.5,0,1,1,6.5,6.5A6.5,6.5,0,0,1,922.9,792.5Z" transform="translate(0 -33.58)"/><path class="cls-9" d="M962.9,761.5a6.5,6.5,0,1,1,6.5,6.5A6.5,6.5,0,0,1,962.9,761.5Z" transform="translate(0 -33.58)"/><path class="cls-9" d="M1023.9,746a6,6,0,1,1,6,6A6,6,0,0,1,1023.9,746Z" transform="translate(0 -33.58)"/><path class="cls-9" d="M1075.9,755.5a6.5,6.5,0,1,1,6.5,6.5A6.5,6.5,0,0,1,1075.9,755.5Z" transform="translate(0 -33.58)"/><path class="cls-9" d="M1121.9,782.5a6.5,6.5,0,1,1,6.5,6.5A6.5,6.5,0,0,1,1121.9,782.5Z" transform="translate(0 -33.58)"/><path class="cls-9" d="M1153.9,823.5a6.5,6.5,0,1,1,6.5,6.5A6.5,6.5,0,0,1,1153.9,823.5Z" transform="translate(0 -33.58)"/><path class="cls-9" d="M1168.9,866.5a6.5,6.5,0,1,1,6.5,6.5A6.5,6.5,0,0,1,1168.9,866.5Z" transform="translate(0 -33.58)"/><g class="cls-10"><text class="cls-12" transform="translate(1122.9 1006.42)">1</text><text class="cls-12" transform="translate(1166.98 964.42)">2</text><text class="cls-12" transform="translate(1191.69 900.42)">5</text><text class="cls-12" transform="translate(1191.69 840.42)">10</text><text class="cls-12" transform="translate(1178.87 784.42)">20</text><text class="cls-12" transform="translate(1072.74 698.42)">.</text><text class="cls-12" transform="translate(1080.83 698.42)">1</text><text class="cls-12" transform="translate(1016.38 686.42)">.</text><text class="cls-12" transform="translate(1024.47 686.42)">2</text><text class="cls-12" transform="translate(948.94 703.42)">.</text><text class="cls-12" transform="translate(957.03 703.42)">5</text><text class="cls-12" transform="translate(889.98 745.42)">1</text><text class="cls-12" transform="translate(855.41 806.42)">2</text><text class="cls-12" transform="translate(850.66 867.42)">5</text><text class="cls-12" transform="translate(855.41 931.42)">10</text><text class="cls-12" transform="translate(889.98 984.42)">20</text><text class="cls-12" transform="translate(1060.97 1028.42)">mV</text><text class="cls-12" transform="translate(946.96 1020.42)">V</text><text class="cls-12" transform="translate(1130.84 734.42)">50</text></g><path class="cls-5" d="M1308.9,888a143,143,0,1,1,143,143A143,143,0,0,1,1308.9,888Z" transform="translate(0 -33.58)"/><path class="cls-6" d="M1444.4,817.5l8.5-38,8.5,38Z" transform="translate(0 -33.58)"/><path class="cls-7" d="M1381.4,888.5c0-39.21,32-71,71.5-71s71.5,31.79,71.5,71-32,71-71.5,71S1381.4,927.71,1381.4,888.5Z" transform="translate(0 -33.58)"/><path class="cls-8" d="M1302.9,888c0-82.29,66.93-149,149.5-149s149.5,66.71,149.5,149-66.93,149-149.5,149S1302.9,970.29,1302.9,888Z" transform="translate(0 -33.58)"/><path class="cls-9" d="M1527.9,1005.5a6.5,6.5,0,1,1,6.5,6.5A6.5,6.5,0,0,1,1527.9,1005.5Z" transform="translate(0 -33.58)"/><path class="cls-9" d="M1563.9,969.5a6,6,0,1,1,6,6.5A6.27,6.27,0,0,1,1563.9,969.5Z" transform="translate(0 -33.58)"/><path class="cls-9" d="M1583.9,922.5a6.5,6.5,0,1,1,6.5,6.5A6.5,6.5,0,0,1,1583.9,922.5Z" transform="translate(0 -33.58)"/><path class="cls-9" d="M1345.9,989.5a6.5,6.5,0,1,1,6.5,6.5A6.5,6.5,0,0,1,1345.9,989.5Z" transform="translate(0 -33.58)"/><path class="cls-9" d="M1315.9,947a6.52,6.52,0,1,1,6.5,6A6.27,6.27,0,0,1,1315.9,947Z" transform="translate(0 -33.58)"/><path class="cls-9" d="M1303.9,892.5a6.5,6.5,0,1,1,6.5,6.5A6.5,6.5,0,0,1,1303.9,892.5Z" transform="translate(0 -33.58)"/><path class="cls-9" d="M1314.9,836a6,6,0,1,1,6,6A6,6,0,0,1,1314.9,836Z" transform="translate(0 -33.58)"/><path class="cls-9" d="M1341.9,792.5a6,6,0,1,1,6,6.5A6.27,6.27,0,0,1,1341.9,792.5Z" transform="translate(0 -33.58)"/><path class="cls-9" d="M1381.9,761.5a6,6,0,1,1,6,6.5A6.27,6.27,0,0,1,1381.9,761.5Z" transform="translate(0 -33.58)"/><path class="cls-9" d="M1441.9,746a6.52,6.52,0,1,1,6.5,6A6.27,6.27,0,0,1,1441.9,746Z" transform="translate(0 -33.58)"/><path class="cls-9" d="M1493.9,755.5a6.5,6.5,0,1,1,6.5,6.5A6.5,6.5,0,0,1,1493.9,755.5Z" transform="translate(0 -33.58)"/><path class="cls-9" d="M1539.9,782.5a6.5,6.5,0,1,1,6.5,6.5A6.5,6.5,0,0,1,1539.9,782.5Z" transform="translate(0 -33.58)"/><path class="cls-9" d="M1571.9,823.5a6.5,6.5,0,1,1,6.5,6.5A6.5,6.5,0,0,1,1571.9,823.5Z" transform="translate(0 -33.58)"/><path class="cls-9" d="M1586.9,866.5a6.5,6.5,0,1,1,6.5,6.5A6.5,6.5,0,0,1,1586.9,866.5Z" transform="translate(0 -33.58)"/><g class="cls-10"><text class="cls-12" transform="translate(1541.17 1006.42)">1</text><text class="cls-12" transform="translate(1585.25 964.42)">2</text><text class="cls-12" transform="translate(1609.96 900.42)">5</text><text class="cls-12" transform="translate(1609.96 840.42)">10</text><text class="cls-12" transform="translate(1597.14 784.42)">20</text><text class="cls-12" transform="translate(1491.01 698.42)">.</text><text class="cls-12" transform="translate(1499.1 698.42)">1</text><text class="cls-12" transform="translate(1434.65 686.42)">.</text><text class="cls-12" transform="translate(1442.74 686.42)">2</text><text class="cls-12" transform="translate(1367.21 703.42)">.</text><text class="cls-12" transform="translate(1375.3 703.42)">5</text><text class="cls-12" transform="translate(1308.25 745.42)">1</text><text class="cls-12" transform="translate(1273.68 806.42)">2</text><text class="cls-12" transform="translate(1268.94 867.42)">5</text><text class="cls-12" transform="translate(1273.68 931.42)">10</text><text class="cls-12" transform="translate(1308.25 983.42)">20</text><text class="cls-12" transform="translate(1479.23 1028.42)">mV</text><text class="cls-12" transform="translate(1365.23 1020.42)">V</text><text class="cls-12" transform="translate(1549.11 734.42)">50</text></g><path class="cls-14" d="M864.4,286.33a6.83,6.83,0,0,1,6.83-6.83h62.34a6.83,6.83,0,0,1,6.83,6.83v27.34a6.83,6.83,0,0,1-6.83,6.83H871.23a6.83,6.83,0,0,1-6.83-6.83Z" transform="translate(0 -33.58)"/><g class="cls-10"><text class="cls-12" transform="translate(873.36 276.42)">CH</text><text class="cls-12" transform="translate(918.33 276.81)">1</text></g><path class="cls-14" d="M863.4,437.33a6.83,6.83,0,0,1,6.83-6.83h63.34a6.83,6.83,0,0,1,6.83,6.83v27.34a6.83,6.83,0,0,1-6.83,6.83H870.23a6.83,6.83,0,0,1-6.83-6.83Z" transform="translate(0 -33.58)"/><text class="cls-15" transform="translate(869 425.42)">DUA<tspan class="cls-16" x="59.12" y="0">L</tspan></text><path class="cls-14" d="M863.4,363.33a6.83,6.83,0,0,1,6.83-6.83h63.34a6.83,6.83,0,0,1,6.83,6.83v27.34a6.83,6.83,0,0,1-6.83,6.83H870.23a6.83,6.83,0,0,1-6.83-6.83Z" transform="translate(0 -33.58)"/><g class="cls-10"><text class="cls-12" transform="translate(871.16 352.81)">CH</text><text class="cls-12" transform="translate(916.98 352.42)">2</text></g><path class="cls-14" d="M864.4,183.33a6.83,6.83,0,0,1,6.83-6.83h41.34a6.83,6.83,0,0,1,6.83,6.83v27.34a6.83,6.83,0,0,1-6.83,6.83H871.23a6.83,6.83,0,0,1-6.83-6.83Z" transform="translate(0 -33.58)"/><text class="cls-12" transform="translate(884.73 173.42)">–</text><path class="cls-14" d="M1062.4,1135.33a6.83,6.83,0,0,1,6.83-6.83h62.34a6.83,6.83,0,0,1,6.83,6.83v27.34a6.83,6.83,0,0,1-6.83,6.83h-62.34a6.83,6.83,0,0,1-6.83-6.83Z" transform="translate(0 -33.58)"/><text class="cls-15" transform="translate(1069.21 1124.76)">GND</text><path class="cls-14" d="M945.4,1137.33a6.83,6.83,0,0,1,6.84-6.83h63.33a6.83,6.83,0,0,1,6.83,6.83v27.34a6.83,6.83,0,0,1-6.83,6.83H952.24a6.83,6.83,0,0,1-6.84-6.83Z" transform="translate(0 -33.58)"/><text class="cls-12" transform="translate(963.4 1129.4)">AC</text><path class="cls-14" d="M936.4,183.33a6.83,6.83,0,0,1,6.84-6.83h40.33a6.83,6.83,0,0,1,6.83,6.83v27.34a6.83,6.83,0,0,1-6.83,6.83H943.24a6.83,6.83,0,0,1-6.84-6.83Z" transform="translate(0 -33.58)"/><text class="cls-12" transform="translate(956.34 173.42)">+</text><path class="cls-7" d="M997.4,605a32.5,32.5,0,1,1,32.5,32.5A32.5,32.5,0,0,1,997.4,605Z" transform="translate(0 -33.58)"/><path class="cls-7" d="M1411.4,605a32.5,32.5,0,1,1,32.5,32.5A32.5,32.5,0,0,1,1411.4,605Z" transform="translate(0 -33.58)"/><path class="cls-14" d="M1475.4,1134.33a6.83,6.83,0,0,1,6.83-6.83h63.34a6.83,6.83,0,0,1,6.83,6.83v27.34a6.83,6.83,0,0,1-6.83,6.83h-63.34a6.83,6.83,0,0,1-6.83-6.83Z" transform="translate(0 -33.58)"/><text class="cls-15" transform="translate(1483 1124.42)">GND</text><path class="cls-14" d="M1356.4,1134.33a6.83,6.83,0,0,1,6.83-6.83h63.34a6.83,6.83,0,0,1,6.83,6.83v27.34a6.83,6.83,0,0,1-6.83,6.83h-63.34a6.83,6.83,0,0,1-6.83-6.83Z" transform="translate(0 -33.58)"/><text class="cls-12" transform="translate(1371.96 1125.42)">AC</text><text class="cls-17" transform="translate(1377.24 649.42)">VO<tspan class="cls-18" x="46.23" y="0">L</tspan><tspan x="63.41" y="0">TS/DIV</tspan></text><text class="cls-17" transform="translate(945.96 651.42)">VO<tspan class="cls-18" x="46.23" y="0">L</tspan><tspan x="63.41" y="0">TS/DIV</tspan></text><text class="cls-15" transform="translate(965.91 527.42)">POSITION</text><text class="cls-15" transform="translate(1106.52 527.76)">1</text><text class="cls-15" transform="translate(1357.12 527.42)">POSITION</text><text class="cls-15" transform="translate(1498.38 527.42)">2</text><text class="cls-17" transform="translate(1354.39 85.42)">TIME/DIV</text><path class="cls-7" d="M1067.4,360a32.5,32.5,0,1,1,32.5,32.5A32.5,32.5,0,0,1,1067.4,360Z" transform="translate(0 -33.58)"/><g class="cls-10"><text class="cls-15" transform="translate(1032.33 283.42)">X</text><text class="cls-15" transform="translate(1046.61 283.42)">-</text><text class="cls-15" transform="translate(1055.02 283.42)">POSITION</text></g><path class="cls-19" d="M990.4,1263.5h103.94" transform="translate(0 -33.58)"/><path class="cls-20" d="M1003.4,1263.5a39,39,0,1,1,39,39A39,39,0,0,1,1003.4,1263.5Z" transform="translate(0 -33.58)"/><path class="cls-21" d="M1037.9,1263.5a6.5,6.5,0,1,1,6.5,6.5A6.5,6.5,0,0,1,1037.9,1263.5Z" transform="translate(0 -33.58)"/><path class="cls-19" d="M1408.4,1264.5h103.81" transform="translate(0 -33.58)"/><path class="cls-20" d="M1422.4,1264.5a39,39,0,1,1,39,39A39,39,0,0,1,1422.4,1264.5Z" transform="translate(0 -33.58)"/><path class="cls-21" d="M1455.9,1263.5a6.5,6.5,0,1,1,6.5,6.5A6.5,6.5,0,0,1,1455.9,1263.5Z" transform="translate(0 -33.58)"/><g class="cls-10"><text class="cls-17" transform="translate(1194.58 1235.42)">INPUTS</text><text class="cls-15" transform="translate(1016.1 1180.42)">CH</text><text class="cls-15" transform="translate(1054.12 1180.42)">1</text><text class="cls-15" transform="translate(1439.9 1180.42)">CH</text><text class="cls-15" transform="translate(1477.92 1180.42)">2</text><text class="cls-15" transform="translate(878.78 124.42)">ADJUS<tspan class="cls-22" x="91.79" y="0">T</tspan></text></g><path class="cls-14" d="M1020.4,184.33a6.83,6.83,0,0,1,6.83-6.83h62.34a6.83,6.83,0,0,1,6.83,6.83v27.34a6.83,6.83,0,0,1-6.83,6.83h-62.34a6.83,6.83,0,0,1-6.83-6.83Z" transform="translate(0 -33.58)"/><g class="cls-10"><text class="cls-15" transform="translate(1007.36 125.42)">SELEC<tspan class="cls-22" x="91.82" y="0">T</tspan></text><text class="cls-12" transform="translate(969.56 1085.42)">DC</text><text class="cls-12" transform="translate(1374.45 1085.42)">DC</text></g><path class="cls-13" d="M1500.52,737.32c19.3,6.1,32.53,18.68,29.56,28.09s-19.47,6.68-38.77.58c21.53-1,28.1-7.66,16.6-21.65A45.88,45.88,0,0,0,1500.52,737.32Z" transform="translate(0 -33.58)"/><path class="cls-13" d="M1539.9,798.5c-15.18-13.38-23.69-32.18-17.17-39.59s22,1.58,37.22,15c-20.07-7.83-28.41-2.32-23.54,15.12A43.47,43.47,0,0,0,1539.9,798.5Z" transform="translate(0 -33.58)"/><path class="cls-13" d="M1084.15,738.68c19.49,5.46,33.14,17.58,30.49,27.08s-19.24,7.34-38.74,1.89c21.49-1.68,27.83-8.6,15.87-22.2A46.14,46.14,0,0,0,1084.15,738.68Z" transform="translate(0 -33.58)"/><path class="cls-13" d="M1127.52,799.67c-17.75-9.73-30.17-26.2-25.44-34.86s21.85-3.29,39.6,6.44c-21.3-3.24-28.23,4-19.65,19.92A43.57,43.57,0,0,0,1127.52,799.67Z" transform="translate(0 -33.58)"/></g><g class="cls-23"><rect class="cls-24" x="34.09" y="109.6" width="790.38" height="790.38"/><g class="cls-25"><rect class="cls-24" x="90.47" y="164.88" width="677.63" height="678.74"/></g><g class="cls-25"><path class="cls-26" d="M89.91,877.74H768.65M89.91,809.25H768.65M89.91,741.81H768.65M89.91,674.38H768.65M89.91,605.84H768.65m-678.74-136H768.65M89.91,402.43H768.65M89.91,335H768.65M89.91,266.46H768.65M89.91,199H768.65" transform="translate(0 -33.58)"/></g><g class="cls-25"><path class="cls-26" d="M89.91,199V877.74M157.36,199V877.74M225.9,199V877.74M293.33,199V877.74M361.87,199V877.74M496.74,199V877.74M565.28,199V877.74M632.71,199V877.74M700.14,199V877.74M768.65,199V877.74" transform="translate(0 -33.58)"/></g><g class="cls-25"><path class="cls-26" d="M429.28,877.74V199" transform="translate(0 -33.58)"/></g><g class="cls-25"><path class="cls-26" d="M429.3,877.74h12.14M429.3,863.42h12.14M429.3,850.15h12.14M429.3,836.89h12.14M429.3,823.62h12.14M429.3,809.25h12.14M429.3,796h12.14M429.3,782.72h12.14M429.3,768.34h12.14M429.3,755.07h12.14M429.3,741.81h12.14M429.3,728.54h12.14M429.3,714.17h12.14M429.3,700.91h12.14M429.3,687.64h12.14M429.3,674.38h12.14M429.3,660h12.14M429.3,646.74h12.14M429.3,633.48h12.14M429.3,619.1h12.14M429.3,605.84h12.14M429.3,592.57h12.14M429.3,579.31h12.14M429.3,564.94h12.14M429.3,551.67h12.14M429.3,538.4h12.14M429.3,525.14h12.14M429.3,510.77h12.14M429.3,497.5h12.14M429.3,484.24h12.14M429.3,469.87h12.14M429.3,456.6h12.14M429.3,443.33h12.14M429.3,430.07h12.14M429.3,415.7h12.14M429.3,402.43h12.14M429.3,389.17h12.14M429.3,375.9h12.14M429.3,361.53h12.14M429.3,348.26h12.14M429.3,335h12.14M429.3,320.63h12.14M429.3,307.36h12.14M429.3,294.1h12.14M429.3,280.83h12.14M429.3,266.46h12.14M429.3,253.19h12.14M429.3,239.93h12.14M429.3,226.66h12.14M429.3,212.29h12.14M429.3,199h12.14M412.7,877.74h16.6m-16.6-68.49h16.6m-16.6-67.44h16.6m-16.6-67.43h16.6m-16.6-68.54h16.6M412.7,538.4h16.6m-16.6-68.53h16.6m-16.6-67.44h16.6M412.7,335h16.6m-16.6-68.54h16.6M412.7,199h16.6" transform="translate(0 -33.58)"/></g><g class="cls-25"><path class="cls-26" d="M89.91,538.37H768.65" transform="translate(0 -33.58)"/></g><g class="cls-25"><path class="cls-26" d="M89.91,526.21V538.4m13.28-12.19V538.4m14.37-12.19V538.4m13.27-12.19V538.4m13.26-12.19V538.4m13.27-12.19V538.4m14.37-12.19V538.4M185,526.21V538.4m13.27-12.19V538.4m14.37-12.19V538.4m13.27-12.19V538.4m13.26-12.19V538.4m13.27-12.19V538.4m14.37-12.19V538.4m13.27-12.19V538.4m13.26-12.19V538.4m13.27-12.19V538.4M321,526.21V538.4m13.26-12.19V538.4m13.27-12.19V538.4m14.37-12.19V538.4m13.27-12.19V538.4m13.26-12.19V538.4m13.27-12.19V538.4M416,526.21V538.4m13.26-12.19V538.4m13.27-12.19V538.4m13.26-12.19V538.4m14.38-12.19V538.4m13.26-12.19V538.4m13.27-12.19V538.4m14.37-12.19V538.4m13.26-12.19V538.4m13.27-12.19V538.4m13.26-12.19V538.4m14.38-12.19V538.4m13.26-12.19V538.4m13.27-12.19V538.4m13.26-12.19V538.4m14.37-12.19V538.4m13.27-12.19V538.4M646,526.21V538.4m14.37-12.19V538.4m13.26-12.19V538.4m13.27-12.19V538.4m13.26-12.19V538.4m14.37-12.19V538.4m13.27-12.19V538.4m13.27-12.19V538.4m13.26-12.19V538.4m14.34-12.19V538.4m-678.74,0v15.45m67.45-15.45v15.45M225.9,538.4v15.45m67.43-15.45v15.45m68.54-15.45v15.45M429.3,538.4v15.45m67.44-15.45v15.45m68.54-15.45v15.45m67.43-15.45v15.45m67.43-15.45v15.45m68.51-15.45v15.45" transform="translate(0 -33.58)"/></g><g class="cls-27"><path class="cls-28" d="M89.91,559.39c2.27-10.76,4.53-21.57,6.79-32.28s4.52-21.52,6.79-32,4.52-20.92,6.79-30.91,4.52-19.79,6.78-29,4.53-18.16,6.79-26.42,4.52-16.08,6.79-23.16,4.52-13.58,6.78-19.29a146.33,146.33,0,0,1,6.79-14.94A55.66,55.66,0,0,1,151,341.13a18.42,18.42,0,0,1,6.79-5.23,9.28,9.28,0,0,1,6.78-.11,17.6,17.6,0,0,1,6.79,5,53.32,53.32,0,0,1,6.79,10,139.83,139.83,0,0,1,6.79,14.75c2.26,5.64,4.52,12.09,6.78,19.11s4.53,14.78,6.79,23,4.53,17.1,6.79,26.3,4.52,19,6.79,28.94,4.52,20.38,6.78,30.85,4.53,21.26,6.79,32,4.52,21.61,6.79,32.3,4.52,21.41,6.78,31.79,4.53,20.68,6.79,30.5,4.53,19.41,6.79,28.42,4.52,17.67,6.79,25.64,4.52,15.46,6.78,22.2,4.53,12.87,6.79,18.2A115.12,115.12,0,0,0,280,728.5a42.05,42.05,0,0,0,6.79,8.93,14.19,14.19,0,0,0,6.78,3.9,9.79,9.79,0,0,0,6.79-1.24,23.36,23.36,0,0,0,6.79-6.32,70.2,70.2,0,0,0,6.79-11.26,173.07,173.07,0,0,0,6.78-15.93c2.27-6,4.53-12.83,6.79-20.18S332,671,334.26,662.49s4.52-17.63,6.79-27.06,4.52-19.39,6.78-29.51,4.53-20.66,6.79-31.22,4.52-21.4,6.79-32.13,4.52-21.61,6.78-32.24,4.53-21.28,6.79-31.54,4.53-20.4,6.79-30,4.52-19,6.79-27.76,4.52-17.13,6.78-24.8,4.53-14.82,6.79-21.2,4.53-12.15,6.79-17.08a88.8,88.8,0,0,1,6.79-12.51,31.51,31.51,0,0,1,6.78-7.64,10.25,10.25,0,0,1,13.58,0,31.74,31.74,0,0,1,6.79,7.64,89.88,89.88,0,0,1,6.78,12.51c2.27,4.93,4.53,10.7,6.79,17.08s4.52,13.53,6.79,21.2,4.52,16,6.78,24.8,4.53,18.13,6.79,27.76,4.53,19.77,6.79,30,4.52,20.91,6.79,31.54,4.52,21.51,6.78,32.24,4.53,21.57,6.79,32.13,4.53,21.1,6.79,31.22,4.52,20.08,6.79,29.51S522,654,524.3,662.49s4.53,16.56,6.79,23.91,4.53,14.16,6.79,20.18a170.22,170.22,0,0,0,6.79,15.93,69.5,69.5,0,0,0,6.78,11.26,23.36,23.36,0,0,0,6.79,6.32,9.8,9.8,0,0,0,6.79,1.24,14.26,14.26,0,0,0,6.79-3.9,42.38,42.38,0,0,0,6.78-8.93,113.62,113.62,0,0,0,6.79-13.74c2.26-5.33,4.52-11.47,6.79-18.2s4.52-14.23,6.78-22.2,4.53-16.63,6.79-25.64,4.53-18.6,6.79-28.42,4.52-20.11,6.79-30.5,4.52-21.11,6.78-31.79,4.53-21.59,6.79-32.3,4.53-21.5,6.79-32,4.52-20.88,6.79-30.85S651,443.16,653.26,434s4.53-18.08,6.79-26.3,4.53-16,6.79-23,4.52-13.47,6.79-19.11a137.93,137.93,0,0,1,6.78-14.75,53.32,53.32,0,0,1,6.79-10,17.6,17.6,0,0,1,6.79-5,9.31,9.31,0,0,1,6.79.11,18.48,18.48,0,0,1,6.78,5.23,55.66,55.66,0,0,1,6.79,10.21,146.33,146.33,0,0,1,6.79,14.94c2.26,5.71,4.52,12.22,6.78,19.29s4.53,14.89,6.79,23.16,4.53,17.18,6.79,26.42,4.52,19.05,6.79,29,4.52,20.43,6.78,30.91,4.53,21.29,6.79,32,4.53,21.52,6.79,32.28" transform="translate(0 -33.58)"/></g><rect class="cls-26" x="34.64" y="110.16" width="790.38" height="790.38"/></g></g></g></svg>