<svg id="Calque_1" data-name="Calque 1" xmlns="http://www.w3.org/2000/svg" viewBox="0 0 145.93 38.19"><defs><style>.cls-1{font-size:9.96px;font-family:CMR10;}.cls-2{font-size:6.97px;font-family:CMR7;}.cls-3{fill:none;stroke:#000;stroke-miterlimit:10;stroke-width:0.4px;}</style></defs><text class="cls-1" transform="translate(8.3 31.71)">C</text><text class="cls-1" transform="translate(15.5 31.71)">H</text><text class="cls-2" transform="translate(22.97 33.21)">3</text><text class="cls-1" transform="translate(37.8 31.71)">C</text><text class="cls-1" transform="translate(44.99 31.71)">H</text><line class="cls-3" x1="29.43" y1="29.06" x2="35.8" y2="29.06"/><text class="cls-1" transform="translate(37.8 12.54)">C</text><text class="cls-1" transform="translate(44.99 12.54)">H</text><text class="cls-2" transform="translate(52.46 14.03)">3</text><line class="cls-3" x1="41.39" y1="22.91" x2="41.39" y2="14.53"/><text class="cls-1" transform="translate(65.06 31.71)">C</text><text class="cls-1" transform="translate(72.25 31.71)">H</text><line class="cls-3" x1="54.46" y1="28.31" x2="63.06" y2="28.31"/><text class="cls-1" transform="translate(65.06 11.79)">C</text><text class="cls-1" transform="translate(72.25 11.79)">H</text><text class="cls-2" transform="translate(79.72 13.28)">2</text><line class="cls-3" x1="68.65" y1="22.91" x2="68.65" y2="13.78"/><text class="cls-1" transform="translate(94.55 11.79)">C</text><text class="cls-1" transform="translate(101.74 11.79)">H</text><text class="cls-2" transform="translate(109.22 13.28)">3</text><line class="cls-3" x1="86.18" y1="9.13" x2="92.56" y2="9.13"/><text class="cls-1" transform="translate(92.31 31.71)">C</text><text class="cls-1" transform="translate(99.51 31.71)">H</text><text class="cls-2" transform="translate(106.98 33.21)">2</text><line class="cls-3" x1="81.72" y1="28.31" x2="90.32" y2="28.31"/><text class="cls-1" transform="translate(121.81 31.71)">C</text><text class="cls-1" transform="translate(129 31.71)">H</text><text class="cls-2" transform="translate(136.47 33.21)">3</text><line class="cls-3" x1="113.44" y1="29.06" x2="119.82" y2="29.06"/></svg>