<svg id="Calque_1" data-name="Calque 1" xmlns="http://www.w3.org/2000/svg" viewBox="0 0 754 475"><defs><style>.cls-1{fill:#fff;}.cls-2{fill:#ff0b0b;}.cls-3{fill:#0b0808;}.cls-4{fill:#0a0909;}.cls-5{fill:#0d0b0b;}.cls-6{fill:#ff0c0c;}.cls-7{fill:#ff1313;}.cls-8{fill:#ff1616;}.cls-9{fill:#111010;}.cls-10{fill:#111919;}.cls-11{fill:#141c1c;}.cls-12{fill:#180f0f;}.cls-13{fill:#020101;}.cls-14{fill:#fafbfb;}.cls-15{fill:#fdfdfd;}.cls-16{fill:#fffbfb;}</style></defs><path class="cls-1" d="M-98-62H743.9s.11.08.13.15a1.93,1.93,0,0,1,0,.34V532.73c0,.08-.07.16-.1.23H-98ZM583,339.41c-4.18-.05-8.25-.12-12.31-.16a9.15,9.15,0,0,0-1.66.15.67.67,0,0,0-.4.46,8.54,8.54,0,0,0-.09,1.34,1,1,0,0,0,.79,1l2,.09c1.46.09,2.93.14,4.39.31a2.82,2.82,0,0,1,2.72,2.9c0,1,0,2,0,3.05V386.1c0,3.84,0,7.67,0,11.51a10.55,10.55,0,0,1-.1,2,2.61,2.61,0,0,1-1.64,2,7.67,7.67,0,0,1-2.63.54l-4.07.06a3.25,3.25,0,0,0-1,.17.71.71,0,0,0-.43.45,10.33,10.33,0,0,0,0,1.67c0,.39.37.53.69.64a2.11,2.11,0,0,0,.67,0q13-.46,26.08,0a.91.91,0,0,0,.33,0c.32-.13.62-.32.64-.69a11.61,11.61,0,0,0,0-1.67.66.66,0,0,0-.4-.49,15.63,15.63,0,0,0-1.68-.12,37.81,37.81,0,0,1-4.4-.18c-2.8-.42-3.15-1.3-3.26-3.47,0-.45,0-.91,0-1.36V374.87c0-.45,0-.9,0-1.35a1,1,0,0,1,1-1.08h26.76a1,1,0,0,1,1,1.08c0,.11,0,.23,0,.34q0,11.85,0,23.7a18.6,18.6,0,0,1-.17,2.36,2,2,0,0,1-1.17,1.56,6.56,6.56,0,0,1-3,.69c-1.58,0-3.16.06-4.73.12a.77.77,0,0,0-.55.29,2.36,2.36,0,0,0,0,2.26,1.09,1.09,0,0,0,.85.37q13.05-.46,26.08,0a1.85,1.85,0,0,0,.67,0c.32-.1.65-.25.69-.64a10.09,10.09,0,0,0,.06-1.34.9.9,0,0,0-.83-.89c-1.46-.05-2.93,0-4.4-.12a17.31,17.31,0,0,1-2.66-.42,2.55,2.55,0,0,1-2-2.41c-.1-1-.1-2-.1-3.05V348.22c0-.79,0-1.58,0-2.37a5.51,5.51,0,0,1,.21-1.34,2.47,2.47,0,0,1,1.54-1.67,5,5,0,0,1,1.3-.33c1.24-.11,2.48-.18,3.72-.25.79-.05,1.58-.06,2.37-.09a1,1,0,0,0,.86-.88c0-.45,0-.9,0-1.35a.91.91,0,0,0-.64-.66c-.57,0-1.13,0-1.7,0-5.42,0-10.84.09-16.26.1-3,0-6.09-.06-9.14-.1a.67.67,0,0,0-.69.6,5.46,5.46,0,0,0-.08,1.34,1,1,0,0,0,1.06,1c1.47,0,2.94,0,4.4.13a15.35,15.35,0,0,1,2.34.34,2.47,2.47,0,0,1,1.9,2.13c.09,1,.14,2,.14,3q0,9.48,0,19c0,.56,0,1.12-.08,1.69a1,1,0,0,1-.92.81c-.33,0-.67.06-1,.06H589.35c-.45,0-.9-.07-1.35-.11s-.55-.38-.64-.67a3.1,3.1,0,0,1-.09-1q0-10.5,0-21a13.73,13.73,0,0,1,.15-2,2.23,2.23,0,0,1,1.47-1.73,5.38,5.38,0,0,1,1.63-.38c1.58-.11,3.16-.16,4.73-.24a7.42,7.42,0,0,0,1.34-.12.73.73,0,0,0,.41-.49,6,6,0,0,0,.13-1.33c0-.73-.35-1.08-1-1.07ZM59.24,268.12c4.29.05,8.58-.09,12.87.31a1.68,1.68,0,0,0,.67,0c.31-.11.62-.29.65-.68s.06-.89.06-1.34a1,1,0,0,0-.84-.9c-1.24,0-2.48-.05-3.72-.12a18.82,18.82,0,0,1-2.7-.25,3,3,0,0,1-2.67-3c0-.44,0-.9,0-1.35q0-11,0-22a9.45,9.45,0,0,1,.14-1.68.76.76,0,0,1,.46-.45,2.94,2.94,0,0,1,1-.19c3.27,0,6.55,0,9.82,0a23.69,23.69,0,0,1,3,.36c4.15.63,9,4.82,9.16,10,.08,1.92.13,3.83.2,5.75.08,2.14.13,4.29.29,6.42A11.09,11.09,0,0,0,93.34,268,19.34,19.34,0,0,0,104,270.62a7.44,7.44,0,0,0,4.69-1.7,11.48,11.48,0,0,0,4-9.64c0-.35-.51-.78-.94-.86a1.17,1.17,0,0,0-1.3.82,11.79,11.79,0,0,0-.24,1.67,11.79,11.79,0,0,1-.85,3.26,6.72,6.72,0,0,1-2.09,3c-2.55,2.05-6,1.54-7.5-1.33a11.78,11.78,0,0,1-.92-2.17c-.36-1.31-.67-2.63-.9-4-.67-3.89-1.28-7.79-1.94-11.68a14.69,14.69,0,0,0-.55-2.29A14.34,14.34,0,0,0,89.21,238c-1-.66-2.17-1.19-3.25-1.79a1.79,1.79,0,0,1-.48-.47s0-.19.06-.29c.1-.39.45-.48.76-.57a27.87,27.87,0,0,0,7.6-3.64,17.81,17.81,0,0,0,4.83-4.69,11.69,11.69,0,0,0,1.33-11.27,14.87,14.87,0,0,0-3.3-5.07A23.22,23.22,0,0,0,89,205a33.53,33.53,0,0,0-13.18-2.67H47a5.91,5.91,0,0,0-1.32.18.68.68,0,0,0-.4.46c-.25,1.93-.18,2.5,2,2.47.9,0,1.8,0,2.71.08s1.8.12,2.69.25a2.81,2.81,0,0,1,2.52,2.74c0,.67,0,1.35,0,2v49.78a20.26,20.26,0,0,1-.13,2.7,2.08,2.08,0,0,1-1.16,1.58,5.56,5.56,0,0,1-1.58.58,20.48,20.48,0,0,1-2.36.2c-1.35.06-2.71.07-4.06.17a.7.7,0,0,0-.66.66,13.16,13.16,0,0,0,.06,1.66.69.69,0,0,0,.42.45,2.53,2.53,0,0,0,1,.13C50.88,268.05,55.06,268.17,59.24,268.12ZM440.32,372.67A34.06,34.06,0,0,0,438.87,362a34.43,34.43,0,0,0-14.31-19.87,29.38,29.38,0,0,0-32.83-.06,31.76,31.76,0,0,0-9.72,9.76c-6.72,10.71-8,22.09-3.7,34a32.41,32.41,0,0,0,14.92,17.74A29.15,29.15,0,0,0,419,405.47a31.11,31.11,0,0,0,13.22-9.68A36,36,0,0,0,440.32,372.67Zm0-273.79a36.65,36.65,0,0,0-3.43-16.07,33.72,33.72,0,0,0-13.75-15.39,29.43,29.43,0,0,0-30.54.26,33,33,0,0,0-12,12.6,37.45,37.45,0,0,0-3.12,29.44,33.15,33.15,0,0,0,12,17.55c8.18,6.14,17.26,8,27.15,5.15a31,31,0,0,0,15.89-10.95A36.06,36.06,0,0,0,440.33,98.88ZM300.62,214.07h0q0-5.25,0-10.5a17,17,0,0,0-.12-2.36,1.43,1.43,0,0,0-.55-.78,1.17,1.17,0,0,0-1.26.09c-.43.52-.88,1-1.26,1.58-1.29,1.85-2.55,3.72-3.83,5.58a.7.7,0,0,1-1.12.16c-1-.89-2-1.82-3.06-2.67a21.31,21.31,0,0,0-11.7-4.87,29.53,29.53,0,0,0-10.41.9,33.21,33.21,0,0,0-19.82,14.35c-6.7,10.38-7.72,21.51-3.47,33a33.81,33.81,0,0,0,28.5,22,26.79,26.79,0,0,0,9.72-.87,25.59,25.59,0,0,0,18.26-21.75,20.26,20.26,0,0,0,0-2.7c0-.35-.52-.82-.9-.9a1.19,1.19,0,0,0-1.34.76,22.91,22.91,0,0,0-.33,2.33,22.39,22.39,0,0,1-2.15,7.78A21.15,21.15,0,0,1,272,267.07,23,23,0,0,1,255.27,254a35.38,35.38,0,0,1-3.39-12.67,71.17,71.17,0,0,1-.07-10.83,39.7,39.7,0,0,1,2.05-10.24,26.65,26.65,0,0,1,4.27-8,23,23,0,0,1,18.19-9,17.35,17.35,0,0,1,11.57,4.09,24,24,0,0,1,5.95,7.3,33.31,33.31,0,0,1,3.39,10.23c.12.66.2,1.33.37,2a1.61,1.61,0,0,0,2.52.62,1.5,1.5,0,0,0,.49-1.2Q300.63,220.16,300.62,214.07Zm144.25,93.14c0,.24.05,1.14.11,2a15.81,15.81,0,0,0,2.81,7.86,14.56,14.56,0,0,0,20.35,3.54,20.88,20.88,0,0,0,3.91-3.72,29.76,29.76,0,0,0,4.2-6.91,40.55,40.55,0,0,0,3-11,25.49,25.49,0,0,0-4.47-18.91c-1.11-1.56-2.31-3.05-3.45-4.6-1.67-2.26-3.36-4.52-5-6.83a23.92,23.92,0,0,1-2.53-4.77,8,8,0,0,1-.6-3,3.89,3.89,0,0,1,1.33-3,5.43,5.43,0,0,1,3.36-1.4,9.23,9.23,0,0,1,5.48,1.37c1.36.81,2.68,1.67,4.05,2.45a10.1,10.1,0,0,0,2.16.94,3.73,3.73,0,0,0,4.64-2.37c.68-1.91.11-3.11-1.71-3.75a14.49,14.49,0,0,0-1.95-.56c-2.1-.39-4.21-.75-6.32-1.1a17.18,17.18,0,0,0-6.39.24,8.82,8.82,0,0,0-7.3,8.54,15.67,15.67,0,0,0,.67,6c.56,1.59,1.1,3.19,1.73,4.76.5,1.25,1.13,2.45,1.72,3.66.34.72.7,1.41,1,2.13s.14,1.1-.49,1.3c-7.25,2.25-12.58,6.9-16.45,13.3A26.27,26.27,0,0,0,444.87,307.21Zm221.1-54a11.74,11.74,0,0,0-4.4.54,8.58,8.58,0,0,0-6.55,6.6,12.42,12.42,0,0,0-.19,5,22.55,22.55,0,0,0,1.29,4.9c.92,2.18,1.91,4.33,2.87,6.49.32.72.65,1.44,1,2.16a.86.86,0,0,1-.54,1.06,25.76,25.76,0,0,0-6.44,3,30.49,30.49,0,0,0-13.06,17.53,21.4,21.4,0,0,0-.37,11,14.76,14.76,0,0,0,13,11.59,13.91,13.91,0,0,0,8.47-1.73,17.15,17.15,0,0,0,3.73-2.9,24.5,24.5,0,0,0,3.73-4.81,36.87,36.87,0,0,0,5.23-20.36A23.23,23.23,0,0,0,670,281.55c-1-1.53-2-3-3.13-4.42-1.28-1.72-2.64-3.39-3.92-5.11a49,49,0,0,1-3.86-6,16,16,0,0,1-1.66-4.41,3.55,3.55,0,0,1,.3-2.31,4.71,4.71,0,0,1,3.92-2.84,8.83,8.83,0,0,1,5.84,1.24c1,.6,1.91,1.2,2.89,1.76a17.78,17.78,0,0,0,3,1.57,3.7,3.7,0,0,0,4.88-1.84,6.21,6.21,0,0,0,.49-1.26,2.34,2.34,0,0,0-1-2.36,6.12,6.12,0,0,0-1.22-.56,36.53,36.53,0,0,0-5.93-1.32A17.15,17.15,0,0,0,666,253.25Zm-160.22,117H468.84c-1,0-2,0-3,0a1,1,0,0,0-.66.69c0,.78,0,1.57,0,2.35a1,1,0,0,0,.92.83c.68,0,1.35,0,2,0h74.83l2.37-.06a.93.93,0,0,0,.81-.91c0-.68,0-1.35,0-2a.81.81,0,0,0-.78-.9c-.9,0-1.8,0-2.71,0Zm192.84-98.59H706l2.37,0a1,1,0,0,1,1.11,1c0,.9.05,1.81.06,2.71v14.55c0,.9,0,1.81,0,2.71a6,6,0,0,0,.29,1.31,1.6,1.6,0,0,0,1.58,1,1.62,1.62,0,0,0,1.4-1.27c.07-.89.12-1.8.13-2.69,0-5.31,0-10.61,0-15.91,0-3.47-.2-3.46,3.58-3.45q7.78,0,15.57,0c1,0,2-.11,3-.2a1.51,1.51,0,0,0,1.06-1.19,1.64,1.64,0,0,0-.89-1.66,6.94,6.94,0,0,0-2.67-.33H716.78c-4.28,0-3.73.23-3.75-3.89,0-5.3,0-10.6,0-15.9a13.25,13.25,0,0,0-.16-2.36,1.46,1.46,0,0,0-1.18-1.09,1.52,1.52,0,0,0-1.67.85,5,5,0,0,0-.37,1.29c-.06.89,0,1.8,0,2.7v14.56c0,.9,0,1.8,0,2.7,0,.69-.36,1.07-1,1.09-1,0-2,.05-3,.05H689.92a6.87,6.87,0,0,0-2.66.34,1.52,1.52,0,0,0-.87,1.65,1.33,1.33,0,0,0,1,1.18c.9.1,1.79.2,2.69.21C692.94,271.67,695.77,271.65,698.59,271.65ZM174.73,237.41H213c1,0,2,0,3,0a.7.7,0,0,0,.7-.61c.08-.89.06-1.79.07-2.68,0-.23-.46-.61-.72-.61-.9,0-1.8-.05-2.7-.05H136.2c-1,0-2,0-3,.06a1,1,0,0,0-.62.7c0,.79,0,1.57,0,2.36a.93.93,0,0,0,.89.83c.9,0,1.8,0,2.7,0Zm233.4,89.32h29.42a5.92,5.92,0,0,0,1.32-.19.8.8,0,0,0,.43-.47,5.83,5.83,0,0,0,.07-2.66.78.78,0,0,0-.7-.63,8.66,8.66,0,0,0-1.35-.07h-58.5a4.59,4.59,0,0,0-1.34.11,1,1,0,0,0-.65.65,18.41,18.41,0,0,0,0,2.35,1,1,0,0,0,.9.85c.79,0,1.58.06,2.37.06ZM407.91,52.9h29.46c1.94,0,2.11-.2,2.1-2.13,0-.23,0-.46,0-.68a1,1,0,0,0-1-1.09q-1.19,0-2.37,0H380.19c-.68,0-1.36,0-2,0-1.1,0-1.4.32-1.42,1.39,0,.46,0,.91,0,1.36a1.07,1.07,0,0,0,1,1.12c1,0,2,0,3,0ZM362.36,324.23c-.05-.21,0-.47-.17-.61-.44-.51-.93-1-1.41-1.45l-39.5-39.49c-.48-.48-1-.94-1.47-1.4a.63.63,0,0,0-.89-.1c-.64.63-1.28,1.26-1.91,1.9a.84.84,0,0,0,.07.95c.38.41.77.81,1.17,1.21L358,325c.48.48,1,.94,1.48,1.39.25.23.58.36.87.08.65-.61,1.28-1.25,1.91-1.88C362.32,324.47,362.32,324.34,362.36,324.23ZM326,196.57a2.1,2.1,0,0,0,.59-.25c.59-.53,1.16-1.06,1.72-1.62l39-39L369,154a.88.88,0,0,0,.08-1c-.63-.64-1.26-1.28-1.91-1.9a.58.58,0,0,0-.86.05c-.57.55-1.15,1.08-1.71,1.64l-39.5,39.48c-.32.31-.64.63-.95,1-.49.5-.55,1-.14,1.45.56.56,1.14,1.09,1.72,1.63A1.38,1.38,0,0,0,326,196.57Zm-13.36-13.69c.3-.26.66-.52,1-.84l12-12,28-28q.94-1,1.83-2a.63.63,0,0,0,0-.61c-.6-.68-1.23-1.32-1.87-2a.65.65,0,0,0-.89-.07c-.5.46-1,.91-1.48,1.39l-9.34,9.33q-15,15-29.92,29.92c-.64.63-1.25,1.29-1.84,2a.65.65,0,0,0,0,.62,6.7,6.7,0,0,0,2.15,2.09C312.36,182.85,312.48,182.84,312.67,182.88Zm95.44,238.93h27.44c1,0,2,0,3.05-.07a.71.71,0,0,0,.72-.58,18.58,18.58,0,0,0,0-2.69.72.72,0,0,0-.72-.58c-.68,0-1.35-.06-2-.06H379.63c-.67,0-1.35,0-2,.07a.72.72,0,0,0-.72.58,17.25,17.25,0,0,0,0,2.69.72.72,0,0,0,.73.57c1,0,2,.07,3,.07Zm54-322.87V70.17c0-.79,0-1.58-.1-2.36a.65.65,0,0,0-.46-.45,26.63,26.63,0,0,0-2.68,0c-.16,0-.4.29-.43.47a11.75,11.75,0,0,0-.09,1.68q0,28.94,0,57.88a8.53,8.53,0,0,0,.08,1.68,1,1,0,0,0,.65.62,20.63,20.63,0,0,0,2.36,0,1,1,0,0,0,.62-.69c0-1,.05-2,.05-3ZM518,268.39H504.77c-2.37,0-4.74,0-7.1,0a9.63,9.63,0,0,0-2,.27,1.47,1.47,0,0,0-.63,2.22c.2.25.48.56.76.59a27,27,0,0,0,3.36.29h37.19c.68,0,1.36,0,2-.05a8.49,8.49,0,0,0,1.31-.28,1.54,1.54,0,0,0,.94-1.29,1.5,1.5,0,0,0-1.06-1.54,25.42,25.42,0,0,0-3-.23C530.35,268.38,524.15,268.39,518,268.39Z"/><path class="cls-2" d="M583,339.41l13.1-.18c.65,0,1,.34,1,1.07a6,6,0,0,1-.13,1.33.73.73,0,0,1-.41.49,7.42,7.42,0,0,1-1.34.12c-1.57.08-3.15.13-4.73.24a5.38,5.38,0,0,0-1.63.38,2.23,2.23,0,0,0-1.47,1.73,13.73,13.73,0,0,0-.15,2q0,10.5,0,21a3.1,3.1,0,0,0,.09,1c.09.29.23.64.64.67s.9.11,1.35.11h24.73c.34,0,.68,0,1-.06a1,1,0,0,0,.92-.81c0-.57.07-1.13.08-1.69q0-9.48,0-19c0-1-.05-2-.14-3a2.47,2.47,0,0,0-1.9-2.13,15.35,15.35,0,0,0-2.34-.34c-1.46-.08-2.93-.08-4.4-.13a1,1,0,0,1-1.06-1,5.46,5.46,0,0,1,.08-1.34.67.67,0,0,1,.69-.6c3,0,6.09.1,9.14.1,5.42,0,10.84-.06,16.26-.1.57,0,1.13,0,1.7,0a.91.91,0,0,1,.64.66c0,.45,0,.9,0,1.35a1,1,0,0,1-.86.88c-.79,0-1.58,0-2.37.09-1.24.07-2.48.14-3.72.25a5,5,0,0,0-1.3.33,2.47,2.47,0,0,0-1.54,1.67,5.51,5.51,0,0,0-.21,1.34c0,.79,0,1.58,0,2.37V396.3c0,1,0,2,.1,3.05a2.55,2.55,0,0,0,2,2.41,17.31,17.31,0,0,0,2.66.42c1.47.09,2.94.07,4.4.12a.9.9,0,0,1,.83.89,10.09,10.09,0,0,1-.06,1.34c0,.39-.37.54-.69.64a1.85,1.85,0,0,1-.67,0q-13-.46-26.08,0a1.09,1.09,0,0,1-.85-.37,2.36,2.36,0,0,1,0-2.26.77.77,0,0,1,.55-.29c1.57-.06,3.15-.08,4.73-.12a6.56,6.56,0,0,0,3-.69,2,2,0,0,0,1.17-1.56,18.6,18.6,0,0,0,.17-2.36q0-11.85,0-23.7c0-.11,0-.23,0-.34a1,1,0,0,0-1-1.08H588.29a1,1,0,0,0-1,1.08c0,.45,0,.9,0,1.35v22.35c0,.45,0,.91,0,1.36.11,2.17.46,3.05,3.26,3.47a37.81,37.81,0,0,0,4.4.18,15.63,15.63,0,0,1,1.68.12.66.66,0,0,1,.4.49,11.61,11.61,0,0,1,0,1.67c0,.37-.32.56-.64.69a.91.91,0,0,1-.33,0q-13.05-.5-26.08,0a2.11,2.11,0,0,1-.67,0c-.32-.11-.67-.25-.69-.64a10.33,10.33,0,0,1,0-1.67.71.71,0,0,1,.43-.45,3.25,3.25,0,0,1,1-.17l4.07-.06a7.67,7.67,0,0,0,2.63-.54,2.61,2.61,0,0,0,1.64-2,10.55,10.55,0,0,0,.1-2c0-3.84,0-7.67,0-11.51V348.51c0-1,0-2,0-3.05a2.82,2.82,0,0,0-2.72-2.9c-1.46-.17-2.93-.22-4.39-.31l-2-.09a1,1,0,0,1-.79-1,8.54,8.54,0,0,1,.09-1.34.67.67,0,0,1,.4-.46,9.15,9.15,0,0,1,1.66-.15C574.78,339.29,578.85,339.36,583,339.41Z"/><path class="cls-3" d="M59.24,268.12c-4.18.05-8.36-.07-12.53.3a2.53,2.53,0,0,1-1-.13.69.69,0,0,1-.42-.45,13.16,13.16,0,0,1-.06-1.66.7.7,0,0,1,.66-.66c1.35-.1,2.71-.11,4.06-.17a20.48,20.48,0,0,0,2.36-.2,5.56,5.56,0,0,0,1.58-.58A2.08,2.08,0,0,0,55.07,263a20.26,20.26,0,0,0,.13-2.7V210.51c0-.68,0-1.36,0-2a2.81,2.81,0,0,0-2.52-2.74c-.89-.13-1.79-.19-2.69-.25s-1.81-.1-2.71-.08c-2.16,0-2.23-.54-2-2.47a.68.68,0,0,1,.4-.46A5.91,5.91,0,0,1,47,202.3H75.78A33.53,33.53,0,0,1,89,205a23.22,23.22,0,0,1,7.8,5.26,14.87,14.87,0,0,1,3.3,5.07,11.69,11.69,0,0,1-1.33,11.27,17.81,17.81,0,0,1-4.83,4.69,27.87,27.87,0,0,1-7.6,3.64c-.31.09-.66.18-.76.57,0,.1-.1.24-.06.29a1.79,1.79,0,0,0,.48.47c1.08.6,2.21,1.13,3.25,1.79a14.34,14.34,0,0,1,6.24,7.75,14.69,14.69,0,0,1,.55,2.29c.66,3.89,1.27,7.79,1.94,11.68.23,1.33.54,2.65.9,4a11.78,11.78,0,0,0,.92,2.17c1.47,2.87,4.95,3.38,7.5,1.33a6.72,6.72,0,0,0,2.09-3,11.79,11.79,0,0,0,.85-3.26,11.79,11.79,0,0,1,.24-1.67,1.17,1.17,0,0,1,1.3-.82c.43.08.93.51.94.86a11.48,11.48,0,0,1-4,9.64,7.44,7.44,0,0,1-4.69,1.7A19.34,19.34,0,0,1,93.34,268a11.09,11.09,0,0,1-5.72-9.07c-.16-2.13-.21-4.28-.29-6.42-.07-1.92-.12-3.83-.2-5.75-.2-5.15-5-9.34-9.16-10a23.69,23.69,0,0,0-3-.36c-3.27,0-6.55,0-9.82,0a2.94,2.94,0,0,0-1,.19.76.76,0,0,0-.46.45,9.45,9.45,0,0,0-.14,1.68q0,11,0,22c0,.45,0,.91,0,1.35a3,3,0,0,0,2.67,3,18.82,18.82,0,0,0,2.7.25c1.24.07,2.48.08,3.72.12a1,1,0,0,1,.84.9c0,.45,0,.9-.06,1.34s-.34.57-.65.68a1.68,1.68,0,0,1-.67,0C67.82,268,63.53,268.17,59.24,268.12Zm4.29-47.56h0c0,4.17,0,8.34,0,12.51,0,.69.37,1.14,1,1.14,4.51,0,9,.17,13.53-.13a16.94,16.94,0,0,0,5.86-1.53,11.34,11.34,0,0,0,6.62-8.42,20.77,20.77,0,0,0-.08-9,10.85,10.85,0,0,0-6.27-7.9,16.49,16.49,0,0,0-5.52-1.47,80.57,80.57,0,0,0-11.83-.2,15.42,15.42,0,0,0-1.68.21,1.73,1.73,0,0,0-1.38,1.34,8.34,8.34,0,0,0-.22,2C63.52,212.89,63.53,216.72,63.53,220.56Z"/><path class="cls-4" d="M440.32,372.67a36,36,0,0,1-8.13,23.12A31.11,31.11,0,0,1,419,405.47a29.15,29.15,0,0,1-25.74-1.93,32.41,32.41,0,0,1-14.92-17.74c-4.28-11.89-3-23.27,3.7-34a31.76,31.76,0,0,1,9.72-9.76,29.38,29.38,0,0,1,32.83.06A34.43,34.43,0,0,1,438.87,362,34.06,34.06,0,0,1,440.32,372.67Zm-10.05-1a49.33,49.33,0,0,0-.81-10.43,34.27,34.27,0,0,0-3.52-10.18,22.31,22.31,0,0,0-8.56-8.91,18.05,18.05,0,0,0-11.7-2.38,19.2,19.2,0,0,0-8.39,3.37,23.1,23.1,0,0,0-7.69,9.27,38.41,38.41,0,0,0-3.48,13.68,73,73,0,0,0-.06,9.47,48.44,48.44,0,0,0,1.4,9.35,33.25,33.25,0,0,0,4.14,9.94,22.67,22.67,0,0,0,6.47,6.83c6.55,4.39,13.8,4.35,20.25-.1a22.46,22.46,0,0,0,5.68-5.74,32.64,32.64,0,0,0,4.75-10.76A50.48,50.48,0,0,0,430.27,371.68Z"/><path class="cls-4" d="M440.33,98.88a36.06,36.06,0,0,1-7.74,22.59,31,31,0,0,1-15.89,10.95c-9.89,2.9-19,1-27.15-5.15a33.15,33.15,0,0,1-12-17.55,37.45,37.45,0,0,1,3.12-29.44,33,33,0,0,1,12-12.6,29.43,29.43,0,0,1,30.54-.26A33.72,33.72,0,0,1,436.9,82.81,36.65,36.65,0,0,1,440.33,98.88Zm-10.06-1.24a47.9,47.9,0,0,0-.84-10.39A34.14,34.14,0,0,0,426,77.39a22.56,22.56,0,0,0-7.35-8.26,18.11,18.11,0,0,0-16.78-2.23,20,20,0,0,0-8.29,5.68,25.39,25.39,0,0,0-4.08,6.18,39.07,39.07,0,0,0-3.41,13.71,71.37,71.37,0,0,0,0,9.81,47,47,0,0,0,2.07,11.28,30.92,30.92,0,0,0,3.91,8.2,22.09,22.09,0,0,0,7.31,6.92,17.84,17.84,0,0,0,8,2.44,17.46,17.46,0,0,0,10.81-3.27,22.55,22.55,0,0,0,6.48-6.82,33.57,33.57,0,0,0,4.12-9.94A51.44,51.44,0,0,0,430.27,97.64Z"/><path class="cls-5" d="M300.62,214.07q0,6.1,0,12.2a1.5,1.5,0,0,1-.49,1.2,1.61,1.61,0,0,1-2.52-.62c-.17-.65-.25-1.32-.37-2a33.31,33.31,0,0,0-3.39-10.23,24,24,0,0,0-5.95-7.3,17.35,17.35,0,0,0-11.57-4.09,23,23,0,0,0-18.19,9,26.65,26.65,0,0,0-4.27,8,39.7,39.7,0,0,0-2.05,10.24,71.17,71.17,0,0,0,.07,10.83A35.38,35.38,0,0,0,255.27,254,23,23,0,0,0,272,267.07a21.15,21.15,0,0,0,23.85-11.88,22.39,22.39,0,0,0,2.15-7.78,22.91,22.91,0,0,1,.33-2.33,1.19,1.19,0,0,1,1.34-.76c.38.08.89.55.9.9a20.26,20.26,0,0,1,0,2.7,25.59,25.59,0,0,1-18.26,21.75,26.79,26.79,0,0,1-9.72.87,33.81,33.81,0,0,1-28.5-22c-4.25-11.52-3.23-22.65,3.47-33a33.21,33.21,0,0,1,19.82-14.35,29.53,29.53,0,0,1,10.41-.9,21.31,21.31,0,0,1,11.7,4.87c1.05.85,2,1.78,3.06,2.67a.7.7,0,0,0,1.12-.16c1.28-1.86,2.54-3.73,3.83-5.58.38-.55.83-1.06,1.26-1.58a1.17,1.17,0,0,1,1.26-.09,1.43,1.43,0,0,1,.55.78,17,17,0,0,1,.12,2.36q0,5.25,0,10.5Z"/><path class="cls-5" d="M444.87,307.21a26.27,26.27,0,0,1,3.95-13.78c3.87-6.4,9.2-11.05,16.45-13.3.63-.2.8-.66.49-1.3s-.7-1.41-1-2.13c-.59-1.21-1.22-2.41-1.72-3.66-.63-1.57-1.17-3.17-1.73-4.76a15.67,15.67,0,0,1-.67-6,8.82,8.82,0,0,1,7.3-8.54,17.18,17.18,0,0,1,6.39-.24c2.11.35,4.22.71,6.32,1.1a14.49,14.49,0,0,1,1.95.56c1.82.64,2.39,1.84,1.71,3.75a3.73,3.73,0,0,1-4.64,2.37,10.1,10.1,0,0,1-2.16-.94c-1.37-.78-2.69-1.64-4.05-2.45a9.23,9.23,0,0,0-5.48-1.37,5.43,5.43,0,0,0-3.36,1.4,3.89,3.89,0,0,0-1.33,3,8,8,0,0,0,.6,3,23.92,23.92,0,0,0,2.53,4.77c1.61,2.31,3.3,4.57,5,6.83,1.14,1.55,2.34,3,3.45,4.6A25.49,25.49,0,0,1,479.27,299a40.55,40.55,0,0,1-3,11,29.76,29.76,0,0,1-4.2,6.91,20.88,20.88,0,0,1-3.91,3.72,14.56,14.56,0,0,1-20.35-3.54,15.81,15.81,0,0,1-2.81-7.86C444.92,308.35,444.88,307.45,444.87,307.21Zm28-8.51a25.26,25.26,0,0,0-1.77-9.25,49.33,49.33,0,0,0-3-6.41,1.19,1.19,0,0,0-1.65-.69,18.14,18.14,0,0,0-7.21,4.87,27.13,27.13,0,0,0-4.59,7.06,41.8,41.8,0,0,0-3.26,10.63,25.17,25.17,0,0,0-.22,7.75,11.39,11.39,0,0,0,1.58,4.42,8.38,8.38,0,0,0,12.85,1.85,16.35,16.35,0,0,0,3-4A38,38,0,0,0,472.84,298.7Z"/><path class="cls-6" d="M666,253.25a17.15,17.15,0,0,1,4.65.48,36.53,36.53,0,0,1,5.93,1.32,6.12,6.12,0,0,1,1.22.56,2.34,2.34,0,0,1,1,2.36,6.21,6.21,0,0,1-.49,1.26,3.7,3.7,0,0,1-4.88,1.84,17.78,17.78,0,0,1-3-1.57c-1-.56-1.93-1.16-2.89-1.76a8.83,8.83,0,0,0-5.84-1.24,4.71,4.71,0,0,0-3.92,2.84,3.55,3.55,0,0,0-.3,2.31,16,16,0,0,0,1.66,4.41,49,49,0,0,0,3.86,6c1.28,1.72,2.64,3.39,3.92,5.11C668,278.57,669,280,670,281.55a23.23,23.23,0,0,1,3.68,11.81,36.87,36.87,0,0,1-5.23,20.36,24.5,24.5,0,0,1-3.73,4.81,17.15,17.15,0,0,1-3.73,2.9,13.91,13.91,0,0,1-8.47,1.73,14.76,14.76,0,0,1-13-11.59,21.4,21.4,0,0,1,.37-11A30.49,30.49,0,0,1,653,283a25.76,25.76,0,0,1,6.44-3A.86.86,0,0,0,660,279c-.31-.72-.64-1.44-1-2.16-1-2.16-2-4.31-2.87-6.49a22.55,22.55,0,0,1-1.29-4.9,12.42,12.42,0,0,1,.19-5,8.58,8.58,0,0,1,6.55-6.6A11.74,11.74,0,0,1,666,253.25Zm1,45.59a24.31,24.31,0,0,0-1.51-9,42.82,42.82,0,0,0-3.29-7,1.26,1.26,0,0,0-1.73-.52,18.44,18.44,0,0,0-6.71,4.44,25.92,25.92,0,0,0-4.56,6.66,41.89,41.89,0,0,0-4,14.24,20,20,0,0,0,0,3.71,12.79,12.79,0,0,0,2,6c2.74,4.16,9.14,5,12.69,1.35a18.11,18.11,0,0,0,3.48-4.94A36.1,36.1,0,0,0,666.94,298.84Z"/><path class="cls-7" d="M505.75,370.24h36.9c.91,0,1.81,0,2.71,0a.81.81,0,0,1,.78.9c0,.68,0,1.35,0,2a.93.93,0,0,1-.81.91l-2.37.06H468.1c-.68,0-1.35,0-2,0a1,1,0,0,1-.92-.83c0-.78,0-1.57,0-2.35a1,1,0,0,1,.66-.69c1,0,2,0,3,0Z"/><path class="cls-8" d="M698.59,271.65c-2.82,0-5.65,0-8.47,0-.9,0-1.79-.11-2.69-.21a1.33,1.33,0,0,1-1-1.18,1.52,1.52,0,0,1,.87-1.65,6.87,6.87,0,0,1,2.66-.34H705.5c1,0,2,0,3-.05.64,0,1-.4,1-1.09,0-.9,0-1.8,0-2.7V249.86c0-.9,0-1.81,0-2.7a5,5,0,0,1,.37-1.29,1.52,1.52,0,0,1,1.67-.85,1.46,1.46,0,0,1,1.18,1.09,13.25,13.25,0,0,1,.16,2.36c0,5.3,0,10.6,0,15.9,0,4.12-.53,3.88,3.75,3.89H732.7a6.94,6.94,0,0,1,2.67.33,1.64,1.64,0,0,1,.89,1.66,1.51,1.51,0,0,1-1.06,1.19c-1,.09-2,.2-3,.2q-7.78,0-15.57,0c-3.78,0-3.58,0-3.58,3.45,0,5.3,0,10.6,0,15.91,0,.89-.06,1.8-.13,2.69a1.62,1.62,0,0,1-1.4,1.27,1.6,1.6,0,0,1-1.58-1,6,6,0,0,1-.29-1.31c0-.9,0-1.81,0-2.71V275.37c0-.9,0-1.81-.06-2.71a1,1,0,0,0-1.11-1l-2.37,0Z"/><path class="cls-9" d="M174.73,237.41H136.14c-.9,0-1.8,0-2.7,0a.93.93,0,0,1-.89-.83c0-.79,0-1.57,0-2.36a1,1,0,0,1,.62-.7c1,0,2-.06,3-.06h77.18c.9,0,1.8,0,2.7.05.26,0,.72.38.72.61,0,.89,0,1.79-.07,2.68a.7.7,0,0,1-.7.61c-1,0-2,0-3,0Z"/><path class="cls-10" d="M408.13,326.73H380.07c-.79,0-1.58,0-2.37-.06a1,1,0,0,1-.9-.85,18.41,18.41,0,0,1,0-2.35,1,1,0,0,1,.65-.65,4.59,4.59,0,0,1,1.34-.11h58.5a8.66,8.66,0,0,1,1.35.07.78.78,0,0,1,.7.63,5.83,5.83,0,0,1-.07,2.66.8.8,0,0,1-.43.47,5.92,5.92,0,0,1-1.32.19H408.13Z"/><path class="cls-11" d="M407.91,52.9h-27.1c-1,0-2,0-3,0a1.07,1.07,0,0,1-1-1.12c0-.45,0-.9,0-1.36,0-1.07.32-1.37,1.42-1.39.67,0,1.35,0,2,0h55.88q1.19,0,2.37,0a1,1,0,0,1,1,1.09c0,.22,0,.45,0,.68,0,1.93-.16,2.13-2.1,2.13Z"/><path class="cls-5" d="M362.36,324.23c0,.11,0,.24-.11.32-.63.63-1.26,1.27-1.91,1.88-.29.28-.62.15-.87-.08-.5-.45-1-.91-1.48-1.39l-39.74-39.72c-.4-.4-.79-.8-1.17-1.21a.84.84,0,0,1-.07-.95c.63-.64,1.27-1.27,1.91-1.9a.63.63,0,0,1,.89.1c.49.46,1,.92,1.47,1.4l39.5,39.49c.48.47,1,.94,1.41,1.45C362.32,323.76,362.31,324,362.36,324.23Z"/><path class="cls-3" d="M326,196.57a1.38,1.38,0,0,1-.28-.19c-.58-.54-1.16-1.07-1.72-1.63-.41-.41-.35-.95.14-1.45.31-.33.63-.65.95-1l39.5-39.48c.56-.56,1.14-1.09,1.71-1.64a.58.58,0,0,1,.86-.05c.65.62,1.28,1.26,1.91,1.9a.88.88,0,0,1-.08,1l-1.66,1.68-39,39c-.56.56-1.13,1.09-1.72,1.62A2.1,2.1,0,0,1,326,196.57Z"/><path class="cls-5" d="M312.67,182.88c-.19,0-.31,0-.39-.09a6.7,6.7,0,0,1-2.15-2.09.65.65,0,0,1,0-.62c.59-.68,1.2-1.34,1.84-2q15-15,29.92-29.92l9.34-9.33c.48-.48,1-.93,1.48-1.39a.65.65,0,0,1,.89.07c.64.63,1.27,1.27,1.87,2a.63.63,0,0,1,0,.61q-.88,1-1.83,2l-28,28-12,12C313.33,182.36,313,182.62,312.67,182.88Z"/><path class="cls-12" d="M408.11,421.81H380.66c-1,0-2,0-3-.07a.72.72,0,0,1-.73-.57,17.25,17.25,0,0,1,0-2.69.72.72,0,0,1,.72-.58c.67,0,1.35-.07,2-.07h56.93c.68,0,1.35,0,2,.06a.72.72,0,0,1,.72.58,18.58,18.58,0,0,1,0,2.69.71.71,0,0,1-.72.58c-1,0-2,.07-3.05.07Z"/><path class="cls-13" d="M462.14,98.94V126c0,1,0,2-.05,3a1,1,0,0,1-.62.69,20.63,20.63,0,0,1-2.36,0,1,1,0,0,1-.65-.62,8.53,8.53,0,0,1-.08-1.68q0-28.93,0-57.88a11.75,11.75,0,0,1,.09-1.68c0-.18.27-.46.43-.47a26.63,26.63,0,0,1,2.68,0,.65.65,0,0,1,.46.45c.07.78.1,1.57.1,2.36Z"/><path class="cls-11" d="M518,268.39c6.2,0,12.4,0,18.6,0a25.42,25.42,0,0,1,3,.23,1.5,1.5,0,0,1,1.06,1.54,1.54,1.54,0,0,1-.94,1.29,8.49,8.49,0,0,1-1.31.28c-.67.05-1.35.05-2,.05H499.16a27,27,0,0,1-3.36-.29c-.28,0-.56-.34-.76-.59a1.47,1.47,0,0,1,.63-2.22,9.63,9.63,0,0,1,2-.27c2.36,0,4.73,0,7.1,0Z"/><path class="cls-14" d="M63.53,220.56c0-3.84,0-7.67,0-11.5a8.34,8.34,0,0,1,.22-2,1.73,1.73,0,0,1,1.38-1.34,15.42,15.42,0,0,1,1.68-.21,80.57,80.57,0,0,1,11.83.2,16.49,16.49,0,0,1,5.52,1.47,10.85,10.85,0,0,1,6.27,7.9,20.77,20.77,0,0,1,.08,9,11.34,11.34,0,0,1-6.62,8.42A16.94,16.94,0,0,1,78,234.08c-4.51.3-9,.17-13.53.13-.59,0-1-.45-1-1.14,0-4.17,0-8.34,0-12.51Z"/><path class="cls-15" d="M430.27,371.68a50.48,50.48,0,0,1-1.52,13.41A32.64,32.64,0,0,1,424,395.85a22.46,22.46,0,0,1-5.68,5.74c-6.45,4.45-13.7,4.49-20.25.1a22.67,22.67,0,0,1-6.47-6.83,33.25,33.25,0,0,1-4.14-9.94,48.44,48.44,0,0,1-1.4-9.35,73,73,0,0,1,.06-9.47,38.41,38.41,0,0,1,3.48-13.68,23.1,23.1,0,0,1,7.69-9.27,19.2,19.2,0,0,1,8.39-3.37,18.05,18.05,0,0,1,11.7,2.38,22.31,22.31,0,0,1,8.56,8.91,34.27,34.27,0,0,1,3.52,10.18A49.33,49.33,0,0,1,430.27,371.68Z"/><path class="cls-15" d="M430.27,97.64a51.44,51.44,0,0,1-1.48,13.45,33.57,33.57,0,0,1-4.12,9.94,22.55,22.55,0,0,1-6.48,6.82,17.46,17.46,0,0,1-10.81,3.27,17.84,17.84,0,0,1-8-2.44,22.09,22.09,0,0,1-7.31-6.92,30.92,30.92,0,0,1-3.91-8.2,47,47,0,0,1-2.07-11.28,71.37,71.37,0,0,1,0-9.81,39.07,39.07,0,0,1,3.41-13.71,25.39,25.39,0,0,1,4.08-6.18,20,20,0,0,1,8.29-5.68,18.11,18.11,0,0,1,16.78,2.23A22.56,22.56,0,0,1,426,77.39a34.14,34.14,0,0,1,3.41,9.86A47.9,47.9,0,0,1,430.27,97.64Z"/><path class="cls-14" d="M472.84,298.7a38,38,0,0,1-4.25,16.2,16.35,16.35,0,0,1-3,4,8.38,8.38,0,0,1-12.85-1.85,11.39,11.39,0,0,1-1.58-4.42,25.17,25.17,0,0,1,.22-7.75,41.8,41.8,0,0,1,3.26-10.63,27.13,27.13,0,0,1,4.59-7.06,18.14,18.14,0,0,1,7.21-4.87A1.19,1.19,0,0,1,468,283a49.33,49.33,0,0,1,3,6.41A25.26,25.26,0,0,1,472.84,298.7Z"/><path class="cls-16" d="M666.94,298.84a36.1,36.1,0,0,1-3.64,15,18.11,18.11,0,0,1-3.48,4.94c-3.55,3.62-10,2.81-12.69-1.35a12.79,12.79,0,0,1-2-6,20,20,0,0,1,0-3.71,41.89,41.89,0,0,1,4-14.24,25.92,25.92,0,0,1,4.56-6.66,18.44,18.44,0,0,1,6.71-4.44,1.26,1.26,0,0,1,1.73.52,42.82,42.82,0,0,1,3.29,7A24.31,24.31,0,0,1,666.94,298.84Z"/></svg>