<svg xmlns="http://www.w3.org/2000/svg" viewBox="0 0 841.92 594.96"><defs><style>.cls-1{fill:#fff;}.cls-2{fill:#010101;}.cls-3{fill:#020202;}.cls-4{fill:#fdfdfd;}</style></defs><g id="Calque_2" data-name="Calque 2"><g id="Calque_1-2" data-name="Calque 1"><ellipse class="cls-1" cx="420.96" cy="297.48" rx="595.33" ry="420.7"/><path d="M176.58,101.72c0,.71-.12,1.42-.12,2.14V184c0,.71.08,1.42.12,2.14.49.73-.15,1.67.45,2.38h0c.29.66.92,1,1.36,1.56l0,0c.35.15.8.09,1,.49l0,0c.46.3,1.09,0,1.53.4l.14.13.17-.08c1.3.52,2.71-.13,4,.4a32.89,32.89,0,0,0,6.58.07.91.91,0,0,1,.58.58,16.81,16.81,0,0,0,0,4c-1.22.77-2.51.4-3.78.21a22.18,22.18,0,0,0-6-.07,47.22,47.22,0,0,0-8.32-.19c-5.88,0-11.76-.29-17.63.18a22.59,22.59,0,0,0-6,.08c-1.27.19-2.56.56-3.78-.21a16.81,16.81,0,0,0,0-4,.91.91,0,0,1,.57-.58,33,33,0,0,0,6.59-.07c1.26-.53,2.64.13,3.9-.39h0a.89.89,0,0,1,.38-.39,9.32,9.32,0,0,1,1-.3l.49-.18a7.37,7.37,0,0,0,.69-.34l.41-.31a7.31,7.31,0,0,1,.59-.52,3.18,3.18,0,0,0,.67-.43l.12-.08,0-.13c.31-.7,0-1.5.37-2.18,0-.71.12-1.43.12-2.14q0-18.69,0-37.39a11.81,11.81,0,0,1,0-1.19c.1-.92-.25-1.35-1.2-1.25-.4,0-.8,0-1.2,0h-41c-.4,0-.8,0-1.2,0-.93-.08-1.32.31-1.24,1.24,0,.4,0,.8,0,1.2q0,17.73,0,35.46c0,.72.08,1.43.13,2.15a2.48,2.48,0,0,1,.6,1.94,6.6,6.6,0,0,0,.12,1.88c.08.17.15.35.23.53a2.41,2.41,0,0,0,.68.84l.44.31a6.94,6.94,0,0,0,.71.38l.51.2c.36.11.73.17,1.08.3a1.05,1.05,0,0,1,.4.41l0,0c1.27.51,2.65-.14,3.92.39a32.88,32.88,0,0,0,6.58.07.91.91,0,0,1,.57.58,16.81,16.81,0,0,0,0,4c-1.22.77-2.5.4-3.78.21a22.18,22.18,0,0,0-6-.07,47.2,47.2,0,0,0-8.32-.19c-5.87,0-11.75-.29-17.63.18a22.6,22.6,0,0,0-6,.08,5.83,5.83,0,0,1-3.8-.14l0-4.17a1.41,1.41,0,0,1,.59-.49,32.36,32.36,0,0,0,6.6-.07c1.28-.53,2.69.13,4-.4a.2.2,0,0,0,.34-.06c.44-.39,1.07-.08,1.52-.41l0,0c.25-.38.69-.32,1-.48l0,0a4.21,4.21,0,0,1,1-1l0,0c0-.28.19-.43.34-.61l.14-.1,0-.16c.39-.84,0-1.79.38-2.62,0-.71.12-1.43.12-2.14V104.33c0-.71-.08-1.42-.12-2.14-.44-.78.05-1.7-.37-2.48l0,.05c-.39-.23-.33-.68-.49-1l0,0a.61.61,0,0,1-.49-.56l0,0c-.3,0-.45-.21-.6-.42h0c-.3-.24-.73-.17-1-.46h0c-.55-.53-1.37,0-1.93-.48l-.15-.12-.19.08c-2.81-.45-5.64-.07-8.46-.22-.72,0-1.57.39-2.17-.4,0-1.49,0-3,0-4.48.73-.69,1.54-.36,2.34-.17a10.42,10.42,0,0,0,4,.07,6.72,6.72,0,0,0,2.6.2q13.75,0,27.49,0a6.71,6.71,0,0,0,2.6-.2,10.23,10.23,0,0,0,4.05-.08c.8-.14,1.63-.57,2.33.25a22.27,22.27,0,0,0,0,4.32c-.51,1-1.41.44-2.11.48-2.85.17-5.72-.21-8.57.22l-.16-.08-.14.12c-.56.52-1.38,0-1.95.47h0c-.27.3-.7.24-1,.46l0,0a9.51,9.51,0,0,1-1.07.93l0,0c0,.27-.2.43-.35.61l-.13.08,0,.14c-.32.69,0,1.5-.39,2.18,0,.87-.17,1.74-.17,2.61q0,16.49,0,33a2.83,2.83,0,0,0,.25,1.85,2,2,0,0,0,1.38.25h42.58a2,2,0,0,0,1.38-.25,2.85,2.85,0,0,0,.2-1.63q0-16.83,0-33.65a11.49,11.49,0,0,0-.1-1.18,22.09,22.09,0,0,0-.83-3.94l0,0a.56.56,0,0,1-.5-.54l0,0c-.3,0-.45-.2-.6-.42l0,0c-.3-.23-.73-.17-1-.47h0c-.56-.51-1.38,0-1.94-.47l-.15-.12-.18.07c-2.84-.43-5.7-.05-8.54-.22-.71,0-1.6.49-2.11-.48a22.27,22.27,0,0,0,0-4.32c.7-.82,1.53-.39,2.33-.24a10.61,10.61,0,0,0,4.05.07,6.71,6.71,0,0,0,2.6.2q13.74,0,27.49,0a6.72,6.72,0,0,0,2.6-.2,10.42,10.42,0,0,0,4-.07c.8-.15,1.63-.58,2.33.24a22.27,22.27,0,0,0,0,4.32c-.51,1-1.4.44-2.11.48-2.85.17-5.72-.21-8.56.22l-.17-.08-.13.12c-.56.52-1.38,0-2,.48h0c-.27.3-.7.24-1,.46l0,0c-.14.23-.29.44-.59.42l0,0a.54.54,0,0,1-.5.55l0,0c0,.27-.21.41-.35.6l-.13.09,0,.17C176.62,100.26,177,101.05,176.58,101.72Z"/><path d="M790.58,100.28l-.12.12.08.15a5.72,5.72,0,0,0-.19,2.36q0,41.06,0,82.09a5.94,5.94,0,0,0,.19,2.37l-.07.13.1.1c.47.37,0,1.06.5,1.43h0a2.27,2.27,0,0,1,.43.55l0,0a1.84,1.84,0,0,1,.55.45h0c.25.28.7.19,1,.49h0c.4.43,1,.07,1.45.44a.27.27,0,0,0,.41.06c1.26.57,2.65-.11,3.91.41a39,39,0,0,0,7,.1c1,1.34.26,2.84.37,4.25,0,.6-.5.73-1,.71a8.7,8.7,0,0,1-3-.19,22.6,22.6,0,0,0-6-.07c-4.92-.46-9.85-.17-14.77-.18-3.72,0-7.46-.3-11.18.19a18.44,18.44,0,0,0-5.5.06c-4.31.61-5.14-.47-3.64-4.77a39.08,39.08,0,0,0,7-.1c1.17-.47,2.45.08,3.62-.39a.59.59,0,0,0,.69-.08c.42-.37,1,0,1.45-.44h0c.26-.28.71-.19,1-.49h0a2.31,2.31,0,0,1,.54-.44l0,0a3.19,3.19,0,0,1,.43-.54v0c.48-.36,0-1.05.5-1.42l.12-.12-.08-.14a3.56,3.56,0,0,0,.19-1.65q0-19.81,0-39.63a2.53,2.53,0,0,0-.24-1.62,2.62,2.62,0,0,0-1.63-.23q-20.91,0-41.83,0a3,3,0,0,0-1.64.2,2.56,2.56,0,0,0-.24,1.63q0,20,0,40a2.78,2.78,0,0,0,.22,1.63.27.27,0,0,0,.07.41c.23.27.14.7.43.95h0a1.82,1.82,0,0,1,.43.56l0,0a1.7,1.7,0,0,1,.55.45h0c.26.28.71.19,1,.49h0c.41.41,1,.06,1.46.43a.26.26,0,0,0,.4.06c1.26.57,2.65-.11,3.91.41a39.08,39.08,0,0,0,7,.1c1,1.34.25,2.84.37,4.25,0,.6-.5.73-1,.71a8.71,8.71,0,0,1-3-.19,22.59,22.59,0,0,0-6-.07c-4.92-.46-9.84-.17-14.76-.18-3.73,0-7.47-.3-11.18.19a18.44,18.44,0,0,0-5.5.06c-4.35.62-5.08-.33-3.67-4.77a39.31,39.31,0,0,0,7-.1c1.17-.47,2.45.08,3.62-.39a.62.62,0,0,0,.7-.09c.41-.36,1,0,1.44-.43h0c.26-.28.71-.19,1-.49h0c.18-.14.32-.32.52-.45l0,0c.13-.19.31-.34.43-.53v0c.5-.35.06-1,.5-1.41l.13-.14-.08-.18a4.49,4.49,0,0,0,.19-2.12q0-41.19,0-82.4a4.1,4.1,0,0,0-.2-2.11c.11-.15.1-.27,0-.37a2.34,2.34,0,0,1-.35-1.08l0,0c-.45-.12-.32-.65-.62-.88h0c-.23-.3-.77-.16-.87-.63l0,0c-.38-.08-.81,0-1.06-.43l0,0c-.46-.32-1.07,0-1.51-.39a.66.66,0,0,0-.72-.08,45,45,0,0,0-8.37-.14c-1.87.06-2.46-.6-2.19-2.33a4.82,4.82,0,0,0,0-1.2c-.18-1.75.66-2.11,2.15-1.6a10.93,10.93,0,0,0,4.07.08,5.88,5.88,0,0,0,2.36.21h28.42a5.9,5.9,0,0,0,2.36-.21,8.64,8.64,0,0,0,3.58-.06c1.15-.13,2.55-1,2.65,1.29.16,3.72.21,3.71-2.33,3.77-2.76.07-5.52-.24-8.27.2a.56.56,0,0,0-.69.06c-.48.36-1.11.11-1.61.4l-.18,0-.13.14c-.26.25-.7.12-.91.46l0,0a5.25,5.25,0,0,0-.53.43l0,0c-.13.19-.31.33-.43.52l0,0c-.5.34,0,1.05-.52,1.4l-.09.1.07.11a4.65,4.65,0,0,0-.2,1.89c0,11.64,0,23.29,0,34.94,0,1.43.19,2.12,1.91,2.11,14.11-.07,28.23,0,42.35,0a2,2,0,0,0,1.15-.22l0,0a2.78,2.78,0,0,0,.22-1.63q0-17.67,0-35.34a3.4,3.4,0,0,0-.19-1.64l.08-.17-.13-.13a3,3,0,0,1-.41-1.2v-.17l-.14-.08a4.81,4.81,0,0,0-.42-.48h0a13.43,13.43,0,0,0-1.44-.91l-.14-.14-.19,0c-.49-.31-1.11,0-1.59-.4a.59.59,0,0,0-.7-.08,56.59,56.59,0,0,0-8.73-.16c-1.47,0-2-.45-1.85-1.9a7.58,7.58,0,0,0,0-1.65c-.17-1.77.71-2,2.15-1.56a11.08,11.08,0,0,0,4.06.08,5.9,5.9,0,0,0,2.36.21H797.6a5.88,5.88,0,0,0,2.36-.21,8.47,8.47,0,0,0,3.58-.06c1.16-.13,2.56-1,2.66,1.29.15,3.72.2,3.71-2.33,3.77-2.76.07-5.53-.24-8.28.2a.55.55,0,0,0-.69.07c-.47.35-1.1.09-1.59.4l-.19,0-.14.14c-.25.24-.7.11-.9.46l0,0a3,3,0,0,0-.51.42h0a4.29,4.29,0,0,0-.43.51l0,0C790.58,99.23,791,99.92,790.58,100.28Z"/><path d="M469.17,451.52a2.53,2.53,0,0,0-1.62-.24H425.71a2.94,2.94,0,0,0-1.63.21,2.47,2.47,0,0,0-.24,1.62q0,20,0,40a2.8,2.8,0,0,0,.21,1.64.26.26,0,0,0,.07.4c.24.28.14.71.44,1h0a1.94,1.94,0,0,1,.44.55l0,0a1.57,1.57,0,0,1,.54.45h0c.26.29.71.2,1,.5h0c.4.42,1,.07,1.45.43a.28.28,0,0,0,.41.07c1.25.57,2.65-.12,3.91.41a39.91,39.91,0,0,0,7,.1c.95,1.34.26,2.83.37,4.25,0,.6-.5.73-1,.7a8.77,8.77,0,0,1-3-.18,23,23,0,0,0-6-.08c-4.91-.46-9.84-.16-14.76-.17-3.72,0-7.46-.3-11.18.18a18.77,18.77,0,0,0-5.5.07c-4.35.61-5.07-.33-3.67-4.78a39.42,39.42,0,0,0,7-.09c.94-.38,2.06,0,2.93-.7a4.87,4.87,0,0,1,.92-.2,9.09,9.09,0,0,0,1.37-.14l.47-.15a3.69,3.69,0,0,0,.64-.29l.38-.29c.11-.11.23-.22.34-.34s.11-.12.16-.19a4.83,4.83,0,0,0,.26-.45l.09-.27a3.46,3.46,0,0,1,.53-1.52,1,1,0,0,0,.32-.71q0-42.21,0-84.41a1,1,0,0,0-.28-.69,2.22,2.22,0,0,1-.5-.9,5.49,5.49,0,0,1-.2-.57,5.21,5.21,0,0,0-.3-.74,3.59,3.59,0,0,0-.32-.36l-.41-.25-.42-.24c-.22-.11-.45-.21-.68-.3l-.49-.17c-.34-.1-.7-.14-1-.27a1.29,1.29,0,0,1-.41-.36l-.11-.1-.13.08c-2.44-.42-4.9-.12-7.35-.19-3.54-.11-3.11.63-3.22-3.37-.05-1.48.44-2.26,1.95-2.32a3.15,3.15,0,0,1,2.62.68,1.86,1.86,0,0,0,1.66,0,5.88,5.88,0,0,0,2.36.2q14.22,0,28.42,0a5.88,5.88,0,0,0,2.36-.2,8.64,8.64,0,0,0,3.58-.07c1.15-.12,2.56-1,2.65,1.3.16,3.72.21,3.71-2.32,3.77-2.76.07-5.53-.24-8.28.19a.56.56,0,0,0-.69.07c-.47.36-1.11.11-1.6.4l-.19,0-.13.14c-.25.24-.7.12-.9.46l0,0a5.3,5.3,0,0,0-.52.42h0c-.13.18-.31.33-.43.52v0c-.51.35-.05,1.06-.53,1.41l-.08.1.06.1a4.85,4.85,0,0,0-.2,1.89c0,11.65,0,23.3,0,34.94,0,1.43.19,2.12,1.9,2.12,14.12-.07,28.24,0,42.35,0a2.12,2.12,0,0,0,1.16-.22h0a2.86,2.86,0,0,0,.22-1.63V409.29a3.41,3.41,0,0,0-.19-1.64l.07-.16-.12-.13a3.11,3.11,0,0,1-.41-1.21V406l-.15-.08a3.72,3.72,0,0,0-.41-.48h0a16.6,16.6,0,0,0-1.44-.91l-.14-.14-.19,0c-.49-.3-1.12,0-1.59-.4a.6.6,0,0,0-.71-.07,55.32,55.32,0,0,0-8.73-.16c-1.46,0-2-.46-1.84-1.9a7.68,7.68,0,0,0,0-1.66c-.17-1.77.71-2,2.16-1.55a11.31,11.31,0,0,0,4.06.08,5.88,5.88,0,0,0,2.36.2q14.2,0,28.42,0a5.89,5.89,0,0,0,2.36-.2,8.47,8.47,0,0,0,3.58-.07c1.15-.12,2.55-1,2.65,1.3.16,3.72.21,3.71-2.33,3.77-2.76.07-5.52-.24-8.27.19a.56.56,0,0,0-.69.07c-.47.36-1.1.1-1.59.4l-.19,0-.14.14c-.26.24-.7.11-.9.46l0,0a4.15,4.15,0,0,0-.51.43h0a4.15,4.15,0,0,0-.43.51l0,0c-.52.33-.06,1-.51,1.39l-.13.11.08.15a5.76,5.76,0,0,0-.19,2.37v82.09a6.06,6.06,0,0,0,.19,2.36l-.07.13.1.11c.47.37,0,1.06.51,1.43h0a2.13,2.13,0,0,1,.44.55l0,0a1.9,1.9,0,0,1,.54.44h0c.25.29.7.2,1,.49h0c.41.42,1,.06,1.46.43a.26.26,0,0,0,.4.07c1.26.57,2.65-.12,3.92.41a39.91,39.91,0,0,0,7,.1c.95,1.34.25,2.83.37,4.25.05.6-.5.73-1,.7a8.47,8.47,0,0,1-3-.18,23,23,0,0,0-6-.08c-4.91-.46-9.84-.16-14.76-.17-3.73,0-7.46-.3-11.18.18a18.77,18.77,0,0,0-5.5.07c-4.31.61-5.14-.48-3.64-4.77a39.91,39.91,0,0,0,7-.1c1.17-.47,2.45.07,3.63-.39a.58.58,0,0,0,.69-.09c.41-.37,1.05,0,1.45-.43h0c.25-.29.7-.2,1-.49h0a2.31,2.31,0,0,1,.54-.45l0,0a3.2,3.2,0,0,1,.42-.55h0c.49-.36.05-1.05.51-1.42l.12-.12-.08-.15a3.66,3.66,0,0,0,.19-1.64V453.13A2.44,2.44,0,0,0,469.17,451.52Z"/><path d="M394.5,191.5a5.83,5.83,0,0,0,2.24-.1c1.11-.5,2.36.13,3.47-.4a.22.22,0,0,0,.36-.05c.58-.48,1.38,0,2-.44h0c.4-.46,1.06-.09,1.48-.48l0,0c.27-.33.69-.29,1-.45l-.05,0c.2-.42.67-.32,1-.54l0,0a4.6,4.6,0,0,1,.91-1l.4-.38.37-.39.19-.21a6.37,6.37,0,0,1,1-.93v0c.23-.29.17-.73.46-1h0c.43-.63-.26-1.25,0-1.88a2.17,2.17,0,0,1,.48-1.17,3.19,3.19,0,0,0,.25-1.87q0-40.4,0-80.78a1.83,1.83,0,0,0-.37-.65c-.2-.26-.37-.56-.58-.81a4.25,4.25,0,0,0-.47-.37,3.89,3.89,0,0,1-1.21-.75.65.65,0,0,0-.73-.07,80,80,0,0,0-10.27-.16c-1.55,0-2.3-.25-2.23-2,.17-3.73-.3-3.23,3.17-3.24,7.26,0,14.52,0,21.77,0a6.52,6.52,0,0,0,2.6-.2,2.39,2.39,0,0,1,.8-.07,2.34,2.34,0,0,1,1.72,1.21,2.22,2.22,0,0,0,.39.47c.16.11.32.22.47.34a2.46,2.46,0,0,1,.34.44c.09.14.18.3.26.45s.19.29.28.43.22.26.32.4.2.28.29.43c.19.3.4.58.61.86a2.87,2.87,0,0,1,.28.48,4.54,4.54,0,0,0,.52,1.29v0c.21.15.43.3.4.61l0,0c.5.09.36.63.62.89v0c.2.15.42.3.4.6l0,0c.48.1.34.64.62.88h0c.19.16.4.31.4.6l0-.05c.45.12.32.65.61.89h0c.17.18.37.33.4.6l0,0c.28,0,.31.32.43.51a1.65,1.65,0,0,0,.36.28,1,1,0,0,1,.34.32,1.42,1.42,0,0,1,.26.38c.08.13.15.26.22.39s.16.25.25.37l.28.36a3,3,0,0,1,.24.38l.23.4.28.38a3.57,3.57,0,0,1,.3.38,2.71,2.71,0,0,1,.28.41c.19.29.4.57.61.85a2.43,2.43,0,0,1,.28.47,4.21,4.21,0,0,0,.52,1.28v0c.21.15.43.29.4.61l0-.05c.49.1.35.64.62.89v0c.2.16.41.31.4.61l0,0c.47.11.34.64.62.89v0c.19.17.39.32.4.6l0,0c.45.13.32.66.62.89h0c.17.17.38.32.41.59l0-.05a20.34,20.34,0,0,1,4.89,7.18l0,0c.21.15.43.3.4.61l0,0c.5.09.36.63.62.89v0c.2.15.41.3.41.6l0-.05c.47.12.33.65.61.89h0c.19.16.4.32.41.6l0,0c.45.12.32.65.61.88h0c.17.18.37.33.41.59l0,0a20.5,20.5,0,0,1,4.88,7.18v0c.21.15.43.3.4.6l0,0c.49.1.35.64.62.89v0c.2.16.41.31.41.6l0,0c.46.12.33.65.61.9v0c.19.17.39.32.41.6l0,0c.44.13.31.66.61.89h0a1.21,1.21,0,0,1,.41.58l0-.05a20.77,20.77,0,0,1,4.88,7.18l0,0c.21.15.43.3.41.61l0-.05c.48.11.35.64.62.89h0c.2.15.41.3.42.59l0,0c.45.13.32.65.6.9h0a1,1,0,0,1,.41.59l0-.05c.44.14.31.66.6.89h0c.17.18.37.33.41.59l0-.05a20.79,20.79,0,0,1,4.89,7.18l0,0c.21.15.43.3.41.6l0,0c.48.11.34.65.61.9v0c.2.16.41.31.42.6l-.05,0c.46.12.33.65.61.89h0c.18.17.38.32.41.59l0-.05c.43.14.3.66.6.9h0a1.21,1.21,0,0,1,.41.58l0,0a20.77,20.77,0,0,1,4.88,7.18v0c.2.16.42.3.4.61l0,0c.48.1.35.64.62.89v0c.19.17.41.31.41.6l0,0c.23.19.45.28.58-.1,0-.63.1-1.27.1-1.9q0-31,0-61.94c0-.63-.07-1.26-.12-1.9a17.64,17.64,0,0,1-1.4-4.78h0a2.28,2.28,0,0,1-.42-.56l0,0a.8.8,0,0,1-.48-.55l0,0a.72.72,0,0,1-.54-.5l0,0c-1.86-.29-3.21-1.62-4.86-2.35h0c-.57-.49-1.36,0-1.94-.43a.69.69,0,0,0-.74-.08c-1.75-.72-3.76.54-5.44-.7a23.2,23.2,0,0,0,0-4.33c1.54-.86,3.14-.38,4.73-.23a17.89,17.89,0,0,0,5,.07,135.17,135.17,0,0,0,16.84,0,17.59,17.59,0,0,0,5-.08,3.4,3.4,0,0,1,1.64-.19c2.92,0,2.8,0,2.95,2.93.1,1.91-.5,2.55-2.38,2.37a7,7,0,0,0-3.3.17l-.19-.08-.16.12c-.62.48-1.43,0-2.07.43l-.19-.06-.14.13a3.87,3.87,0,0,1-1.19.39l-.16,0-.09.13c-.28.26-.71.19-1,.43l0,0c-.23.34-.69.25-1,.52h0c-.17.18-.31.4-.61.38l0,0c-.07.46-.64.31-.82.65l0,0a1.64,1.64,0,0,0-.46.45l0,0c-.33.18-.18.76-.66.82l0,0c0,.31-.18.45-.37.62v0c-.25.28-.18.72-.47,1h0c-.43.4-.07,1-.44,1.45a.62.62,0,0,0-.08.72,6.77,6.77,0,0,0-.2,2.61q0,41.82,0,83.65a11.17,11.17,0,0,0,.35,3.31,3.87,3.87,0,0,1-.08.9,2.09,2.09,0,0,1-.41.78,1.75,1.75,0,0,1-.7.46c-.9-.14-1.87.2-2.71-.39l.06,0a.9.9,0,0,1-.53-.5l0,0a.73.73,0,0,1-.47-.56l0,0c-.44-.11-.3-.65-.63-.84v0c-.13-.19-.33-.33-.41-.56l0,0a6.1,6.1,0,0,1-1-1.46l0,0c-.22-.15-.44-.29-.4-.61l0,0c-.49-.09-.35-.63-.61-.89v0c-.21-.15-.42-.3-.4-.6l0,0c-.49-.1-.35-.64-.62-.89v0c-.2-.16-.4-.31-.41-.6l0,.05c-.46-.13-.33-.65-.61-.89h0c-.18-.17-.39-.32-.42-.59l0,0c-.43-.14-.3-.66-.6-.89h0a1.21,1.21,0,0,1-.41-.58l0,.05c-.41-.16-.29-.67-.59-.89h0a1.5,1.5,0,0,1-.41-.58l0,.05c-.4-.17-.27-.68-.59-.89v0c-.13-.19-.34-.33-.41-.57l0,.05c-.37-.18-.24-.68-.58-.88v0c-.12-.2-.33-.34-.41-.56l0,0a5.61,5.61,0,0,1-1-1.46l0,0c-.22-.14-.44-.29-.41-.6l0,0c-.5-.1-.36-.64-.62-.89l0,0c-.21-.16-.43-.3-.41-.61l0,0c-.48-.11-.35-.64-.62-.89h0c-.2-.15-.41-.3-.42-.59l0,.05c-.45-.13-.32-.66-.6-.9h0c-.18-.17-.38-.32-.41-.59l0,0c-.43-.14-.31-.66-.6-.89h0c-.17-.18-.37-.33-.41-.59l0,.05c-.41-.15-.28-.67-.59-.89h0a1.44,1.44,0,0,1-.41-.57l0,0c-.39-.16-.27-.67-.58-.89h0c-.14-.19-.35-.33-.41-.57l0,0c-.38-.17-.25-.68-.58-.88l0,0c-.12-.19-.32-.33-.4-.56l0,0a6.31,6.31,0,0,1-1-1.46l0,0c-.22-.15-.44-.29-.4-.61l0,0c-.5-.09-.35-.63-.62-.89l0,0c-.21-.15-.42-.3-.4-.6l0,0c-.49-.1-.35-.64-.62-.89v0c-.2-.16-.4-.31-.41-.6l0,.05c-.46-.13-.33-.65-.61-.89h0c-.19-.17-.39-.32-.42-.59l0,0c-.43-.14-.3-.66-.6-.89h0a1.21,1.21,0,0,1-.41-.58l0,.05c-.41-.16-.29-.67-.59-.9h0a1.5,1.5,0,0,1-.41-.58l0,.05c-.4-.17-.27-.68-.59-.89v0c-.13-.19-.34-.33-.41-.57l0,0c-.37-.18-.24-.68-.58-.88v0c-.12-.2-.33-.34-.41-.57l0,0a5.61,5.61,0,0,1-1-1.46l0,0c-.22-.14-.44-.29-.41-.6l0,0c-.5-.1-.36-.64-.62-.89v0c-.2-.16-.42-.3-.4-.61l0,.05c-.48-.11-.35-.64-.62-.89h0c-.19-.15-.4-.3-.41-.59l0,0c-.45-.12-.32-.65-.61-.89h0c-.18-.17-.38-.32-.41-.59l0,.05c-.44-.14-.31-.66-.6-.89h0c-.17-.18-.37-.33-.41-.59l0,.05c-.41-.15-.28-.67-.59-.89h0a1.44,1.44,0,0,1-.41-.57l0,0c-.39-.16-.27-.67-.59-.89h0c-.14-.19-.35-.33-.41-.57l0,0c-.38-.17-.25-.68-.58-.88l0,0c-.12-.19-.32-.33-.4-.56l0,0a6,6,0,0,1-1-1.46l0,0c-.22-.15-.44-.29-.4-.61l0,0c-.5-.09-.35-.63-.62-.89l0,0c-.21-.15-.42-.3-.4-.6l0,0c-.49-.1-.35-.64-.62-.89v0c-.2-.16-.4-.31-.41-.6l0,0c-.46-.13-.33-.65-.61-.9v0c-.19-.17-.39-.32-.42-.59l0,0c-.43-.14-.3-.66-.6-.89h0a1.21,1.21,0,0,1-.41-.58l0,0c-.41-.16-.29-.67-.6-.9h0a1.5,1.5,0,0,1-.41-.58l0,0c-.39-.17-.26-.68-.58-.89v0c-.14-.19-.34-.33-.41-.57l0,0c-.37-.17-.24-.67-.58-.88v0c-.12-.2-.33-.34-.41-.57l0,0a5.61,5.61,0,0,1-1-1.46v0c-.21-.14-.43-.29-.4-.6l0,0c-.5-.1-.36-.64-.62-.89v0c-.2-.16-.42-.3-.4-.61l0,0c-.48-.11-.35-.64-.62-.89h0c-.19-.15-.4-.3-.41-.59l0,0c-.45-.12-.32-.65-.61-.89h0c-.18-.17-.38-.32-.41-.59l0,0c-.44-.14-.31-.66-.6-.89h0c-.17-.18-.37-.33-.41-.59l0,0c-.41-.15-.28-.67-.59-.89h0a1.57,1.57,0,0,1-.42-.57l0,0c-.39-.16-.27-.67-.59-.89h0c-.14-.19-.35-.33-.41-.57l0,0c-.38-.17-.25-.68-.58-.88l0,0c-.12-.19-.32-.33-.4-.56l0,0a6.27,6.27,0,0,1-1-1.46l0,0c-.22-.15-.44-.29-.4-.61l0,0c-.5-.09-.36-.63-.62-.89l0,0c-.21-.15-.43-.3-.4-.6l0,0c-.48-.1-.34-.64-.61-.89v0c-.2-.16-.41-.31-.41-.6l0,0c-.46-.13-.33-.65-.61-.9h0a.91.91,0,0,1-.42-.59l0,0c-.43-.14-.3-.66-.6-.89h0a1.21,1.21,0,0,1-.41-.58l0,0c-.41-.16-.29-.67-.6-.9h0a1.5,1.5,0,0,1-.41-.58l0,0c-.39-.17-.26-.68-.58-.89v0c-.14-.19-.34-.33-.41-.57l0,0c-.37-.17-.24-.67-.58-.88v0c-.12-.2-.33-.34-.41-.57l0,0a5.61,5.61,0,0,1-1-1.46v0c-.21-.15-.43-.29-.4-.6l0,0c-.5-.1-.36-.64-.62-.89v0c-.2-.16-.42-.3-.4-.61l0,0c-.49-.11-.35-.64-.62-.89h0c-.19-.16-.4-.31-.41-.59l0,0c-.46-.12-.32-.65-.61-.89h0c-.18-.17-.38-.32-.41-.59l0,0c-.44-.14-.31-.66-.61-.89h0c-.17-.18-.37-.33-.41-.59l0,0c-.37-.12-.49-.89-1.08-.41-.05.79-.13,1.58-.13,2.38q0,37.44,0,74.9c0,1.11.12,2.22.19,3.33.37.67,0,1.46.37,2.14l-.06.15.13.11c.28.29.22.71.42,1l0,0c.37.21.28.68.53,1l0,0c.21.16.41.31.42.6l0,0a2.74,2.74,0,0,1,1,1l0,0c.32,0,.47.2.58.46l0,0c.25,0,.39.27.58.41h0c.23.32.7.21.93.52h0c.28.26.71.18,1,.44l.09.14.16-.05a3.64,3.64,0,0,1,1.19.4l.12.13.17-.06c.51.28,1.13.05,1.63.39a.59.59,0,0,0,.69.08c1.17.47,2.45-.09,3.62.4a3.74,3.74,0,0,0,1.79.08.88.88,0,0,1,.57.57,16.81,16.81,0,0,0,0,4c-2.36.77-4.75.4-7.14.2a20.53,20.53,0,0,0-5.48-.07,60.42,60.42,0,0,0-11.09,0,21.54,21.54,0,0,0-5.5.08c-1.94.43-3.9.09-5.85.18-.63,0-1.14-.18-1.07-.9C394.26,194.21,393.66,192.78,394.5,191.5Z"/><path class="cls-2" d="M449.38,368a31.87,31.87,0,0,0-5.44,0c-.83-.6-.4-1.47-.4-2.2q0-68.26,0-136.54c0-.73-.43-1.6.4-2.2a30.88,30.88,0,0,0,5.44,0,1.41,1.41,0,0,1,.59.49c0,.72-.06,1.44-.06,2.15q0,67.86,0,135.71c0,.72,0,1.44.06,2.16A1.41,1.41,0,0,1,449.38,368Z"/><path class="cls-3" d="M227.92,146.68a33.18,33.18,0,0,0,0-5.46c.64-.74,1.49-.37,2.24-.37q62.94,0,125.88,0c2.54,0,2.63,0,2.51,2.63-.05,1.26.59,2.66-.47,3.81a5.54,5.54,0,0,0-2.36-.18H231a6.11,6.11,0,0,0-2.37.16A.77.77,0,0,1,227.92,146.68Z"/><path class="cls-2" d="M664.65,147.27a5.59,5.59,0,0,0-2.37-.18H538a6.11,6.11,0,0,0-2.37.16c-.85-.86-1.41-5.48-.72-6.15a1.22,1.22,0,0,1,.89-.27h127c3.16,0,2.87-.23,2.76,2.86C665.52,144.89,666.43,146.47,664.65,147.27Z"/><path class="cls-3" d="M397.43,65.32c.64,0,1.27.07,1.91.07q47.21,0,94.42,0c.71,0,1.43-.06,2.14-.1a1,1,0,0,1,.58.58,32.11,32.11,0,0,0,0,5.46c-.63.75-1.49.38-2.23.38q-47.33,0-94.63,0c-2.61,0-2.69,0-2.59-2.55C397.06,67.89,396.5,66.51,397.43,65.32Z"/><path class="cls-4" d="M664.65,147.27c.87-.34.8-1.1.76-1.82-.06-1.42.58-3.21-.27-4.17s-2.71-.35-4.11-.35q-61.63,0-123.28,0c-3.31,0-2.83-.31-2.78,2.77,0,1.19-.67,2.59.65,3.56-.77,0-1.2-.31-1.19-1.12v-4.31c0-.94.51-1.26,1.37-1.24h127c.32,0,.63,0,.95,0,2,0,2.05,0,2.09,2,0,1.2,0,2.4,0,3.59C665.85,147,665.41,147.28,664.65,147.27Z"/><path class="cls-4" d="M443.94,227a6.35,6.35,0,0,0-.22,2.6q0,67.88,0,135.74a6.35,6.35,0,0,0,.22,2.6.92.92,0,0,1-.65-.89q0-1,0-1.92,0-67.67,0-135.32C443.29,228.88,442.72,227.7,443.94,227Z"/><path class="cls-4" d="M358.08,147.27c.85-1.84.27-3.77.4-5.65,0-.49-.31-.69-.76-.69l-1.92,0H230.74a5.42,5.42,0,0,0-2.82.3,1,1,0,0,1,.92-.62c.72,0,1.44,0,2.16,0H355.6c3.5,0,3.3-.3,3.2,3.21C358.77,145,359.53,146.37,358.08,147.27Z"/><path class="cls-4" d="M397.43,65.32c-.46,1.73-.11,3.5-.22,5.24,0,.71.25,1,1,1,.56,0,1.12,0,1.68,0h94a6,6,0,0,0,2.6-.24.93.93,0,0,1-.91.62c-.72,0-1.44,0-2.16,0H400c-.48,0-1,0-1.44,0-1.8-.06-1.82-.07-1.86-1.94,0-1.2,0-2.4,0-3.59A1,1,0,0,1,397.43,65.32Z"/><path class="cls-4" d="M483.11,195.28c0-7.9.05-15.8.05-23.71q0-31.73,0-63.46c0-1.1-.24-2.24.35-3.28,0,1.19.05,2.39.05,3.59v81.83c0,1,0,2.08.06,3.11C484,194.16,484.34,194.93,483.11,195.28Z"/><path class="cls-4" d="M716.75,100.65a6.22,6.22,0,0,1,.36,3q0,40.26,0,80.53a6.35,6.35,0,0,1-.35,3.05c0-.63,0-1.27,0-1.91V102.32C716.71,101.76,716.74,101.2,716.75,100.65Z"/><path class="cls-4" d="M790.54,187.37a4.37,4.37,0,0,1-.34-2.57q0-40.85,0-81.68a4.45,4.45,0,0,1,.35-2.57c0,.72.05,1.44.05,2.16v82.5C790.59,185.93,790.56,186.65,790.54,187.37Z"/><path class="cls-4" d="M483.51,494.44a4.35,4.35,0,0,1-.34-2.56q0-40.85,0-81.69a4.51,4.51,0,0,1,.34-2.56c0,.71.06,1.43.06,2.15v82.51C483.57,493,483.53,493.72,483.51,494.44Z"/><path class="cls-4" d="M409.73,407.74a5.52,5.52,0,0,1,.35,2.81q0,40.49,0,81a5.62,5.62,0,0,1-.34,2.81.51.51,0,0,1-.16-.6c0-.79.1-1.59.1-2.38V410.7c0-.8-.07-1.59-.1-2.39A.47.47,0,0,1,409.73,407.74Z"/><path class="cls-4" d="M409.73,98.25a4,4,0,0,1,.35,2.55q0,39.67,0,79.33a5.77,5.77,0,0,1-.33,2.82.82.82,0,0,1-.16-1.1c0-.71.09-1.43.09-2.14V101.47c0-.72-.05-1.43-.07-2.15A.82.82,0,0,1,409.73,98.25Z"/><path class="cls-4" d="M776.24,139.17c-.61.58-1.37.29-2,.29q-20.62,0-41.24,0l-1.44,0c-.59,0-.84-.36-.84-.92,0-.4,0-.8,0-1.2q0-16.78,0-33.57c0-1.09-.24-2.25.38-3.28q0,17.83,0,35.68c0,3.18-.17,3,3,3Z"/><path class="cls-4" d="M469.22,446.25c-.62.58-1.37.29-2.06.29q-20.61,0-41.24,0h-1.44c-.59,0-.83-.36-.84-.92,0-.4,0-.8,0-1.2q0-16.79,0-33.58c0-1.09-.24-2.24.38-3.27q0,17.83.05,35.67c0,3.18-.18,3,3,3Z"/><path class="cls-4" d="M422.64,91.61q-13.27,0-26.55,0c-2,0-1.85,0-1.83,1.8.05,3.66-.42,2.9,3,3,3.09.09,6.21-.27,9.26.46-3.66,0-7.32,0-11,.06-1.17,0-1.75-.33-1.73-1.62.05-5-.41-4.11,4-4.14,7.8,0,15.6,0,23.4,0C421.84,90.81,422.45,90.59,422.64,91.61Z"/><path class="cls-1" d="M162.5,139.14c-.32.52-.85.33-1.29.33H118.45c-.44,0-1,.19-1.29-.33Z"/><path class="cls-4" d="M424.05,494.76a3.83,3.83,0,0,1-.38-2.32q0-19.87,0-39.75c0-.43-.21-1,.44-1.2Z"/><path class="cls-4" d="M731.08,187.68a3.8,3.8,0,0,1-.38-2.32q0-19.87,0-39.75c0-.43-.22-1,.43-1.2Q731.09,166.06,731.08,187.68Z"/><path class="cls-4" d="M469.17,451.52c.71.33.39,1,.39,1.47q0,19.54,0,39.09a4.07,4.07,0,0,1-.34,2.33l-.06-32.59C469.16,458.39,469.17,455,469.17,451.52Z"/><path class="cls-4" d="M776.2,144.44c.71.33.38,1,.38,1.47q0,19.54,0,39.09a4.06,4.06,0,0,1-.34,2.33l-.06-32.59C776.19,151.31,776.2,147.87,776.2,144.44Z"/><path class="cls-4" d="M469.23,407.65a4.19,4.19,0,0,1,.34,2.34q0,17.37,0,34.76c0,.51.28,1.14-.36,1.51Z"/><path class="cls-4" d="M776.25,100.58a4.14,4.14,0,0,1,.34,2.33q0,17.39,0,34.76c0,.51.27,1.14-.37,1.52Z"/><path class="cls-4" d="M740.48,91.68c-1.3.57-2.68.33-4,.34-9,0-18,0-27,0a3.7,3.7,0,0,1-2.1-.29Z"/><path class="cls-4" d="M800,91.68c-1.29.57-2.68.33-4,.34-9,0-18,0-27,0a3.72,3.72,0,0,1-2.1-.29Z"/><path class="cls-4" d="M433.45,398.76a9.72,9.72,0,0,1-4,.33c-9,0-18,0-27,0a3.79,3.79,0,0,1-2.1-.29Z"/><path class="cls-4" d="M492.94,398.76a9.73,9.73,0,0,1-4,.33c-9,0-18,0-27,0a3.79,3.79,0,0,1-2.1-.29Z"/><path class="cls-1" d="M468.67,157.9a54.72,54.72,0,0,1-4.89-7.18,3,3,0,0,0,.67.21,4.17,4.17,0,0,1,3.88,2.49A4.94,4.94,0,0,1,468.67,157.9Z"/><path class="cls-4" d="M185.93,91.68c-1.13.6-2.36.33-3.53.33-9.18,0-18.37,0-27.55,0a2.33,2.33,0,0,1-1.61-.29Z"/><path class="cls-1" d="M460.51,145.9a54,54,0,0,1-4.88-7.18,2.37,2.37,0,0,0,.67.21,4.2,4.2,0,0,1,3.88,2.5A4.89,4.89,0,0,1,460.51,145.9Z"/><path class="cls-1" d="M444.2,121.92a56.42,56.42,0,0,1-4.89-7.18,2.84,2.84,0,0,0,.67.2,4.2,4.2,0,0,1,3.89,2.5A4.93,4.93,0,0,1,444.2,121.92Z"/><path class="cls-1" d="M452.35,133.91a55.65,55.65,0,0,1-4.88-7.18,2.34,2.34,0,0,0,.67.2,4.18,4.18,0,0,1,3.88,2.5A4.91,4.91,0,0,1,452.35,133.91Z"/><path class="cls-1" d="M476.82,169.89a55.65,55.65,0,0,1-4.88-7.18,3,3,0,0,0,.67.21,4.18,4.18,0,0,1,3.88,2.5A4.89,4.89,0,0,1,476.82,169.89Z"/><path class="cls-1" d="M126.44,91.68c-1.12.59-2.36.32-3.52.33-9.19,0-18.37,0-27.56,0a2.35,2.35,0,0,1-1.61-.29Z"/><path class="cls-1" d="M409.58,493.72l.16.6a.21.21,0,0,1-.05.36c-.46.36,0,1-.5,1.4v0a4.33,4.33,0,0,0-.43.53l0,0a2.53,2.53,0,0,0-.53.45h0c-.26.29-.7.2-.95.49h0c-.4.41-1,.05-1.44.44a.61.61,0,0,1-.69.09c-.58.14-1.16.36-1.71-.09.18-2.05.18-2.06,2.06-2.36.46-.07,1,0,1.19-.55C407.13,493.46,408.41,493.74,409.58,493.72Z"/><path class="cls-1" d="M121.81,191l-.44-.08c-.43-.44-1.06-.12-1.53-.4l0,0c-.22-.43-.67-.35-1-.48l0,0c-.41-.56-1-.93-1.37-1.57h0c-.49-.56,0-1.35-.43-1.92a5.56,5.56,0,0,1-.06-2.4c2.22.17,2.27.17,2.39,2.27a1.92,1.92,0,0,0,1.12,1.9A2.41,2.41,0,0,1,121.81,191Z"/><path class="cls-4" d="M403.67,503.28c2.51-.67,5.07-.27,7.6-.32,5.66-.11,11.31,0,17,0a2.06,2.06,0,0,1,1.37.28Z"/><path class="cls-4" d="M156.61,196.2c2.19-.65,4.43-.26,6.64-.29,6-.08,11.95,0,17.92,0a2.46,2.46,0,0,1,1.38.3Z"/><path class="cls-4" d="M770.18,196.21c2.51-.68,5.07-.28,7.6-.33,5.66-.11,11.31,0,17,0a2,2,0,0,1,1.37.29Z"/><path class="cls-4" d="M710.7,196.21c2.5-.68,5.07-.28,7.6-.33,5.65-.11,11.31,0,17,0a2,2,0,0,1,1.37.29Z"/><path class="cls-4" d="M97.12,196.2c2.43-.64,4.91-.27,7.36-.32,5.65-.1,11.31,0,17,0a3,3,0,0,1,1.62.3Z"/><path class="cls-4" d="M463.16,503.28c2.5-.67,5.07-.27,7.6-.32,5.65-.11,11.31,0,17,0a2.06,2.06,0,0,1,1.37.28Z"/><path class="cls-1" d="M431.79,103.16c1.41-.12,2.65,0,3.38,1.52s2,2.53.9,4.24c-.55.32-.7-.27-1-.45l0,0a4,4,0,0,0-1-1.46l0,0c-.05-.25-.26-.38-.4-.57v0c-.31-.22-.19-.72-.59-.87l0,0a1.38,1.38,0,0,0-.4-.58h0c-.29-.23-.17-.74-.59-.88l0,0a1,1,0,0,0-.4-.59h0c-.14-.11-.17-.22-.12-.32S431.74,103.16,431.79,103.16Z"/><path class="cls-1" d="M483.11,195.28c.68-.5.36-1.27.52-1.92,1.1,0,1.86.34,1.83,1.57,0,.9.38,2.06-.71,2.51s-2.3.61-3.1-.67c.16-.4.77-.18.89-.64l-.05.05a.65.65,0,0,0,.52-.63l0-.17Z"/><path class="cls-1" d="M409.73,407.74l-.15.57c-3.06-.59-4.27-1.71-4.69-4.34l.48.06c.44.38,1.06.09,1.52.39l-.05,0c.25.4.68.36,1.06.43l0,0c.08.5.63.35.87.63h0c.28.24.14.78.62.88l0,0a2,2,0,0,0,.35,1.08A.25.25,0,0,1,409.73,407.74Z"/><path class="cls-1" d="M398.65,398.75a5.26,5.26,0,0,1-2.4-.07c-.56-.48-1.37.08-1.91-.45.4-1.83.67-2,2.53-1.91C398.37,396.43,398.48,396.58,398.65,398.75Z"/><path class="cls-4" d="M736.11,96.88c2.14-.8,4.37-.42,6.56-.46,4-.07,4,0,3.79-4.1a2.08,2.08,0,0,0-.17-.53c-.68-.35-1.5.07-2.23-.17.57-.65,1.31-.45,2-.4a.81.81,0,0,1,.81.73,5.81,5.81,0,0,1,0,.72c0,5.11.46,4.18-3.87,4.24C740.74,97,738.42,96.89,736.11,96.88Z"/><path class="cls-4" d="M488.57,404c2.14-.78,4.37-.42,6.56-.45,4-.07,4,0,3.79-4.1a2.3,2.3,0,0,0-.16-.53c-.69-.35-1.5.07-2.24-.18.57-.65,1.31-.45,2-.4a.81.81,0,0,1,.81.74,5.52,5.52,0,0,1,.05.71c0,5.11.46,4.18-3.87,4.25C493.2,404,490.89,404,488.57,404Z"/><path class="cls-4" d="M429.08,404c2.14-.79,4.37-.41,6.56-.45,4-.07,4,0,3.8-4.1a2.41,2.41,0,0,0-.17-.53c-.68-.35-1.5.07-2.24-.18.57-.65,1.32-.45,2-.4a.8.8,0,0,1,.8.74,5.51,5.51,0,0,1,.06.71c0,5.12.45,4.18-3.88,4.25C433.72,404,431.4,404,429.08,404Z"/><path class="cls-4" d="M795.59,96.88c2.15-.79,4.38-.42,6.57-.46,4-.06,4,0,3.79-4.1a2.59,2.59,0,0,0-.17-.53c-.68-.34-1.5.07-2.24-.17.57-.65,1.32-.45,2-.4a.8.8,0,0,1,.8.73,5.83,5.83,0,0,1,.06.72c0,5.11.46,4.18-3.88,4.24C800.23,97,797.91,96.89,795.59,96.88Z"/><path class="cls-4" d="M394.34,398.23c.65.08,1.39-.21,1.91.45-2,.14-2,.14-2,2.11,0,.32,0,.64,0,1,0,1.69,0,1.7,1.66,1.73,2.14,0,4.28,0,6.43.07a3.85,3.85,0,0,1,2.3.4c-3,0-6.06,0-9.08.06-1.18,0-1.87-.36-1.71-1.63S393.36,399.52,394.34,398.23Z"/><path class="cls-4" d="M703.27,91.6c-2,.15-2,.15-2,2.11v1c0,1.69,0,1.71,1.66,1.73,2.14,0,4.29,0,6.43.07a4,4,0,0,1,2.31.4c-3,0-6.07,0-9.1.06-1.19,0-1.8-.37-1.71-1.64,0-.79,0-1.59,0-2.39C701,91.06,701.19,90.93,703.27,91.6Z"/><path class="cls-4" d="M455.74,398.68c-1.94.15-2,.15-1.95,2.14,0,3.08-.33,2.57,2.62,2.67,2.58.09,5.2-.37,7.74.46-3,0-6.06,0-9.1.06-1.18,0-1.81-.36-1.72-1.64.06-.79,0-1.59,0-2.39C453.41,398.13,453.65,398,455.74,398.68Z"/><path class="cls-4" d="M762.76,91.6c-1.94.16-2,.16-1.94,2.14,0,3.08-.34,2.57,2.61,2.68,2.59.09,5.21-.38,7.75.45-3,0-6.07,0-9.1.06-1.19,0-1.81-.36-1.72-1.63,0-.8,0-1.6,0-2.4C760.43,91.06,760.68,90.93,762.76,91.6Z"/><path class="cls-1" d="M424.59,92.6c3.09.07,4.31,1.65,3.33,4.32-.55.32-.7-.26-1-.45l0,0a4.25,4.25,0,0,0-1-1.46l0,0c-.06-.24-.27-.38-.41-.57v0c-.3-.22-.18-.73-.59-.88l0,0a1,1,0,0,0-.43-.57h0c-.14-.12-.18-.23-.12-.34S424.54,92.6,424.59,92.6Z"/><path class="cls-1" d="M477.32,101.25a6.19,6.19,0,0,1,1.4,4.78l-.61-.32C475.74,104.44,475.54,103.32,477.32,101.25Z"/><path class="cls-1" d="M471.1,97.38A7.91,7.91,0,0,1,476,99.73a10.47,10.47,0,0,1-1.46.73,1.71,1.71,0,0,1-2.39-1.32C472,98.3,471.47,97.94,471.1,97.38Z"/><path class="cls-4" d="M489.58,91.68A3.11,3.11,0,0,1,488,92q-6.93.22-13.85,0a2.05,2.05,0,0,1-1.37-.3Z"/><path class="cls-4" d="M493.51,96.88c1.35-.65,2.81-.42,4.22-.45.92,0,1.19-.35,1.24-1.25.21-3.54.24-3.53-3.18-3.5-.4,0-.79-.05-1.19-.08,1.23-.86,2.6-.32,3.9-.38.55,0,.82.4.87.93,0,.08,0,.16,0,.24.56,4.24.29,4.55-4,4.53C494.78,96.92,494.15,96.89,493.51,96.88Z"/><path class="cls-1" d="M158.31,191l-.44.07c.34-2.83,1.16-3.3,4.26-2.47a.41.41,0,0,1-.26.55,3.22,3.22,0,0,0-1.1,1l0,0c-.35.14-.8.07-1,.48l0,0C159.37,190.84,158.74,190.53,158.31,191Z"/><path class="cls-1" d="M422.64,91.61c-.35-.54-.93-.42-1.44-.49-.15-1.39.84-1.6,1.81-1.57s1.72.41,1.55,1.62a7.53,7.53,0,0,0,0,1c-.64.28-1-.34-1.58-.42l-.19,0Z"/><path class="cls-4" d="M394.5,191.5a1.76,1.76,0,0,0-.15.44c-.5,4.39-.5,4.38,3.86,4.31.94,0,1.89,0,2.84,0-2.05.95-4.2.24-6.3.4-.31,0-.73-.18-.73-.48C394,194.61,393.19,192.94,394.5,191.5Z"/><path class="cls-1" d="M87.37,96.26c2.61.07,5.23.11,7.84.2a5.56,5.56,0,0,1,2.79.42c-2.92,0-5.85,0-8.78,0C88.55,96.91,87.75,97.15,87.37,96.26Z"/><path class="cls-4" d="M406.55,196.2a39.54,39.54,0,0,1,11.08,0Z"/><path class="cls-1" d="M122.15,96.87c1.69-.68,3.47-.35,5.2-.46s3.67.26,5.48-.24c-.29.93-1.09.74-1.76.74C128.1,96.91,125.13,96.89,122.15,96.87Z"/><path class="cls-1" d="M146.85,96.17c1.8.5,3.65.11,5.46.24s3.51-.21,5.19.46c-2.95,0-5.9,0-8.85,0C148,96.91,147.16,97.12,146.85,96.17Z"/><path class="cls-4" d="M181.64,96.87c1.68-.67,3.46-.35,5.2-.47s3.66.26,5.47-.23c-.29.94-1.08.74-1.75.74C187.58,96.91,184.61,96.89,181.64,96.87Z"/><path class="cls-4" d="M394.5,498.57a6.13,6.13,0,0,0-.11,4.17c.68,1.54,2.53.1,3.78.61-1.06.83-2.28.33-3.43.4-.32,0-.73-.18-.73-.48C394,501.69,393.18,500,394.5,498.57Z"/><path class="cls-4" d="M742.62,196.27c1,0,2,0,3,0,.6,0,.87-.24.83-.82-.07-1.32.23-2.65-.22-3.95,1.38,1.42.49,3.11.52,4.68,0,.31-.4.51-.73.49C744.9,196.61,743.68,197.11,742.62,196.27Z"/><path class="cls-4" d="M701.53,191.5a6.1,6.1,0,0,0-.11,4.16c.68,1.54,2.53.1,3.78.61-1.06.84-2.28.34-3.43.4-.33,0-.74-.18-.74-.48C701,194.61,700.21,192.93,701.53,191.5Z"/><path class="cls-4" d="M761,191.5a6.28,6.28,0,0,0-.1,4.14c.67,1.57,2.51.11,3.74.63-1.06.84-2.28.34-3.43.4-.33,0-.74-.18-.73-.49C760.55,194.61,759.66,192.92,761,191.5Z"/><path class="cls-4" d="M802.11,196.27c1,0,2,0,3,0,.59,0,.87-.24.83-.82-.08-1.32.22-2.65-.23-3.95,1.39,1.42.5,3.11.53,4.68,0,.31-.41.51-.73.49C804.39,196.61,803.17,197.11,802.11,196.27Z"/><path class="cls-4" d="M495.08,503.35c1,0,2,0,3,0,.6,0,.87-.24.84-.82-.08-1.32.22-2.66-.23-3.95,1.38,1.42.49,3.11.52,4.68,0,.3-.4.51-.73.49C497.36,503.68,496.14,504.18,495.08,503.35Z"/><path class="cls-4" d="M454,498.58a6.19,6.19,0,0,0-.1,4.13c.67,1.58,2.5.12,3.74.64-1.06.83-2.29.33-3.44.4-.32,0-.73-.19-.73-.49C453.52,501.69,452.63,500,454,498.58Z"/><path class="cls-4" d="M435.59,503.35c1,0,2,0,3,0,.59,0,.87-.24.83-.82-.08-1.32.22-2.66-.23-3.95,1.39,1.42.5,3.11.53,4.68,0,.3-.41.51-.73.49C437.88,503.68,436.66,504.18,435.59,503.35Z"/><path class="cls-1" d="M409.59,181.85l.16,1.1a.88.88,0,0,1-.1.82c-.32.24,0,.81-.53,1-.59-.06-1.24-.29-1.18-.91C408,182.87,408.4,182,409.59,181.85Z"/><path class="cls-1" d="M409.73,98.25l-.12,1.07a2,2,0,0,1-2.32-1.92,1.84,1.84,0,0,1,1.65-.07h.18l.09.15a1.35,1.35,0,0,1,.39.4A.24.24,0,0,1,409.73,98.25Z"/><path class="cls-4" d="M423.12,196.27c2.38-.28,4.77.33,7.14-.2-.08.13-.15.36-.25.38A13.86,13.86,0,0,1,423.12,196.27Z"/><path class="cls-4" d="M463,96.17c1.76.61,3.7-.14,5.44.7l-4.18,0C463.69,96.92,463.17,96.84,463,96.17Z"/><path class="cls-1" d="M405.85,188.56a2.78,2.78,0,0,1,2.4-2.39c.27.62-.26,1-.48,1.44h0c-.17.16-.33.32-.48.49h0C406.83,188.31,406.47,188.84,405.85,188.56Z"/><path class="cls-4" d="M467.73,91.61c-1.57.28-3.18-.26-4.73.23C464.52,90.64,466.12,91,467.73,91.61Z"/><path class="cls-1" d="M161.77,98.74c1.08,1.15.95,2.54.83,3.94C162.24,101.38,161.32,100.21,161.77,98.74Z"/><path class="cls-4" d="M432.23,498.48a7.65,7.65,0,0,1-3.91-.41C429.62,498.21,431,497.6,432.23,498.48Z"/><path class="cls-4" d="M491.72,498.48a7.81,7.81,0,0,1-3.92-.41C489.11,498.2,490.49,497.6,491.72,498.48Z"/><path class="cls-4" d="M98.48,191a8,8,0,0,1-4,.4C95.76,190.52,97.16,191.12,98.48,191Z"/><path class="cls-4" d="M798.74,191.4a7.76,7.76,0,0,1-3.91-.41C796.13,191.13,797.51,190.52,798.74,191.4Z"/><path class="cls-4" d="M739.25,191.4a7.68,7.68,0,0,1-3.91-.41C736.64,191.13,738,190.52,739.25,191.4Z"/><path class="cls-4" d="M125.69,191.41a7.81,7.81,0,0,1-3.92-.39C123.08,191.1,124.45,190.53,125.69,191.41Z"/><path class="cls-4" d="M185.17,191.41a8.13,8.13,0,0,1-4-.4C182.51,191.11,183.91,190.52,185.17,191.41Z"/><path class="cls-4" d="M188.54,196.28c1.25-.27,2.54.26,3.78-.21C191.11,197.18,189.83,196.85,188.54,196.28Z"/><path class="cls-4" d="M146.85,196.07c1.24.47,2.53-.06,3.78.21C149.33,196.85,148.05,197.18,146.85,196.07Z"/><path class="cls-4" d="M129.05,196.28c1.25-.27,2.54.26,3.78-.21C131.63,197.18,130.35,196.85,129.05,196.28Z"/><path class="cls-4" d="M87.34,196.14c1.26.34,2.55-.11,3.8.14A3.38,3.38,0,0,1,87.34,196.14Z"/><path class="cls-4" d="M157.9,191a7.62,7.62,0,0,1-3.9.39C155.22,190.53,156.6,191.11,157.9,191Z"/><path class="cls-4" d="M400.21,191a6.33,6.33,0,0,1-3.47.4C397.82,190.57,399.05,191.09,400.21,191Z"/><path class="cls-4" d="M464.65,498.09a6.82,6.82,0,0,1-3.63.39C462.15,497.64,463.43,498.17,464.65,498.09Z"/><path class="cls-4" d="M403.45,498l1.71.09a6.79,6.79,0,0,1-3.62.39C402.05,497.82,402.8,498.12,403.45,498Z"/><path class="cls-4" d="M427.91,191.41a6.69,6.69,0,0,1-3.62-.4C425.5,191.1,426.78,190.56,427.91,191.41Z"/><path class="cls-4" d="M712.18,191a6.68,6.68,0,0,1-3.62.39C709.69,190.57,711,191.1,712.18,191Z"/><path class="cls-4" d="M771.67,191a6.69,6.69,0,0,1-3.62.39C769.18,190.57,770.46,191.1,771.67,191Z"/><path class="cls-4" d="M482.54,196.13c-.11.47-.49.57-.89.64-.65-.15-1.47.23-1.89-.62A5.94,5.94,0,0,0,482.54,196.13Z"/><path class="cls-1" d="M132.82,91.85c-.75-.37-1.56,0-2.33-.25C131.33,91,132.15,90.76,132.82,91.85Z"/><path class="cls-1" d="M149.19,91.61c-.76.2-1.58-.13-2.33.24C147.53,90.76,148.35,91,149.19,91.61Z"/><path class="cls-4" d="M192.31,91.85c-.75-.36-1.57,0-2.33-.24C190.82,91,191.63,90.75,192.31,91.85Z"/><path class="cls-4" d="M423,91.7a2.69,2.69,0,0,1,1.58.42l0,.48c0,.17,0,.33,0,.49Z"/><path class="cls-1" d="M103.1,185.69a3.55,3.55,0,0,1-.38,2.61C102.76,187.42,102.34,186.47,103.1,185.69Z"/><path class="cls-4" d="M177,188.55a2.77,2.77,0,0,1-.45-2.38C177.32,186.85,176.92,187.75,177,188.55Z"/><path class="cls-4" d="M178.39,190.12a1.71,1.71,0,0,1-1.36-1.56A2.34,2.34,0,0,1,178.39,190.12Z"/><path class="cls-1" d="M89.7,91.61l-2.34.17C88.07,90.81,88.87,91,89.7,91.61Z"/><path class="cls-1" d="M102.73,99.71a3.23,3.23,0,0,1,.37,2.48C102.36,101.46,102.74,100.56,102.73,99.71Z"/><path class="cls-4" d="M407.77,187.61a3,3,0,0,1,.48-1.44l.52,0A1.9,1.9,0,0,1,407.77,187.61Z"/><path class="cls-4" d="M405.85,188.56a3.33,3.33,0,0,1,1.44-.48,2,2,0,0,1-1.4,1Z"/><path class="cls-4" d="M402.53,190.51a2.45,2.45,0,0,1-2,.44C401.1,190.26,401.85,190.54,402.53,190.51Z"/><path class="cls-4" d="M426.89,96.47l1,.45,0,1A2.45,2.45,0,0,1,426.89,96.47Z"/><path class="cls-1" d="M98.34,96.92a2.28,2.28,0,0,1,1.93.48C99.61,97.33,98.85,97.63,98.34,96.92Z"/><path class="cls-1" d="M119.9,97.38a2.36,2.36,0,0,1,1.95-.47C121.34,97.63,120.58,97.34,119.9,97.38Z"/><path class="cls-1" d="M157.83,96.92a2.27,2.27,0,0,1,1.94.47C159.1,97.33,158.34,97.63,157.83,96.92Z"/><path class="cls-4" d="M179.39,97.39a2.3,2.3,0,0,1,2-.48C180.83,97.63,180.07,97.34,179.39,97.39Z"/><path class="cls-1" d="M117.08,101.72a2.56,2.56,0,0,1,.39-2.18C117.46,100.28,117.78,101.09,117.08,101.72Z"/><path class="cls-1" d="M469.18,97a2.49,2.49,0,0,1,1.94.43C470.45,97.34,469.71,97.62,469.18,97Z"/><path class="cls-4" d="M491.09,97.35a2.71,2.71,0,0,1,2.07-.43C492.59,97.64,491.81,97.35,491.09,97.35Z"/><path class="cls-4" d="M176.58,101.72a2.54,2.54,0,0,1,.37-2.14C177,100.31,177.26,101.1,176.58,101.72Z"/><path class="cls-4" d="M476.88,192.35a2.42,2.42,0,0,1,1,1.46A1.3,1.3,0,0,1,476.88,192.35Z"/><path class="cls-4" d="M428,120.38a2.41,2.41,0,0,1,1,1.46A1.3,1.3,0,0,1,428,120.38Z"/><path class="cls-4" d="M466.78,404.52a1.65,1.65,0,0,1,1.44.91A1.44,1.44,0,0,1,466.78,404.52Z"/><path class="cls-4" d="M436.11,132.37a2.41,2.41,0,0,1,1,1.46A1.27,1.27,0,0,1,436.11,132.37Z"/><path class="cls-4" d="M444.26,144.37a2.42,2.42,0,0,1,1,1.46A1.3,1.3,0,0,1,444.26,144.37Z"/><path class="cls-4" d="M414.47,101.72c0-.21-.07-.49,0-.6.34-.35.48.1.63.27a3.12,3.12,0,0,1,.41.74Z"/><path class="cls-4" d="M773.8,97.45a1.64,1.64,0,0,1,1.44.91A1.47,1.47,0,0,1,773.8,97.45Z"/><path class="cls-4" d="M452.42,156.36a2.41,2.41,0,0,1,1,1.46A1.27,1.27,0,0,1,452.42,156.36Z"/><path class="cls-4" d="M460.57,168.36a2.42,2.42,0,0,1,1,1.46A1.3,1.3,0,0,1,460.57,168.36Z"/><path class="cls-4" d="M468.73,180.35a2.41,2.41,0,0,1,1,1.46A1.27,1.27,0,0,1,468.73,180.35Z"/><path class="cls-4" d="M419.8,108.38a2.45,2.45,0,0,1,1,1.46A1.27,1.27,0,0,1,419.8,108.38Z"/><path class="cls-4" d="M435.05,108.47l1,.45,0,1A2.38,2.38,0,0,1,435.05,108.47Z"/><path class="cls-4" d="M414.9,184.47a2.7,2.7,0,0,1-.37-2.14C415.2,183,414.9,183.73,414.9,184.47Z"/><path class="cls-1" d="M162.58,186.17a2.6,2.6,0,0,1-.37,2.18C162.22,187.6,161.9,186.8,162.58,186.17Z"/><path class="cls-4" d="M409.12,184.73a1.3,1.3,0,0,1,.53-1,1.5,1.5,0,0,1-.43,1.45Z"/><path class="cls-4" d="M464.86,404a1.74,1.74,0,0,1,1.59.4C465.87,404.46,465.28,404.59,464.86,404Z"/><path class="cls-4" d="M790.58,100.28a1.29,1.29,0,0,1,.51-1.39C791.06,99.41,791.14,100,790.58,100.28Z"/><path class="cls-4" d="M408.94,97.33l-1.65.07v-.46A1.74,1.74,0,0,1,408.94,97.33Z"/><path class="cls-4" d="M712.4,97a1.56,1.56,0,0,1,1.51.39C713.36,97.39,712.79,97.5,712.4,97Z"/><path class="cls-4" d="M733.81,97.34a1.75,1.75,0,0,1,1.61-.4C735,97.52,734.39,97.38,733.81,97.34Z"/><path class="cls-4" d="M771.88,97a1.71,1.71,0,0,1,1.59.4C772.9,97.38,772.3,97.52,771.88,97Z"/><path class="cls-4" d="M793.31,97.35a1.69,1.69,0,0,1,1.59-.4C794.48,97.52,793.89,97.38,793.31,97.35Z"/><path class="cls-4" d="M417.25,188.24a1.42,1.42,0,0,1-1-1A1,1,0,0,1,417.25,188.24Z"/><path class="cls-4" d="M716.71,187.6a1.29,1.29,0,0,1-.5,1.41C716.24,188.49,716.15,187.93,716.71,187.6Z"/><path class="cls-4" d="M486.29,404.42a1.71,1.71,0,0,1,1.59-.4C487.46,404.59,486.86,404.46,486.29,404.42Z"/><path class="cls-4" d="M424.05,407.36a1.33,1.33,0,0,1,.53-1.41C424.55,406.48,424.63,407,424.05,407.36Z"/><path class="cls-4" d="M483.56,407.36a1.28,1.28,0,0,1,.51-1.39C484,406.48,484.12,407,483.56,407.36Z"/><path class="cls-4" d="M469.19,494.68a1.33,1.33,0,0,1-.51,1.42C468.7,495.57,468.61,495,469.19,494.68Z"/><path class="cls-4" d="M484.05,496.11a1.34,1.34,0,0,1-.51-1.43C484.13,495,484,495.58,484.05,496.11Z"/><path class="cls-4" d="M791.07,189a1.34,1.34,0,0,1-.5-1.43C791.15,187.93,791.06,188.5,791.07,189Z"/><path class="cls-1" d="M117.87,98.75a1.2,1.2,0,0,1,1.07-.93A1.14,1.14,0,0,1,117.87,98.75Z"/><path class="cls-4" d="M731.08,100.28a1.3,1.3,0,0,1,.52-1.4C731.57,99.4,731.66,100,731.08,100.28Z"/><path class="cls-4" d="M427.91,498a1.48,1.48,0,0,1-1.45-.43C427,497.57,427.54,497.47,427.91,498Z"/><path class="cls-4" d="M776.21,187.6a1.31,1.31,0,0,1-.5,1.42C775.73,188.49,775.64,187.93,776.21,187.6Z"/><path class="cls-4" d="M466.79,497.57a1.48,1.48,0,0,1-1.45.43C465.7,497.47,466.26,497.57,466.79,497.57Z"/><path class="cls-4" d="M487.4,498a1.48,1.48,0,0,1-1.46-.43C486.47,497.57,487,497.47,487.4,498Z"/><path class="cls-4" d="M180.86,191a1.62,1.62,0,0,1-1.53-.4C179.89,190.49,180.47,190.38,180.86,191Z"/><path class="cls-4" d="M404,190a1.59,1.59,0,0,1-1.48.48C402.85,189.9,403.43,190,404,190Z"/><path class="cls-1" d="M100.34,190.54a1.58,1.58,0,0,1-1.52.41C99.21,190.38,99.78,190.5,100.34,190.54Z"/><path class="cls-4" d="M483.6,104.11a1.49,1.49,0,0,1,.44-1.45C484,103.19,484.14,103.75,483.6,104.11Z"/><path class="cls-4" d="M423.6,190.93a1.85,1.85,0,0,1-1.63-.39C422.55,190.5,423.16,190.36,423.6,190.93Z"/><path class="cls-1" d="M102.33,189.14a1.3,1.3,0,0,1-1,1A1.07,1.07,0,0,1,102.33,189.14Z"/><path class="cls-4" d="M714.32,190.49a1.51,1.51,0,0,1-1.44.43C713.24,190.39,713.79,190.49,714.32,190.49Z"/><path class="cls-4" d="M734.94,190.93a1.53,1.53,0,0,1-1.46-.43C734,190.49,734.57,190.39,734.94,190.93Z"/><path class="cls-4" d="M773.81,190.49a1.51,1.51,0,0,1-1.45.44C772.73,190.39,773.29,190.49,773.81,190.49Z"/><path class="cls-4" d="M794.42,190.93a1.49,1.49,0,0,1-1.45-.44C793.5,190.49,794.06,190.39,794.42,190.93Z"/><path class="cls-4" d="M426.79,404.42a1.74,1.74,0,0,1,1.6-.4C428,404.6,427.37,404.46,426.79,404.42Z"/><path class="cls-4" d="M422.15,111.82a1,1,0,0,1,.58.89C422.28,112.58,422.17,112.23,422.15,111.82Z"/><path class="cls-1" d="M438,112.78a1.12,1.12,0,0,1-.62-.89C437.88,112,438,112.35,438,112.78Z"/><path class="cls-1" d="M100.27,97.39a.93.93,0,0,1,1,.46A.94.94,0,0,1,100.27,97.39Z"/><path class="cls-1" d="M118.91,97.84a.91.91,0,0,1,1-.46A.91.91,0,0,1,118.91,97.84Z"/><path class="cls-1" d="M159.76,97.38a.9.9,0,0,1,1,.47A.93.93,0,0,1,159.76,97.38Z"/><path class="cls-4" d="M178.4,97.84a.92.92,0,0,1,1-.46A.91.91,0,0,1,178.4,97.84Z"/><path class="cls-4" d="M471.08,183.79a1,1,0,0,1,.59.89C471.21,184.55,471.1,184.2,471.08,183.79Z"/><path class="cls-4" d="M489.57,97.81a1.21,1.21,0,0,1,1.19-.39A1.12,1.12,0,0,1,489.57,97.81Z"/><path class="cls-4" d="M713.87,97.32a1.07,1.07,0,0,1,1.06.43C714.47,97.85,714.07,97.83,713.87,97.32Z"/><path class="cls-4" d="M732.59,97.9a.84.84,0,0,1,.91-.46A1,1,0,0,1,732.59,97.9Z"/><path class="cls-4" d="M792.08,97.91a.83.83,0,0,1,.9-.46A1,1,0,0,1,792.08,97.91Z"/><path class="cls-4" d="M462.93,171.79a1.05,1.05,0,0,1,.58.89C463.06,172.56,463,172.2,462.93,171.79Z"/><path class="cls-1" d="M439,114.2a1.08,1.08,0,0,1-.62-.89C438.82,113.41,438.92,113.78,439,114.2Z"/><path class="cls-4" d="M488.31,98.33a1,1,0,0,1,1-.43A1,1,0,0,1,488.31,98.33Z"/><path class="cls-4" d="M714.89,97.73c.4.06.75.18.87.63C715.33,98.34,715,98.25,714.89,97.73Z"/><path class="cls-1" d="M469.63,159.33a1.09,1.09,0,0,1-.61-.9C469.55,158.51,469.62,158.89,469.63,159.33Z"/><path class="cls-4" d="M424.08,114.67a1,1,0,0,1,.6.89C424.2,115.46,424.1,115.09,424.08,114.67Z"/><path class="cls-4" d="M463.89,173.22a1,1,0,0,1,.59.89C464,174,463.91,173.64,463.89,173.22Z"/><path class="cls-4" d="M425.05,116.09a1.07,1.07,0,0,1,.61.9C425.14,116.9,425.06,116.52,425.05,116.09Z"/><path class="cls-4" d="M415.39,185.76a.91.91,0,0,1-.42-1A.91.91,0,0,1,415.39,185.76Z"/><path class="cls-4" d="M428.85,99.36a1.14,1.14,0,0,1-.62-.89C428.77,98.53,428.85,98.92,428.85,99.36Z"/><path class="cls-4" d="M487.38,98.83a1,1,0,0,1,1-.52A.91.91,0,0,1,487.38,98.83Z"/><path class="cls-4" d="M715.75,98.36c.46.12.58.47.62.88C715.86,99.16,715.77,98.78,715.75,98.36Z"/><path class="cls-4" d="M426,117.52a1.07,1.07,0,0,1,.61.89C426.1,118.34,426,118,426,117.52Z"/><path class="cls-4" d="M464.86,174.65a1,1,0,0,1,.6.89C465,175.43,464.87,175.07,464.86,174.65Z"/><path class="cls-4" d="M427,119a1.06,1.06,0,0,1,.62.89C427.06,119.78,427,119.39,427,119Z"/><path class="cls-1" d="M102.26,98.74a1,1,0,0,1,.49,1C102.25,99.58,102.21,99.18,102.26,98.74Z"/><path class="cls-4" d="M473,186.64a1,1,0,0,1,.6.89C473.13,187.43,473,187.06,473,186.64Z"/><path class="cls-4" d="M465.83,176.07a1,1,0,0,1,.6.89C465.92,176.88,465.84,176.5,465.83,176.07Z"/><path class="cls-4" d="M423.11,113.24a1.06,1.06,0,0,1,.6.9C423.24,114,423.13,113.66,423.11,113.24Z"/><path class="cls-4" d="M486,99.82a1,1,0,0,1,.82-.65C486.77,99.66,486.42,99.78,486,99.82Z"/><path class="cls-4" d="M716.35,99.2a.94.94,0,0,1,.35,1.08A.88.88,0,0,1,716.35,99.2Z"/><path class="cls-4" d="M775.79,99.08a1.13,1.13,0,0,1,.41,1.2A1.1,1.1,0,0,1,775.79,99.08Z"/><path class="cls-4" d="M429.82,100.78a1.09,1.09,0,0,1-.62-.88C429.73,100,429.81,100.35,429.82,100.78Z"/><path class="cls-4" d="M455.74,161.22a1.07,1.07,0,0,1,.59.9C455.86,162,455.76,161.64,455.74,161.22Z"/><path class="cls-1" d="M471.57,162.18a1.06,1.06,0,0,1-.6-.9C471.45,161.39,471.55,161.76,471.57,162.18Z"/><path class="cls-4" d="M466.79,177.5a1.07,1.07,0,0,1,.62.89C466.88,178.32,466.8,177.93,466.79,177.5Z"/><path class="cls-4" d="M484.84,101.13a1,1,0,0,1,.66-.82C485.46,100.73,485.34,101.08,484.84,101.13Z"/><path class="cls-4" d="M472.05,185.22a1,1,0,0,1,.59.89C472.17,186,472.07,185.63,472.05,185.22Z"/><path class="cls-4" d="M456.7,162.65a1,1,0,0,1,.6.89C456.82,163.44,456.72,163.07,456.7,162.65Z"/><path class="cls-4" d="M430.79,102.21a1.07,1.07,0,0,1-.61-.89C430.69,101.4,430.77,101.78,430.79,102.21Z"/><path class="cls-4" d="M467.76,178.93a1.05,1.05,0,0,1,.62.89C467.84,179.76,467.76,179.37,467.76,178.93Z"/><path class="cls-4" d="M484,102.67a.93.93,0,0,1,.47-1A.92.92,0,0,1,484,102.67Z"/><path class="cls-4" d="M449.51,152.08a1.05,1.05,0,0,1,.61.89C449.61,152.89,449.52,152.51,449.51,152.08Z"/><path class="cls-4" d="M457.67,164.08a1,1,0,0,1,.61.89C457.76,164.88,457.68,164.5,457.67,164.08Z"/><path class="cls-4" d="M415.92,102.68a1,1,0,0,1,.61.89C416,103.46,415.94,103.1,415.92,102.68Z"/><path class="cls-4" d="M431.79,103.16a3.71,3.71,0,0,0,0,.47,1,1,0,0,1-.6-.87Z"/><path class="cls-4" d="M415.9,186.68a1,1,0,0,1-.53-1C415.84,185.88,415.91,186.26,415.9,186.68Z"/><path class="cls-4" d="M416.89,104.1a1.05,1.05,0,0,1,.61.89C417,104.91,416.9,104.53,416.89,104.1Z"/><path class="cls-4" d="M450.48,153.51a1.07,1.07,0,0,1,.62.89C450.57,154.33,450.49,153.94,450.48,153.51Z"/><path class="cls-4" d="M459.6,166.93a1.06,1.06,0,0,1,.62.89C459.68,167.76,459.61,167.37,459.6,166.93Z"/><path class="cls-4" d="M417.86,105.53a1.07,1.07,0,0,1,.62.89C418,106.35,417.87,106,417.86,105.53Z"/><path class="cls-4" d="M453.8,158.38a1,1,0,0,1,.58.88A.85.85,0,0,1,453.8,158.38Z"/><path class="cls-4" d="M418.83,107a1.06,1.06,0,0,1,.62.89C418.9,107.78,418.83,107.4,418.83,107Z"/><path class="cls-4" d="M470.11,182.37a1,1,0,0,1,.58.88A.85.85,0,0,1,470.11,182.37Z"/><path class="cls-4" d="M448.55,150.66a1,1,0,0,1,.6.89C448.67,151.44,448.56,151.08,448.55,150.66Z"/><path class="cls-4" d="M462,170.37a1,1,0,0,1,.58.88C462.1,171.12,462,170.77,462,170.37Z"/><path class="cls-4" d="M421.18,110.39a1,1,0,0,1,.58.88C421.32,111.14,421.21,110.8,421.18,110.39Z"/><path class="cls-1" d="M437,111.35a1.1,1.1,0,0,1-.62-.89C436.93,110.53,437,110.91,437,111.35Z"/><path class="cls-1" d="M477.79,171.32a1.1,1.1,0,0,1-.62-.89C477.7,170.5,477.78,170.89,477.79,171.32Z"/><path class="cls-4" d="M474,188.07a1,1,0,0,1,.61.89C474.07,188.87,474,188.49,474,188.07Z"/><path class="cls-4" d="M731.58,189a.83.83,0,0,1-.43-.95A1,1,0,0,1,731.58,189Z"/><path class="cls-1" d="M463.41,150.18a1.06,1.06,0,0,1-.6-.89C463.29,149.4,463.39,149.76,463.41,150.18Z"/><path class="cls-4" d="M447.58,149.23a1,1,0,0,1,.59.89C447.71,150,447.6,149.64,447.58,149.23Z"/><path class="cls-4" d="M475,189.49a1.08,1.08,0,0,1,.62.89C475,190.31,475,189.93,475,189.49Z"/><path class="cls-1" d="M101.32,190.08a1,1,0,0,1-1,.48C100.48,190.07,100.88,190,101.32,190.08Z"/><path class="cls-1" d="M462.44,148.76a1.08,1.08,0,0,1-.6-.9C462.35,148,462.43,148.33,462.44,148.76Z"/><path class="cls-4" d="M446.61,147.8a1,1,0,0,1,.59.89C446.75,148.57,446.64,148.21,446.61,147.8Z"/><path class="cls-4" d="M475.92,190.92a1.07,1.07,0,0,1,.61.89C476,191.75,475.92,191.36,475.92,190.92Z"/><path class="cls-1" d="M461.48,147.33a1.08,1.08,0,0,1-.62-.89C461.39,146.51,461.47,146.9,461.48,147.33Z"/><path class="cls-4" d="M445.65,146.38a1,1,0,0,1,.58.88C445.79,147.13,445.68,146.78,445.65,146.38Z"/><path class="cls-4" d="M443.29,142.94a1.06,1.06,0,0,1,.62.89C443.37,143.77,443.29,143.38,443.29,142.94Z"/><path class="cls-4" d="M442.33,141.51a1.08,1.08,0,0,1,.62.89C442.41,142.33,442.33,142,442.33,141.51Z"/><path class="cls-1" d="M470.6,160.75a1.07,1.07,0,0,1-.61-.89C470.5,159.94,470.59,160.33,470.6,160.75Z"/><path class="cls-4" d="M478.27,194.36a1.08,1.08,0,0,1,.63.84C478.42,195.12,478.31,194.77,478.27,194.36Z"/><path class="cls-4" d="M441.36,140.08a1.07,1.07,0,0,1,.61.9C441.45,140.89,441.37,140.51,441.36,140.08Z"/><path class="cls-4" d="M440.39,138.66a1,1,0,0,1,.6.89C440.51,139.45,440.41,139.08,440.39,138.66Z"/><path class="cls-1" d="M455.26,138.19a1.09,1.09,0,0,1-.61-.89C455.14,137.4,455.24,137.77,455.26,138.19Z"/><path class="cls-4" d="M439.42,137.23a1.06,1.06,0,0,1,.6.9C439.55,138,439.45,137.65,439.42,137.23Z"/><path class="cls-1" d="M454.29,136.77a1.08,1.08,0,0,1-.61-.9C454.2,136,454.28,136.34,454.29,136.77Z"/><path class="cls-4" d="M438.46,135.81a1,1,0,0,1,.58.89C438.59,136.57,438.48,136.22,438.46,135.81Z"/><path class="cls-1" d="M453.32,135.34a1.12,1.12,0,0,1-.62-.89C453.24,134.52,453.31,134.91,453.32,135.34Z"/><path class="cls-4" d="M437.49,134.38a1,1,0,0,1,.58.88C437.63,135.13,437.52,134.79,437.49,134.38Z"/><path class="cls-4" d="M435.14,131a1.06,1.06,0,0,1,.62.89C435.21,131.77,435.14,131.39,435.14,131Z"/><path class="cls-4" d="M451.45,154.94a1.06,1.06,0,0,1,.62.89C451.52,155.76,451.45,155.38,451.45,154.94Z"/><path class="cls-4" d="M434.17,129.52a1.07,1.07,0,0,1,.62.89C434.26,130.34,434.18,130,434.17,129.52Z"/><path class="cls-4" d="M409.22,185.21a.92.92,0,0,1-.46,1A.93.93,0,0,1,409.22,185.21Z"/><path class="cls-4" d="M179.37,190.58a1,1,0,0,1-1-.49C178.8,190,179.2,190.07,179.37,190.58Z"/><path class="cls-4" d="M405.92,189.09a1,1,0,0,1-1,.54C405.09,189.13,405.48,189.06,405.92,189.09Z"/><path class="cls-4" d="M421.68,190.47a1.2,1.2,0,0,1-1.19-.4A1.11,1.11,0,0,1,421.68,190.47Z"/><path class="cls-4" d="M715.26,190a.86.86,0,0,1-1,.49A1,1,0,0,1,715.26,190Z"/><path class="cls-4" d="M425.57,405a.83.83,0,0,1,.9-.46A1,1,0,0,1,425.57,405Z"/><path class="cls-4" d="M485.06,405a.84.84,0,0,1,.9-.46A1,1,0,0,1,485.06,405Z"/><path class="cls-4" d="M733.5,190.5a.89.89,0,0,1-1-.49A1,1,0,0,1,733.5,190.5Z"/><path class="cls-4" d="M774.76,190a.86.86,0,0,1-1,.49A1,1,0,0,1,774.76,190Z"/><path class="cls-4" d="M468.77,406.15a1.15,1.15,0,0,1,.41,1.21A1.1,1.1,0,0,1,468.77,406.15Z"/><path class="cls-4" d="M433.2,128.09a1.05,1.05,0,0,1,.61.89C433.3,128.9,433.21,128.52,433.2,128.09Z"/><path class="cls-4" d="M432.24,126.67a1,1,0,0,1,.6.89C432.36,127.45,432.25,127.09,432.24,126.67Z"/><path class="cls-1" d="M447.1,126.19a1.09,1.09,0,0,1-.61-.88C447,125.41,447.08,125.77,447.1,126.19Z"/><path class="cls-4" d="M793,190.5a.87.87,0,0,1-1-.49A.94.94,0,0,1,793,190.5Z"/><path class="cls-4" d="M419.27,189.55a.94.94,0,0,1-.93-.52A.94.94,0,0,1,419.27,189.55Z"/><path class="cls-4" d="M405,189.6a1,1,0,0,1-1,.45C404.16,189.58,404.55,189.54,405,189.6Z"/><path class="cls-4" d="M424.56,496.12a.85.85,0,0,1-.44-1A1,1,0,0,1,424.56,496.12Z"/><path class="cls-4" d="M426.47,497.58a.87.87,0,0,1-1-.5A.94.94,0,0,1,426.47,497.58Z"/><path class="cls-4" d="M467.73,497.08a.86.86,0,0,1-1,.49A.94.94,0,0,1,467.73,497.08Z"/><path class="cls-4" d="M486,497.57a.87.87,0,0,1-1-.49A1,1,0,0,1,486,497.57Z"/><path class="cls-1" d="M478.74,171.77c.12.29.09.71-.15.75s-.39-.35-.43-.65Z"/><path class="cls-4" d="M458.64,165.5a1.08,1.08,0,0,1,.62.89C458.72,166.32,458.64,165.94,458.64,165.5Z"/><path class="cls-4" d="M454.77,159.8a1,1,0,0,1,.59.89C454.9,160.56,454.79,160.21,454.77,159.8Z"/><path class="cls-4" d="M420.24,190a.92.92,0,0,1-1-.44A1,1,0,0,1,420.24,190Z"/><path class="cls-4" d="M431.27,125.24a1,1,0,0,1,.59.89C431.4,126,431.29,125.65,431.27,125.24Z"/><path class="cls-1" d="M446.13,124.77a1.11,1.11,0,0,1-.61-.89C446,124,446.12,124.34,446.13,124.77Z"/><path class="cls-4" d="M430.3,123.81a1,1,0,0,1,.59.89C430.44,124.57,430.33,124.22,430.3,123.81Z"/><path class="cls-1" d="M445.16,123.35a1.14,1.14,0,0,1-.62-.89C445.08,122.52,445.16,122.91,445.16,123.35Z"/><path class="cls-4" d="M429.34,122.39a1.06,1.06,0,0,1,.58.88C429.48,123.14,429.37,122.79,429.34,122.39Z"/><path class="cls-1" d="M102.63,188.57a.5.5,0,0,1-.34.61A.65.65,0,0,1,102.63,188.57Z"/><path class="cls-4" d="M448.14,150.07a.55.55,0,0,1,.41.59A.67.67,0,0,1,448.14,150.07Z"/><path class="cls-4" d="M418.33,189a.52.52,0,0,1-.58-.41Z"/><path class="cls-1" d="M101.24,97.84a.55.55,0,0,1,.6.42A.65.65,0,0,1,101.24,97.84Z"/><path class="cls-1" d="M160.73,97.83a.57.57,0,0,1,.6.42A.62.62,0,0,1,160.73,97.83Z"/><path class="cls-4" d="M177.84,98.24a.55.55,0,0,1,.59-.42A.58.58,0,0,1,177.84,98.24Z"/><path class="cls-4" d="M428.27,98.51a.59.59,0,0,1-.4-.61A.6.6,0,0,1,428.27,98.51Z"/><path class="cls-4" d="M474.55,188.91a.58.58,0,0,1,.41.6A.63.63,0,0,1,474.55,188.91Z"/><path class="cls-4" d="M716.2,189a.45.45,0,0,1-.43.53Z"/><path class="cls-4" d="M732,189.6a.49.49,0,0,1-.43-.56Z"/><path class="cls-4" d="M775.7,189a.48.48,0,0,1-.43.54Z"/><path class="cls-4" d="M791.51,189.59a.48.48,0,0,1-.43-.55Z"/><path class="cls-4" d="M732,98.35a.47.47,0,0,1,.53-.43Z"/><path class="cls-4" d="M791.54,98.35a.44.44,0,0,1,.51-.42Z"/><path class="cls-1" d="M101.8,98.22a.58.58,0,0,1,.49.56A.6.6,0,0,1,101.8,98.22Z"/><path class="cls-4" d="M715.79,189.54a.48.48,0,0,1-.52.45Z"/><path class="cls-4" d="M732.54,190a.5.5,0,0,1-.55-.45Z"/><path class="cls-4" d="M775.3,189.56a.49.49,0,0,1-.54.44Z"/><path class="cls-4" d="M792,190a.5.5,0,0,1-.55-.45Z"/><path class="cls-1" d="M161.29,98.22a.58.58,0,0,1,.5.54A.57.57,0,0,1,161.29,98.22Z"/><path class="cls-4" d="M177.37,98.76a.6.6,0,0,1,.5-.55A.56.56,0,0,1,177.37,98.76Z"/><path class="cls-4" d="M731.62,98.85a.45.45,0,0,1,.43-.52Z"/><path class="cls-4" d="M775.24,98.35a.42.42,0,0,1,.42.48Z"/><path class="cls-4" d="M791.11,98.86a.44.44,0,0,1,.43-.51Z"/><path class="cls-1" d="M117.56,99.32a.5.5,0,0,1,.35-.61A.67.67,0,0,1,117.56,99.32Z"/><path class="cls-4" d="M177.05,99.32a.49.49,0,0,1,.35-.6A.62.62,0,0,1,177.05,99.32Z"/><path class="cls-4" d="M429.24,99.94a.57.57,0,0,1-.4-.6A.61.61,0,0,1,429.24,99.94Z"/><path class="cls-1" d="M475.94,99.71a.58.58,0,0,1,.54.5A.63.63,0,0,1,475.94,99.71Z"/><path class="cls-4" d="M485.52,100.29a.45.45,0,0,1,.46-.45Z"/><path class="cls-1" d="M476.44,100.17a.59.59,0,0,1,.48.55A.64.64,0,0,1,476.44,100.17Z"/><path class="cls-4" d="M430.21,101.37a.56.56,0,0,1-.4-.6A.62.62,0,0,1,430.21,101.37Z"/><path class="cls-1" d="M476.89,100.69a.5.5,0,0,1,.42.56Z"/><path class="cls-4" d="M484.5,101.71a.55.55,0,0,1,.37-.62A.6.6,0,0,1,484.5,101.71Z"/><path class="cls-4" d="M415.52,102.09a.58.58,0,0,1,.41.59A.67.67,0,0,1,415.52,102.09Z"/><path class="cls-4" d="M431.19,102.8a.56.56,0,0,1-.4-.6A.67.67,0,0,1,431.19,102.8Z"/><path class="cls-4" d="M416.49,103.52a.56.56,0,0,1,.41.59A.65.65,0,0,1,416.49,103.52Z"/><path class="cls-4" d="M417.46,105a.55.55,0,0,1,.41.59A.63.63,0,0,1,417.46,105Z"/><path class="cls-4" d="M418.44,106.37a.59.59,0,0,1,.4.61A.62.62,0,0,1,418.44,106.37Z"/><path class="cls-1" d="M462.85,149.34a.55.55,0,0,1-.41-.59A.67.67,0,0,1,462.85,149.34Z"/><path class="cls-4" d="M447.17,148.65a.54.54,0,0,1,.41.57A.7.7,0,0,1,447.17,148.65Z"/><path class="cls-4" d="M419.41,107.81a.58.58,0,0,1,.4.6A.58.58,0,0,1,419.41,107.81Z"/><path class="cls-1" d="M461.88,147.91a.57.57,0,0,1-.42-.59A.64.64,0,0,1,461.88,147.91Z"/><path class="cls-4" d="M446.2,147.22a.53.53,0,0,1,.41.57Z"/><path class="cls-4" d="M420.76,109.8a.54.54,0,0,1,.41.57Z"/><path class="cls-4" d="M227.92,146.68l.68.57A.74.74,0,0,1,227.92,146.68Z"/><path class="cls-1" d="M436.43,110.51a.58.58,0,0,1-.4-.61A.61.61,0,0,1,436.43,110.51Z"/><path class="cls-4" d="M421.73,111.23a.53.53,0,0,1,.41.57Z"/><path class="cls-1" d="M460.9,146.49a.61.61,0,0,1-.41-.61A.61.61,0,0,1,460.9,146.49Z"/><path class="cls-1" d="M87.91,191.48l-.59.49A.78.78,0,0,1,87.91,191.48Z"/><path class="cls-1" d="M132.84,192.06l-.57-.58A.74.74,0,0,1,132.84,192.06Z"/><path class="cls-1" d="M147.41,191.48l-.57.58A.74.74,0,0,1,147.41,191.48Z"/><path class="cls-1" d="M192.33,192.06l-.58-.58A.75.75,0,0,1,192.33,192.06Z"/><path class="cls-4" d="M445.23,145.79a.51.51,0,0,1,.4.56Z"/><path class="cls-4" d="M430.27,192.06l-.57-.57A.7.7,0,0,1,430.27,192.06Z"/><path class="cls-4" d="M443.88,143.79a.6.6,0,0,1,.4.61A.59.59,0,0,1,443.88,143.79Z"/><path class="cls-1" d="M437.4,111.94a.58.58,0,0,1-.4-.61A.63.63,0,0,1,437.4,111.94Z"/><path class="cls-4" d="M442.91,142.36a.59.59,0,0,1,.4.6A.58.58,0,0,1,442.91,142.36Z"/><path class="cls-4" d="M422.7,112.66a.54.54,0,0,1,.41.58A.7.7,0,0,1,422.7,112.66Z"/><path class="cls-4" d="M476.5,191.77a.6.6,0,0,1,.4.61A.59.59,0,0,1,476.5,191.77Z"/><path class="cls-1" d="M438.37,113.36a.56.56,0,0,1-.4-.6A.66.66,0,0,1,438.37,113.36Z"/><path class="cls-4" d="M441.93,140.93a.58.58,0,0,1,.41.6A.63.63,0,0,1,441.93,140.93Z"/><path class="cls-4" d="M477.85,193.77a.52.52,0,0,1,.41.56Z"/><path class="cls-4" d="M423.67,114.09a.54.54,0,0,1,.41.58A.66.66,0,0,1,423.67,114.09Z"/><path class="cls-4" d="M478.85,195.16a.6.6,0,0,1,.47.56A.61.61,0,0,1,478.85,195.16Z"/><path class="cls-1" d="M439.35,114.79a.57.57,0,0,1-.41-.59A.68.68,0,0,1,439.35,114.79Z"/><path class="cls-4" d="M441,139.51a.57.57,0,0,1,.42.59A.66.66,0,0,1,441,139.51Z"/><path class="cls-4" d="M424.64,115.51a.58.58,0,0,1,.42.59A.64.64,0,0,1,424.64,115.51Z"/><path class="cls-4" d="M479.29,195.69a.63.63,0,0,1,.53.5A.65.65,0,0,1,479.29,195.69Z"/><path class="cls-4" d="M425.62,116.94a.58.58,0,0,1,.41.6A.63.63,0,0,1,425.62,116.94Z"/><path class="cls-1" d="M455.67,138.77a.54.54,0,0,1-.41-.58A.7.7,0,0,1,455.67,138.77Z"/><path class="cls-4" d="M440,138.08a.54.54,0,0,1,.41.58A.7.7,0,0,1,440,138.08Z"/><path class="cls-4" d="M426.6,118.37a.59.59,0,0,1,.4.6A.58.58,0,0,1,426.6,118.37Z"/><path class="cls-4" d="M427.57,119.8a.6.6,0,0,1,.4.61A.59.59,0,0,1,427.57,119.8Z"/><path class="cls-1" d="M454.69,137.35a.56.56,0,0,1-.41-.6A.68.68,0,0,1,454.69,137.35Z"/><path class="cls-4" d="M439,136.65a.54.54,0,0,1,.41.58A.7.7,0,0,1,439,136.65Z"/><path class="cls-4" d="M428.92,121.8a.51.51,0,0,1,.4.56Z"/><path class="cls-1" d="M471,161.33a.55.55,0,0,1-.41-.59A.68.68,0,0,1,471,161.33Z"/><path class="cls-1" d="M453.72,135.92a.57.57,0,0,1-.41-.6A.64.64,0,0,1,453.72,135.92Z"/><path class="cls-4" d="M438,135.22a.52.52,0,0,1,.41.57Z"/><path class="cls-1" d="M450,227.47l-.58-.49A.76.76,0,0,1,450,227.47Z"/><path class="cls-4" d="M449.38,368l.59-.49A.75.75,0,0,1,449.38,368Z"/><path class="cls-4" d="M456.29,162.07a.54.54,0,0,1,.41.58A.7.7,0,0,1,456.29,162.07Z"/><path class="cls-1" d="M472,162.76a.54.54,0,0,1-.41-.58A.7.7,0,0,1,472,162.76Z"/><path class="cls-1" d="M452.74,134.49a.58.58,0,0,1-.4-.6A.61.61,0,0,1,452.74,134.49Z"/><path class="cls-4" d="M437.07,133.79a.53.53,0,0,1,.41.57Z"/><path class="cls-4" d="M435.72,131.8a.58.58,0,0,1,.4.6A.58.58,0,0,1,435.72,131.8Z"/><path class="cls-4" d="M451.06,154.35a.59.59,0,0,1,.4.61A.62.62,0,0,1,451.06,154.35Z"/><path class="cls-4" d="M457.26,163.5a.56.56,0,0,1,.42.59A.66.66,0,0,1,457.26,163.5Z"/><path class="cls-4" d="M458.24,164.92a.58.58,0,0,1,.41.6A.63.63,0,0,1,458.24,164.92Z"/><path class="cls-4" d="M459.22,166.35a.58.58,0,0,1,.4.6A.58.58,0,0,1,459.22,166.35Z"/><path class="cls-4" d="M460.19,167.78a.6.6,0,0,1,.4.61A.59.59,0,0,1,460.19,167.78Z"/><path class="cls-4" d="M452,155.79a.6.6,0,0,1,.41.6A.58.58,0,0,1,452,155.79Z"/><path class="cls-4" d="M461.54,169.78a.51.51,0,0,1,.4.56Z"/><path class="cls-1" d="M477.21,170.48a.6.6,0,0,1-.4-.61A.63.63,0,0,1,477.21,170.48Z"/><path class="cls-4" d="M462.51,171.21a.52.52,0,0,1,.41.57Z"/><path class="cls-1" d="M478.19,171.9a.58.58,0,0,1-.41-.6A.65.65,0,0,1,478.19,171.9Z"/><path class="cls-4" d="M455.32,160.64a.54.54,0,0,1,.41.58A.7.7,0,0,1,455.32,160.64Z"/><path class="cls-4" d="M463.48,172.64a.54.54,0,0,1,.41.57A.7.7,0,0,1,463.48,172.64Z"/><path class="cls-4" d="M464.45,174.06a.55.55,0,0,1,.41.59A.67.67,0,0,1,464.45,174.06Z"/><path class="cls-4" d="M425,405.42a.45.45,0,0,1,.52-.42Z"/><path class="cls-4" d="M484.51,405.43A.45.45,0,0,1,485,405Z"/><path class="cls-4" d="M465.42,175.49a.55.55,0,0,1,.41.59A.66.66,0,0,1,465.42,175.49Z"/><path class="cls-4" d="M424.59,405.93a.45.45,0,0,1,.43-.52Z"/><path class="cls-4" d="M468.22,405.43a.41.41,0,0,1,.41.48Z"/><path class="cls-4" d="M484.09,405.93a.45.45,0,0,1,.43-.51Z"/><path class="cls-4" d="M466.39,176.92a.58.58,0,0,1,.42.59A.62.62,0,0,1,466.39,176.92Z"/><path class="cls-4" d="M467.37,178.34a.61.61,0,0,1,.41.61A.61.61,0,0,1,467.37,178.34Z"/><path class="cls-4" d="M468.34,179.78a.6.6,0,0,1,.41.6A.58.58,0,0,1,468.34,179.78Z"/><path class="cls-4" d="M433.77,128.94a.55.55,0,0,1,.41.59A.63.63,0,0,1,433.77,128.94Z"/><path class="cls-4" d="M453.38,157.78a.53.53,0,0,1,.41.57Z"/><path class="cls-4" d="M432.8,127.51a.55.55,0,0,1,.41.59A.67.67,0,0,1,432.8,127.51Z"/><path class="cls-4" d="M469.69,181.78a.52.52,0,0,1,.41.56Z"/><path class="cls-1" d="M447.51,126.78a.54.54,0,0,1-.41-.59A.7.7,0,0,1,447.51,126.78Z"/><path class="cls-4" d="M431.83,126.08a.55.55,0,0,1,.41.59A.67.67,0,0,1,431.83,126.08Z"/><path class="cls-1" d="M469.06,158.48a.6.6,0,0,1-.41-.6A.6.6,0,0,1,469.06,158.48Z"/><path class="cls-4" d="M470.66,183.2a.52.52,0,0,1,.41.57Z"/><path class="cls-4" d="M450.08,152.93a.56.56,0,0,1,.41.59A.63.63,0,0,1,450.08,152.93Z"/><path class="cls-4" d="M471.63,184.63a.53.53,0,0,1,.41.58A.7.7,0,0,1,471.63,184.63Z"/><path class="cls-4" d="M434.75,130.36a.59.59,0,0,1,.4.61A.62.62,0,0,1,434.75,130.36Z"/><path class="cls-4" d="M425,496.67a.49.49,0,0,1-.44-.55Z"/><path class="cls-4" d="M468.67,496.11a.47.47,0,0,1-.42.55Z"/><path class="cls-4" d="M484.49,496.67a.5.5,0,0,1-.44-.55Z"/><path class="cls-4" d="M425.51,497.09a.49.49,0,0,1-.54-.45Z"/><path class="cls-4" d="M468.27,496.63a.49.49,0,0,1-.54.45Z"/><path class="cls-4" d="M485,497.08a.49.49,0,0,1-.54-.44Z"/><path class="cls-4" d="M449.11,151.5a.55.55,0,0,1,.41.59A.66.66,0,0,1,449.11,151.5Z"/><path class="cls-4" d="M472.6,186.06a.54.54,0,0,1,.41.58A.69.69,0,0,1,472.6,186.06Z"/><path class="cls-4" d="M454.35,159.21a.52.52,0,0,1,.41.57Z"/><path class="cls-4" d="M416.3,187.26a.58.58,0,0,1-.42-.6A.62.62,0,0,1,416.3,187.26Z"/><path class="cls-4" d="M473.57,187.49a.56.56,0,0,1,.42.59A.66.66,0,0,1,473.57,187.49Z"/><path class="cls-4" d="M486.78,99.2a.55.55,0,0,1,.61-.38A.6.6,0,0,1,486.78,99.2Z"/><path class="cls-1" d="M496.48,65.87c-.19-.19-.38-.39-.58-.58A.75.75,0,0,1,496.48,65.87Z"/><path class="cls-1" d="M463.82,150.77a.56.56,0,0,1-.41-.59A.68.68,0,0,1,463.82,150.77Z"/><path class="cls-1" d="M446.53,125.36a.58.58,0,0,1-.41-.6A.65.65,0,0,1,446.53,125.36Z"/><path class="cls-4" d="M430.85,124.66a.53.53,0,0,1,.42.57A.73.73,0,0,1,430.85,124.66Z"/><path class="cls-1" d="M470,159.91a.58.58,0,0,1-.42-.6A.65.65,0,0,1,470,159.91Z"/><path class="cls-4" d="M417.79,188.66a.62.62,0,0,1-.58-.46A.57.57,0,0,1,417.79,188.66Z"/><path class="cls-1" d="M445.56,123.93a.58.58,0,0,1-.41-.6A.63.63,0,0,1,445.56,123.93Z"/><path class="cls-4" d="M429.89,123.23a.53.53,0,0,1,.41.57Z"/><path class="cls-1" d="M444.58,122.5a.59.59,0,0,1-.4-.61A.6.6,0,0,1,444.58,122.5Z"/><path class="cls-4" d="M475.53,190.34a.58.58,0,0,1,.4.6A.58.58,0,0,1,475.53,190.34Z"/><path class="cls-4" d="M117.53,188.56a2.27,2.27,0,0,1,1.37,1.57A1.74,1.74,0,0,1,117.53,188.56Z"/><path class="cls-4" d="M117.1,186.65c.65.52.38,1.26.43,1.92A2,2,0,0,1,117.1,186.65Z"/><path class="cls-4" d="M158.31,191c.39-.58,1-.47,1.52-.41A1.58,1.58,0,0,1,158.31,191Z"/><path class="cls-4" d="M160.77,190.12a1.16,1.16,0,0,1,1.1-1A1.32,1.32,0,0,1,160.77,190.12Z"/><path class="cls-4" d="M119.84,190.56c.56-.07,1.14-.18,1.53.4A1.62,1.62,0,0,1,119.84,190.56Z"/><path class="cls-4" d="M118.86,190.1c.45-.07.85,0,1,.48A1,1,0,0,1,118.86,190.1Z"/><path class="cls-4" d="M159.79,190.57c.18-.5.58-.54,1-.48A1,1,0,0,1,159.79,190.57Z"/><path class="cls-4" d="M409.19,496.08c0-.51-.06-1.07.5-1.4A1.29,1.29,0,0,1,409.19,496.08Z"/><path class="cls-4" d="M405.85,498c.37-.53.92-.43,1.44-.44A1.49,1.49,0,0,1,405.85,498Z"/><path class="cls-4" d="M406.89,404.42c-.55.05-1.12.16-1.52-.39A1.58,1.58,0,0,1,406.89,404.42Z"/><path class="cls-4" d="M409.67,407.35a.88.88,0,0,1-.35-1.08A1,1,0,0,1,409.67,407.35Z"/><path class="cls-4" d="M407.9,404.83c-.45.1-.85.07-1.06-.43A1,1,0,0,1,407.9,404.83Z"/><path class="cls-4" d="M408.73,405.43c-.43,0-.81-.11-.87-.63C408.26,404.86,408.61,405,408.73,405.43Z"/><path class="cls-4" d="M409.35,406.31c-.51-.08-.6-.45-.62-.88C409.18,405.55,409.3,405.91,409.35,406.31Z"/><path class="cls-4" d="M407.29,497.56a1,1,0,0,1,.95-.49A.85.85,0,0,1,407.29,497.56Z"/><path class="cls-4" d="M408.75,496.64l.43-.53A.47.47,0,0,1,408.75,496.64Z"/><path class="cls-4" d="M408.24,497.07l.53-.45A.49.49,0,0,1,408.24,497.07Z"/><path class="cls-4" d="M425.92,95a1.26,1.26,0,0,1,1,1.46A2.38,2.38,0,0,1,425.92,95Z"/><path class="cls-4" d="M434.07,107a1.26,1.26,0,0,1,1,1.46A2.49,2.49,0,0,1,434.07,107Z"/><path class="cls-4" d="M424.94,93.61c.45.12.56.47.59.88A1,1,0,0,1,424.94,93.61Z"/><path class="cls-4" d="M432.13,104.18c.46.11.57.47.59.88A1.07,1.07,0,0,1,432.13,104.18Z"/><path class="cls-4" d="M433.1,105.61c.45.12.56.47.59.87A1,1,0,0,1,433.1,105.61Z"/><path class="cls-4" d="M409.6,97.87l-.39-.4C409.52,97.44,409.65,97.57,409.6,97.87Z"/><path class="cls-4" d="M431.76,103.64a.67.67,0,0,1,.4.59A.55.55,0,0,1,431.76,103.64Z"/><path class="cls-4" d="M432.73,105.07l.4.58A.54.54,0,0,1,432.73,105.07Z"/><path class="cls-4" d="M433.7,106.51l.4.57A.53.53,0,0,1,433.7,106.51Z"/><path class="cls-4" d="M483,195.55a.68.68,0,0,1-.52.63A.86.86,0,0,1,483,195.55Z"/><path class="cls-4" d="M407.29,188.09l.48-.49A.49.49,0,0,1,407.29,188.09Z"/><path class="cls-4" d="M424.55,93.09a.69.69,0,0,1,.43.57A.56.56,0,0,1,424.55,93.09Z"/><path class="cls-4" d="M425.54,94.51l.41.57A.54.54,0,0,1,425.54,94.51Z"/></g></g></svg>