<svg id="Calque_1" data-name="Calque 1" xmlns="http://www.w3.org/2000/svg" viewBox="0 0 570 475"><defs><style>.cls-1{fill:#fff;}.cls-2{fill:#0a0808;}.cls-3{fill:#070606;}.cls-4{fill:#080707;}.cls-5{fill:#f11;}.cls-6{fill:#150b0b;}.cls-7{fill:#121111;}.cls-8{fill:#030202;}.cls-9{fill:#0b0d0d;}.cls-10{fill:#0b0e0e;}.cls-11{fill:#0a0b0b;}.cls-12{fill:#110b0b;}.cls-13{fill:#fcfdfd;}.cls-14{fill:#fdfdfd;}.cls-15{fill:#fffdfd;}.cls-16{fill:#fffefe;}</style></defs><path class="cls-1" d="M-14,661V-181H581V661ZM111.64,270.88a3.13,3.13,0,0,0,.68.17q12.35-.3,24.7,0a3.37,3.37,0,0,0,.71,0,.5.5,0,0,0,.48-.45c0-.47,0-.95,0-1.43a.77.77,0,0,0-.87-.87c-1.52,0-3-.07-4.55-.15a9.92,9.92,0,0,1-1.89-.29,2.38,2.38,0,0,1-2-2.38c0-.48,0-1,0-1.44q0-10.8,0-21.58a2.07,2.07,0,0,1,.27-1.42,3.13,3.13,0,0,1,.65-.12c3.36,0,6.71,0,10.07,0a14,14,0,0,1,3.09.39c4.29,1.07,8,5,8.13,9.29.08,1.75.19,3.51.25,5.26.06,1.92,0,3.84.14,5.75a10.92,10.92,0,0,0,6.26,9.53,18.76,18.76,0,0,0,9,2,7.43,7.43,0,0,0,6.05-2.91,12.11,12.11,0,0,0,2.44-7.13,2.44,2.44,0,0,0-.1-.71,1,1,0,0,0-1-.82,1,1,0,0,0-1,.82c-.17.94-.29,1.89-.47,2.84a9.26,9.26,0,0,1-1.72,3.9c-1.92,2.53-6.52,3-8.2-1a16.72,16.72,0,0,1-1.11-3.65c-.67-3.94-1.34-7.87-2-11.82a14.55,14.55,0,0,0-2.31-6.23,15.35,15.35,0,0,0-5.55-4.82c-.63-.34-1.27-.66-1.89-1a.59.59,0,0,1,.07-1c.58-.26,1.18-.49,1.78-.7a25.35,25.35,0,0,0,5.34-2.66,17.29,17.29,0,0,0,4.72-4.38,11.06,11.06,0,0,0,.92-12.19,15.66,15.66,0,0,0-3.89-4.82,24.22,24.22,0,0,0-7.67-4.35,33.36,33.36,0,0,0-11.29-1.87c-8.87,0-17.74,0-26.62,0h-1.46a6.1,6.1,0,0,0-.06,2.82c1,0,1.9.06,2.85.05a18.11,18.11,0,0,1,4.28.46,2.29,2.29,0,0,1,2,2.33c.06.64,0,1.28,0,1.92q0,23.73,0,47.48c0,.4,0,.8,0,1.19-.11,2-.73,2.74-2.65,3.09a11.64,11.64,0,0,1-1.67.14c-1.36.06-2.71.11-4.07.12-.59,0-.9.23-.91.82S111.64,270.22,111.64,270.88Zm312.2-160a44.37,44.37,0,0,0,.65,6.88c1.55,7.71,5.1,14.3,11.23,19.26,9.1,7.36,19.22,9,30,4.35,7-3,12-8.3,15.36-15.14a34.94,34.94,0,0,0,2.74-22.65,33.06,33.06,0,0,0-9.83-18c-6.61-6.21-14.45-9-23.48-7.88a27.69,27.69,0,0,0-16.26,8C427.23,92.54,424,101,423.84,110.85Zm0,258.06a39.37,39.37,0,0,0,.72,7.83c1.86,8.54,6.15,15.53,13.37,20.56a27.49,27.49,0,0,0,19.51,5,28.64,28.64,0,0,0,19.83-11.35c7.63-9.93,9.16-21,5.47-32.85a31.43,31.43,0,0,0-14.58-18.29,27.2,27.2,0,0,0-18.24-3.42,28.1,28.1,0,0,0-15.74,8A34.14,34.14,0,0,0,423.84,368.91ZM345.69,214.5c-1.23-1.08-2.22-2-3.27-2.87a20.66,20.66,0,0,0-10.1-4.64,26,26,0,0,0-9.76.41,30.8,30.8,0,0,0-18.84,12.28c-6.81,9.36-8.46,19.71-5,30.72a31.59,31.59,0,0,0,19.43,20.78,26.53,26.53,0,0,0,15.54,1.49c9.54-2.09,15.45-8.2,18.29-17.4a16.45,16.45,0,0,0,.67-5.93c0-.7-.37-1-1.07-1-.54,0-.95.18-1,.75s-.23,1.43-.28,2.14a21.43,21.43,0,0,1-1.54,6.26,19.81,19.81,0,0,1-18.84,12.77A21.52,21.52,0,0,1,311.37,260a28.12,28.12,0,0,1-3.88-9.74,51.69,51.69,0,0,1-.39-18.6,30.94,30.94,0,0,1,3.32-10.2,21.87,21.87,0,0,1,12.65-10.75c4.62-1.53,9.25-1.71,13.8.34a19.71,19.71,0,0,1,8.47,7.55,28.88,28.88,0,0,1,3.85,9.49c.25,1.17.4,2.37.61,3.54a1.12,1.12,0,0,0,.62,1,1.48,1.48,0,0,0,2.25-1.41V208.89a8.52,8.52,0,0,0-.1-1.43.94.94,0,0,0-1.51-.53,6.23,6.23,0,0,0-1.36,1.66Zm179.5,114.18a30.43,30.43,0,1,0-30.57-30.15A30.53,30.53,0,0,0,525.19,328.68ZM194,241.65c.74,0,1.21.08,1.68.08h76c2.24,0,2,0,2.05-2.11,0-.23,0-.48,0-.71,0-.54-.26-.92-.86-.92H196.65c-.56,0-1.12,0-1.68,0s-.91.26-.93.83C194,239.68,194,240.55,194,241.65ZM501.78,140.08c1.11,0,2.06,0,3,0a.57.57,0,0,0,.61-.59c0-.56,0-1.12,0-1.67V125.35q0-20.84,0-41.66a4.93,4.93,0,0,0-.26-2.62,11.3,11.3,0,0,0-3.38.05Zm3.66,258.46v-2.83q0-26.5,0-53c0-3.51.78-3.37-3.59-2.92-.23,2.63-.17,56.78.08,58.79A14.45,14.45,0,0,0,505.44,398.54Zm-80.61,17.23a2.87,2.87,0,0,0,.69.16q28.86,0,57.71,0c.14,0,.28-.12.46-.21a4.68,4.68,0,0,0,.11-.67c0-3.1.3-2.74-2.61-2.74H425.63c-.55,0-.94.23-.93.83A9,9,0,0,0,424.83,415.77ZM402.32,147.06c-.33.3-.63.54-.9.81l-39,39c-1.05,1-1.17,1.17,0,2.23.51.46.88,1.1,1.66,1.33.31-.3.61-.56.88-.83l39.63-39.68a.46.46,0,0,0,.1-.21,1.58,1.58,0,0,0,0-.32A15.81,15.81,0,0,0,402.32,147.06Zm-25.69,56.4a4.51,4.51,0,0,0,.74-.41l40.15-40.19a.45.45,0,0,0,.12-.2,1.3,1.3,0,0,0,.05-.31c-.17-.2-.36-.44-.58-.67-.38-.4-.78-.8-1.18-1.18-.59-.54-.73-.53-1.37.08-.41.39-.8.79-1.19,1.19l-37.29,37.29c-.4.39-.78.8-1.19,1.19a.73.73,0,0,0-.06,1.21C375.43,202.1,376,202.76,376.63,203.46Zm-8.69,81.77c1.48,1.87,39.37,39.74,41,41,.7-.71,1.43-1.43,2.13-2.17a.49.49,0,0,0,0-.66,8.57,8.57,0,0,0-.66-.69q-19.56-19.57-39.14-39.14c-.26-.26-.46-.69-1.17-.51ZM454.47,67.51h27.06c2.43,0,2.31.24,2.3-2.35q0-.36,0-.72a.72.72,0,0,0-.79-.7H427c-2.48,0-2.3-.21-2.3,2.34,0,.16,0,.32,0,.48.05.77.2.91,1.06.94.63,0,1.27,0,1.91,0Zm-.14,254.84H427.51c-.56,0-1.12,0-1.68,0-1,0-1.15.15-1.15,1.08,0,2.92-.3,2.69,2.43,2.69h55.56c1,0,1.12-.17,1.15-1.09,0-.64,0-1.28,0-1.92a.7.7,0,0,0-.74-.75c-.63,0-1.27,0-1.91,0Z"/><path class="cls-2" d="M111.64,270.88c0-.66,0-1.21,0-1.77s.32-.82.91-.82c1.36,0,2.71-.06,4.07-.12a11.64,11.64,0,0,0,1.67-.14c1.92-.35,2.54-1.09,2.65-3.09,0-.39,0-.79,0-1.19q0-23.75,0-47.48c0-.64,0-1.28,0-1.92a2.29,2.29,0,0,0-2-2.33,18.11,18.11,0,0,0-4.28-.46c-1,0-1.89,0-2.85-.05a6.1,6.1,0,0,1,.06-2.82h1.46c8.88,0,17.75,0,26.62,0a33.36,33.36,0,0,1,11.29,1.87,24.22,24.22,0,0,1,7.67,4.35,15.66,15.66,0,0,1,3.89,4.82,11.06,11.06,0,0,1-.92,12.19,17.29,17.29,0,0,1-4.72,4.38,25.35,25.35,0,0,1-5.34,2.66c-.6.21-1.2.44-1.78.7a.59.59,0,0,0-.07,1c.62.36,1.26.68,1.89,1a15.35,15.35,0,0,1,5.55,4.82,14.55,14.55,0,0,1,2.31,6.23c.61,4,1.28,7.88,2,11.82a16.72,16.72,0,0,0,1.11,3.65c1.68,4,6.28,3.49,8.2,1a9.26,9.26,0,0,0,1.72-3.9c.18-.95.3-1.9.47-2.84a1,1,0,0,1,1-.82,1,1,0,0,1,1,.82,2.44,2.44,0,0,1,.1.71,12.11,12.11,0,0,1-2.44,7.13,7.43,7.43,0,0,1-6.05,2.91,18.76,18.76,0,0,1-9-2,10.92,10.92,0,0,1-6.26-9.53c-.11-1.91-.08-3.83-.14-5.75-.06-1.75-.17-3.51-.25-5.26-.17-4.28-3.84-8.22-8.13-9.29a14,14,0,0,0-3.09-.39c-3.36,0-6.71,0-10.07,0a3.13,3.13,0,0,0-.65.12,2.07,2.07,0,0,0-.27,1.42q0,10.78,0,21.58c0,.48,0,1,0,1.44a2.38,2.38,0,0,0,2,2.38,9.92,9.92,0,0,0,1.89.29c1.51.08,3,.12,4.55.15a.77.77,0,0,1,.87.87c0,.48,0,1,0,1.43a.5.5,0,0,1-.48.45,3.37,3.37,0,0,1-.71,0q-12.36-.27-24.7,0A3.13,3.13,0,0,1,111.64,270.88Zm17.27-44.83h0c0,3.92,0,7.84,0,11.75,0,1,.08,1.06.89,1.06,3.91,0,7.83,0,11.74-.08a17.25,17.25,0,0,0,6.06-1.34,10.42,10.42,0,0,0,6.47-7.2,19,19,0,0,0,0-10.17,10.14,10.14,0,0,0-6.55-7.11,16.1,16.1,0,0,0-1.83-.55c-4.48-1.07-9-1-13.59-.75-2.81.13-3.17.68-3.16,3.36C128.92,218.7,128.91,222.38,128.91,226.05Z"/><path class="cls-3" d="M423.84,110.85c.13-9.81,3.39-18.31,10.46-25.19a27.69,27.69,0,0,1,16.26-8c9-1.1,16.87,1.67,23.48,7.88a33.06,33.06,0,0,1,9.83,18,34.94,34.94,0,0,1-2.74,22.65c-3.32,6.84-8.33,12.13-15.36,15.14-10.83,4.63-20.95,3-30-4.35-6.13-5-9.68-11.55-11.23-19.26A44.37,44.37,0,0,1,423.84,110.85Zm51.35-1.53a57.61,57.61,0,0,0-.81-9.06,30.86,30.86,0,0,0-4.21-11.12,20.49,20.49,0,0,0-7.79-7.28,16.73,16.73,0,0,0-16.08-.14,20.25,20.25,0,0,0-7.47,6.59,26.93,26.93,0,0,0-4.18,9.34,52.58,52.58,0,0,0,.53,26.54,27.58,27.58,0,0,0,4.75,9.6,20.21,20.21,0,0,0,7.12,5.93,15.64,15.64,0,0,0,14.31,0A19.85,19.85,0,0,0,468,134.4a28.88,28.88,0,0,0,5-9.48C474.64,120,475.08,114.93,475.19,109.32Z"/><path class="cls-3" d="M423.84,368.91a34.14,34.14,0,0,1,10.34-24.53,28.1,28.1,0,0,1,15.74-8,27.2,27.2,0,0,1,18.24,3.42,31.43,31.43,0,0,1,14.58,18.29c3.69,11.82,2.16,22.92-5.47,32.85a28.64,28.64,0,0,1-19.83,11.35,27.49,27.49,0,0,1-19.51-5c-7.22-5-11.51-12-13.37-20.56A39.37,39.37,0,0,1,423.84,368.91Zm51.35-1.11a56.41,56.41,0,0,0-.82-9,31,31,0,0,0-4.25-11.11,20.39,20.39,0,0,0-8-7.37,16.7,16.7,0,0,0-15.66-.05,20.17,20.17,0,0,0-7.66,6.72,27.24,27.24,0,0,0-4.15,9.36,52.58,52.58,0,0,0,.51,26.31,28,28,0,0,0,4.7,9.63,20,20,0,0,0,7.29,6.08,15.59,15.59,0,0,0,14.3,0,19.77,19.77,0,0,0,6.66-5.38,28.27,28.27,0,0,0,4.91-9.26C474.6,378.77,475.09,373.7,475.19,367.8Z"/><path class="cls-4" d="M345.69,214.5l4-5.91a6.23,6.23,0,0,1,1.36-1.66.94.94,0,0,1,1.51.53,8.52,8.52,0,0,1,.1,1.43V231.2a1.48,1.48,0,0,1-2.25,1.41,1.12,1.12,0,0,1-.62-1c-.21-1.17-.36-2.37-.61-3.54a28.88,28.88,0,0,0-3.85-9.49,19.71,19.71,0,0,0-8.47-7.55c-4.55-2-9.18-1.87-13.8-.34a21.87,21.87,0,0,0-12.65,10.75,30.94,30.94,0,0,0-3.32,10.2,51.69,51.69,0,0,0,.39,18.6,28.12,28.12,0,0,0,3.88,9.74,21.52,21.52,0,0,0,18.5,10.25,19.81,19.81,0,0,0,18.84-12.77,21.43,21.43,0,0,0,1.54-6.26c.05-.71.17-1.43.28-2.14s.5-.76,1-.75c.7,0,1,.29,1.07,1a16.45,16.45,0,0,1-.67,5.93c-2.84,9.2-8.75,15.31-18.29,17.4a26.53,26.53,0,0,1-15.54-1.49,31.59,31.59,0,0,1-19.43-20.78c-3.45-11-1.8-21.36,5-30.72a30.8,30.8,0,0,1,18.84-12.28,26,26,0,0,1,9.76-.41,20.66,20.66,0,0,1,10.1,4.64C343.47,212.49,344.46,213.42,345.69,214.5Z"/><path class="cls-5" d="M525.19,328.68a30.43,30.43,0,1,1,30.42-30.56A30.44,30.44,0,0,1,525.19,328.68Zm27.92-29.08a4.59,4.59,0,0,0-2.39-.25q-25.65,0-51.3,0c-2.63,0-2.62-.39-2.22,2.65,0,.31.13.62.19.94a27.83,27.83,0,0,0,32,23.05c11.48-1.83,19.12-8.66,22.68-19.82A16.85,16.85,0,0,0,553.11,299.6ZM497,296.79a6.85,6.85,0,0,0,2.62.23h51c.56,0,1.12,0,1.68,0s.9-.25.84-.86c-.1-1-.23-2.06-.42-3.08a28,28,0,0,0-31-22.67c-10.66,1.5-18.19,7.23-22.58,17A24.83,24.83,0,0,0,497,296.79Z"/><path class="cls-6" d="M194,241.65c0-1.1,0-2,0-2.84,0-.57.35-.84.93-.83s1.12,0,1.68,0h76.19c.6,0,.83.38.86.92,0,.23,0,.48,0,.71,0,2.15.19,2.11-2.05,2.11h-76C195.24,241.73,194.77,241.69,194,241.65Z"/><path class="cls-7" d="M501.78,140.08v-59a11.3,11.3,0,0,1,3.38-.05,4.93,4.93,0,0,1,.26,2.62q0,20.84,0,41.66v12.46c0,.55,0,1.11,0,1.67a.57.57,0,0,1-.61.59C503.84,140.09,502.89,140.08,501.78,140.08Z"/><path class="cls-5" d="M505.44,398.54a14.45,14.45,0,0,1-3.53,0c-.25-2-.31-56.16-.08-58.79,4.37-.45,3.59-.59,3.59,2.92q0,26.51,0,53Z"/><path class="cls-8" d="M424.83,415.77a9,9,0,0,1-.13-2.64c0-.6.38-.82.93-.83h55.56c2.91,0,2.62-.36,2.61,2.74a4.68,4.68,0,0,1-.11.67c-.18.09-.32.21-.46.21q-28.86,0-57.71,0A2.87,2.87,0,0,1,424.83,415.77Z"/><path class="cls-9" d="M402.32,147.06a15.81,15.81,0,0,1,2.43,2.3,1.58,1.58,0,0,1,0,.32.46.46,0,0,1-.1.21L365,189.57c-.27.27-.57.53-.88.83-.78-.23-1.15-.87-1.66-1.33-1.17-1.06-1.05-1.18,0-2.23l39-39C401.69,147.6,402,147.36,402.32,147.06Z"/><path class="cls-10" d="M376.63,203.46c-.63-.7-1.2-1.36-1.8-2a.73.73,0,0,1,.06-1.21c.41-.39.79-.8,1.19-1.19l37.29-37.29c.39-.4.78-.8,1.19-1.19.64-.61.78-.62,1.37-.08.4.38.8.78,1.18,1.18.22.23.41.47.58.67a1.3,1.3,0,0,1-.05.31.45.45,0,0,1-.12.2l-40.15,40.19A4.51,4.51,0,0,1,376.63,203.46Z"/><path class="cls-11" d="M367.94,285.23l2.15-2.2c.71-.18.91.25,1.17.51q19.58,19.56,39.14,39.14a8.57,8.57,0,0,1,.66.69.49.49,0,0,1,0,.66c-.7.74-1.43,1.46-2.13,2.17C407.31,325,369.42,287.1,367.94,285.23Z"/><path class="cls-12" d="M454.47,67.51H427.65c-.64,0-1.28,0-1.91,0-.86,0-1-.17-1.06-.94,0-.16,0-.32,0-.48,0-2.55-.18-2.34,2.3-2.34h56a.72.72,0,0,1,.79.7q0,.36,0,.72c0,2.59.13,2.35-2.3,2.35Z"/><path class="cls-12" d="M454.33,322.35h26.82c.64,0,1.28,0,1.91,0a.7.7,0,0,1,.74.75c0,.64,0,1.28,0,1.92,0,.92-.18,1.05-1.15,1.09H427.11c-2.73,0-2.44.23-2.43-2.69,0-.93.15-1.05,1.15-1.08.56,0,1.12,0,1.68,0Z"/><path class="cls-13" d="M128.91,226.05c0-3.67,0-7.35,0-11,0-2.68.35-3.23,3.16-3.36,4.54-.22,9.11-.32,13.59.75a16.1,16.1,0,0,1,1.83.55,10.14,10.14,0,0,1,6.55,7.11,19,19,0,0,1,0,10.17,10.42,10.42,0,0,1-6.47,7.2,17.25,17.25,0,0,1-6.06,1.34c-3.91.1-7.83.07-11.74.08-.81,0-.88-.1-.89-1.06,0-3.91,0-7.83,0-11.75Z"/><path class="cls-14" d="M475.19,109.32c-.11,5.61-.55,10.69-2.15,15.6a28.88,28.88,0,0,1-5,9.48,19.85,19.85,0,0,1-6.68,5.35,15.64,15.64,0,0,1-14.31,0,20.21,20.21,0,0,1-7.12-5.93,27.58,27.58,0,0,1-4.75-9.6,52.58,52.58,0,0,1-.53-26.54,26.93,26.93,0,0,1,4.18-9.34,20.25,20.25,0,0,1,7.47-6.59,16.73,16.73,0,0,1,16.08.14,20.49,20.49,0,0,1,7.79,7.28,30.86,30.86,0,0,1,4.21,11.12A57.61,57.61,0,0,1,475.19,109.32Z"/><path class="cls-14" d="M475.19,367.8c-.1,5.9-.59,11-2.19,15.88a28.27,28.27,0,0,1-4.91,9.26,19.77,19.77,0,0,1-6.66,5.38,15.59,15.59,0,0,1-14.3,0,20,20,0,0,1-7.29-6.08,28,28,0,0,1-4.7-9.63,52.58,52.58,0,0,1-.51-26.31,27.24,27.24,0,0,1,4.15-9.36,20.17,20.17,0,0,1,7.66-6.72,16.7,16.7,0,0,1,15.66.05,20.39,20.39,0,0,1,8,7.37,31,31,0,0,1,4.25,11.11A56.41,56.41,0,0,1,475.19,367.8Z"/><path class="cls-15" d="M553.11,299.6a16.85,16.85,0,0,1-1,6.57c-3.56,11.16-11.2,18-22.68,19.82a27.83,27.83,0,0,1-32-23.05c-.06-.32-.15-.63-.19-.94-.4-3-.41-2.65,2.22-2.65q25.65,0,51.3,0A4.59,4.59,0,0,1,553.11,299.6Z"/><path class="cls-16" d="M497,296.79a24.83,24.83,0,0,1,2.14-9.36c4.39-9.8,11.92-15.53,22.58-17a28,28,0,0,1,31,22.67c.19,1,.32,2.05.42,3.08.06.61-.19.83-.84.86s-1.12,0-1.68,0h-51A6.85,6.85,0,0,1,497,296.79Z"/></svg>