<svg width="562" height="549" xmlns="http://www.w3.org/2000/svg" xmlns:xlink="http://www.w3.org/1999/xlink" overflow="hidden"><defs><clipPath id="clip0"><rect x="146" y="3238" width="562" height="549"/></clipPath><clipPath id="clip1"><rect x="147" y="3239" width="558" height="545"/></clipPath><clipPath id="clip2"><rect x="147" y="3239" width="558" height="545"/></clipPath><clipPath id="clip3"><rect x="147" y="3239" width="558" height="545"/></clipPath><clipPath id="clip4"><rect x="147" y="3239" width="558" height="545"/></clipPath><clipPath id="clip5"><rect x="147" y="3239" width="558" height="545"/></clipPath><clipPath id="clip6"><rect x="147" y="3239" width="558" height="545"/></clipPath><clipPath id="clip7"><rect x="233" y="3350" width="414" height="363"/></clipPath><clipPath id="clip8"><rect x="233" y="3350" width="414" height="363"/></clipPath><clipPath id="clip9"><rect x="147" y="3239" width="558" height="545"/></clipPath><clipPath id="clip10"><rect x="147" y="3239" width="558" height="545"/></clipPath><clipPath id="clip11"><rect x="147" y="3239" width="558" height="545"/></clipPath><clipPath id="clip12"><rect x="147" y="3239" width="558" height="545"/></clipPath><clipPath id="clip13"><rect x="147" y="3239" width="558" height="545"/></clipPath><clipPath id="clip14"><rect x="147" y="3239" width="558" height="545"/></clipPath><clipPath id="clip15"><rect x="147" y="3239" width="558" height="545"/></clipPath><clipPath id="clip16"><rect x="147" y="3239" width="558" height="545"/></clipPath><clipPath id="clip17"><rect x="147" y="3239" width="558" height="545"/></clipPath><clipPath id="clip18"><rect x="147" y="3239" width="558" height="545"/></clipPath><clipPath id="clip19"><rect x="147" y="3239" width="558" height="545"/></clipPath><clipPath id="clip20"><rect x="147" y="3239" width="558" height="545"/></clipPath><clipPath id="clip21"><rect x="147" y="3239" width="558" height="545"/></clipPath><clipPath id="clip22"><rect x="147" y="3239" width="558" height="545"/></clipPath><clipPath id="clip23"><rect x="147" y="3239" width="558" height="545"/></clipPath><clipPath id="clip24"><rect x="147" y="3239" width="558" height="545"/></clipPath></defs><g clip-path="url(#clip0)" transform="translate(-146 -3238)"><rect x="147" y="3239" width="559" height="546" fill="#FFFFFF"/><g clip-path="url(#clip1)"><path d="M233.5 3619.62 643.5 3619.62M233.5 3530.62 643.5 3530.62M233.5 3440.61 643.5 3440.61M233.5 3350.5 643.5 3350.5" stroke="#D9D9D9" stroke-width="3.4375" stroke-linejoin="round" stroke-miterlimit="10" fill="none"/></g><g clip-path="url(#clip2)"><path d="M315.511 3350.5 315.511 3709.5M397.513 3350.5 397.513 3709.5M479.516 3350.5 479.516 3709.5M561.519 3350.5 561.519 3709.5M643.5 3350.5 643.5 3709.5" stroke="#D9D9D9" stroke-width="3.4375" stroke-linejoin="round" stroke-miterlimit="10" fill="none"/></g><g clip-path="url(#clip3)"><path d="M1.71875-1.72781e-06 1.7191 349.833-1.7184 349.833-1.71875 1.72781e-06ZM0.000351677 349.833 9.16701 340.667 0.000360892 359-9.16632 340.667Z" transform="matrix(1 0 0 -1 233.5 3709.5)"/></g><g clip-path="url(#clip4)"><path d="M233.508 3709.5 240.5 3709.5M233.508 3691.62 240.5 3691.62M233.508 3673.62 240.5 3673.62M233.508 3655.62 240.5 3655.62M233.508 3637.62 240.5 3637.62M233.508 3619.62 240.5 3619.62M233.508 3601.62 240.5 3601.62M233.508 3583.62 240.5 3583.62M233.508 3565.62 240.5 3565.62M233.508 3548.62 240.5 3548.62M233.508 3530.62 240.5 3530.62M233.508 3512.62 240.5 3512.62M233.508 3494.61 240.5 3494.61M233.508 3476.61 240.5 3476.61M233.508 3458.61 240.5 3458.61M233.508 3440.61 240.5 3440.61M233.508 3422.61 240.5 3422.61M233.508 3404.61 240.5 3404.61M233.508 3386.61 240.5 3386.61M233.508 3368.61 240.5 3368.61M233.508 3350.5 240.5 3350.5M225.5 3709.5 233.508 3709.5M225.5 3619.62 233.508 3619.62M225.5 3530.62 233.508 3530.62M225.5 3440.61 233.508 3440.61M225.5 3350.5 233.508 3350.5" stroke="#000000" stroke-width="3.4375" stroke-linejoin="round" stroke-miterlimit="10" fill="none"/></g><g clip-path="url(#clip5)"><path d="M233.5 3707.78 634.333 3707.78 634.333 3711.22 233.5 3711.22ZM634.333 3709.5 625.167 3700.33 643.5 3709.5 625.167 3718.67Z"/></g><g clip-path="url(#clip6)"><path d="M233.5 3703.5 233.5 3709.62M254.509 3703.5 254.509 3709.62M274.509 3703.5 274.509 3709.62M295.51 3703.5 295.51 3709.62M315.511 3703.5 315.511 3709.62M336.511 3703.5 336.511 3709.62M356.512 3703.5 356.512 3709.62M377.513 3703.5 377.513 3709.62M397.513 3703.5 397.513 3709.62M418.514 3703.5 418.514 3709.62M438.515 3703.5 438.515 3709.62M459.515 3703.5 459.515 3709.62M479.516 3703.5 479.516 3709.62M500.517 3703.5 500.517 3709.62M520.517 3703.5 520.517 3709.62M541.518 3703.5 541.518 3709.62M561.519 3703.5 561.519 3709.62M582.519 3703.5 582.519 3709.62M602.52 3703.5 602.52 3709.62M623.521 3703.5 623.521 3709.62M643.5 3703.5 643.5 3709.62M233.5 3709.62 233.5 3718.5M315.511 3709.62 315.511 3718.5M397.513 3709.62 397.513 3718.5M479.516 3709.62 479.516 3718.5M561.519 3709.62 561.519 3718.5M643.5 3709.62 643.5 3718.5" stroke="#000000" stroke-width="3.4375" stroke-linejoin="round" stroke-miterlimit="10" fill="none"/></g><g clip-path="url(#clip7)"><path d="M234 3710 254.008 3649.12 275.009 3601.12 295.01 3563.12 316.01 3533.12 336.011 3508.11 357.012 3489.11 377.012 3474.11 398.013 3461.11 418.014 3452.11 439.014 3444.11 459.015 3438.11 480.016 3433.11 500.016 3429.11 521.017 3426.11 541.018 3423.11 562.018 3421.11 582.019 3419.11 603.02 3418.11 623.02 3417.11 644.021 3416.11 664 3416" stroke="#000000" stroke-width="5.72917" stroke-linecap="round" stroke-linejoin="round" stroke-miterlimit="10" fill="none"/></g><g clip-path="url(#clip8)"><path d="M233.5 3413.5 274.509 3413.5 315.511 3413.5 356.512 3413.5 397.513 3413.5 438.515 3413.5 479.516 3413.5 520.517 3413.5 561.519 3413.5 602.52 3413.5 643.521 3413.5 684.523 3413.5 725.524 3413.5 766.525 3413.5 807.527 3413.5 848.528 3413.5 889.529 3413.5 930.531 3413.5 971.532 3413.5 1012.53 3413.5 1053.53 3413.5 1094.5 3413.5" stroke="#FF0000" stroke-width="3.4375" stroke-linecap="round" stroke-linejoin="round" stroke-miterlimit="10" fill="none"/></g><g clip-path="url(#clip9)"><text font-family="Times New Roman,Times New Roman_MSFontService,sans-serif" font-weight="400" font-size="28" transform="matrix(1 0 0 1 196.826 3718)">0</text></g><g clip-path="url(#clip10)"><text font-family="Times New Roman,Times New Roman_MSFontService,sans-serif" font-weight="400" font-size="28" transform="matrix(1 0 0 1 196.826 3628)">1</text></g><g clip-path="url(#clip11)"><text font-family="Times New Roman,Times New Roman_MSFontService,sans-serif" font-weight="400" font-size="28" transform="matrix(1 0 0 1 196.826 3538)">2</text></g><g clip-path="url(#clip12)"><text font-family="Times New Roman,Times New Roman_MSFontService,sans-serif" font-weight="400" font-size="28" transform="matrix(1 0 0 1 196.826 3448)">3</text></g><g clip-path="url(#clip13)"><text font-family="Times New Roman,Times New Roman_MSFontService,sans-serif" font-weight="400" font-size="28" transform="matrix(1 0 0 1 196.826 3358)">4</text></g><g clip-path="url(#clip14)"><text font-family="Times New Roman,Times New Roman_MSFontService,sans-serif" font-weight="400" font-size="28" transform="matrix(1 0 0 1 227.095 3750)">0</text></g><g clip-path="url(#clip15)"><text font-family="Times New Roman,Times New Roman_MSFontService,sans-serif" font-weight="400" font-size="28" transform="matrix(1 0 0 1 291.881 3750)">0,02</text></g><g clip-path="url(#clip16)"><text font-family="Times New Roman,Times New Roman_MSFontService,sans-serif" font-weight="400" font-size="28" transform="matrix(1 0 0 1 373.854 3750)">0,04</text></g><g clip-path="url(#clip17)"><text font-family="Times New Roman,Times New Roman_MSFontService,sans-serif" font-weight="400" font-size="28" transform="matrix(1 0 0 1 455.828 3750)">0,06</text></g><g clip-path="url(#clip18)"><text font-family="Times New Roman,Times New Roman_MSFontService,sans-serif" font-weight="400" font-size="28" transform="matrix(1 0 0 1 537.801 3750)">0,08</text></g><g clip-path="url(#clip19)"><text font-family="Times New Roman,Times New Roman_MSFontService,sans-serif" font-weight="400" font-size="28" transform="matrix(1 0 0 1 626.65 3750)">0,1</text></g><g clip-path="url(#clip20)"><text font-family="Times New Roman,Times New Roman_MSFontService,sans-serif" font-weight="400" font-size="28" transform="matrix(1 0 0 1 224.991 3335)">u</text></g><g clip-path="url(#clip21)"><text font-family="Times New Roman,Times New Roman_MSFontService,sans-serif" font-weight="400" font-size="18" transform="matrix(1 0 0 1 238.741 3341)">C</text></g><g clip-path="url(#clip22)"><text font-family="Times New Roman,Times New Roman_MSFontService,sans-serif" font-weight="400" font-size="28" transform="matrix(1 0 0 1 250.978 3335)">(V)</text></g><g clip-path="url(#clip23)"><text font-family="Times New Roman,Times New Roman_MSFontService,sans-serif" font-weight="400" font-size="28" transform="matrix(1 0 0 1 561.266 3675)">t(s)</text></g><g clip-path="url(#clip24)"><text font-family="Times New Roman,Times New Roman_MSFontService,sans-serif" font-weight="400" font-size="33" transform="matrix(1 0 0 1 308.298 3301)">Charge d'un condensateur</text></g><rect x="147.5" y="3239.5" width="559" height="546" stroke="#D9D9D9" stroke-width="3.4375" stroke-linejoin="round" stroke-miterlimit="10" fill="none"/><text font-family="Times New Roman,Times New Roman_MSFontService,sans-serif" font-weight="400" font-size="32" transform="matrix(1 0 0 1 190.409 3427)">E</text></g></svg>