<svg width="561" height="549" xmlns="http://www.w3.org/2000/svg" xmlns:xlink="http://www.w3.org/1999/xlink" overflow="hidden"><defs><clipPath id="clip0"><rect x="713" y="3665" width="561" height="549"/></clipPath><clipPath id="clip1"><rect x="713" y="3665" width="559" height="546"/></clipPath><clipPath id="clip2"><rect x="713" y="3665" width="559" height="546"/></clipPath><clipPath id="clip3"><rect x="713" y="3665" width="559" height="546"/></clipPath><clipPath id="clip4"><rect x="713" y="3665" width="559" height="546"/></clipPath><clipPath id="clip5"><rect x="713" y="3665" width="559" height="546"/></clipPath><clipPath id="clip6"><rect x="713" y="3665" width="559" height="546"/></clipPath><clipPath id="clip7"><rect x="800" y="3777" width="414" height="363"/></clipPath><clipPath id="clip8"><rect x="800" y="3777" width="414" height="363"/></clipPath><clipPath id="clip9"><rect x="713" y="3665" width="559" height="546"/></clipPath><clipPath id="clip10"><rect x="713" y="3665" width="559" height="546"/></clipPath><clipPath id="clip11"><rect x="713" y="3665" width="559" height="546"/></clipPath><clipPath id="clip12"><rect x="713" y="3665" width="559" height="546"/></clipPath><clipPath id="clip13"><rect x="713" y="3665" width="559" height="546"/></clipPath><clipPath id="clip14"><rect x="713" y="3665" width="559" height="546"/></clipPath><clipPath id="clip15"><rect x="713" y="3665" width="559" height="546"/></clipPath><clipPath id="clip16"><rect x="713" y="3665" width="559" height="546"/></clipPath><clipPath id="clip17"><rect x="713" y="3665" width="559" height="546"/></clipPath><clipPath id="clip18"><rect x="713" y="3665" width="559" height="546"/></clipPath><clipPath id="clip19"><rect x="713" y="3665" width="559" height="546"/></clipPath><clipPath id="clip20"><rect x="713" y="3665" width="559" height="546"/></clipPath><clipPath id="clip21"><rect x="713" y="3665" width="559" height="546"/></clipPath><clipPath id="clip22"><rect x="713" y="3665" width="559" height="546"/></clipPath><clipPath id="clip23"><rect x="713" y="3665" width="559" height="546"/></clipPath><clipPath id="clip24"><rect x="713" y="3665" width="559" height="546"/></clipPath></defs><g clip-path="url(#clip0)" transform="translate(-713 -3665)"><rect x="714" y="3666" width="558" height="546" fill="#FFFFFF"/><g clip-path="url(#clip1)"><path d="M800.5 4046.63 1210.5 4046.63M800.5 3956.63 1210.5 3956.63M800.5 3867.63 1210.5 3867.63M800.5 3777.5 1210.5 3777.5" stroke="#D9D9D9" stroke-width="3.4375" stroke-linejoin="round" stroke-miterlimit="10" fill="none"/></g><g clip-path="url(#clip2)"><path d="M882.529 3777.5 882.529 4136.5M964.532 3777.5 964.532 4136.5M1046.53 3777.5 1046.53 4136.5M1128.54 3777.5 1128.54 4136.5M1210.5 3777.5 1210.5 4136.5" stroke="#D9D9D9" stroke-width="3.4375" stroke-linejoin="round" stroke-miterlimit="10" fill="none"/></g><g clip-path="url(#clip3)"><path d="M1.71875-1.72781e-06 1.7191 349.833-1.7184 349.833-1.71875 1.72781e-06ZM0.000351677 349.833 9.16701 340.667 0.000360892 359-9.16632 340.667Z" transform="matrix(1 0 0 -1 800.5 4136.5)"/></g><g clip-path="url(#clip4)"><path d="M800.526 4136.5 806.5 4136.5M800.526 4118.64 806.5 4118.64M800.526 4100.63 806.5 4100.63M800.526 4082.63 806.5 4082.63M800.526 4064.63 806.5 4064.63M800.526 4046.63 806.5 4046.63M800.526 4028.63 806.5 4028.63M800.526 4010.63 806.5 4010.63M800.526 3992.63 806.5 3992.63M800.526 3974.63 806.5 3974.63M800.526 3956.63 806.5 3956.63M800.526 3938.63 806.5 3938.63M800.526 3920.63 806.5 3920.63M800.526 3902.63 806.5 3902.63M800.526 3885.63 806.5 3885.63M800.526 3867.63 806.5 3867.63M800.526 3849.63 806.5 3849.63M800.526 3831.63 806.5 3831.63M800.526 3813.63 806.5 3813.63M800.526 3795.62 806.5 3795.62M800.526 3777.5 806.5 3777.5M792.5 4136.5 800.526 4136.5M792.5 4046.63 800.526 4046.63M792.5 3956.63 800.526 3956.63M792.5 3867.63 800.526 3867.63M792.5 3777.5 800.526 3777.5" stroke="#000000" stroke-width="3.4375" stroke-linejoin="round" stroke-miterlimit="10" fill="none"/></g><g clip-path="url(#clip5)"><path d="M800.5 4134.78 1201.33 4134.78 1201.33 4138.22 800.5 4138.22ZM1201.33 4136.5 1192.17 4127.33 1210.5 4136.5 1192.17 4145.67Z"/></g><g clip-path="url(#clip6)"><path d="M800.5 4130.5 800.5 4136.64M821.527 4130.5 821.527 4136.64M841.528 4130.5 841.528 4136.64M862.529 4130.5 862.529 4136.64M882.529 4130.5 882.529 4136.64M903.53 4130.5 903.53 4136.64M923.531 4130.5 923.531 4136.64M944.531 4130.5 944.531 4136.64M964.532 4130.5 964.532 4136.64M985.533 4130.5 985.533 4136.64M1005.53 4130.5 1005.53 4136.64M1026.53 4130.5 1026.53 4136.64M1046.53 4130.5 1046.53 4136.64M1067.54 4130.5 1067.54 4136.64M1087.54 4130.5 1087.54 4136.64M1108.54 4130.5 1108.54 4136.64M1128.54 4130.5 1128.54 4136.64M1149.54 4130.5 1149.54 4136.64M1169.54 4130.5 1169.54 4136.64M1190.54 4130.5 1190.54 4136.64M1210.5 4130.5 1210.5 4136.64M800.5 4136.64 800.5 4144.5M882.529 4136.64 882.529 4144.5M964.532 4136.64 964.532 4144.5M1046.53 4136.64 1046.53 4144.5M1128.54 4136.64 1128.54 4144.5M1210.5 4136.64 1210.5 4144.5" stroke="#000000" stroke-width="3.4375" stroke-linejoin="round" stroke-miterlimit="10" fill="none"/></g><g clip-path="url(#clip7)"><path d="M801 3840 821.027 3900.13 842.028 3948.13 862.028 3987.13 883.029 4017.13 903.03 4041.13 924.03 4061.13 944.031 4076.13 965.032 4088.13 985.032 4098.13 1006.03 4106.13 1026.03 4112.13 1047.03 4117.14 1067.04 4121.14 1088.04 4124.14 1108.04 4127.14 1129.04 4129.14 1149.04 4130.14 1170.04 4132.14 1190.04 4133.14 1211.04 4133.14 1231 4134" stroke="#000000" stroke-width="5.72917" stroke-linecap="round" stroke-linejoin="round" stroke-miterlimit="10" fill="none"/></g><g clip-path="url(#clip8)"><path d="M800.5 3840.5 841.528 3840.5 882.529 3840.5 923.531 3840.5 964.532 3840.5 1005.53 3840.5 1046.53 3840.5 1087.54 3840.5 1128.54 3840.5 1169.54 3840.5 1210.54 3840.5 1251.54 3840.5 1292.54 3840.5 1333.54 3840.5 1374.55 3840.5 1415.55 3840.5 1456.55 3840.5 1497.55 3840.5 1538.55 3840.5 1579.55 3840.5 1620.55 3840.5 1661.5 3840.5" stroke="#FF0000" stroke-width="3.4375" stroke-linecap="round" stroke-linejoin="round" stroke-miterlimit="10" fill="none"/></g><g clip-path="url(#clip9)"><text font-family="Times New Roman,Times New Roman_MSFontService,sans-serif" font-weight="400" font-size="28" transform="matrix(1 0 0 1 763.565 4145)">0</text></g><g clip-path="url(#clip10)"><text font-family="Times New Roman,Times New Roman_MSFontService,sans-serif" font-weight="400" font-size="28" transform="matrix(1 0 0 1 763.565 4055)">1</text></g><g clip-path="url(#clip11)"><text font-family="Times New Roman,Times New Roman_MSFontService,sans-serif" font-weight="400" font-size="28" transform="matrix(1 0 0 1 763.565 3965)">2</text></g><g clip-path="url(#clip12)"><text font-family="Times New Roman,Times New Roman_MSFontService,sans-serif" font-weight="400" font-size="28" transform="matrix(1 0 0 1 763.565 3875)">3</text></g><g clip-path="url(#clip13)"><text font-family="Times New Roman,Times New Roman_MSFontService,sans-serif" font-weight="400" font-size="28" transform="matrix(1 0 0 1 763.565 3785)">4</text></g><g clip-path="url(#clip14)"><text font-family="Times New Roman,Times New Roman_MSFontService,sans-serif" font-weight="400" font-size="28" transform="matrix(1 0 0 1 793.834 4177)">0</text></g><g clip-path="url(#clip15)"><text font-family="Times New Roman,Times New Roman_MSFontService,sans-serif" font-weight="400" font-size="28" transform="matrix(1 0 0 1 858.62 4177)">0,02</text></g><g clip-path="url(#clip16)"><text font-family="Times New Roman,Times New Roman_MSFontService,sans-serif" font-weight="400" font-size="28" transform="matrix(1 0 0 1 940.593 4177)">0,04</text></g><g clip-path="url(#clip17)"><text font-family="Times New Roman,Times New Roman_MSFontService,sans-serif" font-weight="400" font-size="28" transform="matrix(1 0 0 1 1022.57 4177)">0,06</text></g><g clip-path="url(#clip18)"><text font-family="Times New Roman,Times New Roman_MSFontService,sans-serif" font-weight="400" font-size="28" transform="matrix(1 0 0 1 1104.54 4177)">0,08</text></g><g clip-path="url(#clip19)"><text font-family="Times New Roman,Times New Roman_MSFontService,sans-serif" font-weight="400" font-size="28" transform="matrix(1 0 0 1 1193.39 4177)">0,1</text></g><g clip-path="url(#clip20)"><text font-family="Times New Roman,Times New Roman_MSFontService,sans-serif" font-weight="400" font-size="28" transform="matrix(1 0 0 1 791.73 3762)">u</text></g><g clip-path="url(#clip21)"><text font-family="Times New Roman,Times New Roman_MSFontService,sans-serif" font-weight="400" font-size="18" transform="matrix(1 0 0 1 805.48 3768)">C</text></g><g clip-path="url(#clip22)"><text font-family="Times New Roman,Times New Roman_MSFontService,sans-serif" font-weight="400" font-size="28" transform="matrix(1 0 0 1 817.718 3762)">(V)</text></g><g clip-path="url(#clip23)"><text font-family="Times New Roman,Times New Roman_MSFontService,sans-serif" font-weight="400" font-size="28" transform="matrix(1 0 0 1 1128.01 4102)">t(s)</text></g><g clip-path="url(#clip24)"><text font-family="Times New Roman,Times New Roman_MSFontService,sans-serif" font-weight="400" font-size="33" transform="matrix(1 0 0 1 875.037 3728)">Décharge d'un condensateur</text></g><rect x="714.5" y="3666.5" width="558" height="546" stroke="#D9D9D9" stroke-width="3.4375" stroke-linejoin="round" stroke-miterlimit="10" fill="none"/><text font-family="Times New Roman,Times New Roman_MSFontService,sans-serif" font-weight="400" font-size="32" transform="matrix(1 0 0 1 757.682 3853)">E</text></g></svg>