<svg width="562" height="549" xmlns="http://www.w3.org/2000/svg" xmlns:xlink="http://www.w3.org/1999/xlink" overflow="hidden"><defs><clipPath id="clip0"><rect x="146" y="4493" width="562" height="549"/></clipPath><clipPath id="clip1"><rect x="147" y="4494" width="558" height="546"/></clipPath><clipPath id="clip2"><rect x="147" y="4494" width="558" height="546"/></clipPath><clipPath id="clip3"><rect x="147" y="4494" width="558" height="546"/></clipPath><clipPath id="clip4"><rect x="147" y="4494" width="558" height="546"/></clipPath><clipPath id="clip5"><rect x="147" y="4494" width="558" height="546"/></clipPath><clipPath id="clip6"><rect x="147" y="4494" width="558" height="546"/></clipPath><clipPath id="clip7"><rect x="233" y="4605" width="414" height="363"/></clipPath><clipPath id="clip8"><rect x="147" y="4494" width="558" height="546"/></clipPath><clipPath id="clip9"><rect x="147" y="4494" width="558" height="546"/></clipPath><clipPath id="clip10"><rect x="147" y="4494" width="558" height="546"/></clipPath><clipPath id="clip11"><rect x="147" y="4494" width="558" height="546"/></clipPath><clipPath id="clip12"><rect x="147" y="4494" width="558" height="546"/></clipPath><clipPath id="clip13"><rect x="147" y="4494" width="558" height="546"/></clipPath><clipPath id="clip14"><rect x="147" y="4494" width="558" height="546"/></clipPath><clipPath id="clip15"><rect x="147" y="4494" width="558" height="546"/></clipPath><clipPath id="clip16"><rect x="147" y="4494" width="558" height="546"/></clipPath><clipPath id="clip17"><rect x="147" y="4494" width="558" height="546"/></clipPath><clipPath id="clip18"><rect x="147" y="4494" width="558" height="546"/></clipPath><clipPath id="clip19"><rect x="147" y="4494" width="558" height="546"/></clipPath><clipPath id="clip20"><rect x="147" y="4494" width="558" height="546"/></clipPath><clipPath id="clip21"><rect x="147" y="4494" width="558" height="546"/></clipPath><clipPath id="clip22"><rect x="147" y="4494" width="558" height="546"/></clipPath><clipPath id="clip23"><rect x="147" y="4494" width="558" height="546"/></clipPath><clipPath id="clip24"><rect x="147" y="4494" width="558" height="546"/></clipPath><clipPath id="clip25"><rect x="147" y="4494" width="558" height="546"/></clipPath><clipPath id="clip26"><rect x="147" y="4494" width="558" height="546"/></clipPath></defs><g clip-path="url(#clip0)" transform="translate(-146 -4493)"><rect x="147" y="4494" width="559" height="546" fill="#FFFFFF"/><g clip-path="url(#clip1)"><path d="M233.5 4965.5 643.5 4965.5M233.5 4905.66 643.5 4905.66M233.5 4845.66 643.5 4845.66M233.5 4785.66 643.5 4785.66M233.5 4665.65 643.5 4665.65M233.5 4605.5 643.5 4605.5" stroke="#D9D9D9" stroke-width="3.4375" stroke-linejoin="round" stroke-miterlimit="10" fill="none"/></g><g clip-path="url(#clip2)"><path d="M315.511 4605.5 315.511 4965.5M397.513 4605.5 397.513 4965.5M479.516 4605.5 479.516 4965.5M561.519 4605.5 561.519 4965.5M643.5 4605.5 643.5 4965.5" stroke="#D9D9D9" stroke-width="3.4375" stroke-linejoin="round" stroke-miterlimit="10" fill="none"/></g><g clip-path="url(#clip3)"><path d="M1.71875-1.72301e-06 1.7191 350.833-1.7184 350.833-1.71875 1.72301e-06ZM0.000351703 350.833 9.16701 341.667 0.000360892 360-9.16632 341.667Z" transform="matrix(1 0 0 -1 233.5 4965.5)"/></g><g clip-path="url(#clip4)"><path d="M233.508 4965.5 240.5 4965.5M233.508 4953.66 240.5 4953.66M233.508 4941.66 240.5 4941.66M233.508 4929.66 240.5 4929.66M233.508 4917.66 240.5 4917.66M233.508 4905.66 240.5 4905.66M233.508 4893.66 240.5 4893.66M233.508 4881.66 240.5 4881.66M233.508 4869.66 240.5 4869.66M233.508 4857.66 240.5 4857.66M233.508 4845.66 240.5 4845.66M233.508 4833.66 240.5 4833.66M233.508 4821.66 240.5 4821.66M233.508 4809.66 240.5 4809.66M233.508 4797.66 240.5 4797.66M233.508 4785.66 240.5 4785.66M233.508 4773.66 240.5 4773.66M233.508 4761.66 240.5 4761.66M233.508 4749.66 240.5 4749.66M233.508 4737.66 240.5 4737.66M233.508 4725.66 240.5 4725.66M233.508 4713.65 240.5 4713.65M233.508 4701.65 240.5 4701.65M233.508 4689.65 240.5 4689.65M233.508 4677.65 240.5 4677.65M233.508 4665.65 240.5 4665.65M233.508 4653.65 240.5 4653.65M233.508 4641.65 240.5 4641.65M233.508 4629.65 240.5 4629.65M233.508 4617.65 240.5 4617.65M233.508 4605.5 240.5 4605.5M225.5 4965.5 233.508 4965.5M225.5 4905.66 233.508 4905.66M225.5 4845.66 233.508 4845.66M225.5 4785.66 233.508 4785.66M225.5 4725.66 233.508 4725.66M225.5 4665.65 233.508 4665.65M225.5 4605.5 233.508 4605.5" stroke="#000000" stroke-width="3.4375" stroke-linejoin="round" stroke-miterlimit="10" fill="none"/></g><g clip-path="url(#clip5)"><path d="M233.5 4723.78 634.333 4723.78 634.333 4727.22 233.5 4727.22ZM634.333 4725.5 625.167 4716.33 643.5 4725.5 625.167 4734.67Z"/></g><g clip-path="url(#clip6)"><path d="M233.5 4719.5 233.5 4725.66M254.509 4719.5 254.509 4725.66M274.509 4719.5 274.509 4725.66M295.51 4719.5 295.51 4725.66M315.511 4719.5 315.511 4725.66M336.511 4719.5 336.511 4725.66M356.512 4719.5 356.512 4725.66M377.513 4719.5 377.513 4725.66M397.513 4719.5 397.513 4725.66M418.514 4719.5 418.514 4725.66M438.515 4719.5 438.515 4725.66M459.515 4719.5 459.515 4725.66M479.516 4719.5 479.516 4725.66M500.517 4719.5 500.517 4725.66M520.517 4719.5 520.517 4725.66M541.518 4719.5 541.518 4725.66M561.519 4719.5 561.519 4725.66M582.519 4719.5 582.519 4725.66M602.52 4719.5 602.52 4725.66M623.521 4719.5 623.521 4725.66M643.5 4719.5 643.5 4725.66M233.5 4725.66 233.5 4733.5M315.511 4725.66 315.511 4733.5M397.513 4725.66 397.513 4733.5M479.516 4725.66 479.516 4733.5M561.519 4725.66 561.519 4733.5M643.5 4725.66 643.5 4733.5" stroke="#000000" stroke-width="3.4375" stroke-linejoin="round" stroke-miterlimit="10" fill="none"/></g><g clip-path="url(#clip7)"><path d="M234 4654 254.008 4668.15 275.009 4681.15 295.01 4695.15 316.01 4708.15 336.011 4722.15 357.012 4736.16 377.012 4749.16 398.013 4763.16 418.014 4777.16 439.014 4790.16 459.015 4804.16 480.016 4817.16 500.016 4831.16 521.017 4845.16 541.018 4858.16 562.018 4872.16 582.019 4885.16 603.02 4899.16 623.02 4913.16 644.021 4926.16 664 4940" stroke="#000000" stroke-width="5.72917" stroke-linecap="round" stroke-linejoin="round" stroke-miterlimit="10" fill="none"/></g><g clip-path="url(#clip8)"><text font-family="Times New Roman,Times New Roman_MSFontService,sans-serif" font-weight="400" font-size="28" transform="matrix(1 0 0 1 187.659 4973)">-4</text></g><g clip-path="url(#clip9)"><text font-family="Times New Roman,Times New Roman_MSFontService,sans-serif" font-weight="400" font-size="28" transform="matrix(1 0 0 1 187.659 4913)">-3</text></g><g clip-path="url(#clip10)"><text font-family="Times New Roman,Times New Roman_MSFontService,sans-serif" font-weight="400" font-size="28" transform="matrix(1 0 0 1 187.659 4854)">-2</text></g><g clip-path="url(#clip11)"><text font-family="Times New Roman,Times New Roman_MSFontService,sans-serif" font-weight="400" font-size="28" transform="matrix(1 0 0 1 187.659 4794)">-1</text></g><g clip-path="url(#clip12)"><text font-family="Times New Roman,Times New Roman_MSFontService,sans-serif" font-weight="400" font-size="28" transform="matrix(1 0 0 1 196.826 4734)">0</text></g><g clip-path="url(#clip13)"><text font-family="Times New Roman,Times New Roman_MSFontService,sans-serif" font-weight="400" font-size="28" transform="matrix(1 0 0 1 196.826 4674)">1</text></g><g clip-path="url(#clip14)"><text font-family="Times New Roman,Times New Roman_MSFontService,sans-serif" font-weight="400" font-size="28" transform="matrix(1 0 0 1 196.826 4614)">2</text></g><g clip-path="url(#clip15)"><text font-family="Times New Roman,Times New Roman_MSFontService,sans-serif" font-weight="400" font-size="28" transform="matrix(1 0 0 1 227.095 4766)">0</text></g><g clip-path="url(#clip16)"><text font-family="Times New Roman,Times New Roman_MSFontService,sans-serif" font-weight="400" font-size="28" transform="matrix(1 0 0 1 291.881 4766)">0,02</text></g><g clip-path="url(#clip17)"><text font-family="Times New Roman,Times New Roman_MSFontService,sans-serif" font-weight="400" font-size="28" transform="matrix(1 0 0 1 373.854 4766)">0,04</text></g><g clip-path="url(#clip18)"><text font-family="Times New Roman,Times New Roman_MSFontService,sans-serif" font-weight="400" font-size="28" transform="matrix(1 0 0 1 455.828 4766)">0,06</text></g><g clip-path="url(#clip19)"><text font-family="Times New Roman,Times New Roman_MSFontService,sans-serif" font-weight="400" font-size="28" transform="matrix(1 0 0 1 537.801 4766)">0,08</text></g><g clip-path="url(#clip20)"><text font-family="Times New Roman,Times New Roman_MSFontService,sans-serif" font-weight="400" font-size="28" transform="matrix(1 0 0 1 626.65 4766)">0,1</text></g><g clip-path="url(#clip21)"><text font-family="Times New Roman,Times New Roman_MSFontService,sans-serif" font-weight="400" font-size="28" transform="matrix(1 0 0 1 224.991 4590)">ln u</text></g><g clip-path="url(#clip22)"><text font-family="Times New Roman,Times New Roman_MSFontService,sans-serif" font-weight="400" font-size="18" transform="matrix(1 0 0 1 266.997 4596)">C</text></g><g clip-path="url(#clip23)"><text font-family="Times New Roman,Times New Roman_MSFontService,sans-serif" font-weight="400" font-size="28" transform="matrix(1 0 0 1 609.845 4722)">t(s)</text></g><g clip-path="url(#clip24)"><text font-family="Times New Roman,Times New Roman_MSFontService,sans-serif" font-weight="400" font-size="33" transform="matrix(1 0 0 1 415.857 4561)">ln(u</text></g><g clip-path="url(#clip25)"><text font-family="Times New Roman,Times New Roman_MSFontService,sans-serif" font-weight="400" font-size="22" transform="matrix(1 0 0 1 469.023 4568)">C</text></g><g clip-path="url(#clip26)"><text font-family="Times New Roman,Times New Roman_MSFontService,sans-serif" font-weight="400" font-size="33" transform="matrix(1 0 0 1 483.69 4561)">)=f(t)</text></g><rect x="147.5" y="4494.5" width="559" height="546" stroke="#D9D9D9" stroke-width="3.4375" stroke-linejoin="round" stroke-miterlimit="10" fill="none"/></g></svg>