<svg width="522" height="464" xmlns="http://www.w3.org/2000/svg" xmlns:xlink="http://www.w3.org/1999/xlink" overflow="hidden"><defs><clipPath id="clip0"><rect x="-1" y="-1" width="522" height="464"/></clipPath><clipPath id="clip1"><rect x="0" y="0" width="518" height="461"/></clipPath><clipPath id="clip2"><rect x="0" y="0" width="518" height="461"/></clipPath><clipPath id="clip3"><rect x="0" y="0" width="518" height="461"/></clipPath><clipPath id="clip4"><rect x="80" y="94" width="384" height="307"/></clipPath><clipPath id="clip5"><rect x="80" y="94" width="384" height="307"/></clipPath><clipPath id="clip6"><rect x="0" y="0" width="518" height="461"/></clipPath><clipPath id="clip7"><rect x="0" y="0" width="518" height="461"/></clipPath><clipPath id="clip8"><rect x="0" y="0" width="518" height="461"/></clipPath><clipPath id="clip9"><rect x="0" y="0" width="518" height="461"/></clipPath><clipPath id="clip10"><rect x="0" y="0" width="518" height="461"/></clipPath><clipPath id="clip11"><rect x="0" y="0" width="518" height="461"/></clipPath></defs><g clip-path="url(#clip0)" transform="translate(1 1)"><rect x="0" y="0" width="519" height="461" fill="#FFFFFF"/><g clip-path="url(#clip1)"><path d="M80.4999 94.5 461.5 94.5" stroke="#D9D9D9" stroke-width="3.4375" stroke-linejoin="round" stroke-miterlimit="10" fill="none"/></g><g clip-path="url(#clip2)"><path d="M1.71875-2.04041e-06 1.7191 294.833-1.7184 294.833-1.71875 2.04041e-06ZM0.00035001 294.833 9.16701 285.667 0.000360892 304-9.16633 285.667Z" transform="matrix(1 0 0 -1 80.4999 398.5)"/></g><g clip-path="url(#clip3)"><path d="M80.4999 396.781 452.334 396.782 452.334 400.219 80.4999 400.219ZM452.333 398.5 443.167 389.334 461.5 398.5 443.167 407.667Z"/></g><g clip-path="url(#clip4)"><path d="M80.4999 398.5 99.5034 306.51 118.504 248.508 137.505 211.507 156.505 188.506 175.506 173.506 194.507 163.506 213.507 157.505 232.508 153.505 251.508 151.505 270.509 150.505 290.51 149.505 309.51 148.505 328.511 148.505 347.512 147.505 366.512 147.505 385.513 147.505 404.513 147.505 423.514 147.505 442.515 147.505 461.515 147.505 480.5 147.5" stroke="#000000" stroke-width="4.58333" stroke-linecap="round" stroke-linejoin="round" stroke-miterlimit="10" fill="none"/></g><g clip-path="url(#clip5)"><path d="M80.4999 147.5 99.5034 147.5 118.504 147.5 137.505 147.5 156.505 147.5 175.506 147.5 194.507 147.5 213.507 147.5 232.508 147.5 251.508 147.5 270.509 147.5 290.51 147.5 309.51 147.5 328.511 147.5 347.512 147.5 366.512 147.5 385.513 147.5 404.513 147.5 423.514 147.5 442.515 147.5 461.515 147.5 480.5 147.5" stroke="#FF0000" stroke-width="3.4375" stroke-linecap="round" stroke-linejoin="round" stroke-miterlimit="10" fill="none"/></g><g clip-path="url(#clip6)"><text font-family="Times New Roman,Times New Roman_MSFontService,sans-serif" font-weight="400" font-size="28" transform="matrix(1 0 0 1 73.8245 438)">0</text></g><g clip-path="url(#clip7)"><text font-family="Times New Roman,Times New Roman_MSFontService,sans-serif" font-weight="400" font-size="28" transform="matrix(1 0 0 1 73.3436 86)">u</text></g><g clip-path="url(#clip8)"><text font-family="Times New Roman,Times New Roman_MSFontService,sans-serif" font-weight="400" font-size="18" transform="matrix(1 0 0 1 87.0936 92)">C</text></g><g clip-path="url(#clip9)"><text font-family="Times New Roman,Times New Roman_MSFontService,sans-serif" font-weight="400" font-size="28" transform="matrix(1 0 0 1 99.3311 86)">(V)</text></g><g clip-path="url(#clip10)"><text font-family="Times New Roman,Times New Roman_MSFontService,sans-serif" font-weight="400" font-size="28" transform="matrix(1 0 0 1 385.609 374)">t(s)</text></g><g clip-path="url(#clip11)"><text font-family="Times New Roman,Times New Roman_MSFontService,sans-serif" font-weight="400" font-size="33" transform="matrix(1 0 0 1 102.373 52)">Charge d'un condensateur</text></g><rect x="0.499836" y="0.499836" width="519" height="461" stroke="#D9D9D9" stroke-width="3.4375" stroke-linejoin="round" stroke-miterlimit="10" fill="none"/></g></svg>