<svg xmlns="http://www.w3.org/2000/svg" xmlns:xlink="http://www.w3.org/1999/xlink" viewBox="0 0 101.08 93.76">
  <defs>
    <style>
      .cls-1, .cls-3 {
        fill: none;
      }

      .cls-2 {
        fill: #0055a3;
      }

      .cls-3, .cls-6, .cls-7, .cls-8, .cls-9 {
        stroke: #000;
        stroke-linejoin: round;
        stroke-width: 0.75px;
        stroke-dasharray: 28575 9525;
      }

      .cls-4, .cls-5 {
        font-size: 9px;
        fill: #1d1d1b;
      }

      .cls-4 {
        font-family: TimesNewRomanPS-ItalicMT, Times New Roman;
        font-style: italic;
      }

      .cls-5 {
        font-family: TimesNewRomanPSMT, Times New Roman;
      }

      .cls-6 {
        fill: url(#_20_10_ppp);
      }

      .cls-7 {
        fill: url(#_20_10_ppp-5);
      }

      .cls-8 {
        fill: url(#_20_10_ppp-13);
      }

      .cls-9 {
        fill: url(#_20_10_ppp-17);
      }
    </style>
    <pattern id="_20_10_ppp" data-name="20 % 10 ppp" width="28.8" height="28.8" patternUnits="userSpaceOnUse" viewBox="0 0 28.8 28.8">
      <rect class="cls-1" width="28.8" height="28.8"/>
      <g>
        <path class="cls-2" d="M28.8,30.24a1.44,1.44,0,1,0-1.44-1.44A1.44,1.44,0,0,0,28.8,30.24Z"/>
        <path class="cls-2" d="M14.4,30.24A1.44,1.44,0,1,0,13,28.8,1.44,1.44,0,0,0,14.4,30.24Z"/>
        <path class="cls-2" d="M28.8,15.84a1.44,1.44,0,1,0-1.44-1.44A1.44,1.44,0,0,0,28.8,15.84Z"/>
        <path class="cls-2" d="M14.4,15.84A1.44,1.44,0,1,0,13,14.4,1.44,1.44,0,0,0,14.4,15.84Z"/>
        <path class="cls-2" d="M7.2,23A1.44,1.44,0,1,0,5.76,21.6,1.44,1.44,0,0,0,7.2,23Z"/>
        <path class="cls-2" d="M21.6,23a1.44,1.44,0,1,0-1.44-1.44A1.44,1.44,0,0,0,21.6,23Z"/>
        <path class="cls-2" d="M7.2,8.64A1.44,1.44,0,1,0,5.76,7.2,1.44,1.44,0,0,0,7.2,8.64Z"/>
        <path class="cls-2" d="M21.6,8.64A1.44,1.44,0,1,0,20.16,7.2,1.44,1.44,0,0,0,21.6,8.64Z"/>
      </g>
      <g>
        <path class="cls-2" d="M0,30.24A1.44,1.44,0,0,0,1.44,28.8,1.45,1.45,0,0,0,0,27.36,1.44,1.44,0,0,0-1.44,28.8,1.43,1.43,0,0,0,0,30.24Z"/>
        <path class="cls-2" d="M0,15.84A1.44,1.44,0,0,0,1.44,14.4,1.45,1.45,0,0,0,0,13,1.44,1.44,0,0,0-1.44,14.4,1.43,1.43,0,0,0,0,15.84Z"/>
      </g>
      <g>
        <path class="cls-2" d="M28.8,1.44A1.44,1.44,0,0,0,30.24,0,1.45,1.45,0,0,0,28.8-1.44,1.44,1.44,0,0,0,27.36,0,1.43,1.43,0,0,0,28.8,1.44Z"/>
        <path class="cls-2" d="M14.4,1.44A1.44,1.44,0,0,0,15.84,0,1.45,1.45,0,0,0,14.4-1.44,1.44,1.44,0,0,0,13,0,1.43,1.43,0,0,0,14.4,1.44Z"/>
      </g>
      <path class="cls-2" d="M0,1.44A1.44,1.44,0,0,0,1.44,0,1.45,1.45,0,0,0,0-1.44,1.44,1.44,0,0,0-1.44,0,1.43,1.43,0,0,0,0,1.44Z"/>
    </pattern>
    <pattern id="_20_10_ppp-5" data-name="20 % 10 ppp" width="28.8" height="28.8" patternTransform="translate(2.95 5.82) scale(0.3)" patternUnits="userSpaceOnUse" viewBox="0 0 28.8 28.8">
      <rect class="cls-1" width="28.8" height="28.8"/>
      <g>
        <path class="cls-2" d="M28.8,30.24a1.44,1.44,0,1,0-1.44-1.44A1.44,1.44,0,0,0,28.8,30.24Z"/>
        <path class="cls-2" d="M14.4,30.24A1.44,1.44,0,1,0,13,28.8,1.44,1.44,0,0,0,14.4,30.24Z"/>
        <path class="cls-2" d="M28.8,15.84a1.44,1.44,0,1,0-1.44-1.44A1.44,1.44,0,0,0,28.8,15.84Z"/>
        <path class="cls-2" d="M14.4,15.84A1.44,1.44,0,1,0,13,14.4,1.44,1.44,0,0,0,14.4,15.84Z"/>
        <path class="cls-2" d="M7.2,23A1.44,1.44,0,1,0,5.76,21.6,1.44,1.44,0,0,0,7.2,23Z"/>
        <path class="cls-2" d="M21.6,23a1.44,1.44,0,1,0-1.44-1.44A1.44,1.44,0,0,0,21.6,23Z"/>
        <path class="cls-2" d="M7.2,8.64A1.44,1.44,0,1,0,5.76,7.2,1.44,1.44,0,0,0,7.2,8.64Z"/>
        <path class="cls-2" d="M21.6,8.64A1.44,1.44,0,1,0,20.16,7.2,1.44,1.44,0,0,0,21.6,8.64Z"/>
      </g>
      <g>
        <path class="cls-2" d="M0,30.24A1.44,1.44,0,0,0,1.44,28.8,1.45,1.45,0,0,0,0,27.36,1.44,1.44,0,0,0-1.44,28.8,1.43,1.43,0,0,0,0,30.24Z"/>
        <path class="cls-2" d="M0,15.84A1.44,1.44,0,0,0,1.44,14.4,1.45,1.45,0,0,0,0,13,1.44,1.44,0,0,0-1.44,14.4,1.43,1.43,0,0,0,0,15.84Z"/>
      </g>
      <g>
        <path class="cls-2" d="M28.8,1.44A1.44,1.44,0,0,0,30.24,0,1.45,1.45,0,0,0,28.8-1.44,1.44,1.44,0,0,0,27.36,0,1.43,1.43,0,0,0,28.8,1.44Z"/>
        <path class="cls-2" d="M14.4,1.44A1.44,1.44,0,0,0,15.84,0,1.45,1.45,0,0,0,14.4-1.44,1.44,1.44,0,0,0,13,0,1.43,1.43,0,0,0,14.4,1.44Z"/>
      </g>
      <path class="cls-2" d="M0,1.44A1.44,1.44,0,0,0,1.44,0,1.45,1.45,0,0,0,0-1.44,1.44,1.44,0,0,0-1.44,0,1.43,1.43,0,0,0,0,1.44Z"/>
    </pattern>
    <pattern id="_20_10_ppp-13" data-name="20 % 10 ppp" width="28.8" height="28.8" patternTransform="translate(0 14.52)" patternUnits="userSpaceOnUse" viewBox="0 0 28.8 28.8">
      <rect class="cls-1" width="28.8" height="28.8"/>
      <g>
        <path class="cls-2" d="M28.8,30.24a1.44,1.44,0,1,0-1.44-1.44A1.44,1.44,0,0,0,28.8,30.24Z"/>
        <path class="cls-2" d="M14.4,30.24A1.44,1.44,0,1,0,13,28.8,1.44,1.44,0,0,0,14.4,30.24Z"/>
        <path class="cls-2" d="M28.8,15.84a1.44,1.44,0,1,0-1.44-1.44A1.44,1.44,0,0,0,28.8,15.84Z"/>
        <path class="cls-2" d="M14.4,15.84A1.44,1.44,0,1,0,13,14.4,1.44,1.44,0,0,0,14.4,15.84Z"/>
        <path class="cls-2" d="M7.2,23A1.44,1.44,0,1,0,5.76,21.6,1.44,1.44,0,0,0,7.2,23Z"/>
        <path class="cls-2" d="M21.6,23a1.44,1.44,0,1,0-1.44-1.44A1.44,1.44,0,0,0,21.6,23Z"/>
        <path class="cls-2" d="M7.2,8.64A1.44,1.44,0,1,0,5.76,7.2,1.44,1.44,0,0,0,7.2,8.64Z"/>
        <path class="cls-2" d="M21.6,8.64A1.44,1.44,0,1,0,20.16,7.2,1.44,1.44,0,0,0,21.6,8.64Z"/>
      </g>
      <g>
        <path class="cls-2" d="M0,30.24A1.44,1.44,0,0,0,1.44,28.8,1.45,1.45,0,0,0,0,27.36,1.44,1.44,0,0,0-1.44,28.8,1.43,1.43,0,0,0,0,30.24Z"/>
        <path class="cls-2" d="M0,15.84A1.44,1.44,0,0,0,1.44,14.4,1.45,1.45,0,0,0,0,13,1.44,1.44,0,0,0-1.44,14.4,1.43,1.43,0,0,0,0,15.84Z"/>
      </g>
      <g>
        <path class="cls-2" d="M28.8,1.44A1.44,1.44,0,0,0,30.24,0,1.45,1.45,0,0,0,28.8-1.44,1.44,1.44,0,0,0,27.36,0,1.43,1.43,0,0,0,28.8,1.44Z"/>
        <path class="cls-2" d="M14.4,1.44A1.44,1.44,0,0,0,15.84,0,1.45,1.45,0,0,0,14.4-1.44,1.44,1.44,0,0,0,13,0,1.43,1.43,0,0,0,14.4,1.44Z"/>
      </g>
      <path class="cls-2" d="M0,1.44A1.44,1.44,0,0,0,1.44,0,1.45,1.45,0,0,0,0-1.44,1.44,1.44,0,0,0-1.44,0,1.43,1.43,0,0,0,0,1.44Z"/>
    </pattern>
    <pattern id="_20_10_ppp-17" data-name="20 % 10 ppp" width="28.8" height="28.8" patternTransform="translate(8.89 5.94) scale(0.3)" patternUnits="userSpaceOnUse" viewBox="0 0 28.8 28.8">
      <rect class="cls-1" width="28.8" height="28.8"/>
      <g>
        <path class="cls-2" d="M28.8,30.24a1.44,1.44,0,1,0-1.44-1.44A1.44,1.44,0,0,0,28.8,30.24Z"/>
        <path class="cls-2" d="M14.4,30.24A1.44,1.44,0,1,0,13,28.8,1.44,1.44,0,0,0,14.4,30.24Z"/>
        <path class="cls-2" d="M28.8,15.84a1.44,1.44,0,1,0-1.44-1.44A1.44,1.44,0,0,0,28.8,15.84Z"/>
        <path class="cls-2" d="M14.4,15.84A1.44,1.44,0,1,0,13,14.4,1.44,1.44,0,0,0,14.4,15.84Z"/>
        <path class="cls-2" d="M7.2,23A1.44,1.44,0,1,0,5.76,21.6,1.44,1.44,0,0,0,7.2,23Z"/>
        <path class="cls-2" d="M21.6,23a1.44,1.44,0,1,0-1.44-1.44A1.44,1.44,0,0,0,21.6,23Z"/>
        <path class="cls-2" d="M7.2,8.64A1.44,1.44,0,1,0,5.76,7.2,1.44,1.44,0,0,0,7.2,8.64Z"/>
        <path class="cls-2" d="M21.6,8.64A1.44,1.44,0,1,0,20.16,7.2,1.44,1.44,0,0,0,21.6,8.64Z"/>
      </g>
      <g>
        <path class="cls-2" d="M0,30.24A1.44,1.44,0,0,0,1.44,28.8,1.45,1.45,0,0,0,0,27.36,1.44,1.44,0,0,0-1.44,28.8,1.43,1.43,0,0,0,0,30.24Z"/>
        <path class="cls-2" d="M0,15.84A1.44,1.44,0,0,0,1.44,14.4,1.45,1.45,0,0,0,0,13,1.44,1.44,0,0,0-1.44,14.4,1.43,1.43,0,0,0,0,15.84Z"/>
      </g>
      <g>
        <path class="cls-2" d="M28.8,1.44A1.44,1.44,0,0,0,30.24,0,1.45,1.45,0,0,0,28.8-1.44,1.44,1.44,0,0,0,27.36,0,1.43,1.43,0,0,0,28.8,1.44Z"/>
        <path class="cls-2" d="M14.4,1.44A1.44,1.44,0,0,0,15.84,0,1.45,1.45,0,0,0,14.4-1.44,1.44,1.44,0,0,0,13,0,1.43,1.43,0,0,0,14.4,1.44Z"/>
      </g>
      <path class="cls-2" d="M0,1.44A1.44,1.44,0,0,0,1.44,0,1.45,1.45,0,0,0,0-1.44,1.44,1.44,0,0,0-1.44,0,1.43,1.43,0,0,0,0,1.44Z"/>
    </pattern>
  </defs>
  <g id="Calque_2" data-name="Calque 2">
    <g>
      <line class="cls-3" x1="49.43" y1="39.76" x2="81.29" y2="39.76"/>
      <line class="cls-3" x1="81.29" y1="13.45" x2="49.43" y2="13.45"/>
      <ellipse class="cls-3" cx="81.29" cy="26.6" rx="3.74" ry="13.15"/>
    </g>
    <text class="cls-4" transform="translate(47.42 10.55)">S</text>
    <text class="cls-4" transform="translate(89.03 29)">t</text>
    <text class="cls-5" transform="translate(91.53 31.99) scale(0.58)">1</text>
    <path class="cls-6" d="M60.85,76.59" transform="translate(-43.27 -36.84)"/>
    <path class="cls-6" d="M60.85,50.29" transform="translate(-43.27 -36.84)"/>
    <g>
      <path class="cls-7" d="M92.71,76.59" transform="translate(-43.27 -36.84)"/>
      <path class="cls-7" d="M92.71,50.29" transform="translate(-43.27 -36.84)"/>
      <path class="cls-7" d="M60.85,76.59c-2.07,0-3.75-5.89-3.75-13.15s1.68-13.15,3.75-13.15" transform="translate(-43.27 -36.84)"/>
      <path class="cls-7" d="M60.85,50.29H92.71c2.06,0,3.74,5.88,3.74,13.15s-1.68,13.15-3.74,13.15H60.85" transform="translate(-43.27 -36.84)"/>
    </g>
    <path class="cls-3" d="M92.71,76.59C90.64,76.59,89,70.7,89,63.44s1.68-13.15,3.75-13.15" transform="translate(-43.27 -36.84)"/>
    <ellipse class="cls-3" cx="49.43" cy="69.92" rx="3.74" ry="13.15"/>
    <text class="cls-4" transform="translate(47.42 53.87)">S</text>
    <text class="cls-4" transform="translate(89.03 72.32)">t</text>
    <text class="cls-5" transform="translate(91.53 75.31) scale(0.58)">2</text>
    <path class="cls-8" d="M60.85,119.91" transform="translate(-43.27 -36.84)"/>
    <path class="cls-8" d="M60.85,93.6" transform="translate(-43.27 -36.84)"/>
    <g>
      <path class="cls-9" d="M124.57,119.91" transform="translate(-43.27 -36.84)"/>
      <path class="cls-9" d="M124.57,93.6" transform="translate(-43.27 -36.84)"/>
      <path class="cls-9" d="M92.71,119.91c-2.07,0-3.75-5.89-3.75-13.15S90.64,93.6,92.71,93.6" transform="translate(-43.27 -36.84)"/>
      <path class="cls-9" d="M92.71,93.6h31.86c2.06,0,3.74,5.89,3.74,13.16s-1.68,13.15-3.74,13.15H92.71" transform="translate(-43.27 -36.84)"/>
    </g>
    <g>
      <line class="cls-3" x1="17.39" y1="83.08" x2="49.25" y2="83.08"/>
      <line class="cls-3" x1="49.25" y1="56.77" x2="17.39" y2="56.77"/>
      <path class="cls-3" d="M60.66,119.91c-2.06,0-3.74-5.89-3.74-13.15S58.6,93.6,60.66,93.6" transform="translate(-43.27 -36.84)"/>
    </g>
    <rect class="cls-1" width="101.08" height="93.76"/>
  </g>
</svg>
