<svg xmlns="http://www.w3.org/2000/svg" xmlns:xlink="http://www.w3.org/1999/xlink" viewBox="0 0 80.88607 80.38181">
  <defs>
    <style>
      .cls-1, .cls-3 {
        fill: none;
      }

      .cls-2 {
        fill: #0055a3;
      }

      .cls-3, .cls-6, .cls-7, .cls-8, .cls-9 {
        stroke: #000;
        stroke-linejoin: round;
        stroke-width: 0.75px;
        stroke-dasharray: 28575 9525;
      }

      .cls-4, .cls-5 {
        font-size: 9px;
        fill: #1d1d1b;
      }

      .cls-4 {
        font-family: TimesNewRomanPS-ItalicMT, Times New Roman;
        font-style: italic;
      }

      .cls-5 {
        font-family: TimesNewRomanPSMT, Times New Roman;
      }

      .cls-6 {
        fill: url(#_20_10_ppp);
      }

      .cls-7 {
        fill: url(#_20_10_ppp-5);
      }

      .cls-8 {
        fill: url(#_20_10_ppp-13);
      }

      .cls-9 {
        fill: url(#_20_10_ppp-17);
      }
    </style>
    <pattern id="_20_10_ppp" data-name="20 % 10 ppp" width="28.7998" height="28.8008" patternUnits="userSpaceOnUse" viewBox="0 0 28.8 28.801">
      <rect class="cls-1" width="28.7998" height="28.8008"/>
      <g>
        <path class="cls-2" d="M28.79975,30.24035a1.43946,1.43946,0,1,0-1.4404-1.43945A1.43953,1.43953,0,0,0,28.79975,30.24035Z"/>
        <path class="cls-2" d="M14.39935,30.24035a1.43946,1.43946,0,1,0-1.4394-1.43945A1.44038,1.44038,0,0,0,14.39935,30.24035Z"/>
        <path class="cls-2" d="M28.79975,15.842a1.44045,1.44045,0,1,0-1.4404-1.4414A1.4412,1.4412,0,0,0,28.79975,15.842Z"/>
        <path class="cls-2" d="M14.39935,15.842a1.44045,1.44045,0,1,0-1.4394-1.4414A1.44206,1.44206,0,0,0,14.39935,15.842Z"/>
        <path class="cls-2" d="M7.1992,23.04113a1.44044,1.44044,0,1,0-1.43945-1.43945A1.44039,1.44039,0,0,0,7.1992,23.04113Z"/>
        <path class="cls-2" d="M21.59955,23.04113a1.44044,1.44044,0,1,0-1.4404-1.43945A1.44038,1.44038,0,0,0,21.59955,23.04113Z"/>
        <path class="cls-2" d="M7.1992,8.64075a1.44045,1.44045,0,1,0-1.43945-1.4395A1.44038,1.44038,0,0,0,7.1992,8.64075Z"/>
        <path class="cls-2" d="M21.59955,8.64075a1.44045,1.44045,0,1,0-1.4404-1.4395A1.44037,1.44037,0,0,0,21.59955,8.64075Z"/>
      </g>
      <g>
        <path class="cls-2" d="M0,30.24035a1.43953,1.43953,0,0,0,1.4395-1.43945A1.43953,1.43953,0,0,0,0,27.36144a1.43972,1.43972,0,0,0-1.4404,1.43946A1.43972,1.43972,0,0,0,0,30.24035Z"/>
        <path class="cls-2" d="M0,15.842a1.4412,1.4412,0,0,0,1.4395-1.4414A1.43952,1.43952,0,0,0,0,12.96105a1.43971,1.43971,0,0,0-1.4404,1.4395A1.4414,1.4414,0,0,0,0,15.842Z"/>
      </g>
      <g>
        <path class="cls-2" d="M28.79975,1.43955A1.43953,1.43953,0,0,0,30.23925.0001a1.43953,1.43953,0,0,0-1.4395-1.43946A1.43972,1.43972,0,0,0,27.35935.0001,1.43972,1.43972,0,0,0,28.79975,1.43955Z"/>
        <path class="cls-2" d="M14.39935,1.43955A1.44038,1.44038,0,0,0,15.83985.0001a1.44038,1.44038,0,0,0-1.4405-1.43946A1.43887,1.43887,0,0,0,12.95995.0001,1.43887,1.43887,0,0,0,14.39935,1.43955Z"/>
      </g>
      <path class="cls-2" d="M0,1.43955A1.43953,1.43953,0,0,0,1.43945.0001,1.43953,1.43953,0,0,0,0-1.43936,1.43972,1.43972,0,0,0-1.44045.0001,1.43972,1.43972,0,0,0,0,1.43955Z"/>
    </pattern>
    <pattern id="_20_10_ppp-5" data-name="20 % 10 ppp" width="28.7998" height="28.8008" patternTransform="translate(2.9491 5.82009) scale(0.3)" patternUnits="userSpaceOnUse" viewBox="0 0 28.8 28.801">
      <rect class="cls-1" width="28.7998" height="28.8008"/>
      <g>
        <path class="cls-2" d="M28.79975,30.24035a1.43946,1.43946,0,1,0-1.4404-1.43945A1.43953,1.43953,0,0,0,28.79975,30.24035Z"/>
        <path class="cls-2" d="M14.39935,30.24035a1.43946,1.43946,0,1,0-1.4394-1.43945A1.44038,1.44038,0,0,0,14.39935,30.24035Z"/>
        <path class="cls-2" d="M28.79975,15.842a1.44045,1.44045,0,1,0-1.4404-1.4414A1.4412,1.4412,0,0,0,28.79975,15.842Z"/>
        <path class="cls-2" d="M14.39935,15.842a1.44045,1.44045,0,1,0-1.4394-1.4414A1.44206,1.44206,0,0,0,14.39935,15.842Z"/>
        <path class="cls-2" d="M7.1992,23.04113a1.44044,1.44044,0,1,0-1.43945-1.43945A1.44039,1.44039,0,0,0,7.1992,23.04113Z"/>
        <path class="cls-2" d="M21.59955,23.04113a1.44044,1.44044,0,1,0-1.4404-1.43945A1.44038,1.44038,0,0,0,21.59955,23.04113Z"/>
        <path class="cls-2" d="M7.1992,8.64075a1.44045,1.44045,0,1,0-1.43945-1.4395A1.44038,1.44038,0,0,0,7.1992,8.64075Z"/>
        <path class="cls-2" d="M21.59955,8.64075a1.44045,1.44045,0,1,0-1.4404-1.4395A1.44037,1.44037,0,0,0,21.59955,8.64075Z"/>
      </g>
      <g>
        <path class="cls-2" d="M0,30.24035a1.43953,1.43953,0,0,0,1.4395-1.43945A1.43953,1.43953,0,0,0,0,27.36144a1.43972,1.43972,0,0,0-1.4404,1.43946A1.43972,1.43972,0,0,0,0,30.24035Z"/>
        <path class="cls-2" d="M0,15.842a1.4412,1.4412,0,0,0,1.4395-1.4414A1.43952,1.43952,0,0,0,0,12.96105a1.43971,1.43971,0,0,0-1.4404,1.4395A1.4414,1.4414,0,0,0,0,15.842Z"/>
      </g>
      <g>
        <path class="cls-2" d="M28.79975,1.43955A1.43953,1.43953,0,0,0,30.23925.0001a1.43953,1.43953,0,0,0-1.4395-1.43946A1.43972,1.43972,0,0,0,27.35935.0001,1.43972,1.43972,0,0,0,28.79975,1.43955Z"/>
        <path class="cls-2" d="M14.39935,1.43955A1.44038,1.44038,0,0,0,15.83985.0001a1.44038,1.44038,0,0,0-1.4405-1.43946A1.43887,1.43887,0,0,0,12.95995.0001,1.43887,1.43887,0,0,0,14.39935,1.43955Z"/>
      </g>
      <path class="cls-2" d="M0,1.43955A1.43953,1.43953,0,0,0,1.43945.0001,1.43953,1.43953,0,0,0,0-1.43936,1.43972,1.43972,0,0,0-1.44045.0001,1.43972,1.43972,0,0,0,0,1.43955Z"/>
    </pattern>
    <pattern id="_20_10_ppp-13" data-name="20 % 10 ppp" width="28.7998" height="28.8008" patternTransform="translate(0 14.51788)" patternUnits="userSpaceOnUse" viewBox="0 0 28.8 28.801">
      <rect class="cls-1" width="28.7998" height="28.8008"/>
      <g>
        <path class="cls-2" d="M28.79975,30.24035a1.43946,1.43946,0,1,0-1.4404-1.43945A1.43953,1.43953,0,0,0,28.79975,30.24035Z"/>
        <path class="cls-2" d="M14.39935,30.24035a1.43946,1.43946,0,1,0-1.4394-1.43945A1.44038,1.44038,0,0,0,14.39935,30.24035Z"/>
        <path class="cls-2" d="M28.79975,15.842a1.44045,1.44045,0,1,0-1.4404-1.4414A1.4412,1.4412,0,0,0,28.79975,15.842Z"/>
        <path class="cls-2" d="M14.39935,15.842a1.44045,1.44045,0,1,0-1.4394-1.4414A1.44206,1.44206,0,0,0,14.39935,15.842Z"/>
        <path class="cls-2" d="M7.1992,23.04113a1.44044,1.44044,0,1,0-1.43945-1.43945A1.44039,1.44039,0,0,0,7.1992,23.04113Z"/>
        <path class="cls-2" d="M21.59955,23.04113a1.44044,1.44044,0,1,0-1.4404-1.43945A1.44038,1.44038,0,0,0,21.59955,23.04113Z"/>
        <path class="cls-2" d="M7.1992,8.64075a1.44045,1.44045,0,1,0-1.43945-1.4395A1.44038,1.44038,0,0,0,7.1992,8.64075Z"/>
        <path class="cls-2" d="M21.59955,8.64075a1.44045,1.44045,0,1,0-1.4404-1.4395A1.44037,1.44037,0,0,0,21.59955,8.64075Z"/>
      </g>
      <g>
        <path class="cls-2" d="M0,30.24035a1.43953,1.43953,0,0,0,1.4395-1.43945A1.43953,1.43953,0,0,0,0,27.36144a1.43972,1.43972,0,0,0-1.4404,1.43946A1.43972,1.43972,0,0,0,0,30.24035Z"/>
        <path class="cls-2" d="M0,15.842a1.4412,1.4412,0,0,0,1.4395-1.4414A1.43952,1.43952,0,0,0,0,12.96105a1.43971,1.43971,0,0,0-1.4404,1.4395A1.4414,1.4414,0,0,0,0,15.842Z"/>
      </g>
      <g>
        <path class="cls-2" d="M28.79975,1.43955A1.43953,1.43953,0,0,0,30.23925.0001a1.43953,1.43953,0,0,0-1.4395-1.43946A1.43972,1.43972,0,0,0,27.35935.0001,1.43972,1.43972,0,0,0,28.79975,1.43955Z"/>
        <path class="cls-2" d="M14.39935,1.43955A1.44038,1.44038,0,0,0,15.83985.0001a1.44038,1.44038,0,0,0-1.4405-1.43946A1.43887,1.43887,0,0,0,12.95995.0001,1.43887,1.43887,0,0,0,14.39935,1.43955Z"/>
      </g>
      <path class="cls-2" d="M0,1.43955A1.43953,1.43953,0,0,0,1.43945.0001,1.43953,1.43953,0,0,0,0-1.43936,1.43972,1.43972,0,0,0-1.44045.0001,1.43972,1.43972,0,0,0,0,1.43955Z"/>
    </pattern>
    <pattern id="_20_10_ppp-17" data-name="20 % 10 ppp" width="28.7998" height="28.8008" patternTransform="translate(8.88928 5.93756) scale(0.3)" patternUnits="userSpaceOnUse" viewBox="0 0 28.8 28.801">
      <rect class="cls-1" width="28.7998" height="28.8008"/>
      <g>
        <path class="cls-2" d="M28.79975,30.24035a1.43946,1.43946,0,1,0-1.4404-1.43945A1.43953,1.43953,0,0,0,28.79975,30.24035Z"/>
        <path class="cls-2" d="M14.39935,30.24035a1.43946,1.43946,0,1,0-1.4394-1.43945A1.44038,1.44038,0,0,0,14.39935,30.24035Z"/>
        <path class="cls-2" d="M28.79975,15.842a1.44045,1.44045,0,1,0-1.4404-1.4414A1.4412,1.4412,0,0,0,28.79975,15.842Z"/>
        <path class="cls-2" d="M14.39935,15.842a1.44045,1.44045,0,1,0-1.4394-1.4414A1.44206,1.44206,0,0,0,14.39935,15.842Z"/>
        <path class="cls-2" d="M7.1992,23.04113a1.44044,1.44044,0,1,0-1.43945-1.43945A1.44039,1.44039,0,0,0,7.1992,23.04113Z"/>
        <path class="cls-2" d="M21.59955,23.04113a1.44044,1.44044,0,1,0-1.4404-1.43945A1.44038,1.44038,0,0,0,21.59955,23.04113Z"/>
        <path class="cls-2" d="M7.1992,8.64075a1.44045,1.44045,0,1,0-1.43945-1.4395A1.44038,1.44038,0,0,0,7.1992,8.64075Z"/>
        <path class="cls-2" d="M21.59955,8.64075a1.44045,1.44045,0,1,0-1.4404-1.4395A1.44037,1.44037,0,0,0,21.59955,8.64075Z"/>
      </g>
      <g>
        <path class="cls-2" d="M0,30.24035a1.43953,1.43953,0,0,0,1.4395-1.43945A1.43953,1.43953,0,0,0,0,27.36144a1.43972,1.43972,0,0,0-1.4404,1.43946A1.43972,1.43972,0,0,0,0,30.24035Z"/>
        <path class="cls-2" d="M0,15.842a1.4412,1.4412,0,0,0,1.4395-1.4414A1.43952,1.43952,0,0,0,0,12.96105a1.43971,1.43971,0,0,0-1.4404,1.4395A1.4414,1.4414,0,0,0,0,15.842Z"/>
      </g>
      <g>
        <path class="cls-2" d="M28.79975,1.43955A1.43953,1.43953,0,0,0,30.23925.0001a1.43953,1.43953,0,0,0-1.4395-1.43946A1.43972,1.43972,0,0,0,27.35935.0001,1.43972,1.43972,0,0,0,28.79975,1.43955Z"/>
        <path class="cls-2" d="M14.39935,1.43955A1.44038,1.44038,0,0,0,15.83985.0001a1.44038,1.44038,0,0,0-1.4405-1.43946A1.43887,1.43887,0,0,0,12.95995.0001,1.43887,1.43887,0,0,0,14.39935,1.43955Z"/>
      </g>
      <path class="cls-2" d="M0,1.43955A1.43953,1.43953,0,0,0,1.43945.0001,1.43953,1.43953,0,0,0,0-1.43936,1.43972,1.43972,0,0,0-1.44045.0001,1.43972,1.43972,0,0,0,0,1.43955Z"/>
    </pattern>
  </defs>
  <g id="Calque_2" data-name="Calque 2">
    <g>
      <line class="cls-3" x1="36.16084" y1="36.68813" x2="68.02084" y2="36.68814"/>
      <line class="cls-3" x1="68.02084" y1="10.38045" x2="36.16084" y2="10.38044"/>
      <ellipse class="cls-3" cx="68.02084" cy="23.53428" rx="3.74189" ry="13.15384"/>
    </g>
    <text class="cls-4" transform="translate(34.15075 7.47943)">S</text>
    <text class="cls-4" transform="translate(75.76184 25.92721)">t</text>
    <text class="cls-5" transform="translate(78.26233 28.92428) scale(0.583)">1</text>
    <path class="cls-6" d="M60.84641,76.59339" transform="translate(-56.54557 -39.90527)"/>
    <path class="cls-6" d="M60.84641,50.28571" transform="translate(-56.54557 -39.90527)"/>
    <g>
      <path class="cls-7" d="M92.70641,76.5934" transform="translate(-56.54557 -39.90527)"/>
      <path class="cls-7" d="M92.70641,50.28571" transform="translate(-56.54557 -39.90527)"/>
      <path class="cls-7" d="M60.84641,76.59339c-2.06659,0-3.74189-5.88917-3.74189-13.15384s1.6753-13.15384,3.74189-13.15384" transform="translate(-56.54557 -39.90527)"/>
      <path class="cls-7" d="M60.84641,50.28571h31.86c2.06659,0,3.74189,5.88918,3.74189,13.15384S94.773,76.59339,92.70641,76.59339l-31.86,0" transform="translate(-56.54557 -39.90527)"/>
    </g>
    <path class="cls-3" d="M92.70641,76.59339c-2.06659,0-3.74189-5.88917-3.74189-13.15384s1.6753-13.15384,3.74189-13.15384" transform="translate(-56.54557 -39.90527)"/>
    <ellipse class="cls-3" cx="36.16084" cy="66.85296" rx="3.74189" ry="13.15384"/>
    <text class="cls-4" transform="translate(34.15075 50.79811)">S</text>
    <text class="cls-4" transform="translate(75.76184 69.24589)">t</text>
    <text class="cls-5" transform="translate(78.26233 72.24296) scale(0.583)">2</text>
    <path class="cls-8" d="M60.84641,119.91207" transform="translate(-56.54557 -39.90527)"/>
    <path class="cls-8" d="M60.84641,93.60439" transform="translate(-56.54557 -39.90527)"/>
    <g>
      <path class="cls-9" d="M124.56641,119.91207" transform="translate(-56.54557 -39.90527)"/>
      <path class="cls-9" d="M124.56641,93.60438" transform="translate(-56.54557 -39.90527)"/>
      <path class="cls-9" d="M92.70641,119.91207c-2.06659,0-3.74189-5.88918-3.74189-13.15385s1.6753-13.15384,3.74189-13.15384" transform="translate(-56.54557 -39.90527)"/>
      <path class="cls-9" d="M92.70641,93.60439l31.86,0c2.06659,0,3.74189,5.88918,3.74189,13.15384s-1.6753,13.15385-3.74189,13.15385l-31.86,0" transform="translate(-56.54557 -39.90527)"/>
    </g>
    <g>
      <line class="cls-3" x1="4.11689" y1="80.00681" x2="35.97689" y2="80.00681"/>
      <line class="cls-3" x1="35.97689" y1="53.69912" x2="4.11689" y2="53.69912"/>
      <path class="cls-3" d="M60.66245,119.91207c-2.06658,0-3.74188-5.88917-3.74188-13.15384s1.6753-13.15384,3.74188-13.15384" transform="translate(-56.54557 -39.90527)"/>
    </g>
  </g>
</svg>
