<svg width="848" height="510" xmlns="http://www.w3.org/2000/svg" xmlns:xlink="http://www.w3.org/1999/xlink" overflow="hidden"><defs><clipPath id="clip0"><rect x="146" y="9142" width="848" height="510"/></clipPath><clipPath id="clip1"><rect x="147" y="9143" width="844" height="506"/></clipPath><clipPath id="clip2"><rect x="147" y="9143" width="844" height="506"/></clipPath><clipPath id="clip3"><rect x="147" y="9143" width="844" height="506"/></clipPath><clipPath id="clip4"><rect x="147" y="9143" width="844" height="506"/></clipPath><clipPath id="clip5"><rect x="147" y="9143" width="844" height="506"/></clipPath><clipPath id="clip6"><rect x="147" y="9143" width="844" height="506"/></clipPath><clipPath id="clip7"><rect x="227" y="9167" width="721" height="432"/></clipPath><clipPath id="clip8"><rect x="147" y="9143" width="844" height="506"/></clipPath><clipPath id="clip9"><rect x="147" y="9143" width="844" height="506"/></clipPath><clipPath id="clip10"><rect x="147" y="9143" width="844" height="506"/></clipPath><clipPath id="clip11"><rect x="147" y="9143" width="844" height="506"/></clipPath><clipPath id="clip12"><rect x="147" y="9143" width="844" height="506"/></clipPath><clipPath id="clip13"><rect x="147" y="9143" width="844" height="506"/></clipPath><clipPath id="clip14"><rect x="147" y="9143" width="844" height="506"/></clipPath><clipPath id="clip15"><rect x="147" y="9143" width="844" height="506"/></clipPath><clipPath id="clip16"><rect x="147" y="9143" width="844" height="506"/></clipPath><clipPath id="clip17"><rect x="147" y="9143" width="844" height="506"/></clipPath><clipPath id="clip18"><rect x="147" y="9143" width="844" height="506"/></clipPath><clipPath id="clip19"><rect x="147" y="9143" width="844" height="506"/></clipPath><clipPath id="clip20"><rect x="147" y="9143" width="844" height="506"/></clipPath><clipPath id="clip21"><rect x="147" y="9143" width="844" height="506"/></clipPath><clipPath id="clip22"><rect x="147" y="9143" width="844" height="506"/></clipPath><clipPath id="clip23"><rect x="147" y="9143" width="844" height="506"/></clipPath><clipPath id="clip24"><rect x="147" y="9143" width="844" height="506"/></clipPath><clipPath id="clip25"><rect x="147" y="9143" width="844" height="506"/></clipPath><clipPath id="clip26"><rect x="147" y="9143" width="844" height="506"/></clipPath><clipPath id="clip27"><rect x="147" y="9143" width="844" height="506"/></clipPath><clipPath id="clip28"><rect x="147" y="9143" width="844" height="506"/></clipPath><clipPath id="clip29"><rect x="147" y="9143" width="844" height="506"/></clipPath><clipPath id="clip30"><rect x="147" y="9143" width="844" height="506"/></clipPath></defs><g clip-path="url(#clip0)" transform="translate(-146 -9142)"><rect x="147" y="9143" width="845" height="507" fill="#FFFFFF"/><g clip-path="url(#clip1)"><path d="M227.5 9524.81 945.5 9524.81M227.5 9453.81 945.5 9453.81M227.5 9381.81 945.5 9381.81M227.5 9310.81 945.5 9310.81M227.5 9238.8 945.5 9238.8M227.5 9167.5 945.5 9167.5" stroke="#D9D9D9" stroke-width="3.4375" stroke-linejoin="round" stroke-miterlimit="10" fill="none"/></g><g clip-path="url(#clip2)"><path d="M298.51 9167.5 298.51 9596.5M370.512 9167.5 370.512 9596.5M442.515 9167.5 442.515 9596.5M514.517 9167.5 514.517 9596.5M585.519 9167.5 585.519 9596.5M657.522 9167.5 657.522 9596.5M729.524 9167.5 729.524 9596.5M801.526 9167.5 801.526 9596.5M873.529 9167.5 873.529 9596.5M945.5 9167.5 945.5 9596.5" stroke="#D9D9D9" stroke-width="3.4375" stroke-linejoin="round" stroke-miterlimit="10" fill="none"/></g><g clip-path="url(#clip3)"><path d="M1.14583-9.66174e-07 1.14619 418.833-1.14548 418.833-1.14583 9.66174e-07ZM0.000353163 418.833 9.16701 409.667 0.000360892 428-9.16632 409.667Z" transform="matrix(1 0 0 -1 227 9596)"/></g><g clip-path="url(#clip4)"><path d="M227.007 9596 233 9596M227.007 9582.31 233 9582.31M227.007 9567.31 233 9567.31M227.007 9553.31 233 9553.31M227.007 9539.31 233 9539.31M227.007 9524.31 233 9524.31M227.007 9510.31 233 9510.31M227.007 9496.31 233 9496.31M227.007 9482.31 233 9482.31M227.007 9467.31 233 9467.31M227.007 9453.31 233 9453.31M227.007 9439.31 233 9439.31M227.007 9424.31 233 9424.31M227.007 9410.31 233 9410.31M227.007 9396.31 233 9396.31M227.007 9382.31 233 9382.31M227.007 9367.31 233 9367.31M227.007 9353.31 233 9353.31M227.007 9339.31 233 9339.31M227.007 9324.31 233 9324.31M227.007 9310.31 233 9310.31M227.007 9296.3 233 9296.3M227.007 9282.3 233 9282.3M227.007 9267.3 233 9267.3M227.007 9253.3 233 9253.3M227.007 9239.3 233 9239.3M227.007 9225.3 233 9225.3M227.007 9210.3 233 9210.3M227.007 9196.3 233 9196.3M227.007 9182.3 233 9182.3M227.007 9168 233 9168M219 9596 227.007 9596M219 9524.31 227.007 9524.31M219 9453.31 227.007 9453.31M219 9382.31 227.007 9382.31M219 9310.31 227.007 9310.31M219 9239.3 227.007 9239.3M219 9168 227.007 9168" stroke="#000000" stroke-width="2.29167" stroke-linejoin="round" stroke-miterlimit="10" fill="none"/></g><g clip-path="url(#clip5)"><path d="M227 9594.85 935.837 9594.85 935.837 9597.15 227 9597.15ZM935.833 9596 926.667 9586.83 945 9596 926.667 9605.17Z"/></g><g clip-path="url(#clip6)"><path d="M227 9590 227 9596.31M256.008 9590 256.008 9596.31M284.009 9590 284.009 9596.31M313.01 9590 313.01 9596.31M342.011 9590 342.011 9596.31M371.012 9590 371.012 9596.31M399.013 9590 399.013 9596.31M428.014 9590 428.014 9596.31M457.015 9590 457.015 9596.31M485.016 9590 485.016 9596.31M514.017 9590 514.017 9596.31M543.018 9590 543.018 9596.31M572.019 9590 572.019 9596.31M600.02 9590 600.02 9596.31M629.021 9590 629.021 9596.31M658.022 9590 658.022 9596.31M687.023 9590 687.023 9596.31M715.023 9590 715.023 9596.31M744.024 9590 744.024 9596.31M773.025 9590 773.025 9596.31M801.026 9590 801.026 9596.31M830.027 9590 830.027 9596.31M859.028 9590 859.028 9596.31M888.029 9590 888.029 9596.31M916.03 9590 916.03 9596.31M945 9590 945 9596.31M227 9596.31 227 9604M299.01 9596.31 299.01 9604M371.012 9596.31 371.012 9604M442.014 9596.31 442.014 9604M514.017 9596.31 514.017 9604M586.019 9596.31 586.019 9604M658.022 9596.31 658.022 9604M730.024 9596.31 730.024 9604M801.026 9596.31 801.026 9604M873.029 9596.31 873.029 9604M945 9596.31 945 9604" stroke="#000000" stroke-width="2.29167" stroke-linejoin="round" stroke-miterlimit="10" fill="none"/></g><g clip-path="url(#clip7)"><path d="M227.5 9203.5C237.073 9232.46 246.647 9264.62 256.22 9290.38 265.793 9316.13 275.366 9337.98 284.94 9358.04 294.513 9378.1 304.087 9395.11 313.66 9410.73 323.233 9426.35 332.807 9439.6 342.38 9451.77 351.953 9463.94 361.527 9474.26 371.1 9483.73 380.673 9493.21 390.247 9501.24 399.82 9508.62 409.393 9516 418.966 9522.26 428.54 9528.01 438.113 9533.75 447.687 9538.63 457.26 9543.1 466.833 9547.58 476.407 9551.38 485.98 9554.86 495.553 9558.35 505.127 9561.3 514.7 9564.02 524.273 9566.73 533.847 9569.04 543.42 9571.15 552.993 9573.26 562.567 9575.06 572.14 9576.7 581.713 9578.35 591.287 9579.75 600.86 9581.03 610.433 9582.31 620.007 9583.4 629.58 9584.4 639.153 9585.4 648.727 9586.24 658.3 9587.02 667.873 9587.8 677.447 9588.46 687.02 9589.06 696.593 9589.67 706.167 9590.18 715.74 9590.66 725.313 9591.13 734.887 9591.53 744.46 9591.89 754.033 9592.26 763.607 9592.57 773.18 9592.86 782.753 9593.15 792.327 9593.39 801.9 9593.61 811.473 9593.83 821.047 9594.02 830.62 9594.2 840.193 9594.37 849.767 9594.52 859.34 9594.65 868.913 9594.79 878.487 9594.9 888.06 9595.01 897.633 9595.11 907.207 9595.2 916.78 9595.28 926.353 9595.37 935.927 9595.43 945.5 9595.5" stroke="#000000" stroke-width="3.4375" stroke-linecap="round" stroke-linejoin="round" stroke-miterlimit="10" fill="none"/></g><g clip-path="url(#clip8)"><text font-family="Times New Roman,Times New Roman_MSFontService,sans-serif" font-weight="400" font-size="28" transform="matrix(1 0 0 1 189.887 9604)">0</text></g><g clip-path="url(#clip9)"><text font-family="Times New Roman,Times New Roman_MSFontService,sans-serif" font-weight="400" font-size="28" transform="matrix(1 0 0 1 189.887 9533)">1</text></g><g clip-path="url(#clip10)"><text font-family="Times New Roman,Times New Roman_MSFontService,sans-serif" font-weight="400" font-size="28" transform="matrix(1 0 0 1 189.887 9461)">2</text></g><g clip-path="url(#clip11)"><text font-family="Times New Roman,Times New Roman_MSFontService,sans-serif" font-weight="400" font-size="28" transform="matrix(1 0 0 1 189.887 9390)">3</text></g><g clip-path="url(#clip12)"><text font-family="Times New Roman,Times New Roman_MSFontService,sans-serif" font-weight="400" font-size="28" transform="matrix(1 0 0 1 189.887 9319)">4</text></g><g clip-path="url(#clip13)"><text font-family="Times New Roman,Times New Roman_MSFontService,sans-serif" font-weight="400" font-size="28" transform="matrix(1 0 0 1 189.887 9247)">5</text></g><g clip-path="url(#clip14)"><text font-family="Times New Roman,Times New Roman_MSFontService,sans-serif" font-weight="400" font-size="28" transform="matrix(1 0 0 1 189.887 9176)">6</text></g><g clip-path="url(#clip15)"><text font-family="Times New Roman,Times New Roman_MSFontService,sans-serif" font-weight="400" font-size="28" transform="matrix(1 0 0 1 220.157 9637)">0</text></g><g clip-path="url(#clip16)"><text font-family="Times New Roman,Times New Roman_MSFontService,sans-serif" font-weight="400" font-size="28" transform="matrix(1 0 0 1 281.641 9637)">0,5</text></g><g clip-path="url(#clip17)"><text font-family="Times New Roman,Times New Roman_MSFontService,sans-serif" font-weight="400" font-size="28" transform="matrix(1 0 0 1 363.751 9637)">1</text></g><g clip-path="url(#clip18)"><text font-family="Times New Roman,Times New Roman_MSFontService,sans-serif" font-weight="400" font-size="28" transform="matrix(1 0 0 1 425.235 9637)">1,5</text></g><g clip-path="url(#clip19)"><text font-family="Times New Roman,Times New Roman_MSFontService,sans-serif" font-weight="400" font-size="28" transform="matrix(1 0 0 1 507.345 9637)">2</text></g><g clip-path="url(#clip20)"><text font-family="Times New Roman,Times New Roman_MSFontService,sans-serif" font-weight="400" font-size="28" transform="matrix(1 0 0 1 568.829 9637)">2,5</text></g><g clip-path="url(#clip21)"><text font-family="Times New Roman,Times New Roman_MSFontService,sans-serif" font-weight="400" font-size="28" transform="matrix(1 0 0 1 650.939 9637)">3</text></g><g clip-path="url(#clip22)"><text font-family="Times New Roman,Times New Roman_MSFontService,sans-serif" font-weight="400" font-size="28" transform="matrix(1 0 0 1 712.423 9637)">3,5</text></g><g clip-path="url(#clip23)"><text font-family="Times New Roman,Times New Roman_MSFontService,sans-serif" font-weight="400" font-size="28" transform="matrix(1 0 0 1 794.533 9637)">4</text></g><g clip-path="url(#clip24)"><text font-family="Times New Roman,Times New Roman_MSFontService,sans-serif" font-weight="400" font-size="28" transform="matrix(1 0 0 1 856.017 9637)">4,5</text></g><g clip-path="url(#clip25)"><text font-family="Times New Roman,Times New Roman_MSFontService,sans-serif" font-weight="400" font-size="28" transform="matrix(1 0 0 1 938.127 9637)">5</text></g><g clip-path="url(#clip26)"><text font-family="Times New Roman,Times New Roman_MSFontService,sans-serif" font-style="italic" font-weight="400" font-size="28" transform="matrix(1 0 0 1 262.532 9220)">u</text></g><g clip-path="url(#clip27)"><text font-family="Times New Roman,Times New Roman_MSFontService,sans-serif" font-style="italic" font-weight="400" font-size="18" transform="matrix(1 0 0 1 276.282 9226)">C</text></g><g clip-path="url(#clip28)"><text font-family="Times New Roman,Times New Roman_MSFontService,sans-serif" font-weight="400" font-size="28" transform="matrix(1 0 0 1 288.52 9220)">(V)</text></g><g clip-path="url(#clip29)"><text font-family="Times New Roman,Times New Roman_MSFontService,sans-serif" font-style="italic" font-weight="400" font-size="28" transform="matrix(1 0 0 1 845.841 9568)">t</text></g><g clip-path="url(#clip30)"><text font-family="Times New Roman,Times New Roman_MSFontService,sans-serif" font-weight="400" font-size="28" transform="matrix(1 0 0 1 853.472 9568)">(s)</text></g><rect x="147.5" y="9143.5" width="845" height="507" stroke="#D9D9D9" stroke-width="3.4375" stroke-linejoin="round" stroke-miterlimit="10" fill="none"/></g></svg>