<svg xmlns="http://www.w3.org/2000/svg" viewBox="0 0 86.37 60.13">
  <defs>
    <style>
      .cls-1, .cls-4, .cls-6 {
        fill: none;
      }

      .cls-1, .cls-3 {
        stroke: #1d1d1b;
      }

      .cls-1, .cls-3, .cls-6 {
        stroke-linecap: round;
        stroke-miterlimit: 10;
        stroke-width: 0.71px;
      }

      .cls-12, .cls-2, .cls-8, .cls-9 {
        fill: #1d1d1b;
      }

      .cls-3 {
        fill: #fff;
      }

      .cls-10, .cls-5 {
        fill: #e30613;
      }

      .cls-6 {
        stroke: #2d509f;
      }

      .cls-11, .cls-7 {
        fill: #2d509f;
      }

      .cls-10, .cls-11, .cls-12, .cls-8, .cls-9 {
        font-size: 6px;
      }

      .cls-10, .cls-11, .cls-8, .cls-9 {
        font-family: TimesNewRomanPS-ItalicMT, Times New Roman;
        font-style: italic;
      }

      .cls-9 {
        letter-spacing: -0.02em;
      }

      .cls-12 {
        font-family: TimesNewRomanPSMT, Times New Roman;
      }
    </style>
  </defs>
  <g id="Calque_1" data-name="Calque 1">
    <g>
      <line class="cls-1" x1="41.27" y1="14.13" x2="21.02" y2="14.13"/>
      <path class="cls-2" d="M92.52,59.86a.8.8,0,1,1-.8.8A.8.8,0,0,1,92.52,59.86Z" transform="translate(-51.24 -46.53)"/>
    </g>
    <line class="cls-1" x1="69.18" y1="14.13" x2="69.18" y2="55.56"/>
    <line class="cls-1" x1="20.76" y1="36.8" x2="20.76" y2="55.56"/>
    <line class="cls-1" x1="20.76" y1="14.06" x2="20.76" y2="32.82"/>
    <g>
      <line class="cls-1" x1="49.85" y1="14.13" x2="69.18" y2="14.13"/>
      <path class="cls-2" d="M101.09,61.46a.8.8,0,1,1,.8-.8A.8.8,0,0,1,101.09,61.46Z" transform="translate(-51.24 -46.53)"/>
    </g>
    <g>
      <line class="cls-1" x1="13.64" y1="33.11" x2="27.88" y2="33.11"/>
      <line class="cls-1" x1="13.64" y1="36.8" x2="27.88" y2="36.8"/>
    </g>
    <line class="cls-1" x1="20.76" y1="55.56" x2="69.18" y2="55.56"/>
    <rect class="cls-3" x="113.36" y="78.27" width="14.12" height="6.2" transform="translate(-12.2 155.26) rotate(-90)"/>
    <line class="cls-1" x1="48.13" y1="9.36" x2="41.29" y2="14.13"/>
    <rect class="cls-4" width="86.37" height="60.13"/>
  </g>
  <g id="Flèches">
    <polygon class="cls-5" points="42.98 54.25 43.53 55.56 42.98 56.87 46.09 55.56 42.98 54.25"/>
    <g>
      <line class="cls-1" x1="76.09" y1="28.77" x2="76.09" y2="42.08"/>
      <path class="cls-2" d="M127.33,75.93l1.28.78,0,0-.83-2.09-.48-2.17-.48,2.17L126,76.67l0,0Z" transform="translate(-51.24 -46.53)"/>
    </g>
    <g>
      <line class="cls-2" x1="10.94" y1="27.61" x2="10.94" y2="42.08"/>
      <g>
        <line class="cls-6" x1="10.94" y1="30.49" x2="10.94" y2="42.08"/>
        <path class="cls-7" d="M62.19,77.66l1.27.77,0,0-.82-2.08-.48-2.18-.48,2.18-.83,2.08,0,0Z" transform="translate(-51.24 -46.53)"/>
      </g>
    </g>
  </g>
  <g id="Légende">
    <text x="-51.24" y="-46.53"/>    <text class="cls-8" transform="translate(59.55 36.8)">R</text>
    <text class="cls-8" transform="translate(30.4 37.23)">C</text>
    <text class="cls-9" transform="translate(15.7 31.45)">A</text>
    <text class="cls-8" transform="translate(78.4 37.32)">u</text>
    <text class="cls-8" transform="translate(81.4 39.32) scale(0.58)">R</text>
    <text class="cls-8" transform="translate(15.7 42.9)">B</text>
    <text class="cls-10" transform="translate(42.93 52.72)">i</text>
    <text class="cls-11" transform="translate(4.39 37.23)">u</text>
    <text class="cls-11" transform="translate(7.39 37.23) scale(0.58)">c</text>
    <text class="cls-12" transform="translate(44.57 6.42)">K</text>
  </g>
</svg>
