<svg xmlns="http://www.w3.org/2000/svg" viewBox="0 0 136.75 78.59">
  <defs>
    <style>
      .cls-1, .cls-4, .cls-6 {
        fill: none;
      }

      .cls-1, .cls-3 {
        stroke: #1d1d1b;
      }

      .cls-1, .cls-3, .cls-6 {
        stroke-linecap: round;
        stroke-miterlimit: 10;
        stroke-width: 0.71px;
      }

      .cls-10, .cls-2, .cls-8, .cls-9 {
        fill: #1d1d1b;
      }

      .cls-3 {
        fill: #fff;
      }

      .cls-11, .cls-5 {
        fill: #e30613;
      }

      .cls-6 {
        stroke: #2d509f;
      }

      .cls-12, .cls-7 {
        fill: #2d509f;
      }

      .cls-10, .cls-11, .cls-12, .cls-8, .cls-9 {
        font-size: 7px;
      }

      .cls-10, .cls-11, .cls-12, .cls-8 {
        font-family: TimesNewRomanPS-ItalicMT, Times New Roman;
        font-style: italic;
      }

      .cls-9 {
        font-family: TimesNewRomanPSMT, Times New Roman;
      }

      .cls-10 {
        letter-spacing: -0.02em;
      }
    </style>
  </defs>
  <g id="Calque_1" data-name="Calque 1">
    <line class="cls-1" x1="30.99" y1="21.67" x2="30.99" y2="67.56"/>
    <g>
      <line class="cls-1" x1="57.3" y1="30.59" x2="57.3" y2="67.56"/>
      <path class="cls-2" d="M70.76,65.12a.8.8,0,1,1,.8.8A.8.8,0,0,1,70.76,65.12Z" transform="translate(-14.26 -34.53)"/>
    </g>
    <g>
      <line class="cls-1" x1="106.15" y1="26.13" x2="106.15" y2="42.77"/>
      <path class="cls-2" d="M119.62,60.66a.8.8,0,1,1,.8.8A.8.8,0,0,1,119.62,60.66Z" transform="translate(-14.26 -34.53)"/>
    </g>
    <g>
      <line class="cls-1" x1="106.15" y1="67.56" x2="106.15" y2="46.46"/>
      <circle class="cls-2" cx="106.15" cy="67.56" r="0.8"/>
    </g>
    <g>
      <line class="cls-1" x1="30.99" y1="21.67" x2="57.3" y2="21.67"/>
      <circle class="cls-2" cx="57.3" cy="21.67" r="0.8"/>
    </g>
    <g>
      <line class="cls-1" x1="62.64" y1="26.13" x2="106.15" y2="26.13"/>
      <path class="cls-2" d="M76.9,61.46a.8.8,0,1,1,.8-.8A.8.8,0,0,1,76.9,61.46Z" transform="translate(-14.26 -34.53)"/>
    </g>
    <g>
      <line class="cls-1" x1="99.03" y1="42.77" x2="113.27" y2="42.77"/>
      <line class="cls-1" x1="99.03" y1="46.46" x2="113.27" y2="46.46"/>
    </g>
    <line class="cls-1" x1="30.99" y1="67.56" x2="106.15" y2="67.56"/>
    <circle class="cls-1" cx="30.99" cy="44.61" r="8.06"/>
    <rect class="cls-3" x="79.52" y="23.03" width="14.12" height="6.2"/>
    <line class="cls-1" x1="57.3" y1="21.67" x2="62.64" y2="26.13"/>
    <rect class="cls-4" width="136.75" height="78.59"/>
  </g>
  <g id="Flèches">
    <polygon class="cls-5" points="66.91 24.82 67.47 26.13 66.91 27.44 70.02 26.13 66.91 24.82"/>
    <g>
      <line class="cls-1" x1="16.62" y1="33.39" x2="16.62" y2="58.72"/>
      <path class="cls-2" d="M30.88,68.55l1.28.78,0,0-.82-2.08L30.88,65l-.48,2.18-.83,2.08,0,0Z" transform="translate(-14.26 -34.53)"/>
    </g>
    <g>
      <line class="cls-1" x1="73.7" y1="16.35" x2="99.03" y2="16.35"/>
      <path class="cls-2" d="M88.6,50.88l.78-1.28,0,0-2.08.83-2.17.48,2.17.48,2.08.82,0,0Z" transform="translate(-14.26 -34.53)"/>
    </g>
    <g>
      <line class="cls-2" x1="120.66" y1="30.5" x2="120.66" y2="58.72"/>
      <g>
        <line class="cls-6" x1="120.66" y1="33.39" x2="120.66" y2="58.72"/>
        <path class="cls-7" d="M134.92,68.55l1.28.78,0,0-.83-2.08L134.92,65l-.48,2.18-.82,2.08,0,0Z" transform="translate(-14.26 -34.53)"/>
      </g>
    </g>
  </g>
  <g id="Légende">
    <text class="cls-8" transform="translate(23.38 35.47)">+</text>
    <text class="cls-9" transform="translate(55.77 14.36)">1</text>
    <text class="cls-8" transform="translate(84.4 9.75)">u</text>
    <text class="cls-8" transform="translate(87.9 10.08) scale(0.58)">r</text>
    <text class="cls-8" transform="translate(83.47 38.1)">R</text>
    <text class="cls-8" transform="translate(89.79 46.85)">C</text>
    <text class="cls-10" transform="translate(106.15 21.67)">A</text>
    <text class="cls-8" transform="translate(107.34 74.81)">B</text>
    <text class="cls-8" transform="translate(5.93 47.25)">E</text>
    <text class="cls-11" transform="translate(66.59 35.91)">i</text>
    <text class="cls-12" transform="translate(123.43 46.46)">u</text>
    <text class="cls-12" transform="translate(126.93 46.79) scale(0.58)">c</text>
    <text class="cls-9" transform="translate(47.67 33.88)">2</text>
    <text class="cls-8" transform="translate(24.31 59.14)">–</text>
  </g>
</svg>
