<svg id="Calque_1" data-name="Calque 1" xmlns="http://www.w3.org/2000/svg" viewBox="0 0 151.3 100.1">
  <defs>
    <style>
      .cls-1, .cls-2, .cls-4, .cls-5 {
        fill: none;
      }

      .cls-1, .cls-2, .cls-4 {
        stroke: #000;
        stroke-linejoin: round;
      }

      .cls-1 {
        stroke-width: 0.75px;
      }

      .cls-2 {
        stroke-width: 3px;
      }

      .cls-3 {
        fill-rule: evenodd;
      }

      .cls-6 {
        fill: #e30613;
      }

      .cls-7, .cls-8, .cls-9 {
        isolation: isolate;
        fill: #1d1d1b;
        font-family: TimesNewRomanPS-ItalicMT, Times New Roman;
        font-style: italic;
      }

      .cls-7, .cls-8 {
        font-size: 10px;
      }

      .cls-7 {
        letter-spacing: -0.02em;
      }

      .cls-9 {
        font-size: 5.8px;
      }
    </style>
  </defs>
  <line class="cls-1" x1="13.7" y1="50.9" x2="64.4" y2="50.9"/>
  <line class="cls-2" x1="63.9" y1="84.2" x2="63.9" y2="19"/>
  <line class="cls-2" x1="90.9" y1="84.2" x2="90.9" y2="19"/>
  <line class="cls-1" x1="91.1" y1="50.9" x2="141.8" y2="50.9"/>
  <path class="cls-3" d="M116.4,50.9a2,2,0,1,1,2,2A2,2,0,0,1,116.4,50.9Z" transform="translate(0 0)"/>
  <line class="cls-4" x1="118.4" y1="13.8" x2="39.8" y2="13.8"/>
  <polygon class="cls-3" points="39.8 13.8 41.8 16.8 35.8 13.8 41.8 10.8 39.8 13.8"/>
  <path class="cls-3" d="M33.8,50.9a2,2,0,1,1,2,2A2,2,0,0,1,33.8,50.9Z" transform="translate(0 0)"/>
  <rect class="cls-5" width="151.3" height="100.1"/>
  <path class="cls-6" d="M19.9,50.9l-1.2-2h.1l3.3,1.2,3.5.8-3.5.8L18.8,53h-.1Z" transform="translate(0 0)"/>
  <text class="cls-7" transform="translate(33.79 43.83)">A</text>
  <text class="cls-8" transform="translate(116.21 43.83)">B</text>
  <text class="cls-8" transform="translate(71.88 8.9)">u</text>
  <text class="cls-9" transform="translate(76.88 10.23)">AB</text>
  <text class="cls-8" transform="translate(20.34 43.72)">i</text>
</svg>
