<svg id="Calque_1" data-name="Calque 1" xmlns="http://www.w3.org/2000/svg" xmlns:xlink="http://www.w3.org/1999/xlink" viewBox="0 0 151.3 100.1">
  <defs>
    <style>
      .cls-1, .cls-12, .cls-13, .cls-15 {
        fill: none;
      }

      .cls-2 {
        clip-path: url(#clip-path);
      }

      .cls-3 {
        clip-path: url(#clip-path-3);
      }

      .cls-4 {
        clip-path: url(#clip-path-5);
      }

      .cls-5 {
        clip-path: url(#clip-path-7);
      }

      .cls-6 {
        clip-path: url(#clip-path-9);
      }

      .cls-7 {
        clip-path: url(#clip-path-11);
      }

      .cls-8 {
        clip-path: url(#clip-path-13);
      }

      .cls-9 {
        clip-path: url(#clip-path-15);
      }

      .cls-10 {
        clip-path: url(#clip-path-17);
      }

      .cls-11 {
        clip-path: url(#clip-path-19);
      }

      .cls-12, .cls-13, .cls-15 {
        stroke: #000;
        stroke-linejoin: round;
      }

      .cls-12 {
        stroke-width: 0.75px;
      }

      .cls-13 {
        stroke-width: 3px;
      }

      .cls-14 {
        fill-rule: evenodd;
      }

      .cls-16 {
        fill: #e30613;
      }

      .cls-17, .cls-18, .cls-19, .cls-20 {
        isolation: isolate;
        fill: #1d1d1b;
        font-family: TimesNewRomanPS-ItalicMT, Times New Roman;
        font-style: italic;
      }

      .cls-17, .cls-18 {
        font-size: 10px;
      }

      .cls-17 {
        letter-spacing: -0.02em;
      }

      .cls-19, .cls-20 {
        font-size: 5.8px;
      }

      .cls-20 {
        letter-spacing: -0.02em;
      }
    </style>
    <clipPath id="clip-path" transform="translate(0 0)">
      <rect class="cls-1" x="79.5" y="68.2" width="11.3" height="11.2"/>
    </clipPath>
    <clipPath id="clip-path-3" transform="translate(0 0)">
      <rect class="cls-1" x="64.5" y="68.2" width="11.3" height="11.2"/>
    </clipPath>
    <clipPath id="clip-path-5" transform="translate(0 0)">
      <rect class="cls-1" x="64.5" y="56.9" width="11.3" height="11.4"/>
    </clipPath>
    <clipPath id="clip-path-7" transform="translate(0 0)">
      <rect class="cls-1" x="64.5" y="45.7" width="11.3" height="11.3"/>
    </clipPath>
    <clipPath id="clip-path-9" transform="translate(0 0)">
      <rect class="cls-1" x="64.5" y="34.1" width="11.3" height="11.3"/>
    </clipPath>
    <clipPath id="clip-path-11" transform="translate(0 0)">
      <rect class="cls-1" x="64.5" y="22.8" width="11.3" height="11.3"/>
    </clipPath>
    <clipPath id="clip-path-13" transform="translate(0 0)">
      <rect class="cls-1" x="79.5" y="56.9" width="11.3" height="11.4"/>
    </clipPath>
    <clipPath id="clip-path-15" transform="translate(0 0)">
      <rect class="cls-1" x="79.5" y="45.7" width="11.3" height="11.3"/>
    </clipPath>
    <clipPath id="clip-path-17" transform="translate(0 0)">
      <rect class="cls-1" x="79.5" y="34.1" width="11.3" height="11.3"/>
    </clipPath>
    <clipPath id="clip-path-19" transform="translate(0 0)">
      <rect class="cls-1" x="79.5" y="22.8" width="11.3" height="11.3"/>
    </clipPath>
  </defs>
  <g>
    <g class="cls-2">
      <g class="cls-2">
        <g>
          <path d="M80.7,73.7a4.4,4.4,0,1,0,4.4-4.4h0A4.44,4.44,0,0,0,80.7,73.7Zm8.6,0a4.23,4.23,0,0,1-4.2,4.2A4.14,4.14,0,0,1,81,73.7a4.23,4.23,0,0,1,4.2-4.2h0A4.2,4.2,0,0,1,89.3,73.7Z" transform="translate(0 0)"/>
          <polygon points="85 75.8 85 71.8 85.3 71.8 85.3 75.8 85 75.8"/>
        </g>
      </g>
    </g>
    <g class="cls-3">
      <g class="cls-3">
        <g>
          <path d="M65.7,73.7a4.4,4.4,0,1,0,4.4-4.4h0A4.44,4.44,0,0,0,65.7,73.7Zm8.6,0a4.23,4.23,0,0,1-4.2,4.2A4.14,4.14,0,0,1,66,73.7a4.23,4.23,0,0,1,4.2-4.2h0A4.2,4.2,0,0,1,74.3,73.7Z" transform="translate(0 0)"/>
          <polygon points="68.1 73.7 68.1 73.9 70 73.9 70 75.8 70.3 75.8 70.3 73.9 72.2 73.9 72.2 73.7 70.3 73.7 70.3 71.8 70 71.8 70 73.7 68.1 73.7 68.1 73.7"/>
        </g>
      </g>
    </g>
    <g class="cls-4">
      <g class="cls-4">
        <g>
          <path d="M65.7,62.5a4.4,4.4,0,1,0,4.4-4.4h0a4.44,4.44,0,0,0-4.4,4.4Zm8.6,0a4.15,4.15,0,0,1-8.3-.1,4.14,4.14,0,0,1,4.2-4.1h0A4.08,4.08,0,0,1,74.3,62.5Z" transform="translate(0 0)"/>
          <polygon points="68.1 62.5 68.1 62.7 70 62.7 70 64.6 70.3 64.6 70.3 62.7 72.2 62.7 72.2 62.5 70.3 62.5 70.3 60.5 70 60.5 70 62.5 68.1 62.5 68.1 62.5"/>
        </g>
      </g>
    </g>
    <g class="cls-5">
      <g class="cls-5">
        <g>
          <path d="M65.7,51.3a4.4,4.4,0,1,0,4.4-4.4h0A4.44,4.44,0,0,0,65.7,51.3Zm8.6,0a4.15,4.15,0,0,1-8.3-.1,4.14,4.14,0,0,1,4.2-4.1h0a4.14,4.14,0,0,1,4.1,4.2Z" transform="translate(0 0)"/>
          <polygon points="68.1 51.2 68.1 51.5 70 51.5 70 53.4 70.3 53.4 70.3 51.5 72.2 51.5 72.2 51.2 70.3 51.2 70.3 49.3 70 49.3 70 51.2 68.1 51.2 68.1 51.2"/>
        </g>
      </g>
    </g>
    <g class="cls-6">
      <g class="cls-6">
        <g>
          <path d="M65.7,39.7a4.4,4.4,0,1,0,4.4-4.4h0A4.31,4.31,0,0,0,65.7,39.7Zm8.6,0a4.23,4.23,0,0,1-4.2,4.2A4.14,4.14,0,0,1,66,39.7a4.23,4.23,0,0,1,4.2-4.2h0A4.14,4.14,0,0,1,74.3,39.7Z" transform="translate(0 0)"/>
          <polygon points="68.1 39.6 68.1 39.8 70 39.8 70 41.8 70.3 41.8 70.3 39.8 72.2 39.8 72.2 39.6 70.3 39.6 70.3 37.7 70 37.7 70 39.6 68.1 39.6 68.1 39.6"/>
        </g>
      </g>
    </g>
    <g class="cls-7">
      <g class="cls-7">
        <g>
          <path d="M65.7,28.4A4.4,4.4,0,1,0,70.1,24h0A4.37,4.37,0,0,0,65.7,28.4Zm8.6,0a4.23,4.23,0,0,1-4.2,4.2A4.14,4.14,0,0,1,66,28.4a4.23,4.23,0,0,1,4.2-4.2h0a4.14,4.14,0,0,1,4.1,4.2Z" transform="translate(0 0)"/>
          <polygon points="68.1 28.3 68.1 28.6 70 28.6 70 30.5 70.3 30.5 70.3 28.6 72.2 28.6 72.2 28.3 70.3 28.3 70.3 26.4 70 26.4 70 28.3 68.1 28.3 68.1 28.3"/>
        </g>
      </g>
    </g>
    <g class="cls-8">
      <g class="cls-8">
        <g>
          <path d="M80.7,62.5a4.46,4.46,0,0,0,4.5,4.4,4.45,4.45,0,0,0,0-8.9h0a4.61,4.61,0,0,0-4.5,4.5Zm8.6,0a4.15,4.15,0,0,1-8.3-.1,4.14,4.14,0,0,1,4.2-4.1h0A4.08,4.08,0,0,1,89.3,62.5Z" transform="translate(0 0)"/>
          <polygon points="85 64.6 85 60.5 85.3 60.5 85.3 64.6 85 64.6"/>
        </g>
      </g>
    </g>
    <g class="cls-9">
      <g class="cls-9">
        <g>
          <path d="M80.7,51.3a4.4,4.4,0,1,0,4.4-4.4h0A4.44,4.44,0,0,0,80.7,51.3Zm8.6,0a4.23,4.23,0,0,1-4.2,4.2A4.14,4.14,0,0,1,81,51.3a4.23,4.23,0,0,1,4.2-4.2h0A4.14,4.14,0,0,1,89.3,51.3Z" transform="translate(0 0)"/>
          <polygon points="85 53.4 85 49.3 85.3 49.3 85.3 53.4 85 53.4"/>
        </g>
      </g>
    </g>
    <g class="cls-10">
      <g class="cls-10">
        <g>
          <path d="M80.7,39.7a4.4,4.4,0,1,0,4.4-4.4h0A4.31,4.31,0,0,0,80.7,39.7Zm8.6,0a4.23,4.23,0,0,1-4.2,4.2A4.14,4.14,0,0,1,81,39.7a4.23,4.23,0,0,1,4.2-4.2h0A4.14,4.14,0,0,1,89.3,39.7Z" transform="translate(0 0)"/>
          <polygon points="85 41.8 85 37.7 85.3 37.7 85.3 41.8 85 41.8"/>
        </g>
      </g>
    </g>
    <g class="cls-11">
      <g class="cls-11">
        <g>
          <path d="M80.7,28.4A4.4,4.4,0,1,0,85.1,24h0A4.37,4.37,0,0,0,80.7,28.4Zm8.6,0a4.23,4.23,0,0,1-4.2,4.2A4.14,4.14,0,0,1,81,28.4a4.23,4.23,0,0,1,4.2-4.2h0a4.14,4.14,0,0,1,4.1,4.2Z" transform="translate(0 0)"/>
          <polygon points="85 30.5 85 26.4 85.3 26.4 85.3 30.5 85 30.5"/>
        </g>
      </g>
    </g>
    <line class="cls-12" x1="13.7" y1="50.9" x2="64.4" y2="50.9"/>
    <line class="cls-13" x1="63.9" y1="84.2" x2="63.9" y2="19"/>
    <line class="cls-13" x1="90.9" y1="84.2" x2="90.9" y2="19"/>
    <line class="cls-12" x1="91.1" y1="50.9" x2="141.8" y2="50.9"/>
    <path class="cls-14" d="M116.4,50.9a2,2,0,1,1,2,2A2,2,0,0,1,116.4,50.9Z" transform="translate(0 0)"/>
    <line class="cls-15" x1="118.4" y1="13.8" x2="39.8" y2="13.8"/>
    <polygon class="cls-14" points="39.8 13.8 41.8 16.8 35.8 13.8 41.8 10.8 39.8 13.8"/>
    <path class="cls-14" d="M33.8,50.9a2,2,0,1,1,2,2A2,2,0,0,1,33.8,50.9Z" transform="translate(0 0)"/>
    <rect class="cls-1" width="151.3" height="100.1"/>
    <path class="cls-16" d="M19.9,50.9l-1.2-2h.1l3.3,1.2,3.5.8-3.5.8L18.8,53h-.1Z" transform="translate(0 0)"/>
  </g>
  <text class="cls-17" transform="translate(33.79 43.83)">A</text>
  <text class="cls-18" transform="translate(116.44 43.83)">B</text>
  <text class="cls-18" transform="translate(71.88 8.9)">u</text>
  <text class="cls-19" transform="translate(76.88 10.23)">AB</text>
  <text class="cls-18" transform="translate(55.25 90.51)">q</text>
  <text class="cls-20" transform="translate(60.09 93.84)">A</text>
  <text class="cls-18" transform="translate(91.11 90.17)">q</text>
  <text class="cls-19" transform="translate(96.12 93.5)">B</text>
  <text class="cls-18" transform="translate(101.14 90.17)">=</text>
  <text class="cls-18" transform="translate(108.16 90.17)"> </text>
  <text class="cls-18" transform="translate(111.18 90.17)">−</text>
  <text class="cls-18" transform="translate(118.2 90.17)">q</text>
  <text class="cls-20" transform="translate(123.22 93.5)">A</text>
  <text class="cls-18" transform="translate(20.34 43.72)">i</text>
</svg>
