<svg width="2526" height="3506" xmlns="http://www.w3.org/2000/svg" xmlns:xlink="http://www.w3.org/1999/xlink" overflow="hidden"><defs><clipPath id="clip0"><rect x="-1" y="-1" width="2526" height="3506"/></clipPath><clipPath id="clip1"><rect x="0" y="0" width="518" height="461"/></clipPath><clipPath id="clip2"><rect x="0" y="0" width="518" height="461"/></clipPath><clipPath id="clip3"><rect x="0" y="0" width="518" height="461"/></clipPath><clipPath id="clip4"><rect x="80" y="94" width="384" height="307"/></clipPath><clipPath id="clip5"><rect x="80" y="94" width="384" height="307"/></clipPath><clipPath id="clip6"><rect x="0" y="0" width="518" height="461"/></clipPath><clipPath id="clip7"><rect x="0" y="0" width="518" height="461"/></clipPath><clipPath id="clip8"><rect x="0" y="0" width="518" height="461"/></clipPath><clipPath id="clip9"><rect x="0" y="0" width="518" height="461"/></clipPath><clipPath id="clip10"><rect x="0" y="0" width="518" height="461"/></clipPath><clipPath id="clip11"><rect x="0" y="0" width="518" height="461"/></clipPath><clipPath id="clip12"><rect x="2004" y="3041" width="519" height="461"/></clipPath><clipPath id="clip13"><rect x="2004" y="3041" width="519" height="461"/></clipPath><clipPath id="clip14"><rect x="2004" y="3041" width="519" height="461"/></clipPath><clipPath id="clip15"><rect x="2085" y="3135" width="384" height="307"/></clipPath><clipPath id="clip16"><rect x="2085" y="3135" width="384" height="307"/></clipPath><clipPath id="clip17"><rect x="2004" y="3041" width="519" height="461"/></clipPath><clipPath id="clip18"><rect x="2004" y="3041" width="519" height="461"/></clipPath><clipPath id="clip19"><rect x="2004" y="3041" width="519" height="461"/></clipPath><clipPath id="clip20"><rect x="2004" y="3041" width="519" height="461"/></clipPath><clipPath id="clip21"><rect x="2004" y="3041" width="519" height="461"/></clipPath><clipPath id="clip22"><rect x="2004" y="3041" width="519" height="461"/></clipPath></defs><g clip-path="url(#clip0)" transform="translate(1 1)"><rect x="0" y="0" width="519" height="461" fill="#FFFFFF"/><g clip-path="url(#clip1)"><path d="M80.4999 94.5 461.5 94.5" stroke="#D9D9D9" stroke-width="3.4375" stroke-linejoin="round" stroke-miterlimit="10" fill="none"/></g><g clip-path="url(#clip2)"><path d="M1.71875-2.04041e-06 1.7191 294.833-1.7184 294.833-1.71875 2.04041e-06ZM0.00035001 294.833 9.16701 285.667 0.000360892 304-9.16633 285.667Z" transform="matrix(1 0 0 -1 80.4999 398.5)"/></g><g clip-path="url(#clip3)"><path d="M80.4999 396.781 452.334 396.782 452.334 400.219 80.4999 400.219ZM452.333 398.5 443.167 389.334 461.5 398.5 443.167 407.667Z"/></g><g clip-path="url(#clip4)"><path d="M81.0001 147 100.003 239.008 119.004 297.01 138.005 334.011 157.005 357.012 176.006 372.012 195.006 382.013 214.007 388.013 233.008 392.013 252.008 394.013 271.009 396.013 290.01 396.013 309.01 397.013 328.011 397.013 347.011 398.013 366.012 398.013 385.013 398.013 404.013 398.013 423.014 398.013 442.014 398.013 461.015 398.013 480 398" stroke="#000000" stroke-width="5.72917" stroke-linecap="round" stroke-linejoin="round" stroke-miterlimit="10" fill="none"/></g><g clip-path="url(#clip5)"><path d="M80.4999 147.5 99.5034 147.5 118.504 147.5 137.505 147.5 156.505 147.5 175.506 147.5 194.507 147.5 213.507 147.5 232.508 147.5 252.508 147.5 271.509 147.5 290.51 147.5 309.51 147.5 328.511 147.5 347.512 147.5 366.512 147.5 385.513 147.5 404.513 147.5 423.514 147.5 442.515 147.5 461.515 147.5 480.5 147.5" stroke="#FF0000" stroke-width="3.4375" stroke-linecap="round" stroke-linejoin="round" stroke-miterlimit="10" fill="none"/></g><g clip-path="url(#clip6)"><text font-family="Times New Roman,Times New Roman_MSFontService,sans-serif" font-weight="400" font-size="28" transform="matrix(1 0 0 1 73.8371 439)">0</text></g><g clip-path="url(#clip7)"><text font-family="Times New Roman,Times New Roman_MSFontService,sans-serif" font-weight="400" font-size="28" transform="matrix(1 0 0 1 73.3526 86)">u</text></g><g clip-path="url(#clip8)"><text font-family="Times New Roman,Times New Roman_MSFontService,sans-serif" font-weight="400" font-size="18" transform="matrix(1 0 0 1 87.1026 92)">C</text></g><g clip-path="url(#clip9)"><text font-family="Times New Roman,Times New Roman_MSFontService,sans-serif" font-weight="400" font-size="28" transform="matrix(1 0 0 1 99.3401 86)">(V)</text></g><g clip-path="url(#clip10)"><text font-family="Times New Roman,Times New Roman_MSFontService,sans-serif" font-weight="400" font-size="28" transform="matrix(1 0 0 1 385.666 374)">t(s)</text></g><g clip-path="url(#clip11)"><text font-family="Times New Roman,Times New Roman_MSFontService,sans-serif" font-weight="400" font-size="33" transform="matrix(1 0 0 1 102.387 52)">Décharge d'un condensateur</text></g><rect x="0.499836" y="0.499836" width="519" height="461" stroke="#D9D9D9" stroke-width="3.4375" stroke-linejoin="round" stroke-miterlimit="10" fill="none"/><rect x="2005" y="3041" width="518" height="462" fill="#FFFFFF"/><g clip-path="url(#clip12)"><path d="M2085.5 3135.5 2465.5 3135.5" stroke="#D9D9D9" stroke-width="3.4375" stroke-linejoin="round" stroke-miterlimit="10" fill="none"/></g><g clip-path="url(#clip13)"><path d="M1.71875-2.04041e-06 1.7191 294.834-1.7184 294.834-1.71875 2.04041e-06ZM0.00035001 294.834 9.16701 285.667 0.000360892 304-9.16633 285.667Z" transform="matrix(1 0 0 -1 2085.5 3439.5)"/></g><g clip-path="url(#clip14)"><path d="M2085.5 3437.78 2456.33 3437.78 2456.33 3441.22 2085.5 3441.22ZM2456.33 3439.5 2447.17 3430.33 2465.5 3439.5 2447.17 3448.67Z"/></g><g clip-path="url(#clip15)"><path d="M2085 3189 2104.07 3280.11 2123.07 3338.11 2142.07 3375.11 2161.07 3399.11 2180.07 3414.11 2199.07 3423.11 2218.07 3429.11 2237.07 3433.11 2257.07 3435.11 2276.07 3437.11 2295.08 3438.11 2314.08 3438.11 2333.08 3439.11 2352.08 3439.11 2371.08 3439.11 2390.08 3439.11 2409.08 3439.11 2428.08 3439.11 2447.08 3439.11 2466.08 3439.11 2485 3439" stroke="#000000" stroke-width="5.72917" stroke-linecap="round" stroke-linejoin="round" stroke-miterlimit="10" fill="none"/></g><g clip-path="url(#clip16)"><path d="M2085.5 3188.5 2104.57 3188.5 2123.57 3188.5 2142.57 3188.5 2161.57 3188.5 2180.57 3188.5 2199.57 3188.5 2218.57 3188.5 2237.57 3188.5 2256.57 3188.5 2275.57 3188.5 2294.58 3188.5 2313.58 3188.5 2332.58 3188.5 2351.58 3188.5 2370.58 3188.5 2389.58 3188.5 2408.58 3188.5 2427.58 3188.5 2446.58 3188.5 2465.58 3188.5 2484.5 3188.5" stroke="#FF0000" stroke-width="3.4375" stroke-linecap="round" stroke-linejoin="round" stroke-miterlimit="10" fill="none"/></g><g clip-path="url(#clip17)"><text font-family="Times New Roman,Times New Roman_MSFontService,sans-serif" font-weight="400" font-size="28" transform="matrix(1 0 0 1 2078.45 3480)">0</text></g><g clip-path="url(#clip18)"><text font-family="Times New Roman,Times New Roman_MSFontService,sans-serif" font-weight="400" font-size="28" transform="matrix(1 0 0 1 2077.97 3128)">u</text></g><g clip-path="url(#clip19)"><text font-family="Times New Roman,Times New Roman_MSFontService,sans-serif" font-weight="400" font-size="18" transform="matrix(1 0 0 1 2091.72 3134)">C</text></g><g clip-path="url(#clip20)"><text font-family="Times New Roman,Times New Roman_MSFontService,sans-serif" font-weight="400" font-size="28" transform="matrix(1 0 0 1 2103.96 3128)">(V)</text></g><g clip-path="url(#clip21)"><text font-family="Times New Roman,Times New Roman_MSFontService,sans-serif" font-weight="400" font-size="28" transform="matrix(1 0 0 1 2390.24 3415)">t(s)</text></g><g clip-path="url(#clip22)"><text font-family="Times New Roman,Times New Roman_MSFontService,sans-serif" font-weight="400" font-size="33" transform="matrix(1 0 0 1 2107 3093)">Décharge d'un condensateur</text></g><rect x="2005.5" y="3041.5" width="518" height="462" stroke="#D9D9D9" stroke-width="3.4375" stroke-linejoin="round" stroke-miterlimit="10" fill="none"/><text font-family="Times New Roman,Times New Roman_MSFontService,sans-serif" font-weight="400" font-size="32" transform="matrix(1 0 0 1 2053.33 3206)">E</text></g></svg>