<svg width="741" height="640" xmlns="http://www.w3.org/2000/svg" xmlns:xlink="http://www.w3.org/1999/xlink" overflow="hidden"><defs><clipPath id="clip0"><rect x="206" y="398" width="741" height="640"/></clipPath><clipPath id="clip1"><rect x="206" y="398" width="738" height="638"/></clipPath><clipPath id="clip2"><rect x="206" y="398" width="738" height="638"/></clipPath><clipPath id="clip3"><rect x="206" y="398" width="738" height="638"/></clipPath><clipPath id="clip4"><rect x="206" y="398" width="738" height="638"/></clipPath><clipPath id="clip5"><rect x="206" y="398" width="738" height="638"/></clipPath><clipPath id="clip6"><rect x="206" y="398" width="738" height="638"/></clipPath><clipPath id="clip7"><rect x="321" y="529" width="545" height="423"/></clipPath><clipPath id="clip8"><rect x="206" y="398" width="738" height="638"/></clipPath><clipPath id="clip9"><rect x="206" y="398" width="738" height="638"/></clipPath><clipPath id="clip10"><rect x="206" y="398" width="738" height="638"/></clipPath><clipPath id="clip11"><rect x="206" y="398" width="738" height="638"/></clipPath><clipPath id="clip12"><rect x="206" y="398" width="738" height="638"/></clipPath><clipPath id="clip13"><rect x="206" y="398" width="738" height="638"/></clipPath><clipPath id="clip14"><rect x="206" y="398" width="738" height="638"/></clipPath><clipPath id="clip15"><rect x="206" y="398" width="738" height="638"/></clipPath><clipPath id="clip16"><rect x="206" y="398" width="738" height="638"/></clipPath><clipPath id="clip17"><rect x="206" y="398" width="738" height="638"/></clipPath><clipPath id="clip18"><rect x="206" y="398" width="738" height="638"/></clipPath><clipPath id="clip19"><rect x="206" y="398" width="738" height="638"/></clipPath><clipPath id="clip20"><rect x="206" y="398" width="738" height="638"/></clipPath><clipPath id="clip21"><rect x="206" y="398" width="738" height="638"/></clipPath><clipPath id="clip22"><rect x="206" y="398" width="738" height="638"/></clipPath><clipPath id="clip23"><rect x="206" y="398" width="738" height="638"/></clipPath><clipPath id="clip24"><rect x="206" y="398" width="738" height="638"/></clipPath><clipPath id="clip25"><rect x="206" y="398" width="738" height="638"/></clipPath><clipPath id="clip26"><rect x="206" y="398" width="738" height="638"/></clipPath></defs><g clip-path="url(#clip0)" transform="translate(-206 -398)"><rect x="207" y="399" width="738" height="637" fill="#FFFFFF"/><g clip-path="url(#clip1)"><path d="M321.5 948.5 863.5 948.5M321.5 878.529 863.5 878.529M321.5 808.527 863.5 808.527M321.5 738.524 863.5 738.524M321.5 598.52 863.5 598.52M321.5 529.5 863.5 529.5" stroke="#D9D9D9" stroke-width="3.4375" stroke-linejoin="round" stroke-miterlimit="10" fill="none"/></g><g clip-path="url(#clip2)"><path d="M429.514 529.5 429.514 948.5M538.518 529.5 538.518 948.5M646.521 529.5 646.521 948.5M754.525 529.5 754.525 948.5M863.5 529.5 863.5 948.5" stroke="#D9D9D9" stroke-width="3.4375" stroke-linejoin="round" stroke-miterlimit="10" fill="none"/></g><g clip-path="url(#clip3)"><path d="M1.71875-1.48039e-06 1.7191 409.835-1.7184 409.835-1.71875 1.48039e-06ZM0.000352997 409.833 9.16701 400.667 0.000360892 419-9.16632 400.667Z" transform="matrix(1 0 0 -1 321.5 948.5)"/></g><g clip-path="url(#clip4)"><path d="M321.511 948.5 327.5 948.5M321.511 934.531 327.5 934.531M321.511 920.53 327.5 920.53M321.511 906.53 327.5 906.53M321.511 892.529 327.5 892.529M321.511 878.529 327.5 878.529M321.511 864.529 327.5 864.529M321.511 850.528 327.5 850.528M321.511 836.528 327.5 836.528M321.511 822.527 327.5 822.527M321.511 808.527 327.5 808.527M321.511 794.526 327.5 794.526M321.511 780.526 327.5 780.526M321.511 766.525 327.5 766.525M321.511 752.525 327.5 752.525M321.511 738.524 327.5 738.524M321.511 724.524 327.5 724.524M321.511 710.523 327.5 710.523M321.511 696.523 327.5 696.523M321.511 682.523 327.5 682.523M321.511 668.522 327.5 668.522M321.511 654.522 327.5 654.522M321.511 640.521 327.5 640.521M321.511 626.521 327.5 626.521M321.511 612.52 327.5 612.52M321.511 598.52 327.5 598.52M321.511 585.519 327.5 585.519M321.511 571.519 327.5 571.519M321.511 557.518 327.5 557.518M321.511 543.518 327.5 543.518M321.511 529.5 327.5 529.5M313.5 948.5 321.511 948.5M313.5 878.529 321.511 878.529M313.5 808.527 321.511 808.527M313.5 738.524 321.511 738.524M313.5 668.522 321.511 668.522M313.5 598.52 321.511 598.52M313.5 529.5 321.511 529.5" stroke="#000000" stroke-width="3.4375" stroke-linejoin="round" stroke-miterlimit="10" fill="none"/></g><g clip-path="url(#clip5)"><path d="M321.5 666.781 854.333 666.782 854.333 670.219 321.5 670.219ZM854.333 668.5 845.167 659.334 863.5 668.5 845.167 677.667Z"/></g><g clip-path="url(#clip6)"><path d="M321.5 662.5 321.5 668.522M348.512 662.5 348.512 668.522M375.513 662.5 375.513 668.522M402.513 662.5 402.513 668.522M429.514 662.5 429.514 668.522M456.515 662.5 456.515 668.522M484.516 662.5 484.516 668.522M511.517 662.5 511.517 668.522M538.518 662.5 538.518 668.522M565.519 662.5 565.519 668.522M592.52 662.5 592.52 668.522M619.521 662.5 619.521 668.522M646.521 662.5 646.521 668.522M673.522 662.5 673.522 668.522M700.523 662.5 700.523 668.522M727.524 662.5 727.524 668.522M754.525 662.5 754.525 668.522M781.526 662.5 781.526 668.522M808.527 662.5 808.527 668.522M835.528 662.5 835.528 668.522M863.5 662.5 863.5 668.522M321.5 668.522 321.5 677.5M429.514 668.522 429.514 677.5M538.518 668.522 538.518 677.5M646.521 668.522 646.521 677.5M754.525 668.522 754.525 677.5M863.5 668.522 863.5 677.5" stroke="#000000" stroke-width="3.4375" stroke-linejoin="round" stroke-miterlimit="10" fill="none"/></g><g clip-path="url(#clip7)"><path d="M322 585 349.011 601.02 376.012 617.02 403.013 633.021 430.014 649.021 457.015 665.022 484.016 681.022 511.017 697.023 538.018 713.023 565.019 728.024 592.019 744.024 619.02 760.025 646.021 776.025 674.022 792.026 701.023 808.026 728.024 824.027 755.025 840.028 782.026 856.028 809.026 872.029 836.027 887.029 863.028 903.03 890 919" stroke="#000000" stroke-width="5.72917" stroke-linecap="round" stroke-linejoin="round" stroke-miterlimit="10" fill="none"/></g><g clip-path="url(#clip8)"><text font-family="Times New Roman,Times New Roman_MSFontService,sans-serif" font-weight="400" font-size="28" transform="matrix(1 0 0 1 275.346 957)">-4</text></g><g clip-path="url(#clip9)"><text font-family="Times New Roman,Times New Roman_MSFontService,sans-serif" font-weight="400" font-size="28" transform="matrix(1 0 0 1 275.346 887)">-3</text></g><g clip-path="url(#clip10)"><text font-family="Times New Roman,Times New Roman_MSFontService,sans-serif" font-weight="400" font-size="28" transform="matrix(1 0 0 1 275.346 817)">-2</text></g><g clip-path="url(#clip11)"><text font-family="Times New Roman,Times New Roman_MSFontService,sans-serif" font-weight="400" font-size="28" transform="matrix(1 0 0 1 275.346 747)">-1</text></g><g clip-path="url(#clip12)"><text font-family="Times New Roman,Times New Roman_MSFontService,sans-serif" font-weight="400" font-size="28" transform="matrix(1 0 0 1 284.513 677)">0</text></g><g clip-path="url(#clip13)"><text font-family="Times New Roman,Times New Roman_MSFontService,sans-serif" font-weight="400" font-size="28" transform="matrix(1 0 0 1 284.513 607)">1</text></g><g clip-path="url(#clip14)"><text font-family="Times New Roman,Times New Roman_MSFontService,sans-serif" font-weight="400" font-size="28" transform="matrix(1 0 0 1 284.513 537)">2</text></g><g clip-path="url(#clip15)"><text font-family="Times New Roman,Times New Roman_MSFontService,sans-serif" font-weight="400" font-size="28" transform="matrix(1 0 0 1 314.782 709)">0</text></g><g clip-path="url(#clip16)"><text font-family="Times New Roman,Times New Roman_MSFontService,sans-serif" font-weight="400" font-size="28" transform="matrix(1 0 0 1 405.872 709)">0,02</text></g><g clip-path="url(#clip17)"><text font-family="Times New Roman,Times New Roman_MSFontService,sans-serif" font-weight="400" font-size="28" transform="matrix(1 0 0 1 514.15 709)">0,04</text></g><g clip-path="url(#clip18)"><text font-family="Times New Roman,Times New Roman_MSFontService,sans-serif" font-weight="400" font-size="28" transform="matrix(1 0 0 1 622.427 709)">0,06</text></g><g clip-path="url(#clip19)"><text font-family="Times New Roman,Times New Roman_MSFontService,sans-serif" font-weight="400" font-size="28" transform="matrix(1 0 0 1 730.705 709)">0,08</text></g><g clip-path="url(#clip20)"><text font-family="Times New Roman,Times New Roman_MSFontService,sans-serif" font-weight="400" font-size="28" transform="matrix(1 0 0 1 845.857 709)">0,1</text></g><g clip-path="url(#clip21)"><text font-family="Times New Roman,Times New Roman_MSFontService,sans-serif" font-weight="400" font-size="28" transform="matrix(1 0 0 1 305.385 505)">ln u</text></g><g clip-path="url(#clip22)"><text font-family="Times New Roman,Times New Roman_MSFontService,sans-serif" font-weight="400" font-size="18" transform="matrix(1 0 0 1 347.391 511)">C</text></g><g clip-path="url(#clip23)"><text font-family="Times New Roman,Times New Roman_MSFontService,sans-serif" font-weight="400" font-size="28" transform="matrix(1 0 0 1 813.733 659)">t(s)</text></g><g clip-path="url(#clip24)"><text font-family="Times New Roman,Times New Roman_MSFontService,sans-serif" font-weight="400" font-size="33" transform="matrix(1 0 0 1 557.497 470)">ln(u</text></g><g clip-path="url(#clip25)"><text font-family="Times New Roman,Times New Roman_MSFontService,sans-serif" font-weight="400" font-size="22" transform="matrix(1 0 0 1 610.663 477)">C</text></g><g clip-path="url(#clip26)"><text font-family="Times New Roman,Times New Roman_MSFontService,sans-serif" font-weight="400" font-size="33" transform="matrix(1 0 0 1 625.33 470)">)=f(t)</text></g><rect x="207.5" y="399.5" width="738" height="637" stroke="#D9D9D9" stroke-width="3.4375" stroke-linejoin="round" stroke-miterlimit="10" fill="none"/></g></svg>