<svg width="392" height="392" xmlns="http://www.w3.org/2000/svg" xmlns:xlink="http://www.w3.org/1999/xlink" overflow="hidden"><defs><clipPath id="clip0"><rect x="146" y="1412" width="392" height="392"/></clipPath><clipPath id="clip1"><rect x="147" y="1413" width="389" height="388"/></clipPath><clipPath id="clip2"><rect x="147" y="1413" width="389" height="388"/></clipPath><clipPath id="clip3"><rect x="147" y="1413" width="389" height="388"/></clipPath><clipPath id="clip4"><rect x="147" y="1413" width="389" height="388"/></clipPath><clipPath id="clip5"><rect x="147" y="1413" width="389" height="388"/></clipPath><clipPath id="clip6"><rect x="147" y="1413" width="389" height="388"/></clipPath><clipPath id="clip7"><rect x="283" y="1467" width="222" height="266"/></clipPath><clipPath id="clip8"><rect x="147" y="1413" width="389" height="388"/></clipPath><clipPath id="clip9"><rect x="147" y="1413" width="389" height="388"/></clipPath><clipPath id="clip10"><rect x="147" y="1413" width="389" height="388"/></clipPath><clipPath id="clip11"><rect x="147" y="1413" width="389" height="388"/></clipPath><clipPath id="clip12"><rect x="147" y="1413" width="389" height="388"/></clipPath><clipPath id="clip13"><rect x="147" y="1413" width="389" height="388"/></clipPath><clipPath id="clip14"><rect x="147" y="1413" width="389" height="388"/></clipPath><clipPath id="clip15"><rect x="147" y="1413" width="389" height="388"/></clipPath><clipPath id="clip16"><rect x="147" y="1413" width="389" height="388"/></clipPath><clipPath id="clip17"><rect x="147" y="1413" width="389" height="388"/></clipPath><clipPath id="clip18"><rect x="147" y="1413" width="389" height="388"/></clipPath><clipPath id="clip19"><rect x="147" y="1413" width="389" height="388"/></clipPath><clipPath id="clip20"><rect x="147" y="1413" width="389" height="388"/></clipPath><clipPath id="clip21"><rect x="147" y="1413" width="389" height="388"/></clipPath></defs><g clip-path="url(#clip0)" transform="translate(-146 -1412)"><rect x="147" y="1413" width="389" height="389" fill="#FFFFFF"/><g clip-path="url(#clip1)"><path d="M283.5 1686.56 501.5 1686.56M283.5 1642.55 501.5 1642.55M283.5 1598.55 501.5 1598.55M283.5 1555.55 501.5 1555.55M283.5 1511.55 501.5 1511.55M283.5 1467.5 501.5 1467.5" stroke="#D9D9D9" stroke-width="3.4375" stroke-linejoin="round" stroke-miterlimit="10" fill="none"/></g><g clip-path="url(#clip2)"><path d="M338.511 1467.5 338.511 1730.5M392.513 1467.5 392.513 1730.5M447.515 1467.5 447.515 1730.5M501.5 1467.5 501.5 1730.5" stroke="#D9D9D9" stroke-width="3.4375" stroke-linejoin="round" stroke-miterlimit="10" fill="none"/></g><g clip-path="url(#clip3)"><path d="M1.14583-1.57233e-06 1.14618 253.833-1.14549 253.833-1.14583 1.57233e-06ZM0.000348314 253.833 9.167 244.667 0.000360892 263-9.16633 244.667Z" transform="matrix(1 0 0 -1 284 1730)"/></g><g clip-path="url(#clip4)"><path d="M284.009 1730 290 1730M284.009 1708.06 290 1708.06M284.009 1686.06 290 1686.06M284.009 1665.05 290 1665.05M284.009 1643.05 290 1643.05M284.009 1621.05 290 1621.05M284.009 1599.05 290 1599.05M284.009 1577.05 290 1577.05M284.009 1555.05 290 1555.05M284.009 1533.05 290 1533.05M284.009 1511.05 290 1511.05M284.009 1489.05 290 1489.05M284.009 1467 290 1467M276 1730 284.009 1730M276 1686.06 284.009 1686.06M276 1643.05 284.009 1643.05M276 1599.05 284.009 1599.05M276 1555.05 284.009 1555.05M276 1511.05 284.009 1511.05M276 1467 284.009 1467" stroke="#000000" stroke-width="2.29167" stroke-linejoin="round" stroke-miterlimit="10" fill="none"/></g><g clip-path="url(#clip5)"><path d="M284 1728.85 492.833 1728.85 492.833 1731.15 284 1731.15ZM492.833 1730 483.667 1720.83 502 1730 483.667 1739.17Z"/></g><g clip-path="url(#clip6)"><path d="M284 1724 284 1730.06M311.01 1724 311.01 1730.06M338.011 1724 338.011 1730.06M366.012 1724 366.012 1730.06M393.013 1724 393.013 1730.06M420.014 1724 420.014 1730.06M447.015 1724 447.015 1730.06M475.016 1724 475.016 1730.06M502 1724 502 1730.06M284 1730.06 284 1738M338.011 1730.06 338.011 1738M393.013 1730.06 393.013 1738M447.015 1730.06 447.015 1738M502 1730.06 502 1738" stroke="#000000" stroke-width="2.29167" stroke-linejoin="round" stroke-miterlimit="10" fill="none"/></g><g clip-path="url(#clip7)"><path d="M283.5 1730.5 338.511 1670.56 392.513 1609.55 447.515 1549.55 501.5 1489.5" stroke="#000000" stroke-width="4.58333" stroke-linecap="round" stroke-linejoin="round" stroke-miterlimit="10" fill="none"/></g><g clip-path="url(#clip8)"><text font-family="Times New Roman,Times New Roman_MSFontService,sans-serif" font-weight="400" font-size="28" transform="matrix(1 0 0 1 212.316 1738)">0,00</text></g><g clip-path="url(#clip9)"><text font-family="Times New Roman,Times New Roman_MSFontService,sans-serif" font-weight="400" font-size="28" transform="matrix(1 0 0 1 212.316 1695)">1,00</text></g><g clip-path="url(#clip10)"><text font-family="Times New Roman,Times New Roman_MSFontService,sans-serif" font-weight="400" font-size="28" transform="matrix(1 0 0 1 212.316 1651)">2,00</text></g><g clip-path="url(#clip11)"><text font-family="Times New Roman,Times New Roman_MSFontService,sans-serif" font-weight="400" font-size="28" transform="matrix(1 0 0 1 212.316 1607)">3,00</text></g><g clip-path="url(#clip12)"><text font-family="Times New Roman,Times New Roman_MSFontService,sans-serif" font-weight="400" font-size="28" transform="matrix(1 0 0 1 212.316 1563)">4,00</text></g><g clip-path="url(#clip13)"><text font-family="Times New Roman,Times New Roman_MSFontService,sans-serif" font-weight="400" font-size="28" transform="matrix(1 0 0 1 212.316 1519)">5,00</text></g><g clip-path="url(#clip14)"><text font-family="Times New Roman,Times New Roman_MSFontService,sans-serif" font-weight="400" font-size="28" transform="matrix(1 0 0 1 212.316 1476)">6,00</text></g><g clip-path="url(#clip15)"><text font-family="Times New Roman,Times New Roman_MSFontService,sans-serif" font-weight="400" font-size="28" transform="matrix(1 0 0 1 276.96 1771)">0</text></g><g clip-path="url(#clip16)"><text font-family="Times New Roman,Times New Roman_MSFontService,sans-serif" font-weight="400" font-size="28" transform="matrix(1 0 0 1 331.455 1771)">1</text></g><g clip-path="url(#clip17)"><text font-family="Times New Roman,Times New Roman_MSFontService,sans-serif" font-weight="400" font-size="28" transform="matrix(1 0 0 1 385.95 1771)">2</text></g><g clip-path="url(#clip18)"><text font-family="Times New Roman,Times New Roman_MSFontService,sans-serif" font-weight="400" font-size="28" transform="matrix(1 0 0 1 440.445 1771)">3</text></g><g clip-path="url(#clip19)"><text font-family="Times New Roman,Times New Roman_MSFontService,sans-serif" font-weight="400" font-size="28" transform="matrix(1 0 0 1 494.94 1771)">4</text></g><g clip-path="url(#clip20)"><text font-family="Times New Roman,Times New Roman_MSFontService,sans-serif" font-weight="400" font-size="28" transform="matrix(6.12323e-17 -1 1 6.12323e-17 192.952 1635)">q(mC)</text></g><g clip-path="url(#clip21)"><text font-family="Times New Roman,Times New Roman_MSFontService,sans-serif" font-weight="400" font-size="28" transform="matrix(1 0 0 1 450.057 1786)">t(ms)</text></g><rect x="147.5" y="1413.5" width="389" height="389" stroke="#D9D9D9" stroke-width="3.4375" stroke-linejoin="round" stroke-miterlimit="10" fill="none"/></g></svg>