<svg width="521" height="458" xmlns="http://www.w3.org/2000/svg" xmlns:xlink="http://www.w3.org/1999/xlink" overflow="hidden"><defs><clipPath id="clip0"><rect x="146" y="2646" width="521" height="458"/></clipPath><clipPath id="clip1"><rect x="147" y="2647" width="518" height="455"/></clipPath><clipPath id="clip2"><rect x="147" y="2647" width="518" height="455"/></clipPath><clipPath id="clip3"><rect x="147" y="2647" width="518" height="455"/></clipPath><clipPath id="clip4"><rect x="147" y="2647" width="518" height="455"/></clipPath><clipPath id="clip5"><rect x="250" y="2748" width="384" height="303"/></clipPath><clipPath id="clip6"><rect x="147" y="2647" width="518" height="455"/></clipPath><clipPath id="clip7"><rect x="147" y="2647" width="518" height="455"/></clipPath><clipPath id="clip8"><rect x="147" y="2647" width="518" height="455"/></clipPath><clipPath id="clip9"><rect x="147" y="2647" width="518" height="455"/></clipPath><clipPath id="clip10"><rect x="147" y="2647" width="518" height="455"/></clipPath><clipPath id="clip11"><rect x="147" y="2647" width="518" height="455"/></clipPath><clipPath id="clip12"><rect x="147" y="2647" width="518" height="455"/></clipPath><clipPath id="clip13"><rect x="147" y="2647" width="518" height="455"/></clipPath><clipPath id="clip14"><rect x="147" y="2647" width="518" height="455"/></clipPath><clipPath id="clip15"><rect x="147" y="2647" width="518" height="455"/></clipPath><clipPath id="clip16"><rect x="147" y="2647" width="518" height="455"/></clipPath><clipPath id="clip17"><rect x="147" y="2647" width="518" height="455"/></clipPath><clipPath id="clip18"><rect x="147" y="2647" width="518" height="455"/></clipPath><clipPath id="clip19"><rect x="147" y="2647" width="518" height="455"/></clipPath><clipPath id="clip20"><rect x="147" y="2647" width="518" height="455"/></clipPath><clipPath id="clip21"><rect x="147" y="2647" width="518" height="455"/></clipPath><clipPath id="clip22"><rect x="147" y="2647" width="518" height="455"/></clipPath><clipPath id="clip23"><rect x="147" y="2647" width="518" height="455"/></clipPath><clipPath id="clip24"><rect x="147" y="2647" width="518" height="455"/></clipPath></defs><g clip-path="url(#clip0)" transform="translate(-146 -2646)"><rect x="147" y="2647" width="518" height="455" fill="#FFFFFF"/><g clip-path="url(#clip1)"><path d="M250.5 2998.6 631.5 2998.6M250.5 2948.6 631.5 2948.6M250.5 2898.6 631.5 2898.6M250.5 2848.59 631.5 2848.59M250.5 2798.59 631.5 2798.59M250.5 2748.5 631.5 2748.5" stroke="#D9D9D9" stroke-width="3.4375" stroke-linejoin="round" stroke-miterlimit="10" fill="none"/></g><g clip-path="url(#clip2)"><path d="M314.51 2748.5 314.51 3048.5M377.513 2748.5 377.513 3048.5M440.515 2748.5 440.515 3048.5M504.517 2748.5 504.517 3048.5M567.519 2748.5 567.519 3048.5M631.5 2748.5 631.5 3048.5" stroke="#D9D9D9" stroke-width="3.4375" stroke-linejoin="round" stroke-miterlimit="10" fill="none"/></g><g clip-path="url(#clip3)"><path d="M1.71875-2.06761e-06 1.7191 290.833-1.7184 290.833-1.71875 2.06761e-06ZM0.000349865 290.833 9.16701 281.666 0.000360892 300-9.16633 281.666Z" transform="matrix(1 0 0 -1 250.5 3048.5)"/></g><g clip-path="url(#clip4)"><path d="M250.5 3046.78 622.333 3046.78 622.333 3050.22 250.5 3050.22ZM622.333 3048.5 613.167 3039.33 631.5 3048.5 613.167 3057.67Z"/></g><g clip-path="url(#clip5)"><path d="M250.5 3048.5 314.51 2998.6 377.513 2948.6 440.515 2898.6 504.517 2848.59 567.5 2798.5" stroke="#000000" stroke-width="4.58333" stroke-linecap="round" stroke-linejoin="round" stroke-miterlimit="10" fill="none"/></g><g clip-path="url(#clip6)"><text font-family="Times New Roman,Times New Roman_MSFontService,sans-serif" font-weight="400" font-size="28" transform="matrix(1 0 0 1 213.486 3056)">0</text></g><g clip-path="url(#clip7)"><text font-family="Times New Roman,Times New Roman_MSFontService,sans-serif" font-weight="400" font-size="28" transform="matrix(1 0 0 1 213.486 3007)">2</text></g><g clip-path="url(#clip8)"><text font-family="Times New Roman,Times New Roman_MSFontService,sans-serif" font-weight="400" font-size="28" transform="matrix(1 0 0 1 213.486 2957)">4</text></g><g clip-path="url(#clip9)"><text font-family="Times New Roman,Times New Roman_MSFontService,sans-serif" font-weight="400" font-size="28" transform="matrix(1 0 0 1 213.486 2907)">6</text></g><g clip-path="url(#clip10)"><text font-family="Times New Roman,Times New Roman_MSFontService,sans-serif" font-weight="400" font-size="28" transform="matrix(1 0 0 1 213.486 2857)">8</text></g><g clip-path="url(#clip11)"><text font-family="Times New Roman,Times New Roman_MSFontService,sans-serif" font-weight="400" font-size="28" transform="matrix(1 0 0 1 199.736 2807)">10</text></g><g clip-path="url(#clip12)"><text font-family="Times New Roman,Times New Roman_MSFontService,sans-serif" font-weight="400" font-size="28" transform="matrix(1 0 0 1 199.736 2757)">12</text></g><g clip-path="url(#clip13)"><text font-family="Times New Roman,Times New Roman_MSFontService,sans-serif" font-weight="400" font-size="28" transform="matrix(1 0 0 1 243.755 3089)">0</text></g><g clip-path="url(#clip14)"><text font-family="Times New Roman,Times New Roman_MSFontService,sans-serif" font-weight="400" font-size="28" transform="matrix(1 0 0 1 307.161 3089)">1</text></g><g clip-path="url(#clip15)"><text font-family="Times New Roman,Times New Roman_MSFontService,sans-serif" font-weight="400" font-size="28" transform="matrix(1 0 0 1 370.567 3089)">2</text></g><g clip-path="url(#clip16)"><text font-family="Times New Roman,Times New Roman_MSFontService,sans-serif" font-weight="400" font-size="28" transform="matrix(1 0 0 1 433.973 3089)">3</text></g><g clip-path="url(#clip17)"><text font-family="Times New Roman,Times New Roman_MSFontService,sans-serif" font-weight="400" font-size="28" transform="matrix(1 0 0 1 497.379 3089)">4</text></g><g clip-path="url(#clip18)"><text font-family="Times New Roman,Times New Roman_MSFontService,sans-serif" font-weight="400" font-size="28" transform="matrix(1 0 0 1 560.784 3089)">5</text></g><g clip-path="url(#clip19)"><text font-family="Times New Roman,Times New Roman_MSFontService,sans-serif" font-weight="400" font-size="28" transform="matrix(1 0 0 1 624.19 3089)">6</text></g><g clip-path="url(#clip20)"><text font-family="Times New Roman,Times New Roman_MSFontService,sans-serif" font-weight="400" font-size="28" transform="matrix(1 0 0 1 220.382 2733)">u</text></g><g clip-path="url(#clip21)"><text font-family="Times New Roman,Times New Roman_MSFontService,sans-serif" font-weight="400" font-size="18" transform="matrix(1 0 0 1 234.132 2739)">C</text></g><g clip-path="url(#clip22)"><text font-family="Times New Roman,Times New Roman_MSFontService,sans-serif" font-weight="400" font-size="28" transform="matrix(1 0 0 1 246.37 2733)">(V)</text></g><g clip-path="url(#clip23)"><text font-family="Times New Roman,Times New Roman_MSFontService,sans-serif" font-weight="400" font-size="28" transform="matrix(1 0 0 1 555.413 2993)">t(s)</text></g><g clip-path="url(#clip24)"><text font-family="Times New Roman,Times New Roman_MSFontService,sans-serif" font-weight="400" font-size="33" transform="matrix(1 0 0 1 249.4 2699)">Charge d'un condensateur</text></g><rect x="147.5" y="2647.5" width="518" height="455" stroke="#D9D9D9" stroke-width="3.4375" stroke-linejoin="round" stroke-miterlimit="10" fill="none"/></g></svg>