<svg width="951" height="712" xmlns="http://www.w3.org/2000/svg" xmlns:xlink="http://www.w3.org/1999/xlink" overflow="hidden"><defs><clipPath id="clip0"><rect x="2929" y="472" width="951" height="712"/></clipPath><clipPath id="clip1"><rect x="2930" y="472" width="947" height="709"/></clipPath><clipPath id="clip2"><rect x="2930" y="472" width="947" height="709"/></clipPath><clipPath id="clip3"><rect x="2930" y="472" width="947" height="709"/></clipPath><clipPath id="clip4"><rect x="2930" y="472" width="947" height="709"/></clipPath><clipPath id="clip5"><rect x="2930" y="472" width="947" height="709"/></clipPath><clipPath id="clip6"><rect x="2930" y="472" width="947" height="709"/></clipPath><clipPath id="clip7"><rect x="2930" y="472" width="947" height="709"/></clipPath><clipPath id="clip8"><rect x="2930" y="472" width="947" height="709"/></clipPath><clipPath id="clip9"><rect x="3130" y="622" width="666" height="401"/></clipPath><clipPath id="clip10"><rect x="2930" y="472" width="947" height="709"/></clipPath><clipPath id="clip11"><rect x="3130" y="622" width="662" height="398"/></clipPath><clipPath id="clip12"><rect x="2930" y="472" width="947" height="709"/></clipPath><clipPath id="clip13"><rect x="2930" y="472" width="947" height="709"/></clipPath><clipPath id="clip14"><rect x="2930" y="472" width="947" height="709"/></clipPath><clipPath id="clip15"><rect x="2930" y="472" width="947" height="709"/></clipPath><clipPath id="clip16"><rect x="2930" y="472" width="947" height="709"/></clipPath><clipPath id="clip17"><rect x="2930" y="472" width="947" height="709"/></clipPath><clipPath id="clip18"><rect x="2930" y="472" width="947" height="709"/></clipPath><clipPath id="clip19"><rect x="2930" y="472" width="947" height="709"/></clipPath><clipPath id="clip20"><rect x="2930" y="472" width="947" height="709"/></clipPath><clipPath id="clip21"><rect x="2930" y="472" width="947" height="709"/></clipPath><clipPath id="clip22"><rect x="2930" y="472" width="947" height="709"/></clipPath><clipPath id="clip23"><rect x="2930" y="472" width="947" height="709"/></clipPath><clipPath id="clip24"><rect x="2930" y="472" width="947" height="709"/></clipPath><clipPath id="clip25"><rect x="2930" y="472" width="947" height="709"/></clipPath><clipPath id="clip26"><rect x="2930" y="472" width="947" height="709"/></clipPath><clipPath id="clip27"><rect x="2930" y="472" width="947" height="709"/></clipPath><clipPath id="clip28"><rect x="2930" y="472" width="947" height="709"/></clipPath><clipPath id="clip29"><rect x="2930" y="472" width="947" height="709"/></clipPath><clipPath id="clip30"><rect x="2930" y="472" width="947" height="709"/></clipPath><clipPath id="clip31"><rect x="2930" y="472" width="947" height="709"/></clipPath><clipPath id="clip32"><rect x="2930" y="472" width="947" height="709"/></clipPath><clipPath id="clip33"><rect x="2930" y="472" width="947" height="709"/></clipPath><clipPath id="clip34"><rect x="2930" y="472" width="947" height="709"/></clipPath><clipPath id="clip35"><rect x="2930" y="472" width="947" height="709"/></clipPath><clipPath id="clip36"><rect x="2930" y="472" width="947" height="709"/></clipPath><clipPath id="clip37"><rect x="2930" y="472" width="947" height="709"/></clipPath><clipPath id="clip38"><rect x="2930" y="472" width="947" height="709"/></clipPath><clipPath id="clip39"><rect x="2930" y="472" width="947" height="709"/></clipPath><clipPath id="clip40"><rect x="2930" y="472" width="947" height="709"/></clipPath><clipPath id="clip41"><rect x="2930" y="472" width="947" height="709"/></clipPath><clipPath id="clip42"><rect x="2930" y="472" width="947" height="709"/></clipPath></defs><g clip-path="url(#clip0)" transform="translate(-2929 -472)"><rect x="2930" y="473" width="948" height="709" fill="#FFFFFF"/><g clip-path="url(#clip1)"><path d="M3130.5 1011.53 3792.5 1011.53M3130.5 1002.53 3792.5 1002.53M3130.5 993.533 3792.5 993.533M3130.5 985.533 3792.5 985.533M3130.5 967.532 3792.5 967.532M3130.5 958.532 3792.5 958.532M3130.5 949.531 3792.5 949.531M3130.5 940.531 3792.5 940.531M3130.5 923.531 3792.5 923.531M3130.5 914.53 3792.5 914.53M3130.5 905.53 3792.5 905.53M3130.5 896.53 3792.5 896.53M3130.5 878.529 3792.5 878.529M3130.5 870.529 3792.5 870.529M3130.5 861.528 3792.5 861.528M3130.5 852.528 3792.5 852.528M3130.5 834.528 3792.5 834.528M3130.5 825.527 3792.5 825.527M3130.5 817.527 3792.5 817.527M3130.5 808.527 3792.5 808.527M3130.5 790.526 3792.5 790.526M3130.5 781.526 3792.5 781.526M3130.5 772.526 3792.5 772.526M3130.5 764.525 3792.5 764.525M3130.5 746.525 3792.5 746.525M3130.5 737.524 3792.5 737.524M3130.5 728.524 3792.5 728.524M3130.5 719.524 3792.5 719.524M3130.5 702.523 3792.5 702.523M3130.5 693.523 3792.5 693.523M3130.5 684.523 3792.5 684.523M3130.5 675.522 3792.5 675.522M3130.5 658.522 3792.5 658.522M3130.5 649.522 3792.5 649.522M3130.5 640.521 3792.5 640.521M3130.5 631.521 3792.5 631.521" stroke="#F2F2F2" stroke-width="3.4375" stroke-linejoin="round" stroke-miterlimit="10" fill="none"/></g><g clip-path="url(#clip2)"><path d="M3130.5 976.532 3792.5 976.532M3130.5 931.531 3792.5 931.531M3130.5 887.529 3792.5 887.529M3130.5 843.528 3792.5 843.528M3130.5 799.526 3792.5 799.526M3130.5 755.525 3792.5 755.525M3130.5 711.524 3792.5 711.524M3130.5 666.522 3792.5 666.522M3130.5 622.5 3792.5 622.5" stroke="#D9D9D9" stroke-width="3.4375" stroke-linejoin="round" stroke-miterlimit="10" fill="none"/></g><g clip-path="url(#clip3)"><path d="M3152.6 622.5 3152.6 1020.5M3174.6 622.5 3174.6 1020.5M3196.6 622.5 3196.6 1020.5M3218.61 622.5 3218.61 1020.5M3262.61 622.5 3262.61 1020.5M3284.61 622.5 3284.61 1020.5M3306.61 622.5 3306.61 1020.5M3329.61 622.5 3329.61 1020.5M3373.61 622.5 3373.61 1020.5M3395.61 622.5 3395.61 1020.5M3417.61 622.5 3417.61 1020.5M3439.61 622.5 3439.61 1020.5M3483.61 622.5 3483.61 1020.5M3505.62 622.5 3505.62 1020.5M3527.62 622.5 3527.62 1020.5M3549.62 622.5 3549.62 1020.5M3593.62 622.5 3593.62 1020.5M3615.62 622.5 3615.62 1020.5M3638.62 622.5 3638.62 1020.5M3660.62 622.5 3660.62 1020.5M3704.62 622.5 3704.62 1020.5M3726.62 622.5 3726.62 1020.5M3748.62 622.5 3748.62 1020.5M3770.62 622.5 3770.62 1020.5" stroke="#F2F2F2" stroke-width="3.4375" stroke-linejoin="round" stroke-miterlimit="10" fill="none"/></g><g clip-path="url(#clip4)"><path d="M3240.61 622.5 3240.61 1020.5M3351.61 622.5 3351.61 1020.5M3461.61 622.5 3461.61 1020.5M3571.62 622.5 3571.62 1020.5M3682.62 622.5 3682.62 1020.5M3792.5 622.5 3792.5 1020.5" stroke="#D9D9D9" stroke-width="3.4375" stroke-linejoin="round" stroke-miterlimit="10" fill="none"/></g><g clip-path="url(#clip5)"><path d="M0 0 0.000360892 398" stroke="#BFBFBF" stroke-width="3.4375" stroke-linejoin="round" stroke-miterlimit="10" fill="none" fill-rule="evenodd" transform="matrix(1 0 0 -1 3130.5 1020.5)"/></g><g clip-path="url(#clip6)"><path d="M3121.5 1020.5 3130.5 1020.5M3121.5 976.532 3130.5 976.532M3121.5 931.531 3130.5 931.531M3121.5 887.529 3130.5 887.529M3121.5 843.528 3130.5 843.528M3121.5 799.526 3130.5 799.526M3121.5 755.525 3130.5 755.525M3121.5 711.524 3130.5 711.524M3121.5 666.522 3130.5 666.522M3121.5 622.5 3130.5 622.5" stroke="#BFBFBF" stroke-width="3.4375" stroke-linejoin="round" stroke-miterlimit="10" fill="none"/></g><g clip-path="url(#clip7)"><path d="M3130.5 1020.5 3792.5 1020.5" stroke="#BFBFBF" stroke-width="3.4375" stroke-linejoin="round" stroke-miterlimit="10" fill="none" fill-rule="evenodd"/></g><g clip-path="url(#clip8)"><path d="M3130.5 1020.5 3130.5 1029.5M3240.61 1020.5 3240.61 1029.5M3351.61 1020.5 3351.61 1029.5M3461.61 1020.5 3461.61 1029.5M3571.62 1020.5 3571.62 1029.5M3682.62 1020.5 3682.62 1029.5M3792.5 1020.5 3792.5 1029.5" stroke="#BFBFBF" stroke-width="3.4375" stroke-linejoin="round" stroke-miterlimit="10" fill="none"/></g><g clip-path="url(#clip9)"><path d="M3682.5 670.5C3621.17 709.333 3544.5 757.364 3498.5 787 3452.5 816.636 3431.03 832.987 3406.5 848.316 3381.97 863.645 3366.63 869.776 3351.3 878.973 3335.97 888.171 3326.77 895.324 3314.5 903.5" stroke="#5B9BD5" stroke-width="6.875" stroke-linecap="round" stroke-linejoin="round" stroke-miterlimit="10" fill="none"/></g><g clip-path="url(#clip10)"><path d="M3693.97 670.156C3693.97 676.231 3689.04 681.156 3682.97 681.156 3676.89 681.156 3671.97 676.231 3671.97 670.156 3671.97 664.081 3676.89 659.156 3682.97 659.156 3689.04 659.156 3693.97 664.081 3693.97 670.156Z" stroke="#5B9BD5" stroke-width="3.4375" stroke-linejoin="round" stroke-miterlimit="10" fill="#5B9BD5"/><path d="M3509.97 787.156C3509.97 793.231 3505.04 798.155 3498.97 798.155 3492.89 798.155 3487.97 793.231 3487.97 787.156 3487.97 781.081 3492.89 776.156 3498.97 776.156 3505.04 776.156 3509.97 781.081 3509.97 787.156Z" stroke="#5B9BD5" stroke-width="3.4375" stroke-linejoin="round" stroke-miterlimit="10" fill="#5B9BD5"/><path d="M3417.97 848.156C3417.97 854.231 3413.04 859.155 3406.97 859.155 3400.89 859.155 3395.97 854.231 3395.97 848.156 3395.97 842.081 3400.89 837.156 3406.97 837.156 3413.04 837.156 3417.97 842.081 3417.97 848.156Z" stroke="#5B9BD5" stroke-width="3.4375" stroke-linejoin="round" stroke-miterlimit="10" fill="#5B9BD5"/><path d="M3362.97 879.156C3362.97 885.231 3358.04 890.156 3351.97 890.156 3345.89 890.156 3340.97 885.231 3340.97 879.156 3340.97 873.081 3345.89 868.156 3351.97 868.156 3358.04 868.156 3362.97 873.081 3362.97 879.156Z" stroke="#5B9BD5" stroke-width="3.4375" stroke-linejoin="round" stroke-miterlimit="10" fill="#5B9BD5"/><path d="M3325.97 903.156C3325.97 909.231 3321.04 914.155 3314.97 914.155 3308.89 914.155 3303.97 909.231 3303.97 903.156 3303.97 897.081 3308.89 892.156 3314.97 892.156 3321.04 892.156 3325.97 897.081 3325.97 903.156Z" stroke="#5B9BD5" stroke-width="3.4375" stroke-linejoin="round" stroke-miterlimit="10" fill="#5B9BD5"/></g><g clip-path="url(#clip11)"><path d="M0 0 368 232" stroke="#FF0000" stroke-width="6.875" stroke-linecap="round" stroke-linejoin="round" stroke-miterlimit="10" stroke-dasharray="0 13.75" fill="none" fill-rule="evenodd" transform="matrix(1 0 0 -1 3314.5 903.5)"/></g><g clip-path="url(#clip12)"><text fill="#595959" font-family="Calibri,Calibri_MSFontService,sans-serif" font-weight="400" font-size="32" transform="matrix(1 0 0 1 3466.71 684)">y = 6E</text></g><g clip-path="url(#clip13)"><text fill="#595959" font-family="Calibri,Calibri_MSFontService,sans-serif" font-weight="400" font-size="32" transform="matrix(1 0 0 1 3543.68 684)">-</text></g><g clip-path="url(#clip14)"><text fill="#595959" font-family="Calibri,Calibri_MSFontService,sans-serif" font-weight="400" font-size="32" transform="matrix(1 0 0 1 3553.52 684)">07x</text></g><g clip-path="url(#clip15)"><text fill="#595959" font-family="Calibri,Calibri_MSFontService,sans-serif" font-weight="400" font-size="32" transform="matrix(1 0 0 1 3495.86 723)">R² = 1</text></g><g clip-path="url(#clip16)"><text fill="#595959" font-family="Calibri,Calibri_MSFontService,sans-serif" font-weight="400" font-size="28" transform="matrix(1 0 0 1 3091.05 1028)">0</text></g><g clip-path="url(#clip17)"><text fill="#595959" font-family="Calibri,Calibri_MSFontService,sans-serif" font-weight="400" font-size="28" transform="matrix(1 0 0 1 3042.39 984)">0,002</text></g><g clip-path="url(#clip18)"><text fill="#595959" font-family="Calibri,Calibri_MSFontService,sans-serif" font-weight="400" font-size="28" transform="matrix(1 0 0 1 3042.39 940)">0,004</text></g><g clip-path="url(#clip19)"><text fill="#595959" font-family="Calibri,Calibri_MSFontService,sans-serif" font-weight="400" font-size="28" transform="matrix(1 0 0 1 3042.39 896)">0,006</text></g><g clip-path="url(#clip20)"><text fill="#595959" font-family="Calibri,Calibri_MSFontService,sans-serif" font-weight="400" font-size="28" transform="matrix(1 0 0 1 3042.39 851)">0,008</text></g><g clip-path="url(#clip21)"><text fill="#595959" font-family="Calibri,Calibri_MSFontService,sans-serif" font-weight="400" font-size="28" transform="matrix(1 0 0 1 3056.33 807)">0,01</text></g><g clip-path="url(#clip22)"><text fill="#595959" font-family="Calibri,Calibri_MSFontService,sans-serif" font-weight="400" font-size="28" transform="matrix(1 0 0 1 3042.39 763)">0,012</text></g><g clip-path="url(#clip23)"><text fill="#595959" font-family="Calibri,Calibri_MSFontService,sans-serif" font-weight="400" font-size="28" transform="matrix(1 0 0 1 3042.39 719)">0,014</text></g><g clip-path="url(#clip24)"><text fill="#595959" font-family="Calibri,Calibri_MSFontService,sans-serif" font-weight="400" font-size="28" transform="matrix(1 0 0 1 3042.39 675)">0,016</text></g><g clip-path="url(#clip25)"><text fill="#595959" font-family="Calibri,Calibri_MSFontService,sans-serif" font-weight="400" font-size="28" transform="matrix(1 0 0 1 3042.39 630)">0,018</text></g><g clip-path="url(#clip26)"><text fill="#595959" font-family="Calibri,Calibri_MSFontService,sans-serif" font-weight="400" font-size="28" transform="matrix(1 0 0 1 3123.53 1064)">0</text></g><g clip-path="url(#clip27)"><text fill="#595959" font-family="Calibri,Calibri_MSFontService,sans-serif" font-weight="400" font-size="28" transform="matrix(1 0 0 1 3212.99 1064)">5000</text></g><g clip-path="url(#clip28)"><text fill="#595959" font-family="Calibri,Calibri_MSFontService,sans-serif" font-weight="400" font-size="28" transform="matrix(1 0 0 1 3316.39 1064)">10000</text></g><g clip-path="url(#clip29)"><text fill="#595959" font-family="Calibri,Calibri_MSFontService,sans-serif" font-weight="400" font-size="28" transform="matrix(1 0 0 1 3426.75 1064)">15000</text></g><g clip-path="url(#clip30)"><text fill="#595959" font-family="Calibri,Calibri_MSFontService,sans-serif" font-weight="400" font-size="28" transform="matrix(1 0 0 1 3537.12 1064)">20000</text></g><g clip-path="url(#clip31)"><text fill="#595959" font-family="Calibri,Calibri_MSFontService,sans-serif" font-weight="400" font-size="28" transform="matrix(1 0 0 1 3647.48 1064)">25000</text></g><g clip-path="url(#clip32)"><text fill="#595959" font-family="Calibri,Calibri_MSFontService,sans-serif" font-weight="400" font-size="28" transform="matrix(1 0 0 1 3757.85 1064)">30000</text></g><g clip-path="url(#clip33)"><text fill="#595959" font-family="Symbol,Symbol_MSFontService,sans-serif" font-weight="400" font-size="32" transform="matrix(6.12323e-17 -1 1 6.12323e-17 3019.75 861)"></text></g><g clip-path="url(#clip34)"><text fill="#595959" font-family="Calibri,Calibri_MSFontService,sans-serif" font-weight="400" font-size="32" transform="matrix(6.12323e-17 -1 1 6.12323e-17 3019.75 845)">(rad)</text></g><g clip-path="url(#clip35)"><text fill="#595959" font-family="Calibri,Calibri_MSFontService,sans-serif" font-weight="400" font-size="32" transform="matrix(1 0 0 1 3400.33 1116)">1/a (m</text></g><g clip-path="url(#clip36)"><text fill="#595959" font-family="Calibri,Calibri_MSFontService,sans-serif" font-weight="400" font-size="32" transform="matrix(1 0 0 1 3487 1116)">-</text></g><g clip-path="url(#clip37)"><text fill="#595959" font-family="Calibri,Calibri_MSFontService,sans-serif" font-weight="400" font-size="32" transform="matrix(1 0 0 1 3496.83 1116)">1)</text></g><g clip-path="url(#clip38)"><text fill="#595959" font-family="Symbol,Symbol_MSFontService,sans-serif" font-weight="400" font-size="46" transform="matrix(1 0 0 1 3328.53 553)"></text></g><g clip-path="url(#clip39)"><text fill="#595959" font-family="Calibri,Calibri_MSFontService,sans-serif" font-weight="400" font-size="46" transform="matrix(1 0 0 1 3352.41 553)">=f(1/a)</text></g><g clip-path="url(#clip40)"><path d="M3613.5 919.5 3729.5 919.5" stroke="#5B9BD5" stroke-width="6.875" stroke-linecap="round" stroke-linejoin="round" stroke-miterlimit="10" fill="none" fill-rule="evenodd"/></g><g clip-path="url(#clip41)"><path d="M3679 918.5C3679 923.194 3675.19 926.999 3670.5 926.999 3665.81 926.999 3662 923.194 3662 918.5 3662 913.805 3665.81 910 3670.5 910 3675.19 910 3679 913.805 3679 918.5Z" stroke="#5B9BD5" stroke-width="3.4375" stroke-linejoin="round" stroke-miterlimit="10" fill="#5B9BD5"/></g><g clip-path="url(#clip42)"><text fill="#595959" font-family="Calibri,Calibri_MSFontService,sans-serif" font-weight="400" font-size="32" transform="matrix(1 0 0 1 3742.13 929)">θ</text></g><rect x="2930.5" y="473.5" width="948" height="709" stroke="#D9D9D9" stroke-width="3.4375" stroke-linejoin="round" stroke-miterlimit="10" fill="none"/></g></svg>