<svg xmlns="http://www.w3.org/2000/svg" viewBox="0 0 240.94 105.49">
  <defs>
    <style>
      .cls-1, .cls-10, .cls-11, .cls-13, .cls-14, .cls-5, .cls-6, .cls-7, .cls-8 {
        fill: none;
      }

      .cls-2 {
        fill: #e30613;
        opacity: 0.74;
      }

      .cls-12, .cls-15, .cls-3, .cls-9 {
        fill: #1d1d1b;
      }

      .cls-10, .cls-13, .cls-3, .cls-8 {
        stroke: #1d1d1b;
      }

      .cls-10, .cls-11, .cls-13, .cls-14, .cls-3, .cls-5, .cls-6, .cls-7, .cls-8 {
        stroke-miterlimit: 10;
      }

      .cls-4 {
        fill: #e6332a;
      }

      .cls-11, .cls-14, .cls-5, .cls-6, .cls-7 {
        stroke: #706f6f;
      }

      .cls-14, .cls-5, .cls-6, .cls-7 {
        stroke-width: 0.99px;
      }

      .cls-6 {
        stroke-dasharray: 4.3 2.86;
      }

      .cls-7 {
        stroke-dasharray: 4.11 2.74;
      }

      .cls-10, .cls-8 {
        stroke-width: 0.71px;
      }

      .cls-10 {
        stroke-dasharray: 4.25 2.83;
      }

      .cls-11 {
        stroke-width: 2.13px;
      }

      .cls-12, .cls-15 {
        font-size: 8px;
      }

      .cls-12 {
        font-family: TimesNewRomanPSMT, Times New Roman;
      }

      .cls-13 {
        stroke-linecap: round;
      }

      .cls-14 {
        stroke-dasharray: 4.79 3.19;
      }

      .cls-15 {
        font-family: TimesNewRomanPS-ItalicMT, Times New Roman;
        font-style: italic;
      }
    </style>
  </defs>
  <g id="Calque_2" data-name="Calque 2">
    <rect class="cls-1" width="240.94" height="105.49"/>
  </g>
  <g id="Calque_1" data-name="Calque 1">
    <rect class="cls-2" x="22.7" y="31.91" width="84.13" height="43.25"/>
    <rect class="cls-3" x="194.45" y="11.74" width="9.76" height="89.27"/>
    <ellipse class="cls-4" cx="199.07" cy="56.53" rx="2.24" ry="7.62"/>
    <g>
      <line class="cls-5" x1="107.42" y1="56.23" x2="109.54" y2="56.24"/>
      <line class="cls-6" x1="112.41" y1="56.25" x2="211.2" y2="56.56"/>
      <line class="cls-5" x1="212.63" y1="56.57" x2="214.76" y2="56.57"/>
    </g>
    <ellipse class="cls-4" cx="199.07" cy="35.29" rx="1.94" ry="5.55"/>
    <ellipse class="cls-4" cx="199.07" cy="16.55" rx="1.69" ry="3.94"/>
    <g>
      <line class="cls-5" x1="107.42" y1="56.23" x2="109.49" y2="55.76"/>
      <line class="cls-7" x1="112.16" y1="55.15" x2="191.04" y2="37.13"/>
      <line class="cls-5" x1="192.38" y1="36.82" x2="194.45" y2="36.35"/>
    </g>
    <g>
      <line class="cls-8" x1="110.65" y1="51.61" x2="110.65" y2="61.03"/>
      <path class="cls-9" d="M167.74,202.27l1.53.94,0-.06-1-2.49c-.2-.87-.39-1.75-.58-2.62l-.57,2.62-1,2.49,0,.06Z" transform="translate(-57.09 -149.9)"/>
      <path class="cls-9" d="M167.74,210.17l1.53-.93,0,0-1,2.5c-.2.87-.39,1.74-.58,2.61l-.57-2.61-1-2.5,0,0Z" transform="translate(-57.09 -149.9)"/>
    </g>
    <line class="cls-10" x1="87.9" y1="46.68" x2="107.42" y2="46.68"/>
    <line class="cls-10" x1="87.9" y1="49.38" x2="107.42" y2="49.38"/>
    <line class="cls-11" x1="107.42" y1="13.55" x2="107.42" y2="46.51"/>
    <line class="cls-11" x1="107.42" y1="66.29" x2="107.42" y2="99.26"/>
    <line class="cls-11" x1="107.42" y1="49.1" x2="107.42" y2="63.27"/>
    <line class="cls-11" x1="184.6" y1="13.55" x2="184.6" y2="99.26"/>
    <text class="cls-12" transform="translate(115.39 66.29)">b</text>
    <g>
      <line class="cls-8" x1="89.89" y1="51.88" x2="89.89" y2="55.01"/>
      <path class="cls-9" d="M147,202.55l1.53.93,0,0-1-2.5-.57-2.61c-.19.87-.38,1.74-.58,2.61l-1,2.5,0,0Z" transform="translate(-57.09 -149.9)"/>
    </g>
    <g>
      <line class="cls-8" x1="89.89" y1="44.13" x2="89.89" y2="41.01"/>
      <path class="cls-9" d="M147,193.27l-1.53-.93,0,0,1,2.5c.19.87.39,1.74.58,2.61l.57-2.61,1-2.5,0,0Z" transform="translate(-57.09 -149.9)"/>
    </g>
    <line class="cls-8" x1="89.89" y1="51.35" x2="89.89" y2="44.75"/>
    <text class="cls-12" transform="translate(87.9 38.44) rotate(-0.92)">a</text>
    <line class="cls-10" x1="87.9" y1="63.21" x2="107.42" y2="63.21"/>
    <line class="cls-10" x1="87.9" y1="65.91" x2="107.42" y2="65.91"/>
    <g>
      <line class="cls-8" x1="89.89" y1="68.41" x2="89.89" y2="71.54"/>
      <path class="cls-9" d="M147,219.07l1.53.94,0-.06-1-2.49-.57-2.62c-.19.88-.38,1.75-.58,2.62l-1,2.49,0,.06Z" transform="translate(-57.09 -149.9)"/>
    </g>
    <g>
      <line class="cls-8" x1="89.89" y1="60.66" x2="89.89" y2="57.53"/>
      <path class="cls-9" d="M147,209.8l-1.53-.93,0,0,1,2.5c.19.87.39,1.74.58,2.61l.57-2.61,1-2.5,0,0Z" transform="translate(-57.09 -149.9)"/>
    </g>
    <line class="cls-8" x1="89.89" y1="67.87" x2="89.89" y2="61.28"/>
    <text class="cls-12" transform="translate(87.9 77.51) rotate(-0.92)">a</text>
    <text class="cls-12" transform="translate(29.61 30.03)">Laser</text>
    <text class="cls-12" transform="translate(85.66 10.77)">Double fente</text>
    <text class="cls-12" transform="translate(175.26 10.67)">Écran</text>
    <g>
      <line class="cls-8" x1="112.07" y1="94.68" x2="179.91" y2="94.68"/>
      <path class="cls-9" d="M169.92,244.58l.93-1.53,0,0-2.5,1-2.61.57,2.61.58,2.5,1,0,0Z" transform="translate(-57.09 -149.9)"/>
      <path class="cls-9" d="M236.23,244.58l-.93-1.53,0,0,2.5,1,2.61.57-2.61.58-2.5,1,0,0Z" transform="translate(-57.09 -149.9)"/>
    </g>
    <text class="cls-12" transform="translate(138.36 92.69)">D</text>
    <path class="cls-13" d="M206.83,197a6.74,6.74,0,0,1,0,8.8" transform="translate(-57.09 -149.9)"/>
    <text class="cls-12" transform="translate(154.16 53.54) rotate(-0.92)">θ</text>
    <ellipse class="cls-4" cx="199.07" cy="77.76" rx="1.94" ry="5.55"/>
    <ellipse class="cls-4" cx="199.33" cy="96.64" rx="1.69" ry="3.94"/>
    <g>
      <line class="cls-5" x1="199.33" y1="35.13" x2="201.46" y2="35.13"/>
      <line class="cls-14" x1="204.65" y1="35.14" x2="211.03" y2="35.16"/>
      <line class="cls-5" x1="212.63" y1="35.17" x2="214.75" y2="35.17"/>
    </g>
    <g>
      <line class="cls-8" x1="210.31" y1="38.76" x2="210.31" y2="52.85"/>
      <path class="cls-9" d="M267.4,189.42l1.53.94,0-.06-1-2.5-.57-2.61c-.2.87-.39,1.74-.58,2.61l-1,2.5,0,.06Z" transform="translate(-57.09 -149.9)"/>
      <path class="cls-9" d="M267.4,202l1.53-.93,0,.05-1,2.5-.57,2.61c-.2-.87-.39-1.74-.58-2.61l-1-2.5,0-.05Z" transform="translate(-57.09 -149.9)"/>
    </g>
    <text class="cls-15" transform="translate(214.52 48.14)">i</text>
    <g>
      <line class="cls-5" x1="199.33" y1="68.15" x2="201.46" y2="68.16"/>
      <line class="cls-14" x1="204.65" y1="68.17" x2="211.03" y2="68.19"/>
      <line class="cls-5" x1="212.63" y1="68.19" x2="214.75" y2="68.2"/>
    </g>
    <g>
      <line class="cls-5" x1="199.17" y1="89.31" x2="201.29" y2="89.32"/>
      <line class="cls-14" x1="204.48" y1="89.33" x2="210.87" y2="89.35"/>
      <line class="cls-5" x1="212.46" y1="89.35" x2="214.59" y2="89.36"/>
    </g>
    <g>
      <line class="cls-8" x1="210.31" y1="71.77" x2="210.31" y2="85.87"/>
      <path class="cls-9" d="M267.4,222.44l1.53.93,0-.05-1-2.5-.57-2.61c-.2.87-.39,1.74-.58,2.61l-1,2.5,0,.05Z" transform="translate(-57.09 -149.9)"/>
      <path class="cls-9" d="M267.4,235l1.53-.93,0,.05-1,2.5-.57,2.61c-.2-.87-.39-1.74-.58-2.61l-1-2.5,0-.05Z" transform="translate(-57.09 -149.9)"/>
    </g>
    <text class="cls-15" transform="translate(214.52 81.16)">i</text>
  </g>
</svg>
