<svg xmlns="http://www.w3.org/2000/svg" viewBox="0 0 223.82 262.63"><defs><style>.cls-1,.cls-7{fill:#1d1d1b;}.cls-1,.cls-3,.cls-4,.cls-5,.cls-6,.cls-9{stroke:#1d1d1b;}.cls-1,.cls-3,.cls-6,.cls-9{stroke-miterlimit:10;}.cls-2{fill:#009fe3;}.cls-3,.cls-4,.cls-8,.cls-9{fill:none;}.cls-4{stroke-linecap:round;}.cls-4,.cls-5{stroke-linejoin:round;}.cls-5,.cls-6{fill:#fff;}.cls-9{stroke-width:0.5px;}</style></defs><g id="Calque_2" data-name="Calque 2"><g id="Calque_1-2" data-name="Calque 1"><rect class="cls-1" x="56.25" y="58.48" width="9.87" height="9.87" transform="translate(-26.92 61.84) rotate(-45)"/><polygon class="cls-2" points="104.19 155.59 101.47 155.59 98.52 142.61 107.18 142.61 104.19 155.59"/><rect class="cls-2" x="98.48" y="30.23" width="8.58" height="112.38"/><rect class="cls-2" x="79.83" y="197.38" width="45.61" height="26.32"/><line class="cls-3" x1="79.83" y1="223.7" x2="79.83" y2="167.01"/><line class="cls-3" x1="125.44" y1="223.7" x2="125.44" y2="167.01"/><line class="cls-4" x1="79.83" y1="223.7" x2="125.44" y2="223.7"/><line class="cls-4" x1="107.18" y1="12.19" x2="107.18" y2="142.4"/><line class="cls-4" x1="107.18" y1="142.4" x2="104.02" y2="156.34"/><line class="cls-4" x1="107.28" y1="12.13" x2="109.69" y2="9.72"/><line class="cls-4" x1="98.47" y1="12.39" x2="98.47" y2="142.61"/><line class="cls-4" x1="98.37" y1="12.33" x2="95.97" y2="9.92"/><line class="cls-4" x1="93.44" y1="142.61" x2="112.6" y2="142.61"/><line class="cls-4" x1="110.14" y1="137.78" x2="110.14" y2="147.99"/><line class="cls-4" x1="103.37" y1="124.49" x2="107.05" y2="124.49"/><line class="cls-4" x1="103.37" y1="115.98" x2="107.05" y2="115.98"/><line class="cls-4" x1="103.37" y1="107.48" x2="107.05" y2="107.48"/><line class="cls-4" x1="103.37" y1="98.97" x2="107.05" y2="98.97"/><line class="cls-4" x1="103.37" y1="90.47" x2="107.05" y2="90.47"/><line class="cls-4" x1="103.37" y1="81.97" x2="107.05" y2="81.97"/><line class="cls-4" x1="103.37" y1="73.46" x2="107.05" y2="73.46"/><line class="cls-4" x1="103.37" y1="64.96" x2="107.05" y2="64.96"/><line class="cls-4" x1="103.37" y1="56.46" x2="107.05" y2="56.46"/><line class="cls-4" x1="103.37" y1="47.95" x2="107.05" y2="47.95"/><line class="cls-4" x1="103.37" y1="39.45" x2="107.05" y2="39.45"/><line class="cls-4" x1="103.37" y1="30.94" x2="107.05" y2="30.94"/><rect class="cls-5" x="100.75" y="217.64" width="4.57" height="5.67" rx="1.14"/><rect class="cls-5" x="95.96" y="218.95" width="14.15" height="3.06" rx="1.41"/><line class="cls-4" x1="98.47" y1="142.4" x2="101.64" y2="156.34"/><rect class="cls-3" x="66.69" y="223.66" width="72" height="17.42"/><circle class="cls-3" cx="102.69" cy="232.37" r="4.06"/><rect class="cls-3" x="95.99" y="58.48" width="2.52" height="9.53"/><rect class="cls-3" x="107.22" y="58.48" width="2.52" height="9.53"/><rect class="cls-3" x="46.8" y="241.09" width="99.74" height="4.8"/><rect class="cls-6" x="59.65" y="37.72" width="3.32" height="203.37"/><rect class="cls-6" x="42.38" y="61.89" width="53.62" height="3.07"/></g><g id="Légende"><path class="cls-7" d="M161.47,87.43a2,2,0,0,1,.93.42,1.32,1.32,0,0,1,.42,1,1.44,1.44,0,0,1-.28.85,1.53,1.53,0,0,1-.77.59,4.3,4.3,0,0,1-1.49.19h-2.82v-.16h.23a.59.59,0,0,0,.53-.24,1.32,1.32,0,0,0,.1-.65V85.57a1.26,1.26,0,0,0-.12-.7.66.66,0,0,0-.51-.2h-.23v-.16H160a5,5,0,0,1,1.15.11,1.81,1.81,0,0,1,1,.56,1.37,1.37,0,0,1,.35.92,1.22,1.22,0,0,1-.28.8A1.51,1.51,0,0,1,161.47,87.43Zm-2.3-.24.37,0H160a2.59,2.59,0,0,0,1-.13,1.11,1.11,0,0,0,.5-.43,1.23,1.23,0,0,0,.17-.62,1.11,1.11,0,0,0-.43-.89,1.82,1.82,0,0,0-1.24-.37,3.18,3.18,0,0,0-.79.09Zm0,2.85a4.34,4.34,0,0,0,1,.12,1.83,1.83,0,0,0,1.22-.36,1.1,1.1,0,0,0,.41-.88,1.23,1.23,0,0,0-.8-1.18,2.71,2.71,0,0,0-1.05-.18h-.47a1.3,1.3,0,0,0-.31,0Z"/><path class="cls-7" d="M167.13,86.45v2.43a6.74,6.74,0,0,0,0,.86.45.45,0,0,0,.1.22.27.27,0,0,0,.17.06.79.79,0,0,0,.31-.08l.06.16-1.2.49h-.2v-.85a3.56,3.56,0,0,1-.79.71,1.16,1.16,0,0,1-.58.14.9.9,0,0,1-.58-.19,1,1,0,0,1-.35-.5A3.31,3.31,0,0,1,164,89v-1.8a.79.79,0,0,0-.07-.4.42.42,0,0,0-.18-.17,1.1,1.1,0,0,0-.43,0v-.16h1.41v2.69a1,1,0,0,0,.19.74.67.67,0,0,0,.47.17,1.09,1.09,0,0,0,.43-.11,2.23,2.23,0,0,0,.57-.46V87.2a.65.65,0,0,0-.12-.46.8.8,0,0,0-.52-.13v-.16Z"/><path class="cls-7" d="M169.28,86.33v.9c.33-.6.68-.9,1-.9a.59.59,0,0,1,.4.14.46.46,0,0,1,.16.35.44.44,0,0,1-.11.29.41.41,0,0,1-.28.11.58.58,0,0,1-.34-.15.58.58,0,0,0-.28-.15.28.28,0,0,0-.18.09,2.2,2.2,0,0,0-.4.59v1.93a1.18,1.18,0,0,0,.08.51.41.41,0,0,0,.2.19.83.83,0,0,0,.42.08v.16h-2.06v-.16a.89.89,0,0,0,.45-.09.39.39,0,0,0,.16-.23,2.86,2.86,0,0,0,0-.42V88a6.22,6.22,0,0,0,0-.84.34.34,0,0,0-.1-.2.33.33,0,0,0-.19-.06.73.73,0,0,0-.31.07l0-.16,1.22-.49Z"/><path class="cls-7" d="M171.77,88a2.05,2.05,0,0,0,.44,1.41,1.31,1.31,0,0,0,1,.51,1.12,1.12,0,0,0,.69-.22,1.59,1.59,0,0,0,.49-.74l.13.08a2.14,2.14,0,0,1-.53,1.1,1.44,1.44,0,0,1-1.11.49,1.62,1.62,0,0,1-1.25-.56,2.18,2.18,0,0,1-.51-1.52,2.27,2.27,0,0,1,.53-1.61,1.73,1.73,0,0,1,1.33-.58,1.48,1.48,0,0,1,1.11.45,1.63,1.63,0,0,1,.43,1.19Zm0-.25h1.86a1.58,1.58,0,0,0-.09-.55.81.81,0,0,0-.33-.38.76.76,0,0,0-.45-.15.91.91,0,0,0-.65.29A1.23,1.23,0,0,0,171.77,87.71Z"/><path class="cls-7" d="M176.26,85.12v1.33h.94v.3h-.94v2.61a.93.93,0,0,0,.11.53.36.36,0,0,0,.29.14.51.51,0,0,0,.28-.09.58.58,0,0,0,.21-.27h.17a1.43,1.43,0,0,1-.43.65,1,1,0,0,1-.58.22.83.83,0,0,1-.4-.11.69.69,0,0,1-.28-.33,1.47,1.47,0,0,1-.1-.64V86.75h-.63v-.14a1.69,1.69,0,0,0,.49-.33,2.45,2.45,0,0,0,.45-.55,4.24,4.24,0,0,0,.28-.61Z"/><path class="cls-7" d="M178.76,85.12v1.33h.94v.3h-.94v2.61a.93.93,0,0,0,.11.53.37.37,0,0,0,.29.14.49.49,0,0,0,.28-.09.58.58,0,0,0,.21-.27h.17a1.43,1.43,0,0,1-.43.65,1,1,0,0,1-.58.22.83.83,0,0,1-.4-.11.69.69,0,0,1-.28-.33,1.47,1.47,0,0,1-.1-.64V86.75h-.63v-.14a1.69,1.69,0,0,0,.49-.33,2.45,2.45,0,0,0,.45-.55,4.24,4.24,0,0,0,.28-.61Z"/><path class="cls-7" d="M180.77,88a2.05,2.05,0,0,0,.43,1.41,1.34,1.34,0,0,0,1,.51,1.08,1.08,0,0,0,.69-.22,1.52,1.52,0,0,0,.49-.74l.14.08a2.08,2.08,0,0,1-.54,1.1,1.41,1.41,0,0,1-1.11.49,1.6,1.6,0,0,1-1.24-.56,2.14,2.14,0,0,1-.52-1.52,2.31,2.31,0,0,1,.53-1.61,1.76,1.76,0,0,1,1.33-.58,1.48,1.48,0,0,1,1.11.45,1.63,1.63,0,0,1,.44,1.19Zm0-.25h1.86a1.86,1.86,0,0,0-.09-.55.87.87,0,0,0-.33-.38.78.78,0,0,0-.45-.15.91.91,0,0,0-.66.29A1.22,1.22,0,0,0,180.77,87.71Z"/><path class="cls-7" d="M158.67,99.8a1.38,1.38,0,0,1-.57-.5,1.35,1.35,0,0,1-.19-.71,1.36,1.36,0,0,1,.45-1,1.58,1.58,0,0,1,1.15-.43,1.75,1.75,0,0,1,1,.28h1.07s0,0,0,0a.22.22,0,0,1,0,.14.57.57,0,0,1,0,.16l0,0h-.74a1.3,1.3,0,0,1,.24.81,1.23,1.23,0,0,1-.43,1,1.6,1.6,0,0,1-1.15.4,2.13,2.13,0,0,1-.61-.08,1.35,1.35,0,0,0-.27.29.48.48,0,0,0-.06.21.21.21,0,0,0,.07.15.59.59,0,0,0,.28.1l.62,0a10.25,10.25,0,0,1,1.17.06,1.13,1.13,0,0,1,.65.3.82.82,0,0,1,.25.61,1.28,1.28,0,0,1-.47.93,2.49,2.49,0,0,1-1.79.64,2.52,2.52,0,0,1-1.43-.38c-.22-.15-.33-.3-.33-.46a.54.54,0,0,1,0-.21,2.14,2.14,0,0,1,.31-.45l.45-.47a1.46,1.46,0,0,1-.33-.25.36.36,0,0,1-.09-.24.76.76,0,0,1,.12-.36A3.34,3.34,0,0,1,158.67,99.8Zm0,1.47a2,2,0,0,0-.31.42.78.78,0,0,0-.11.35.42.42,0,0,0,.25.37,2.37,2.37,0,0,0,1.27.28,2,2,0,0,0,1.17-.28.79.79,0,0,0,.38-.6.33.33,0,0,0-.23-.32,2.63,2.63,0,0,0-.9-.12A15,15,0,0,1,158.63,101.27Zm.81-3.93a.68.68,0,0,0-.55.26,1.18,1.18,0,0,0-.22.79,1.71,1.71,0,0,0,.3,1.08.72.72,0,0,0,.58.29.68.68,0,0,0,.55-.25,1.22,1.22,0,0,0,.21-.79,1.76,1.76,0,0,0-.3-1.09A.68.68,0,0,0,159.44,97.34Z"/><path class="cls-7" d="M163.27,97.13V98c.34-.6.69-.9,1-.9a.61.61,0,0,1,.4.14.49.49,0,0,1,.16.34.37.37,0,0,1-.12.29.34.34,0,0,1-.27.12.56.56,0,0,1-.34-.15.6.6,0,0,0-.29-.15.26.26,0,0,0-.17.09,2.2,2.2,0,0,0-.41.59v1.93a1.16,1.16,0,0,0,.09.51.37.37,0,0,0,.2.19.78.78,0,0,0,.42.08v.16h-2.07v-.16a.91.91,0,0,0,.46-.09.44.44,0,0,0,.16-.23,2.86,2.86,0,0,0,0-.42V98.81a6.22,6.22,0,0,0,0-.84.35.35,0,0,0-.11-.2.29.29,0,0,0-.19-.06.8.8,0,0,0-.31.07l0-.16,1.22-.49Z"/><path class="cls-7" d="M167.37,100.69a5.74,5.74,0,0,1-.78.55,1,1,0,0,1-.5.11.9.9,0,0,1-.69-.28,1,1,0,0,1-.27-.75,1,1,0,0,1,.13-.51,1.68,1.68,0,0,1,.63-.56,10.1,10.1,0,0,1,1.48-.65v-.15a1.29,1.29,0,0,0-.19-.83.68.68,0,0,0-.55-.22.6.6,0,0,0-.44.14.44.44,0,0,0-.17.35v.25a.42.42,0,0,1-.11.31.31.31,0,0,1-.27.11.33.33,0,0,1-.26-.11.45.45,0,0,1-.1-.31.9.9,0,0,1,.38-.7,1.68,1.68,0,0,1,1.09-.31,1.91,1.91,0,0,1,.88.18.82.82,0,0,1,.38.42,2.55,2.55,0,0,1,.08.78v1.36a5.33,5.33,0,0,0,0,.71.27.27,0,0,0,.07.17.18.18,0,0,0,.12,0,.21.21,0,0,0,.12,0,3.32,3.32,0,0,0,.36-.33v.25c-.33.44-.64.66-.94.66a.44.44,0,0,1-.35-.15A.9.9,0,0,1,167.37,100.69Zm0-.28V98.87a6.83,6.83,0,0,0-.85.38,1.33,1.33,0,0,0-.5.4.77.77,0,0,0-.15.46.75.75,0,0,0,.19.53.55.55,0,0,0,.43.2A1.56,1.56,0,0,0,167.37,100.41Z"/><path class="cls-7" d="M171.93,100.82a2.17,2.17,0,0,1-.58.44,1.35,1.35,0,0,1-.6.13,1.48,1.48,0,0,1-1.15-.55,2,2,0,0,1-.5-1.41,2.6,2.6,0,0,1,.55-1.59,1.68,1.68,0,0,1,1.4-.72,1.22,1.22,0,0,1,.88.34v-.74a6.76,6.76,0,0,0,0-.85.41.41,0,0,0-.11-.22.29.29,0,0,0-.17-.05.88.88,0,0,0-.31.07l-.05-.16,1.2-.49h.19v4.66a6,6,0,0,0,0,.86.38.38,0,0,0,.1.22.27.27,0,0,0,.17.06,1,1,0,0,0,.32-.08l.05.16-1.2.49h-.2Zm0-.31V98.44a1.46,1.46,0,0,0-.16-.55.9.9,0,0,0-.35-.37.84.84,0,0,0-.42-.12.89.89,0,0,0-.69.34,2,2,0,0,0-.4,1.34,2.16,2.16,0,0,0,.38,1.36,1.13,1.13,0,0,0,.87.47A1.06,1.06,0,0,0,171.93,100.51Z"/><path class="cls-7" d="M177.12,97.25v2.43a6.74,6.74,0,0,0,0,.86.45.45,0,0,0,.1.22.27.27,0,0,0,.17.06.79.79,0,0,0,.31-.08l.06.16-1.2.49h-.2v-.85a3.8,3.8,0,0,1-.79.71,1.16,1.16,0,0,1-.58.14.9.9,0,0,1-.58-.19,1,1,0,0,1-.35-.5,3.31,3.31,0,0,1-.09-.87V98a.92.92,0,0,0-.07-.4.42.42,0,0,0-.18-.17,1.16,1.16,0,0,0-.44,0v-.16h1.41v2.69a1,1,0,0,0,.2.74.67.67,0,0,0,.47.17,1,1,0,0,0,.43-.12,2.15,2.15,0,0,0,.57-.45V98a.65.65,0,0,0-.12-.46.81.81,0,0,0-.53-.13v-.16Z"/><path class="cls-7" d="M178.76,98.76a2.11,2.11,0,0,0,.44,1.41,1.33,1.33,0,0,0,1,.51,1.12,1.12,0,0,0,.69-.22,1.59,1.59,0,0,0,.49-.74l.13.08a2.14,2.14,0,0,1-.53,1.1,1.44,1.44,0,0,1-1.11.49,1.59,1.59,0,0,1-1.24-.56,2.14,2.14,0,0,1-.52-1.52,2.31,2.31,0,0,1,.53-1.61,1.73,1.73,0,0,1,1.33-.58,1.48,1.48,0,0,1,1.11.45,1.63,1.63,0,0,1,.43,1.19Zm0-.25h1.87a1.79,1.79,0,0,0-.1-.55.85.85,0,0,0-.32-.38.81.81,0,0,0-.46-.15.91.91,0,0,0-.65.29A1.28,1.28,0,0,0,178.76,98.51Zm2.1-3.35-1.3,1.52h-.15l.46-1.52Z"/><path class="cls-7" d="M182.76,98.76a2.05,2.05,0,0,0,.43,1.41,1.34,1.34,0,0,0,1,.51,1.07,1.07,0,0,0,.68-.22,1.52,1.52,0,0,0,.49-.74l.14.08a2.08,2.08,0,0,1-.54,1.1,1.41,1.41,0,0,1-1.11.49,1.6,1.6,0,0,1-1.24-.56,2.19,2.19,0,0,1-.52-1.52,2.31,2.31,0,0,1,.53-1.61,1.76,1.76,0,0,1,1.33-.58,1.48,1.48,0,0,1,1.11.45,1.63,1.63,0,0,1,.44,1.19Zm0-.25h1.86a1.58,1.58,0,0,0-.09-.55.81.81,0,0,0-.33-.38.78.78,0,0,0-.45-.15.93.93,0,0,0-.66.29A1.22,1.22,0,0,0,182.76,98.51Z"/><path class="cls-7" d="M161.43,204.89h-2.31l-.4.94a1.45,1.45,0,0,0-.15.52.3.3,0,0,0,.13.24,1.13,1.13,0,0,0,.56.13v.16h-1.88v-.16a1,1,0,0,0,.49-.17,2.69,2.69,0,0,0,.49-.86l2.1-4.9h.15l2.08,5a2.47,2.47,0,0,0,.45.78.91.91,0,0,0,.57.2v.16h-2.35v-.16a.82.82,0,0,0,.48-.12.3.3,0,0,0,.13-.24,1.83,1.83,0,0,0-.18-.62Zm-.12-.33-1-2.41-1,2.41Z"/><path class="cls-7" d="M165.17,205.42a1.41,1.41,0,0,1-.57-.51,1.33,1.33,0,0,1-.19-.71,1.38,1.38,0,0,1,.45-1,1.58,1.58,0,0,1,1.15-.43,1.75,1.75,0,0,1,1,.28h1.07s0,0,0,0a.22.22,0,0,1,0,.14.51.51,0,0,1,0,.16l0,0a.71.71,0,0,1-.22,0h-.52a1.29,1.29,0,0,1,.24.8,1.27,1.27,0,0,1-.43,1,1.64,1.64,0,0,1-1.15.4,2.15,2.15,0,0,1-.61-.09,1.35,1.35,0,0,0-.27.29.52.52,0,0,0-.06.21.21.21,0,0,0,.07.15.5.5,0,0,0,.28.1l.62,0q.9,0,1.17.06a1.08,1.08,0,0,1,.65.31.79.79,0,0,1,.25.6,1.28,1.28,0,0,1-.47.93,2.49,2.49,0,0,1-1.79.65,2.53,2.53,0,0,1-1.43-.39.59.59,0,0,1-.33-.45.54.54,0,0,1,0-.21,2.43,2.43,0,0,1,.31-.46l.45-.47a1.22,1.22,0,0,1-.33-.25.36.36,0,0,1-.09-.24.76.76,0,0,1,.12-.36A3.05,3.05,0,0,1,165.17,205.42Zm0,1.46a2,2,0,0,0-.31.42.78.78,0,0,0-.11.36.45.45,0,0,0,.25.37,2.47,2.47,0,0,0,1.27.27,2,2,0,0,0,1.17-.28.79.79,0,0,0,.38-.6.33.33,0,0,0-.23-.32,2.92,2.92,0,0,0-.9-.12A12.55,12.55,0,0,1,165.13,206.88Zm.81-3.93a.71.71,0,0,0-.55.26,1.18,1.18,0,0,0-.22.79,1.69,1.69,0,0,0,.3,1.08.72.72,0,0,0,.58.29.68.68,0,0,0,.55-.25,1.22,1.22,0,0,0,.21-.79,1.76,1.76,0,0,0-.3-1.09A.7.7,0,0,0,165.94,203Z"/><path class="cls-7" d="M170,202.74V206a1.4,1.4,0,0,0,.06.51.35.35,0,0,0,.16.18.87.87,0,0,0,.39.06v.16h-2v-.16a.88.88,0,0,0,.39-.05.34.34,0,0,0,.16-.19,1.44,1.44,0,0,0,.06-.51v-1.55a5.11,5.11,0,0,0,0-.85.37.37,0,0,0-.09-.19.28.28,0,0,0-.18-.06,1.05,1.05,0,0,0-.3.07l-.06-.16,1.21-.49Zm-.36-2.11a.44.44,0,0,1,.31.13.42.42,0,0,1,.13.32.4.4,0,0,1-.13.31.41.41,0,0,1-.31.14.45.45,0,0,1-.32-.14.4.4,0,0,1-.13-.31.42.42,0,0,1,.13-.32A.46.46,0,0,1,169.62,200.63Z"/><path class="cls-7" d="M172.26,201.53v1.33h.94v.31h-.94v2.61a.81.81,0,0,0,.12.52.35.35,0,0,0,.28.14.55.55,0,0,0,.29-.09.58.58,0,0,0,.21-.27h.17a1.32,1.32,0,0,1-.44.65.9.9,0,0,1-.58.22.82.82,0,0,1-.39-.11.69.69,0,0,1-.29-.32,1.76,1.76,0,0,1-.09-.65v-2.7h-.64V203a1.54,1.54,0,0,0,.5-.33,3.07,3.07,0,0,0,.45-.54c.06-.12.16-.32.28-.62Z"/><path class="cls-7" d="M175.88,206.3a8.41,8.41,0,0,1-.78.56,1.26,1.26,0,0,1-.51.11.89.89,0,0,1-.68-.29,1,1,0,0,1-.27-.75.92.92,0,0,1,.13-.51,1.72,1.72,0,0,1,.62-.56,9.49,9.49,0,0,1,1.49-.64v-.16a1.38,1.38,0,0,0-.19-.83.7.7,0,0,0-.56-.22.62.62,0,0,0-.44.15.45.45,0,0,0-.17.34v.25a.46.46,0,0,1-.1.32.37.37,0,0,1-.27.11.34.34,0,0,1-.27-.12.43.43,0,0,1-.1-.31.89.89,0,0,1,.39-.69,1.6,1.6,0,0,1,1.08-.32,1.89,1.89,0,0,1,.88.18.81.81,0,0,1,.38.43,2.15,2.15,0,0,1,.08.77v1.37c0,.38,0,.61,0,.7s0,.15.08.17a.16.16,0,0,0,.11,0,.28.28,0,0,0,.13,0,3.21,3.21,0,0,0,.35-.32v.24c-.33.44-.64.66-.94.66a.42.42,0,0,1-.34-.15A.76.76,0,0,1,175.88,206.3Zm0-.28v-1.54a7.24,7.24,0,0,0-.86.38,1.53,1.53,0,0,0-.5.4.79.79,0,0,0-.15.46.8.8,0,0,0,.19.53.58.58,0,0,0,.44.21A1.65,1.65,0,0,0,175.88,206Z"/><path class="cls-7" d="M178.76,201.53v1.33h.94v.31h-.94v2.61a.89.89,0,0,0,.11.52.37.37,0,0,0,.29.14.49.49,0,0,0,.28-.09.58.58,0,0,0,.21-.27h.17a1.31,1.31,0,0,1-.43.65.92.92,0,0,1-.58.22.83.83,0,0,1-.4-.11.67.67,0,0,1-.28-.32,1.55,1.55,0,0,1-.1-.65v-2.7h-.63V203a1.51,1.51,0,0,0,.49-.33,2.39,2.39,0,0,0,.45-.54,5.19,5.19,0,0,0,.28-.62Z"/><path class="cls-7" d="M180.77,204.37a2.05,2.05,0,0,0,.43,1.41,1.34,1.34,0,0,0,1,.51,1.07,1.07,0,0,0,.68-.22,1.52,1.52,0,0,0,.49-.74l.14.09a2,2,0,0,1-.54,1.09,1.42,1.42,0,0,1-1.11.5,1.61,1.61,0,0,1-1.24-.57,2.17,2.17,0,0,1-.52-1.52,2.31,2.31,0,0,1,.53-1.61,1.76,1.76,0,0,1,1.33-.58,1.48,1.48,0,0,1,1.11.45,1.65,1.65,0,0,1,.44,1.19Zm0-.25h1.86a1.58,1.58,0,0,0-.09-.55.81.81,0,0,0-.33-.38.77.77,0,0,0-.45-.14.92.92,0,0,0-.66.28A1.22,1.22,0,0,0,180.77,204.12Z"/><path class="cls-7" d="M187.61,202.86v2.44a5.9,5.9,0,0,0,0,.85.35.35,0,0,0,.1.22.27.27,0,0,0,.17.06.76.76,0,0,0,.31-.07l.06.15-1.2.5h-.2v-.86a3.8,3.8,0,0,1-.79.71,1.19,1.19,0,0,1-.58.15.91.91,0,0,1-.58-.2,1,1,0,0,1-.35-.5,3.24,3.24,0,0,1-.1-.87v-1.8a1,1,0,0,0-.06-.4.35.35,0,0,0-.18-.16,1.11,1.11,0,0,0-.44-.06v-.16h1.41v2.69a1,1,0,0,0,.2.74.67.67,0,0,0,.47.18,1,1,0,0,0,.43-.12,2.23,2.23,0,0,0,.57-.46v-2.28a.6.6,0,0,0-.13-.46.82.82,0,0,0-.52-.13v-.16Z"/><path class="cls-7" d="M189.76,202.74v.9c.34-.6.69-.9,1-.9a.57.57,0,0,1,.4.15.43.43,0,0,1,.16.34.4.4,0,0,1-.12.29.34.34,0,0,1-.27.12.53.53,0,0,1-.34-.16.6.6,0,0,0-.29-.15.26.26,0,0,0-.17.09,2.2,2.2,0,0,0-.41.59v1.93a1.14,1.14,0,0,0,.09.51.43.43,0,0,0,.2.2.94.94,0,0,0,.42.07v.16h-2.06v-.16a.89.89,0,0,0,.45-.09.36.36,0,0,0,.16-.23,2.86,2.86,0,0,0,0-.42v-1.56a6.22,6.22,0,0,0,0-.84.33.33,0,0,0-.11-.2.29.29,0,0,0-.19-.06.92.92,0,0,0-.3.07l0-.16,1.22-.49Z"/><path class="cls-7" d="M158.79,214.4c.29-.3.47-.47.52-.51a1.45,1.45,0,0,1,.43-.26,1.2,1.2,0,0,1,.45-.09,1,1,0,0,1,.65.22,1.07,1.07,0,0,1,.36.64,2.84,2.84,0,0,1,.77-.7,1.35,1.35,0,0,1,.64-.16,1,1,0,0,1,.57.16,1.09,1.09,0,0,1,.39.54,2.28,2.28,0,0,1,.1.8v1.73a1.47,1.47,0,0,0,.06.52.33.33,0,0,0,.16.17.91.91,0,0,0,.38.06v.16h-2v-.16h.08a.71.71,0,0,0,.41-.1.4.4,0,0,0,.14-.22,2.93,2.93,0,0,0,0-.43V215a1.41,1.41,0,0,0-.12-.69.59.59,0,0,0-.55-.28,1.19,1.19,0,0,0-.47.11,2.74,2.74,0,0,0-.57.44v2.15a1.67,1.67,0,0,0,.05.52.46.46,0,0,0,.17.17,1.15,1.15,0,0,0,.44.06v.16h-2v-.16a1,1,0,0,0,.46-.07.48.48,0,0,0,.18-.24,3.12,3.12,0,0,0,0-.44V215a1.29,1.29,0,0,0-.15-.71.64.64,0,0,0-.54-.28,1.08,1.08,0,0,0-.47.13,1.71,1.71,0,0,0-.56.44v2.15a1.39,1.39,0,0,0,.06.52.3.3,0,0,0,.16.17,1,1,0,0,0,.44.06v.16h-2v-.16a.87.87,0,0,0,.39-.06.37.37,0,0,0,.17-.18,1.44,1.44,0,0,0,.06-.51v-1.54a6.48,6.48,0,0,0,0-.85.34.34,0,0,0-.1-.2.24.24,0,0,0-.18-.06,1.05,1.05,0,0,0-.3.07l-.06-.16,1.21-.49h.19Z"/><path class="cls-7" d="M166.88,217.1a8.41,8.41,0,0,1-.78.56,1.26,1.26,0,0,1-.51.11.89.89,0,0,1-.68-.29,1,1,0,0,1-.27-.75.92.92,0,0,1,.13-.51,1.72,1.72,0,0,1,.62-.56,9.49,9.49,0,0,1,1.49-.64v-.16a1.38,1.38,0,0,0-.19-.83.7.7,0,0,0-.56-.22.62.62,0,0,0-.44.15.45.45,0,0,0-.17.34v.25a.46.46,0,0,1-.1.32.37.37,0,0,1-.27.11.34.34,0,0,1-.27-.12.43.43,0,0,1-.1-.31.89.89,0,0,1,.39-.69,1.6,1.6,0,0,1,1.08-.32,1.89,1.89,0,0,1,.88.18.81.81,0,0,1,.38.43,2.15,2.15,0,0,1,.08.77v1.37c0,.38,0,.61,0,.7a.27.27,0,0,0,.08.17.16.16,0,0,0,.11.05.28.28,0,0,0,.13,0,3.21,3.21,0,0,0,.35-.32v.24c-.33.44-.64.66-.94.66a.42.42,0,0,1-.34-.15A.76.76,0,0,1,166.88,217.1Zm0-.28v-1.54a7.24,7.24,0,0,0-.86.38,1.53,1.53,0,0,0-.5.4.79.79,0,0,0-.15.46.8.8,0,0,0,.19.53.58.58,0,0,0,.44.21A1.65,1.65,0,0,0,166.88,216.82Z"/><path class="cls-7" d="M169.67,216.21a1.27,1.27,0,0,1-.57-.5,1.33,1.33,0,0,1-.2-.71,1.38,1.38,0,0,1,.45-1,1.6,1.6,0,0,1,1.16-.43,1.72,1.72,0,0,1,1,.28h1.08a.08.08,0,0,1,0,0,.22.22,0,0,1,0,.14.3.3,0,0,1,0,.16s0,0,0,0a.76.76,0,0,1-.22,0h-.53a1.23,1.23,0,0,1,.25.8,1.27,1.27,0,0,1-.43,1,1.67,1.67,0,0,1-1.16.4,2.2,2.2,0,0,1-.61-.09,1.26,1.26,0,0,0-.26.29.57.57,0,0,0-.07.21.22.22,0,0,0,.08.15.47.47,0,0,0,.28.1l.61,0c.61,0,1,0,1.18.06a1.08,1.08,0,0,1,.65.31.81.81,0,0,1,.24.6,1.26,1.26,0,0,1-.46.93,2.8,2.8,0,0,1-3.22.26.59.59,0,0,1-.33-.45.47.47,0,0,1,0-.22,3.39,3.39,0,0,1,.3-.45l.45-.47a1.14,1.14,0,0,1-.32-.25.37.37,0,0,1-.1-.24.79.79,0,0,1,.13-.36A3,3,0,0,1,169.67,216.21Zm0,1.47a2.49,2.49,0,0,0-.31.42.76.76,0,0,0-.1.36.45.45,0,0,0,.25.37,2.45,2.45,0,0,0,1.27.27,2,2,0,0,0,1.17-.28.77.77,0,0,0,.37-.6.32.32,0,0,0-.22-.32,3,3,0,0,0-.91-.12A12.71,12.71,0,0,1,169.62,217.68Zm.81-3.93a.67.67,0,0,0-.54.26,1.18,1.18,0,0,0-.22.79,1.69,1.69,0,0,0,.3,1.08.71.71,0,0,0,.58.29.7.7,0,0,0,.55-.25,1.22,1.22,0,0,0,.21-.79A1.76,1.76,0,0,0,171,214,.71.71,0,0,0,170.43,213.75Z"/><path class="cls-7" d="M174.26,214.39a1.92,1.92,0,0,1,1.35-.85,1,1,0,0,1,.57.16,1.12,1.12,0,0,1,.38.55,2.61,2.61,0,0,1,.09.8v1.72a1.22,1.22,0,0,0,.07.52.35.35,0,0,0,.15.17.92.92,0,0,0,.4.06v.16h-2v-.16h.08a.68.68,0,0,0,.4-.08.48.48,0,0,0,.15-.25,2.86,2.86,0,0,0,0-.42v-1.64a1.73,1.73,0,0,0-.14-.8.51.51,0,0,0-.48-.25,1.47,1.47,0,0,0-1.05.57v2.12a1.59,1.59,0,0,0,.05.51.37.37,0,0,0,.17.18,1,1,0,0,0,.44.06v.16h-2v-.16H173a.48.48,0,0,0,.41-.15,1.17,1.17,0,0,0,.11-.6v-1.49a7,7,0,0,0,0-.88.41.41,0,0,0-.11-.22.24.24,0,0,0-.18-.06.93.93,0,0,0-.29.07l-.07-.16,1.21-.49h.19Z"/><path class="cls-7" d="M178.27,215.17a2.05,2.05,0,0,0,.43,1.41,1.34,1.34,0,0,0,1,.51,1.08,1.08,0,0,0,.69-.22,1.52,1.52,0,0,0,.49-.74l.14.08a2,2,0,0,1-.54,1.1,1.42,1.42,0,0,1-1.11.5,1.61,1.61,0,0,1-1.24-.57,2.14,2.14,0,0,1-.52-1.52,2.31,2.31,0,0,1,.53-1.61,1.76,1.76,0,0,1,1.33-.58,1.48,1.48,0,0,1,1.11.45,1.65,1.65,0,0,1,.44,1.19Zm0-.25h1.86a1.86,1.86,0,0,0-.09-.55.87.87,0,0,0-.33-.38.77.77,0,0,0-.45-.14.9.9,0,0,0-.66.28A1.22,1.22,0,0,0,178.27,214.92Zm2.09-3.35-1.29,1.52h-.15l.46-1.52Z"/><path class="cls-7" d="M182.75,212.33v1.33h.94v.3h-.94v2.62a.81.81,0,0,0,.12.52.35.35,0,0,0,.28.14.55.55,0,0,0,.29-.09.58.58,0,0,0,.21-.27h.17a1.39,1.39,0,0,1-.44.65.92.92,0,0,1-.58.22.82.82,0,0,1-.39-.11.69.69,0,0,1-.29-.32,1.76,1.76,0,0,1-.09-.65V214h-.64v-.14a1.54,1.54,0,0,0,.5-.33,3.07,3.07,0,0,0,.45-.54c.06-.12.16-.32.28-.62Z"/><path class="cls-7" d="M185.47,213.54v3.23a1.4,1.4,0,0,0,.06.51.4.4,0,0,0,.16.18.87.87,0,0,0,.39.06v.16h-2v-.16a.85.85,0,0,0,.39-.05.4.4,0,0,0,.17-.19,1.51,1.51,0,0,0,.05-.51v-1.55a7.35,7.35,0,0,0,0-.85.41.41,0,0,0-.1-.19.28.28,0,0,0-.18-.06,1.05,1.05,0,0,0-.3.07l-.06-.16,1.21-.49Zm-.36-2.11a.44.44,0,0,1,.31.13.42.42,0,0,1,.13.32.4.4,0,0,1-.13.31.41.41,0,0,1-.31.14.45.45,0,0,1-.32-.14.44.44,0,0,1-.13-.31.42.42,0,0,1,.13-.32A.46.46,0,0,1,185.11,211.43Z"/><path class="cls-7" d="M190.15,213.54v5.18a1.57,1.57,0,0,0,0,.49.35.35,0,0,0,.17.17,1,1,0,0,0,.43.06v.17h-2v-.17h.09a.74.74,0,0,0,.37-.07.3.3,0,0,0,.14-.17,1.31,1.31,0,0,0,0-.48V217a2.64,2.64,0,0,1-.69.65,1.2,1.2,0,0,1-.62.18,1.37,1.37,0,0,1-1.05-.54,2.12,2.12,0,0,1-.46-1.42,2.37,2.37,0,0,1,.61-1.67,1.92,1.92,0,0,1,1.46-.64,1.35,1.35,0,0,1,.46.07,1.17,1.17,0,0,1,.38.21,3.9,3.9,0,0,0,.49-.28Zm-.73,3.17v-1.89a1.23,1.23,0,0,0-.08-.52A.73.73,0,0,0,189,214a.9.9,0,0,0-.49-.13,1.1,1.1,0,0,0-.85.41,2,2,0,0,0-.35,1.27,1.84,1.84,0,0,0,.36,1.23,1.08,1.08,0,0,0,.86.43.85.85,0,0,0,.46-.12A1.2,1.2,0,0,0,189.42,216.71Z"/><path class="cls-7" d="M194.61,213.66v2.44a5.9,5.9,0,0,0,0,.85.41.41,0,0,0,.1.22.27.27,0,0,0,.17.06.76.76,0,0,0,.31-.07l.06.15-1.2.5h-.2V217a3.8,3.8,0,0,1-.79.71,1.17,1.17,0,0,1-.58.15.91.91,0,0,1-.58-.2,1,1,0,0,1-.35-.5,3.24,3.24,0,0,1-.1-.87v-1.8a1,1,0,0,0-.06-.4.35.35,0,0,0-.18-.16,1.11,1.11,0,0,0-.44-.06v-.16h1.41v2.69a1,1,0,0,0,.2.74.67.67,0,0,0,.47.18,1,1,0,0,0,.43-.12,2.23,2.23,0,0,0,.57-.46v-2.28a.6.6,0,0,0-.13-.46.82.82,0,0,0-.52-.13v-.16Z"/><path class="cls-7" d="M196.26,215.17a2.05,2.05,0,0,0,.44,1.41,1.31,1.31,0,0,0,1,.51,1.12,1.12,0,0,0,.69-.22,1.59,1.59,0,0,0,.49-.74l.13.08a2.1,2.1,0,0,1-.53,1.1,1.45,1.45,0,0,1-1.11.5,1.6,1.6,0,0,1-1.24-.57,2.14,2.14,0,0,1-.52-1.52,2.27,2.27,0,0,1,.53-1.61,1.73,1.73,0,0,1,1.33-.58,1.48,1.48,0,0,1,1.11.45,1.64,1.64,0,0,1,.43,1.19Zm0-.25h1.87a1.79,1.79,0,0,0-.1-.55.85.85,0,0,0-.32-.38.8.8,0,0,0-.46-.14.9.9,0,0,0-.65.28A1.23,1.23,0,0,0,196.26,214.92Z"/><path class="cls-7" d="M161.47,168.1a2,2,0,0,1,.93.42,1.32,1.32,0,0,1,.42,1,1.46,1.46,0,0,1-.28.85,1.53,1.53,0,0,1-.77.59,4.26,4.26,0,0,1-1.49.19h-2.82V171h.23a.58.58,0,0,0,.53-.24,1.34,1.34,0,0,0,.1-.66v-3.85a1.22,1.22,0,0,0-.12-.69.66.66,0,0,0-.51-.2h-.23v-.16H160a5.1,5.1,0,0,1,1.15.1,1.89,1.89,0,0,1,1,.57,1.35,1.35,0,0,1,.35.92,1.27,1.27,0,0,1-.27.8A1.65,1.65,0,0,1,161.47,168.1Zm-2.3-.24.37,0H160a2.37,2.37,0,0,0,1-.14,1,1,0,0,0,.5-.42,1.24,1.24,0,0,0,.17-.63,1.14,1.14,0,0,0-.43-.89,1.87,1.87,0,0,0-1.24-.37,3.16,3.16,0,0,0-.79.1Zm0,2.85a4.34,4.34,0,0,0,1,.12,1.81,1.81,0,0,0,1.22-.36,1.13,1.13,0,0,0,.42-.89,1.39,1.39,0,0,0-.19-.67,1.27,1.27,0,0,0-.62-.5,2.66,2.66,0,0,0-1.05-.19h-.47l-.31,0Z"/><path class="cls-7" d="M165.88,170.56a5.74,5.74,0,0,1-.78.55,1.1,1.1,0,0,1-.5.11.9.9,0,0,1-.69-.28,1.05,1.05,0,0,1-.27-.76,1,1,0,0,1,.13-.51,1.86,1.86,0,0,1,.63-.56,9.82,9.82,0,0,1,1.48-.64v-.16a1.35,1.35,0,0,0-.19-.82.71.71,0,0,0-.56-.23.63.63,0,0,0-.44.15.45.45,0,0,0-.16.34V168a.43.43,0,0,1-.1.31.37.37,0,0,1-.27.11.33.33,0,0,1-.26-.11.46.46,0,0,1-.11-.32.89.89,0,0,1,.39-.69,1.67,1.67,0,0,1,1.08-.32,1.89,1.89,0,0,1,.88.18.84.84,0,0,1,.38.43,2.19,2.19,0,0,1,.08.77v1.37a4.75,4.75,0,0,0,0,.71.25.25,0,0,0,.07.17.15.15,0,0,0,.11,0,.28.28,0,0,0,.13,0,2.38,2.38,0,0,0,.35-.32v.25c-.32.44-.64.66-.94.66a.43.43,0,0,1-.34-.15A.82.82,0,0,1,165.88,170.56Zm0-.29v-1.53a8.89,8.89,0,0,0-.86.37,1.39,1.39,0,0,0-.49.41.81.81,0,0,0,0,1,.59.59,0,0,0,.44.21A1.55,1.55,0,0,0,165.88,170.27Z"/><path class="cls-7" d="M168.77,167v.91c.34-.6.68-.91,1-.91a.57.57,0,0,1,.4.15.47.47,0,0,1,.16.34.38.38,0,0,1-.12.29.36.36,0,0,1-.27.12.61.61,0,0,1-.35-.15.54.54,0,0,0-.28-.15.26.26,0,0,0-.17.09,2,2,0,0,0-.41.59v1.93a1.26,1.26,0,0,0,.08.5.45.45,0,0,0,.21.2.87.87,0,0,0,.41.08v.16h-2.06V171a.81.81,0,0,0,.46-.1.36.36,0,0,0,.15-.22,1.67,1.67,0,0,0,0-.43v-1.56a6,6,0,0,0,0-.83.35.35,0,0,0-.11-.2.29.29,0,0,0-.19-.06,1,1,0,0,0-.31.06l0-.15,1.22-.5Z"/><path class="cls-7" d="M171.77,167v.91c.33-.6.68-.91,1-.91a.54.54,0,0,1,.4.15.44.44,0,0,1,.16.34.42.42,0,0,1-.11.29.37.37,0,0,1-.27.12.58.58,0,0,1-.35-.15.58.58,0,0,0-.28-.15.24.24,0,0,0-.17.09,1.87,1.87,0,0,0-.41.59v1.93a1.26,1.26,0,0,0,.08.5.48.48,0,0,0,.2.2,1,1,0,0,0,.42.08v.16h-2.06V171a.83.83,0,0,0,.46-.1.36.36,0,0,0,.15-.22,1.92,1.92,0,0,0,0-.43v-1.56a6,6,0,0,0,0-.83.34.34,0,0,0-.1-.2.31.31,0,0,0-.19-.06.94.94,0,0,0-.31.06l0-.15,1.21-.5Z"/><path class="cls-7" d="M174.26,168.63a2.11,2.11,0,0,0,.44,1.41,1.33,1.33,0,0,0,1,.51,1.16,1.16,0,0,0,.69-.22,1.69,1.69,0,0,0,.49-.75l.14.09a2.15,2.15,0,0,1-.54,1.1,1.44,1.44,0,0,1-1.11.49,1.62,1.62,0,0,1-1.24-.56,2.16,2.16,0,0,1-.52-1.52,2.3,2.3,0,0,1,.53-1.61,1.71,1.71,0,0,1,1.33-.58,1.48,1.48,0,0,1,1.11.45,1.62,1.62,0,0,1,.44,1.19Zm0-.26h1.87a1.71,1.71,0,0,0-.1-.54.94.94,0,0,0-.32-.39.88.88,0,0,0-.46-.14.91.91,0,0,0-.65.29A1.25,1.25,0,0,0,174.26,168.37Z"/><path class="cls-7" d="M179.86,170.56a5.74,5.74,0,0,1-.78.55,1,1,0,0,1-.5.11.9.9,0,0,1-.69-.28,1.05,1.05,0,0,1-.27-.76,1.07,1.07,0,0,1,.13-.51,1.86,1.86,0,0,1,.63-.56,10.32,10.32,0,0,1,1.48-.64v-.16a1.28,1.28,0,0,0-.19-.82.69.69,0,0,0-.55-.23.6.6,0,0,0-.44.15.43.43,0,0,0-.17.34V168a.43.43,0,0,1-.11.31.34.34,0,0,1-.27.11.36.36,0,0,1-.26-.11.46.46,0,0,1-.11-.32.89.89,0,0,1,.39-.69,1.69,1.69,0,0,1,1.09-.32,1.91,1.91,0,0,1,.88.18.89.89,0,0,1,.38.43,2.47,2.47,0,0,1,.08.77v1.37a5.42,5.42,0,0,0,0,.71.3.3,0,0,0,.07.17.17.17,0,0,0,.12,0,.21.21,0,0,0,.12,0,2.86,2.86,0,0,0,.36-.32v.25c-.33.44-.64.66-.94.66a.44.44,0,0,1-.35-.15A.9.9,0,0,1,179.86,170.56Zm0-.29v-1.53a7.38,7.38,0,0,0-.85.37,1.44,1.44,0,0,0-.5.41.77.77,0,0,0-.15.46.73.73,0,0,0,.19.52.56.56,0,0,0,.43.21A1.52,1.52,0,0,0,179.86,170.27Z"/><path class="cls-7" d="M185.1,167.11v2.44a6.08,6.08,0,0,0,0,.86.41.41,0,0,0,.1.21.23.23,0,0,0,.17.07.79.79,0,0,0,.31-.08l.06.15-1.2.5h-.2v-.85a4.13,4.13,0,0,1-.79.71,1.27,1.27,0,0,1-.58.14.9.9,0,0,1-.58-.19,1,1,0,0,1-.35-.51,3.14,3.14,0,0,1-.1-.87V167.9a.89.89,0,0,0-.06-.4.42.42,0,0,0-.18-.17,1,1,0,0,0-.44-.05v-.17h1.41v2.7a1,1,0,0,0,.2.74.71.71,0,0,0,.47.17,1,1,0,0,0,.43-.12,2.39,2.39,0,0,0,.57-.45v-2.28a.64.64,0,0,0-.13-.47.77.77,0,0,0-.52-.12v-.17Z"/><path class="cls-7" d="M159.88,181.36a7.48,7.48,0,0,1-.78.55,1.26,1.26,0,0,1-.51.11.92.92,0,0,1-.69-.28,1.1,1.1,0,0,1-.27-.76,1,1,0,0,1,.14-.51,1.92,1.92,0,0,1,.62-.56,10.05,10.05,0,0,1,1.49-.64v-.16a1.35,1.35,0,0,0-.19-.82.71.71,0,0,0-.56-.23.62.62,0,0,0-.44.15.47.47,0,0,0-.17.34v.26a.43.43,0,0,1-.1.31.39.39,0,0,1-.54,0,.46.46,0,0,1-.1-.32.89.89,0,0,1,.39-.69,1.64,1.64,0,0,1,1.08-.32,1.89,1.89,0,0,1,.88.18.89.89,0,0,1,.38.43,2.47,2.47,0,0,1,.08.77v1.37c0,.38,0,.62,0,.71a.3.3,0,0,0,.08.17.15.15,0,0,0,.11,0,.28.28,0,0,0,.13,0,2.38,2.38,0,0,0,.35-.32v.25c-.33.44-.64.66-.94.66a.42.42,0,0,1-.34-.15A.76.76,0,0,1,159.88,181.36Zm0-.29v-1.53a7.85,7.85,0,0,0-.86.37,1.54,1.54,0,0,0-.5.41.79.79,0,0,0,0,1,.58.58,0,0,0,.44.21A1.58,1.58,0,0,0,159.88,181.07Z"/><path class="cls-7" d="M163,177.79V181a1.7,1.7,0,0,0,.05.5.39.39,0,0,0,.17.19.87.87,0,0,0,.39.06v.16h-2v-.16a.89.89,0,0,0,.4-.06.38.38,0,0,0,.16-.19,1.34,1.34,0,0,0,.06-.5v-1.55a5,5,0,0,0,0-.85.34.34,0,0,0-.1-.2.3.3,0,0,0-.18-.05,1,1,0,0,0-.3.06l-.06-.15,1.22-.5Zm-.37-2.1a.42.42,0,0,1,.32.13.46.46,0,0,1,.13.31.46.46,0,0,1-.13.32.42.42,0,0,1-.32.13.42.42,0,0,1-.31-.13.42.42,0,0,1-.13-.32.45.45,0,0,1,.12-.31A.44.44,0,0,1,162.61,175.69Z"/><path class="cls-7" d="M165.29,178.65l.51-.5a1.5,1.5,0,0,1,.43-.26,1,1,0,0,1,.45-.1,1,1,0,0,1,.65.22,1.06,1.06,0,0,1,.37.64,2.94,2.94,0,0,1,.76-.69,1.36,1.36,0,0,1,.64-.17,1,1,0,0,1,.57.17,1.1,1.1,0,0,1,.4.54,2.57,2.57,0,0,1,.09.8V181a1.55,1.55,0,0,0,.06.52.35.35,0,0,0,.16.16.77.77,0,0,0,.39.07v.16h-2v-.16h.09a.68.68,0,0,0,.4-.1.39.39,0,0,0,.15-.23,3.7,3.7,0,0,0,0-.42V179.3a1.66,1.66,0,0,0-.11-.7.62.62,0,0,0-.55-.28,1,1,0,0,0-.47.12,2.48,2.48,0,0,0-.57.43V181a1.72,1.72,0,0,0,0,.51.37.37,0,0,0,.18.17.9.9,0,0,0,.43.07v.16h-2v-.16a1,1,0,0,0,.46-.08.4.4,0,0,0,.17-.24,1.92,1.92,0,0,0,0-.43V179.3a1.28,1.28,0,0,0-.14-.71.61.61,0,0,0-.54-.28.9.9,0,0,0-.47.13,1.6,1.6,0,0,0-.56.43V181a1.44,1.44,0,0,0,.05.51.4.4,0,0,0,.16.18,1,1,0,0,0,.44.06v.16h-2v-.16a.93.93,0,0,0,.39-.06.34.34,0,0,0,.16-.19,1.34,1.34,0,0,0,.06-.5v-1.54a5.18,5.18,0,0,0,0-.86.34.34,0,0,0-.1-.2.3.3,0,0,0-.18-.05.88.88,0,0,0-.29.06l-.07-.15,1.22-.5h.19Z"/><path class="cls-7" d="M173.37,181.36a5.74,5.74,0,0,1-.78.55,1.18,1.18,0,0,1-.5.11.9.9,0,0,1-.69-.28,1.05,1.05,0,0,1-.27-.76,1,1,0,0,1,.13-.51,1.86,1.86,0,0,1,.63-.56,10.32,10.32,0,0,1,1.48-.64v-.16a1.28,1.28,0,0,0-.19-.82.69.69,0,0,0-.56-.23.59.59,0,0,0-.43.15.43.43,0,0,0-.17.34v.26a.43.43,0,0,1-.11.31.37.37,0,0,1-.27.11.35.35,0,0,1-.26-.11.46.46,0,0,1-.11-.32.89.89,0,0,1,.39-.69,1.69,1.69,0,0,1,1.09-.32,1.91,1.91,0,0,1,.88.18.89.89,0,0,1,.38.43,2.47,2.47,0,0,1,.08.77v1.37a5.42,5.42,0,0,0,0,.71.3.3,0,0,0,.07.17.16.16,0,0,0,.12,0,.24.24,0,0,0,.12,0,2.86,2.86,0,0,0,.36-.32v.25c-.33.44-.64.66-.94.66a.44.44,0,0,1-.35-.15A.82.82,0,0,1,173.37,181.36Zm0-.29v-1.53a8.89,8.89,0,0,0-.86.37,1.49,1.49,0,0,0-.49.41.77.77,0,0,0-.15.46.73.73,0,0,0,.19.52.56.56,0,0,0,.43.21A1.52,1.52,0,0,0,173.37,181.07Z"/><path class="cls-7" d="M176.26,178.65a1.9,1.9,0,0,1,1.35-.86.93.93,0,0,1,.56.17,1.07,1.07,0,0,1,.38.54,2.38,2.38,0,0,1,.1.81V181a1.51,1.51,0,0,0,.06.52.33.33,0,0,0,.16.17.87.87,0,0,0,.39.06v.16h-2v-.16h.09a.64.64,0,0,0,.39-.09.41.41,0,0,0,.16-.25,3.37,3.37,0,0,0,0-.41v-1.65a1.63,1.63,0,0,0-.14-.8.51.51,0,0,0-.48-.25,1.45,1.45,0,0,0-1,.58V181a1.27,1.27,0,0,0,.05.5.35.35,0,0,0,.17.19,1,1,0,0,0,.43.06v.16h-2v-.16H175a.47.47,0,0,0,.42-.16,1.15,1.15,0,0,0,.1-.59v-1.5a7.15,7.15,0,0,0,0-.88.37.37,0,0,0-.1-.21.28.28,0,0,0-.18-.06,1,1,0,0,0-.3.06l-.06-.15,1.21-.5h.19Z"/><path class="cls-7" d="M180.75,176.59v1.32h.94v.31h-.94v2.61a.84.84,0,0,0,.12.53.34.34,0,0,0,.28.13.55.55,0,0,0,.29-.09.55.55,0,0,0,.21-.26h.17a1.37,1.37,0,0,1-.44.65.94.94,0,0,1-.58.21.72.72,0,0,1-.39-.11.65.65,0,0,1-.29-.32,1.7,1.7,0,0,1-.09-.64v-2.71h-.64v-.14a2,2,0,0,0,.5-.33,3.08,3.08,0,0,0,.45-.55,5.78,5.78,0,0,0,.28-.61Z"/><path class="cls-7" d="M182.76,179.43a2.05,2.05,0,0,0,.44,1.41,1.33,1.33,0,0,0,1,.5,1.17,1.17,0,0,0,.69-.21,1.69,1.69,0,0,0,.49-.75l.13.09a2.14,2.14,0,0,1-.53,1.1,1.44,1.44,0,0,1-1.11.49,1.62,1.62,0,0,1-1.24-.56,2.16,2.16,0,0,1-.52-1.52,2.25,2.25,0,0,1,.53-1.61,1.7,1.7,0,0,1,1.33-.58,1.48,1.48,0,0,1,1.11.45,1.61,1.61,0,0,1,.43,1.19Zm0-.26h1.87a1.71,1.71,0,0,0-.1-.54.85.85,0,0,0-.78-.53.91.91,0,0,0-.65.29A1.2,1.2,0,0,0,182.76,179.17Zm2.1-3.34-1.3,1.52h-.15l.46-1.52Z"/><path class="cls-7" d="M161.44,141.9V144h-.16A2.61,2.61,0,0,0,161,143a1.42,1.42,0,0,0-.58-.56,1.58,1.58,0,0,0-.78-.21,1.05,1.05,0,0,0-.76.28.86.86,0,0,0-.3.64.77.77,0,0,0,.19.49,5.19,5.19,0,0,0,1.3.88,8.49,8.49,0,0,1,1.14.69,1.78,1.78,0,0,1,.47.56,1.52,1.52,0,0,1,.17.68,1.55,1.55,0,0,1-.53,1.17,1.89,1.89,0,0,1-1.35.49,2.56,2.56,0,0,1-.49,0,4.26,4.26,0,0,1-.56-.16,2.77,2.77,0,0,0-.55-.14.21.21,0,0,0-.17.07.52.52,0,0,0-.09.27h-.17v-2h.17a2.71,2.71,0,0,0,.3,1,1.53,1.53,0,0,0,.59.53,1.87,1.87,0,0,0,.88.21,1.24,1.24,0,0,0,.86-.29.88.88,0,0,0,.32-.69.94.94,0,0,0-.12-.44,1.3,1.3,0,0,0-.37-.42c-.12-.09-.43-.27-.94-.56a8.87,8.87,0,0,1-1.09-.68,2,2,0,0,1-.49-.56,1.45,1.45,0,0,1-.16-.68,1.47,1.47,0,0,1,.49-1.11,1.74,1.74,0,0,1,1.25-.46,2.62,2.62,0,0,1,1,.23.89.89,0,0,0,.34.11.25.25,0,0,0,.19-.07.48.48,0,0,0,.12-.27Z"/><path class="cls-7" d="M164.57,143.85a1.77,1.77,0,0,1,1.47.7,2.12,2.12,0,0,1,.47,1.36,2.6,2.6,0,0,1-.26,1.09,1.85,1.85,0,0,1-1.73,1.12,1.7,1.7,0,0,1-1.45-.73,2.23,2.23,0,0,1-.45-1.37,2.36,2.36,0,0,1,.28-1.1,1.91,1.91,0,0,1,.72-.81A1.89,1.89,0,0,1,164.57,143.85Zm-.14.29a.88.88,0,0,0-.47.14,1,1,0,0,0-.38.48,2.48,2.48,0,0,0-.14.89,3.16,3.16,0,0,0,.35,1.52,1,1,0,0,0,.92.64.85.85,0,0,0,.7-.36,1.92,1.92,0,0,0,.28-1.2,2.74,2.74,0,0,0-.46-1.69A1,1,0,0,0,164.43,144.14Z"/><path class="cls-7" d="M168.48,141.75v5.34a1.37,1.37,0,0,0,.06.5.37.37,0,0,0,.17.18.83.83,0,0,0,.42.07V148h-2v-.15a.82.82,0,0,0,.38-.06.38.38,0,0,0,.16-.19,1.48,1.48,0,0,0,.05-.5v-3.66a6.55,6.55,0,0,0,0-.84.41.41,0,0,0-.09-.21.28.28,0,0,0-.18-.06.79.79,0,0,0-.29.07l-.07-.15,1.2-.49Z"/><path class="cls-7" d="M173.13,144v2.44a6.65,6.65,0,0,0,0,.85.35.35,0,0,0,.11.22.25.25,0,0,0,.17.06.72.72,0,0,0,.3-.07l.07.15-1.21.5h-.2v-.85a3.44,3.44,0,0,1-.79.7,1.16,1.16,0,0,1-.57.15.94.94,0,0,1-.59-.2,1,1,0,0,1-.34-.5,2.88,2.88,0,0,1-.1-.87v-1.8a.87.87,0,0,0-.06-.39.37.37,0,0,0-.18-.17,1.15,1.15,0,0,0-.44-.06V144h1.41v2.69a1,1,0,0,0,.19.74.68.68,0,0,0,.48.18.93.93,0,0,0,.42-.12,2.39,2.39,0,0,0,.57-.45v-2.28a.68.68,0,0,0-.12-.47.84.84,0,0,0-.52-.13V144Z"/><path class="cls-7" d="M175.27,142.65V144h.94v.31h-.94v2.61a.89.89,0,0,0,.11.52.34.34,0,0,0,.29.14.49.49,0,0,0,.28-.09.58.58,0,0,0,.21-.27h.17a1.31,1.31,0,0,1-.43.65.92.92,0,0,1-.58.22.83.83,0,0,1-.4-.11.67.67,0,0,1-.28-.32,1.73,1.73,0,0,1-.1-.65v-2.7h-.63v-.15a1.51,1.51,0,0,0,.49-.33,2.39,2.39,0,0,0,.45-.54,4.86,4.86,0,0,0,.28-.61Z"/><path class="cls-7" d="M178,143.85v3.24a1.75,1.75,0,0,0,0,.5.52.52,0,0,0,.17.19.87.87,0,0,0,.39.06V148h-1.95v-.15a.87.87,0,0,0,.39-.06.38.38,0,0,0,.16-.19,1.41,1.41,0,0,0,.06-.5v-1.56a4.88,4.88,0,0,0,0-.84.32.32,0,0,0-.1-.2.24.24,0,0,0-.18-.05.88.88,0,0,0-.29.06l-.07-.16,1.22-.49Zm-.37-2.1a.42.42,0,0,1,.32.13.4.4,0,0,1,.13.31.44.44,0,0,1-.13.32.46.46,0,0,1-.32.13.46.46,0,0,1-.31-.13.44.44,0,0,1-.13-.32.44.44,0,0,1,.44-.44Z"/><path class="cls-7" d="M181.07,143.85a1.77,1.77,0,0,1,1.47.7,2.12,2.12,0,0,1,.47,1.36,2.6,2.6,0,0,1-.26,1.09,1.91,1.91,0,0,1-.71.84,2,2,0,0,1-1,.28,1.68,1.68,0,0,1-1.44-.73,2.18,2.18,0,0,1-.46-1.37,2.36,2.36,0,0,1,.28-1.1,1.82,1.82,0,0,1,1.67-1.07Zm-.14.29a.82.82,0,0,0-.46.14.9.9,0,0,0-.38.48,2.26,2.26,0,0,0-.15.89,3.16,3.16,0,0,0,.35,1.52,1,1,0,0,0,.92.64.83.83,0,0,0,.7-.36,1.92,1.92,0,0,0,.28-1.2,2.74,2.74,0,0,0-.46-1.69A1,1,0,0,0,180.93,144.14Z"/><path class="cls-7" d="M184.77,144.7a1.92,1.92,0,0,1,1.35-.85,1,1,0,0,1,.57.17,1.07,1.07,0,0,1,.38.54,2.58,2.58,0,0,1,.1.81v1.72a1.44,1.44,0,0,0,.06.51.38.38,0,0,0,.15.18.92.92,0,0,0,.4.06V148h-2v-.15h.08a.67.67,0,0,0,.4-.09.48.48,0,0,0,.15-.25,2.68,2.68,0,0,0,0-.41v-1.65a1.76,1.76,0,0,0-.14-.8.51.51,0,0,0-.48-.25,1.47,1.47,0,0,0-1,.57v2.13a1.51,1.51,0,0,0,0,.5.4.4,0,0,0,.17.19,1,1,0,0,0,.44.06V148h-2v-.15h.09a.48.48,0,0,0,.41-.16,1.13,1.13,0,0,0,.11-.59v-1.5a7,7,0,0,0,0-.88.41.41,0,0,0-.1-.22.29.29,0,0,0-.19-.05.88.88,0,0,0-.29.06l-.07-.16,1.22-.49h.18Z"/><path class="cls-7" d="M191.52,142.65V144h.94v.31h-.94v2.61a.89.89,0,0,0,.11.52.34.34,0,0,0,.29.14.49.49,0,0,0,.28-.09.58.58,0,0,0,.21-.27h.17a1.31,1.31,0,0,1-.43.65.92.92,0,0,1-.58.22.83.83,0,0,1-.4-.11.67.67,0,0,1-.28-.32,1.76,1.76,0,0,1-.09-.65v-2.7h-.64v-.15a1.51,1.51,0,0,0,.49-.33,2.39,2.39,0,0,0,.45-.54,4.86,4.86,0,0,0,.28-.61Z"/><path class="cls-7" d="M194.24,143.85v3.24a1.37,1.37,0,0,0,.06.5.42.42,0,0,0,.16.19.87.87,0,0,0,.39.06V148H192.9v-.15a.87.87,0,0,0,.39-.06.38.38,0,0,0,.16-.19,1.41,1.41,0,0,0,.06-.5v-1.56a4.88,4.88,0,0,0,0-.84.32.32,0,0,0-.1-.2.24.24,0,0,0-.18-.05.88.88,0,0,0-.29.06l-.07-.16,1.22-.49Zm-.36-2.1a.42.42,0,0,1,.31.13.4.4,0,0,1,.13.31.44.44,0,0,1-.13.32.46.46,0,0,1-.31.13.46.46,0,0,1-.32-.13.44.44,0,0,1-.13-.32.4.4,0,0,1,.13-.31A.41.41,0,0,1,193.88,141.75Z"/><path class="cls-7" d="M196.52,142.65V144h.94v.31h-.94v2.61a.89.89,0,0,0,.11.52.34.34,0,0,0,.29.14.49.49,0,0,0,.28-.09.58.58,0,0,0,.21-.27h.17a1.31,1.31,0,0,1-.43.65.92.92,0,0,1-.58.22.86.86,0,0,1-.4-.11.73.73,0,0,1-.28-.32,1.76,1.76,0,0,1-.09-.65v-2.7h-.64v-.15a1.51,1.51,0,0,0,.49-.33,2.39,2.39,0,0,0,.45-.54,4.54,4.54,0,0,0,.29-.61Z"/><path class="cls-7" d="M199,143.85v.91c.34-.61.68-.91,1-.91a.57.57,0,0,1,.4.15.47.47,0,0,1,.16.34.4.4,0,0,1-.12.29.36.36,0,0,1-.27.12.61.61,0,0,1-.35-.15.51.51,0,0,0-.28-.16.26.26,0,0,0-.17.09,2.12,2.12,0,0,0-.41.6v1.92a1.29,1.29,0,0,0,.08.51.51.51,0,0,0,.21.2.87.87,0,0,0,.41.08V148h-2.06v-.15a.9.9,0,0,0,.46-.1.4.4,0,0,0,.15-.22,1.73,1.73,0,0,0,0-.43v-1.56a6.22,6.22,0,0,0,0-.84.32.32,0,0,0-.11-.19.29.29,0,0,0-.19-.06,1,1,0,0,0-.31.06l0-.16,1.22-.49Z"/><path class="cls-7" d="M201.53,145.49a2,2,0,0,0,.43,1.4,1.33,1.33,0,0,0,1,.51,1.08,1.08,0,0,0,.69-.22,1.52,1.52,0,0,0,.49-.74l.14.09a2,2,0,0,1-.54,1.09,1.42,1.42,0,0,1-1.11.5,1.61,1.61,0,0,1-1.24-.57,2.13,2.13,0,0,1-.52-1.52,2.33,2.33,0,0,1,.53-1.61,1.75,1.75,0,0,1,1.33-.57,1.51,1.51,0,0,1,1.11.44,1.66,1.66,0,0,1,.44,1.2Zm0-.26h1.86a1.72,1.72,0,0,0-.09-.54.88.88,0,0,0-.78-.53.9.9,0,0,0-.66.28A1.22,1.22,0,0,0,201.53,145.23Zm2.09-3.34-1.29,1.51h-.15l.46-1.51Z"/><path class="cls-7" d="M205.52,145.49a2,2,0,0,0,.44,1.4,1.31,1.31,0,0,0,1,.51,1.12,1.12,0,0,0,.69-.22,1.59,1.59,0,0,0,.49-.74l.13.09a2.11,2.11,0,0,1-.53,1.09,1.45,1.45,0,0,1-1.11.5,1.63,1.63,0,0,1-1.25-.57,2.17,2.17,0,0,1-.51-1.52,2.28,2.28,0,0,1,.53-1.61,1.72,1.72,0,0,1,1.33-.57,1.51,1.51,0,0,1,1.11.44,1.65,1.65,0,0,1,.43,1.2Zm0-.26h1.86a1.47,1.47,0,0,0-.09-.54.79.79,0,0,0-.33-.39.82.82,0,0,0-.45-.14.9.9,0,0,0-.65.28A1.23,1.23,0,0,0,205.52,145.23Z"/><path class="cls-7" d="M161.44,19v2.06h-.16a2.48,2.48,0,0,0-.29-.95,1.4,1.4,0,0,0-.58-.55,1.58,1.58,0,0,0-.78-.21,1.07,1.07,0,0,0-.76.28.83.83,0,0,0-.29.63.79.79,0,0,0,.18.5,5.19,5.19,0,0,0,1.3.88,8.49,8.49,0,0,1,1.14.69,1.68,1.68,0,0,1,.47.56,1.49,1.49,0,0,1,.17.68,1.56,1.56,0,0,1-.53,1.17,1.89,1.89,0,0,1-1.35.49,2.56,2.56,0,0,1-.49,0l-.56-.16a2.77,2.77,0,0,0-.55-.14.21.21,0,0,0-.17.07.52.52,0,0,0-.09.27h-.17v-2h.17a2.86,2.86,0,0,0,.3,1,1.61,1.61,0,0,0,.59.53,1.87,1.87,0,0,0,.88.21,1.24,1.24,0,0,0,.86-.29.9.9,0,0,0,.32-.69.91.91,0,0,0-.12-.44,1.3,1.3,0,0,0-.37-.42,10,10,0,0,0-.94-.56,10.31,10.31,0,0,1-1.09-.68,1.87,1.87,0,0,1-.49-.57,1.38,1.38,0,0,1-.16-.67,1.47,1.47,0,0,1,.49-1.11,1.74,1.74,0,0,1,1.25-.46,2.62,2.62,0,0,1,1,.23,1.12,1.12,0,0,0,.34.11.25.25,0,0,0,.19-.07.48.48,0,0,0,.12-.27Z"/><path class="cls-7" d="M164.57,20.94a1.79,1.79,0,0,1,1.47.69,2.17,2.17,0,0,1,.47,1.37,2.6,2.6,0,0,1-.26,1.09,1.79,1.79,0,0,1-.72.83,1.86,1.86,0,0,1-1,.29,1.69,1.69,0,0,1-1.44-.73,2.2,2.2,0,0,1-.46-1.37,2.34,2.34,0,0,1,.28-1.1,1.8,1.8,0,0,1,.72-.81A1.91,1.91,0,0,1,164.57,20.94Zm-.14.28a1,1,0,0,0-.47.14,1,1,0,0,0-.38.49,2.48,2.48,0,0,0-.14.89,3.16,3.16,0,0,0,.35,1.52,1,1,0,0,0,.92.63.84.84,0,0,0,.7-.35,2,2,0,0,0,.28-1.21,2.72,2.72,0,0,0-.46-1.68A.94.94,0,0,0,164.43,21.22Z"/><path class="cls-7" d="M168.48,18.83v5.34a1.34,1.34,0,0,0,.06.5.35.35,0,0,0,.17.19,1.05,1.05,0,0,0,.43.06v.16h-2v-.16a.85.85,0,0,0,.38-.05.38.38,0,0,0,.16-.19,1.44,1.44,0,0,0,.06-.51V20.52a4.51,4.51,0,0,0,0-.84.37.37,0,0,0-.09-.21.28.28,0,0,0-.18-.06.79.79,0,0,0-.29.07l-.07-.15,1.2-.5Z"/><path class="cls-7" d="M173.13,21.06V23.5a6.65,6.65,0,0,0,0,.85.41.41,0,0,0,.11.22.25.25,0,0,0,.17.06.8.8,0,0,0,.31-.07l.06.15-1.21.5h-.2v-.86a3.35,3.35,0,0,1-.79.71,1.16,1.16,0,0,1-.57.15.94.94,0,0,1-.59-.2,1,1,0,0,1-.34-.5,2.88,2.88,0,0,1-.1-.87v-1.8a1,1,0,0,0-.06-.4.35.35,0,0,0-.18-.16,1,1,0,0,0-.44-.06v-.16h1.41v2.69a1,1,0,0,0,.2.74.64.64,0,0,0,.47.18,1,1,0,0,0,.43-.12,2.06,2.06,0,0,0,.56-.46V21.81a.65.65,0,0,0-.12-.46.84.84,0,0,0-.52-.13v-.16Z"/><path class="cls-7" d="M175.27,19.73v1.33h.94v.3h-.94V24a.89.89,0,0,0,.11.52.37.37,0,0,0,.29.14.49.49,0,0,0,.28-.09.58.58,0,0,0,.21-.27h.17a1.31,1.31,0,0,1-.43.65.92.92,0,0,1-.58.22.83.83,0,0,1-.4-.11.67.67,0,0,1-.28-.32,1.73,1.73,0,0,1-.1-.65V21.36h-.63v-.14a1.51,1.51,0,0,0,.49-.33,2.39,2.39,0,0,0,.45-.54,5.19,5.19,0,0,0,.28-.62Z"/><path class="cls-7" d="M178,20.94v3.23a1.83,1.83,0,0,0,0,.51.42.42,0,0,0,.17.18.87.87,0,0,0,.39.06v.16h-1.95v-.16a.91.91,0,0,0,.39-.05.38.38,0,0,0,.16-.19,1.44,1.44,0,0,0,.06-.51V22.62a5.11,5.11,0,0,0,0-.85.29.29,0,0,0-.1-.19.24.24,0,0,0-.18-.06.93.93,0,0,0-.29.07l-.07-.16,1.22-.49Zm-.36-2.11a.46.46,0,0,1,.31.13.42.42,0,0,1,.13.32.4.4,0,0,1-.13.31.43.43,0,0,1-.31.14.43.43,0,0,1-.32-.14.4.4,0,0,1-.13-.31.42.42,0,0,1,.13-.32A.44.44,0,0,1,177.63,18.83Z"/><path class="cls-7" d="M181.07,20.94a1.79,1.79,0,0,1,1.47.69A2.17,2.17,0,0,1,183,23a2.6,2.6,0,0,1-.26,1.09,1.83,1.83,0,0,1-.71.83,1.92,1.92,0,0,1-1,.29,1.71,1.71,0,0,1-1.44-.73,2.2,2.2,0,0,1-.46-1.37,2.46,2.46,0,0,1,.28-1.1,1.8,1.8,0,0,1,.72-.81A1.91,1.91,0,0,1,181.07,20.94Zm-.14.28a.91.91,0,0,0-.46.14.93.93,0,0,0-.38.49,2.26,2.26,0,0,0-.15.89,3.16,3.16,0,0,0,.35,1.52,1,1,0,0,0,.92.63.82.82,0,0,0,.7-.35,2,2,0,0,0,.28-1.21,2.72,2.72,0,0,0-.46-1.68A.94.94,0,0,0,180.93,21.22Z"/><path class="cls-7" d="M184.78,21.79a1.89,1.89,0,0,1,1.34-.85,1,1,0,0,1,.57.16,1.06,1.06,0,0,1,.38.55,2.55,2.55,0,0,1,.1.8v1.72a1.47,1.47,0,0,0,.06.52.35.35,0,0,0,.15.17,1,1,0,0,0,.4.06v.16h-2v-.16h.08a.68.68,0,0,0,.4-.08.48.48,0,0,0,.15-.25,1.86,1.86,0,0,0,0-.42V22.53a1.73,1.73,0,0,0-.14-.8.51.51,0,0,0-.48-.25,1.44,1.44,0,0,0-1,.57v2.12a1.72,1.72,0,0,0,0,.51.37.37,0,0,0,.17.18,1,1,0,0,0,.44.06v.16h-2v-.16h.09a.48.48,0,0,0,.41-.15,1.17,1.17,0,0,0,.11-.6V22.68a7,7,0,0,0,0-.88.41.41,0,0,0-.1-.22.29.29,0,0,0-.19-.06.93.93,0,0,0-.29.07l-.07-.16,1.22-.49h.19Z"/><path class="cls-7" d="M158.76,30.53v1.33h.94v.3h-.94v2.62a.81.81,0,0,0,.12.52.35.35,0,0,0,.28.14.55.55,0,0,0,.29-.09.58.58,0,0,0,.21-.27h.17a1.32,1.32,0,0,1-.44.65.9.9,0,0,1-.58.22.82.82,0,0,1-.39-.11.74.74,0,0,1-.29-.32,1.76,1.76,0,0,1-.09-.65V32.16h-.64V32a1.54,1.54,0,0,0,.5-.33,3.07,3.07,0,0,0,.45-.54c.06-.12.16-.32.28-.62Z"/><path class="cls-7" d="M161.48,31.74V35a1.44,1.44,0,0,0,.06.51.4.4,0,0,0,.16.18.89.89,0,0,0,.4.06v.16h-2v-.16a.93.93,0,0,0,.4,0,.44.44,0,0,0,.16-.19,1.51,1.51,0,0,0,.05-.51V33.42a7.23,7.23,0,0,0,0-.85.41.41,0,0,0-.1-.19.28.28,0,0,0-.18-.06.79.79,0,0,0-.3.07l-.06-.16,1.21-.49Zm-.36-2.11a.44.44,0,0,1,.31.13.42.42,0,0,1,.13.32.4.4,0,0,1-.13.31.41.41,0,0,1-.31.14.45.45,0,0,1-.32-.14.44.44,0,0,1-.13-.31.42.42,0,0,1,.13-.32A.46.46,0,0,1,161.12,29.63Z"/><path class="cls-7" d="M163.77,30.53v1.33h.94v.3h-.94v2.62a.82.82,0,0,0,.11.52.36.36,0,0,0,.29.14.51.51,0,0,0,.28-.09.58.58,0,0,0,.21-.27h.17a1.32,1.32,0,0,1-.44.65.9.9,0,0,1-.58.22.82.82,0,0,1-.39-.11.74.74,0,0,1-.29-.32,1.76,1.76,0,0,1-.09-.65V32.16h-.64V32a1.54,1.54,0,0,0,.5-.33,2.39,2.39,0,0,0,.45-.54,5.19,5.19,0,0,0,.28-.62Z"/><path class="cls-7" d="M166.27,31.74v.9c.34-.6.69-.9,1-.9a.55.55,0,0,1,.4.15.43.43,0,0,1,.16.34.44.44,0,0,1-.11.29.37.37,0,0,1-.28.11.58.58,0,0,1-.34-.15.56.56,0,0,0-.29-.15.26.26,0,0,0-.17.09,2.45,2.45,0,0,0-.41.59v1.93a1.16,1.16,0,0,0,.09.51.48.48,0,0,0,.2.2,1,1,0,0,0,.42.07v.16h-2.06v-.16a.89.89,0,0,0,.45-.09.36.36,0,0,0,.16-.23,2.86,2.86,0,0,0,0-.42V33.42a6.22,6.22,0,0,0,0-.84.38.38,0,0,0-.1-.2.34.34,0,0,0-.2-.06.72.72,0,0,0-.3.07l0-.16,1.22-.49Z"/><path class="cls-7" d="M170.37,35.3a7.52,7.52,0,0,1-.77.56,1.26,1.26,0,0,1-.51.11.91.91,0,0,1-.69-.29,1,1,0,0,1-.27-.75.93.93,0,0,1,.14-.51,1.64,1.64,0,0,1,.62-.56,10.1,10.1,0,0,1,1.48-.65v-.15a1.31,1.31,0,0,0-.19-.83.67.67,0,0,0-.55-.22.62.62,0,0,0-.44.15.45.45,0,0,0-.17.34v.25a.46.46,0,0,1-.1.32.37.37,0,0,1-.27.11.34.34,0,0,1-.27-.12.45.45,0,0,1-.1-.31.94.94,0,0,1,.38-.7,1.68,1.68,0,0,1,1.09-.31,1.89,1.89,0,0,1,.88.18.82.82,0,0,1,.38.42,2.55,2.55,0,0,1,.08.78v1.36c0,.39,0,.62,0,.71a.34.34,0,0,0,.07.17.21.21,0,0,0,.12,0,.21.21,0,0,0,.12,0,3,3,0,0,0,.36-.32v.24c-.33.44-.64.66-.94.66a.42.42,0,0,1-.34-.15A.82.82,0,0,1,170.37,35.3Zm0-.28V33.48a7.65,7.65,0,0,0-.85.38,1.53,1.53,0,0,0-.5.4.79.79,0,0,0-.15.46.75.75,0,0,0,.19.53.58.58,0,0,0,.44.21A1.6,1.6,0,0,0,170.37,35Z"/><path class="cls-7" d="M173.26,32.59a1.88,1.88,0,0,1,1.35-.85,1,1,0,0,1,.57.16,1.12,1.12,0,0,1,.38.55,2.61,2.61,0,0,1,.09.8V35a1.47,1.47,0,0,0,.06.52.44.44,0,0,0,.16.17.89.89,0,0,0,.4.06v.16h-2v-.16h.08a.63.63,0,0,0,.39-.08.44.44,0,0,0,.16-.25,2.86,2.86,0,0,0,0-.42V33.32a1.57,1.57,0,0,0-.15-.79.49.49,0,0,0-.48-.25,1.45,1.45,0,0,0-1,.57V35a1.59,1.59,0,0,0,.05.51.37.37,0,0,0,.17.18,1,1,0,0,0,.44.06v.16h-2v-.16H172a.48.48,0,0,0,.42-.15,1.17,1.17,0,0,0,.11-.6V33.48a4.92,4.92,0,0,0,0-.88.35.35,0,0,0-.1-.22.24.24,0,0,0-.18-.06.71.71,0,0,0-.29.07l-.07-.16,1.21-.49h.19Z"/><path class="cls-7" d="M177.76,30.53v1.33h.94v.3h-.94v2.62a.82.82,0,0,0,.11.52.36.36,0,0,0,.29.14.51.51,0,0,0,.28-.09.58.58,0,0,0,.21-.27h.17a1.37,1.37,0,0,1-.43.65.94.94,0,0,1-.58.22.83.83,0,0,1-.4-.11.81.81,0,0,1-.29-.32,1.76,1.76,0,0,1-.09-.65V32.16h-.63V32a1.51,1.51,0,0,0,.49-.33,2.39,2.39,0,0,0,.45-.54,5.19,5.19,0,0,0,.28-.62Z"/><path class="cls-7" d="M179.77,33.37a2.05,2.05,0,0,0,.43,1.41,1.33,1.33,0,0,0,1,.51,1.08,1.08,0,0,0,.69-.22,1.52,1.52,0,0,0,.49-.74l.14.08a2,2,0,0,1-.54,1.1,1.43,1.43,0,0,1-1.11.5,1.61,1.61,0,0,1-1.24-.57,2.14,2.14,0,0,1-.52-1.52,2.31,2.31,0,0,1,.53-1.61,1.75,1.75,0,0,1,1.33-.58,1.48,1.48,0,0,1,1.11.45,1.65,1.65,0,0,1,.44,1.19Zm0-.25h1.86a2.27,2.27,0,0,0-.09-.55.94.94,0,0,0-.33-.38.8.8,0,0,0-.46-.14.9.9,0,0,0-.65.28A1.22,1.22,0,0,0,179.77,33.12Z"/><path class="cls-7" d="M159.16,53.67V55.4a1.23,1.23,0,0,0,.12.7.63.63,0,0,0,.51.19H160v.17h-2.56v-.17h.23a.61.61,0,0,0,.54-.24,1.44,1.44,0,0,0,.09-.65V51.55a1.26,1.26,0,0,0-.12-.7.66.66,0,0,0-.51-.19h-.23V50.5h2.19a3.9,3.9,0,0,1,1.26.16,1.74,1.74,0,0,1,.78.56,1.42,1.42,0,0,1,.31.92,1.56,1.56,0,0,1-.48,1.19,1.87,1.87,0,0,1-1.36.46l-.46,0Zm0-.26a3.92,3.92,0,0,0,.41.07,1.78,1.78,0,0,0,.31,0,1.07,1.07,0,0,0,.79-.35,1.3,1.3,0,0,0,.33-.92,1.61,1.61,0,0,0-.16-.72,1,1,0,0,0-.45-.49,1.3,1.3,0,0,0-.66-.17,2.42,2.42,0,0,0-.57.09Z"/><path class="cls-7" d="M164,52.31v3.24a1.7,1.7,0,0,0,0,.5.44.44,0,0,0,.17.19.87.87,0,0,0,.39.06v.16h-2V56.3a.89.89,0,0,0,.4-.06.38.38,0,0,0,.16-.19,1.37,1.37,0,0,0,.06-.5V54a5,5,0,0,0,0-.84.32.32,0,0,0-.1-.2.24.24,0,0,0-.18-.05,1,1,0,0,0-.3.06l-.06-.16,1.22-.49Zm-.37-2.1a.42.42,0,0,1,.32.13.44.44,0,0,1,.13.31.48.48,0,0,1-.13.32.46.46,0,0,1-.32.13.46.46,0,0,1-.31-.13.44.44,0,0,1-.13-.32.44.44,0,0,1,.44-.44Z"/><path class="cls-7" d="M166.27,53.16a2,2,0,0,1,1.35-.85,1,1,0,0,1,.57.17,1.14,1.14,0,0,1,.38.54,2.64,2.64,0,0,1,.09.81v1.72a1.38,1.38,0,0,0,.07.51.38.38,0,0,0,.15.18.92.92,0,0,0,.4.06v.16h-2V56.3h.08a.67.67,0,0,0,.4-.09.48.48,0,0,0,.15-.25,2.57,2.57,0,0,0,0-.41V53.9a1.76,1.76,0,0,0-.14-.8.53.53,0,0,0-.48-.25,1.47,1.47,0,0,0-1,.57v2.13a1.51,1.51,0,0,0,0,.5.4.4,0,0,0,.17.19,1,1,0,0,0,.44.06v.16h-2V56.3H165a.45.45,0,0,0,.41-.16,1.13,1.13,0,0,0,.11-.59v-1.5a7,7,0,0,0,0-.88.5.5,0,0,0-.1-.22.36.36,0,0,0-.19-.05.88.88,0,0,0-.29.06l-.07-.16,1.21-.49h.19Z"/><path class="cls-7" d="M173,54.93a2.17,2.17,0,0,1-.64,1.22,1.49,1.49,0,0,1-1,.43,1.52,1.52,0,0,1-1.19-.58,2.25,2.25,0,0,1-.51-1.55,2.14,2.14,0,0,1,.56-1.55,1.83,1.83,0,0,1,1.36-.59,1.47,1.47,0,0,1,1,.32.86.86,0,0,1,.39.65.37.37,0,0,1-.11.27.4.4,0,0,1-.3.1.43.43,0,0,1-.39-.17.6.6,0,0,1-.1-.35.6.6,0,0,0-.18-.39.63.63,0,0,0-.43-.13.87.87,0,0,0-.71.32,1.78,1.78,0,0,0-.35,1.14,2.35,2.35,0,0,0,.35,1.27,1.09,1.09,0,0,0,1,.55,1.12,1.12,0,0,0,.77-.29,2,2,0,0,0,.47-.74Z"/><path class="cls-7" d="M174.27,54a2,2,0,0,0,.44,1.4,1.31,1.31,0,0,0,1,.51,1.17,1.17,0,0,0,.69-.21,1.69,1.69,0,0,0,.49-.75l.13.09a2.11,2.11,0,0,1-.53,1.09,1.45,1.45,0,0,1-1.11.5,1.63,1.63,0,0,1-1.25-.57,2.16,2.16,0,0,1-.51-1.51,2.25,2.25,0,0,1,.53-1.61,1.7,1.7,0,0,1,1.33-.58,1.51,1.51,0,0,1,1.11.44,1.65,1.65,0,0,1,.43,1.2Zm0-.26h1.87a1.65,1.65,0,0,0-.1-.54.83.83,0,0,0-.32-.39.88.88,0,0,0-.46-.14.9.9,0,0,0-.65.28A1.23,1.23,0,0,0,174.27,53.69Z"/><path class="cls-7" d="M18.6,37.55h1.62L23.86,42V38.58a1.22,1.22,0,0,0-.12-.69.67.67,0,0,0-.52-.18H23v-.16h2.07v.16h-.21a.63.63,0,0,0-.54.23,1.41,1.41,0,0,0-.09.64v5h-.16l-3.93-4.8v3.67a1.22,1.22,0,0,0,.12.69.66.66,0,0,0,.51.18H21v.17H18.93v-.17h.21a.6.6,0,0,0,.54-.23,1.38,1.38,0,0,0,.09-.64V38.33a2.47,2.47,0,0,0-.39-.4,1.18,1.18,0,0,0-.39-.18,1.33,1.33,0,0,0-.39,0Z"/><path class="cls-7" d="M27.47,39.36a1.77,1.77,0,0,1,1.47.7,2.14,2.14,0,0,1,.47,1.36,2.6,2.6,0,0,1-.26,1.09,1.85,1.85,0,0,1-1.73,1.12A1.7,1.7,0,0,1,26,42.9a2.23,2.23,0,0,1-.45-1.37,2.36,2.36,0,0,1,.28-1.1,1.91,1.91,0,0,1,.72-.81A1.89,1.89,0,0,1,27.47,39.36Zm-.14.29a.88.88,0,0,0-.47.14,1,1,0,0,0-.38.48,2.48,2.48,0,0,0-.14.89,3.16,3.16,0,0,0,.35,1.52,1,1,0,0,0,.92.64.85.85,0,0,0,.7-.36,1.92,1.92,0,0,0,.28-1.2,2.8,2.8,0,0,0-.46-1.69A1,1,0,0,0,27.33,39.65Z"/><path class="cls-7" d="M31.39,39.36V42.6a1.7,1.7,0,0,0,.05.5.44.44,0,0,0,.17.19.87.87,0,0,0,.39.06v.16H30v-.16a.89.89,0,0,0,.4-.06.38.38,0,0,0,.16-.19,1.41,1.41,0,0,0,.06-.5V41a5,5,0,0,0,0-.84.32.32,0,0,0-.1-.2.24.24,0,0,0-.18,0A1,1,0,0,0,30,40L30,39.85l1.21-.49ZM31,37.26a.42.42,0,0,1,.32.13.44.44,0,0,1,.13.31.48.48,0,0,1-.13.32.46.46,0,0,1-.32.13.44.44,0,0,1-.31-.13.45.45,0,0,1-.14-.32.44.44,0,0,1,.45-.44Z"/><path class="cls-7" d="M32.34,39.48h1.89v.16a.4.4,0,0,0-.25.06.22.22,0,0,0-.07.17.66.66,0,0,0,.15.32l.14.22.29.46.33-.46a1.59,1.59,0,0,0,.32-.55.19.19,0,0,0-.08-.15.33.33,0,0,0-.24-.07v-.16h1.36v.16a.74.74,0,0,0-.37.12,3.37,3.37,0,0,0-.59.65l-.55.74,1,1.44a3.33,3.33,0,0,0,.53.64.83.83,0,0,0,.41.12v.16h-1.9v-.16a.5.5,0,0,0,.31-.09.21.21,0,0,0,.08-.16,1.43,1.43,0,0,0-.28-.51l-.59-.86-.65.86a1.71,1.71,0,0,0-.29.47.23.23,0,0,0,.1.19.45.45,0,0,0,.29.1v.16H32.37v-.16a.59.59,0,0,0,.27-.11,4,4,0,0,0,.57-.65l.84-1.12-.76-1.11a2.48,2.48,0,0,0-.51-.6.76.76,0,0,0-.44-.12Z"/><path class="cls-7" d="M20.56,118.84v1.74a1.15,1.15,0,0,0,.13.7.62.62,0,0,0,.5.19h.23v.16H18.87v-.16h.22a.59.59,0,0,0,.54-.25,1.38,1.38,0,0,0,.09-.64v-3.85a1.23,1.23,0,0,0-.12-.7.63.63,0,0,0-.51-.19h-.22v-.17h2.18a3.82,3.82,0,0,1,1.26.17,1.72,1.72,0,0,1,.78.55,1.46,1.46,0,0,1,.32.93,1.57,1.57,0,0,1-.48,1.19,1.94,1.94,0,0,1-1.36.46,2.63,2.63,0,0,1-.47,0Zm0-.25.42.07.3,0a1.05,1.05,0,0,0,.79-.35,1.32,1.32,0,0,0,.34-.92,1.73,1.73,0,0,0-.16-.72,1.16,1.16,0,0,0-.45-.5,1.4,1.4,0,0,0-.66-.16,3,3,0,0,0-.58.08Z"/><path class="cls-7" d="M26,117.49a1.79,1.79,0,0,1,1.47.69,2.17,2.17,0,0,1,.47,1.37,2.45,2.45,0,0,1-.26,1.09,1.83,1.83,0,0,1-.71.83,1.89,1.89,0,0,1-1,.29,1.72,1.72,0,0,1-1.45-.73,2.25,2.25,0,0,1-.45-1.37,2.45,2.45,0,0,1,.27-1.1,1.86,1.86,0,0,1,.72-.81A1.91,1.91,0,0,1,26,117.49Zm-.13.28a.94.94,0,0,0-.47.14,1,1,0,0,0-.38.49,2.26,2.26,0,0,0-.15.89,3.16,3.16,0,0,0,.35,1.52,1,1,0,0,0,.92.63.85.85,0,0,0,.71-.35,2,2,0,0,0,.27-1.21,2.72,2.72,0,0,0-.46-1.68A1,1,0,0,0,25.84,117.77Z"/><path class="cls-7" d="M29.67,116.28v1.33h.94v.31h-.94v2.61a.81.81,0,0,0,.12.52.35.35,0,0,0,.28.14.49.49,0,0,0,.28-.09.54.54,0,0,0,.22-.27h.17a1.39,1.39,0,0,1-.44.65.92.92,0,0,1-.58.22.82.82,0,0,1-.39-.11.69.69,0,0,1-.29-.32,1.76,1.76,0,0,1-.09-.65v-2.7h-.64v-.15a1.54,1.54,0,0,0,.5-.33,3.07,3.07,0,0,0,.45-.54c.06-.12.16-.32.28-.62Z"/><path class="cls-7" d="M31.68,119.12a2.05,2.05,0,0,0,.44,1.41,1.31,1.31,0,0,0,1,.51,1.12,1.12,0,0,0,.69-.22,1.59,1.59,0,0,0,.49-.74l.13.09a2.11,2.11,0,0,1-.53,1.09,1.45,1.45,0,0,1-1.11.5,1.63,1.63,0,0,1-1.25-.57,2.17,2.17,0,0,1-.51-1.52,2.27,2.27,0,0,1,.53-1.61,1.73,1.73,0,0,1,1.33-.58,1.48,1.48,0,0,1,1.11.45,1.64,1.64,0,0,1,.43,1.19Zm0-.25h1.87a1.79,1.79,0,0,0-.1-.55.85.85,0,0,0-.32-.38.8.8,0,0,0-.46-.14.9.9,0,0,0-.65.28A1.23,1.23,0,0,0,31.68,118.87Z"/><path class="cls-7" d="M36.17,118.34a1.9,1.9,0,0,1,1.35-.85,1,1,0,0,1,.57.16,1.12,1.12,0,0,1,.38.55,2.61,2.61,0,0,1,.09.8v1.72a1.22,1.22,0,0,0,.07.52.31.31,0,0,0,.15.17.92.92,0,0,0,.4.06v.16h-2v-.16h.08a.68.68,0,0,0,.4-.08.48.48,0,0,0,.15-.25,2.86,2.86,0,0,0,0-.42v-1.64a1.73,1.73,0,0,0-.14-.8.52.52,0,0,0-.49-.25,1.47,1.47,0,0,0-1,.57v2.12a1.59,1.59,0,0,0,0,.51.45.45,0,0,0,.17.19,1.1,1.1,0,0,0,.44,0v.16h-2v-.16h.09a.48.48,0,0,0,.41-.15,1.17,1.17,0,0,0,.11-.6v-1.49a7,7,0,0,0,0-.88.41.41,0,0,0-.11-.22.24.24,0,0,0-.18-.06.93.93,0,0,0-.29.07l-.07-.16,1.21-.49h.19Z"/><path class="cls-7" d="M42.92,120.1a2.2,2.2,0,0,1-.64,1.23,1.54,1.54,0,0,1-1.05.43,1.55,1.55,0,0,1-1.19-.58,2.26,2.26,0,0,1-.51-1.56,2.13,2.13,0,0,1,.56-1.54,1.83,1.83,0,0,1,1.36-.59,1.47,1.47,0,0,1,1,.31.86.86,0,0,1,.38.66.36.36,0,0,1-.1.27.44.44,0,0,1-.3.1.49.49,0,0,1-.4-.17.75.75,0,0,1-.09-.35.6.6,0,0,0-.18-.39.63.63,0,0,0-.43-.14.88.88,0,0,0-.71.33,1.78,1.78,0,0,0-.35,1.14,2.35,2.35,0,0,0,.35,1.27,1.09,1.09,0,0,0,1,.55,1.19,1.19,0,0,0,.77-.29,2,2,0,0,0,.47-.74Z"/><path class="cls-7" d="M44.17,119.12a2.05,2.05,0,0,0,.44,1.41,1.31,1.31,0,0,0,1,.51,1.12,1.12,0,0,0,.69-.22,1.59,1.59,0,0,0,.49-.74l.13.09a2.11,2.11,0,0,1-.53,1.09,1.45,1.45,0,0,1-1.11.5,1.63,1.63,0,0,1-1.25-.57,2.17,2.17,0,0,1-.51-1.52,2.27,2.27,0,0,1,.53-1.61,1.73,1.73,0,0,1,1.33-.58,1.48,1.48,0,0,1,1.11.45,1.64,1.64,0,0,1,.43,1.19Zm0-.25H46a1.58,1.58,0,0,0-.09-.55.81.81,0,0,0-.33-.38.75.75,0,0,0-.45-.14.9.9,0,0,0-.65.28A1.23,1.23,0,0,0,44.17,118.87Z"/><line class="cls-8" x1="42.38" y1="46.06" x2="54.97" y2="56.46"/><line class="cls-9" x1="39.14" y1="43.51" x2="52.24" y2="54.22"/><polygon class="cls-7" points="54.97 56.45 49.84 54.88 52.04 54.05 52.41 51.73 54.97 56.45"/><line class="cls-9" x1="48.68" y1="121.63" x2="56.14" y2="139.16"/><polygon class="cls-7" points="57.53 142.4 53.71 138.63 56.04 138.91 57.45 137.03 57.53 142.4"/><line class="cls-7" x1="153.53" y1="25.08" x2="104.51" y2="45.55"/><line class="cls-9" x1="153.53" y1="25.08" x2="107.76" y2="44.19"/><polygon class="cls-7" points="104.5 45.55 108.31 41.76 108.01 44.09 109.88 45.51 104.5 45.55"/><line class="cls-7" x1="153.53" y1="54.21" x2="110.89" y2="63.81"/><line class="cls-9" x1="153.53" y1="54.21" x2="114.33" y2="63.03"/><polygon class="cls-7" points="110.89 63.81 115.3 60.73 114.59 62.98 116.19 64.7 110.89 63.81"/><line class="cls-7" x1="152.78" y1="89.38" x2="110.14" y2="98.97"/><line class="cls-9" x1="152.78" y1="89.38" x2="113.59" y2="98.2"/><polygon class="cls-7" points="110.14 98.97 114.55 95.9 113.84 98.14 115.44 99.86 110.14 98.97"/><line class="cls-7" x1="152.78" y1="146.76" x2="108.42" y2="195.35"/><line class="cls-9" x1="152.78" y1="146.76" x2="110.8" y2="192.75"/><polygon class="cls-7" points="108.42 195.35 110.27 190.31 110.98 192.55 113.28 193.05 108.42 195.35"/><line class="cls-7" x1="154.38" y1="171.14" x2="111.82" y2="218.95"/><line class="cls-9" x1="154.38" y1="171.14" x2="114.17" y2="216.31"/><polygon class="cls-7" points="111.82 218.95 113.61 213.88 114.35 216.11 116.65 216.58 111.82 218.95"/><line class="cls-7" x1="154.28" y1="206.88" x2="138.69" y2="222.01"/><line class="cls-9" x1="154.28" y1="206.88" x2="141.22" y2="219.55"/><polygon class="cls-7" points="138.69 222.01 140.84 217.09 141.41 219.37 143.67 220 138.69 222.01"/><rect class="cls-9" x="0.25" y="0.25" width="223.32" height="262.13"/><rect class="cls-6" x="86.2" y="159.93" width="4.77" height="52.38" transform="translate(177.17 372.23) rotate(180)"/><circle class="cls-6" cx="88.58" cy="214.49" r="2.12"/><line class="cls-3" x1="86.2" y1="211.16" x2="86.2" y2="217.38"/><line class="cls-3" x1="90.97" y1="211.16" x2="90.97" y2="217.38"/><path class="cls-3" d="M88.58,159.93c-3.51-9.42-12.13-11-20-10.47s-7.89.79-13.92,5.8-5.66,6.86-10.59,6.07l-4.94-.79h0"/><path class="cls-7" d="M24.35,164.72v2.06h-.16a2.67,2.67,0,0,0-.29-.95,1.49,1.49,0,0,0-.58-.56,1.68,1.68,0,0,0-.78-.2,1.05,1.05,0,0,0-.76.28.82.82,0,0,0-.3.63.8.8,0,0,0,.19.5,5,5,0,0,0,1.3.88,10.07,10.07,0,0,1,1.14.68,1.71,1.71,0,0,1,.47.57,1.48,1.48,0,0,1,.16.68,1.55,1.55,0,0,1-.52,1.17,1.93,1.93,0,0,1-1.35.49,3.6,3.6,0,0,1-.49,0l-.57-.16a2,2,0,0,0-.54-.14.24.24,0,0,0-.17.06.59.59,0,0,0-.1.28h-.16v-2H21a2.91,2.91,0,0,0,.31,1,1.46,1.46,0,0,0,.59.53,1.87,1.87,0,0,0,.88.21,1.2,1.2,0,0,0,.86-.29.86.86,0,0,0,.32-.68.88.88,0,0,0-.12-.44,1.3,1.3,0,0,0-.37-.42,10,10,0,0,0-.94-.56,10,10,0,0,1-1.09-.69A1.83,1.83,0,0,1,21,167a1.4,1.4,0,0,1-.17-.68,1.47,1.47,0,0,1,.5-1.1,1.72,1.72,0,0,1,1.25-.46,2.45,2.45,0,0,1,1,.23,1.12,1.12,0,0,0,.34.11.25.25,0,0,0,.19-.07.52.52,0,0,0,.12-.27Z"/><path class="cls-7" d="M27.48,166.67a1.79,1.79,0,0,1,1.47.69,2.16,2.16,0,0,1,.47,1.36,2.64,2.64,0,0,1-.26,1.1,1.86,1.86,0,0,1-1.73,1.11,1.72,1.72,0,0,1-1.45-.72,2.27,2.27,0,0,1-.45-1.37,2.34,2.34,0,0,1,.28-1.1,1.82,1.82,0,0,1,1.67-1.07Zm-.14.28a1,1,0,0,0-.47.14,1,1,0,0,0-.38.49,2.48,2.48,0,0,0-.14.89A3,3,0,0,0,26.7,170a1,1,0,0,0,.92.64.86.86,0,0,0,.7-.35,2,2,0,0,0,.28-1.21,2.82,2.82,0,0,0-.46-1.69A1,1,0,0,0,27.34,167Z"/><path class="cls-7" d="M31.18,167.52a1.88,1.88,0,0,1,1.35-.85,1,1,0,0,1,.57.16,1.14,1.14,0,0,1,.38.54,2.73,2.73,0,0,1,.09.81v1.72a1.47,1.47,0,0,0,.06.52.44.44,0,0,0,.16.17.89.89,0,0,0,.4.06v.16h-2v-.16h.08a.71.71,0,0,0,.39-.08.43.43,0,0,0,.16-.26,2.57,2.57,0,0,0,0-.41v-1.65a1.71,1.71,0,0,0-.14-.79.52.52,0,0,0-.49-.25,1.45,1.45,0,0,0-1,.57v2.12a1.64,1.64,0,0,0,.05.51.42.42,0,0,0,.17.18,1,1,0,0,0,.44.06v.16h-2v-.16h.08a.48.48,0,0,0,.42-.15,1.19,1.19,0,0,0,.11-.6v-1.49a5.07,5.07,0,0,0,0-.89.35.35,0,0,0-.1-.21.24.24,0,0,0-.18-.06.71.71,0,0,0-.29.07l-.07-.16,1.21-.49h.19Z"/><path class="cls-7" d="M37.35,170.36a2.14,2.14,0,0,1-.57.44,1.39,1.39,0,0,1-.61.13,1.49,1.49,0,0,1-1.15-.55,2,2,0,0,1-.49-1.41,2.59,2.59,0,0,1,.54-1.59,1.68,1.68,0,0,1,1.4-.72,1.22,1.22,0,0,1,.88.34v-.74a6.76,6.76,0,0,0,0-.85.41.41,0,0,0-.1-.22.35.35,0,0,0-.18-.05.79.79,0,0,0-.3.07l-.06-.16,1.2-.49h.2v4.66a6.74,6.74,0,0,0,0,.86.38.38,0,0,0,.11.22.23.23,0,0,0,.16.06,1,1,0,0,0,.32-.08l0,.16-1.2.49h-.2Zm0-.31V168a1.46,1.46,0,0,0-.16-.55.9.9,0,0,0-.77-.49.89.89,0,0,0-.69.34,2,2,0,0,0-.4,1.34,2.1,2.1,0,0,0,.39,1.36,1.12,1.12,0,0,0,.86.47A1,1,0,0,0,37.35,170.05Z"/><path class="cls-7" d="M39.69,168.3a2.05,2.05,0,0,0,.43,1.41,1.33,1.33,0,0,0,1,.51,1.08,1.08,0,0,0,.69-.22,1.52,1.52,0,0,0,.49-.74l.14.08a2.08,2.08,0,0,1-.54,1.1,1.42,1.42,0,0,1-1.11.49,1.6,1.6,0,0,1-1.24-.56,2.14,2.14,0,0,1-.52-1.52,2.31,2.31,0,0,1,.53-1.61,1.75,1.75,0,0,1,1.33-.58,1.48,1.48,0,0,1,1.11.45,1.63,1.63,0,0,1,.44,1.19Zm0-.25h1.86a2.27,2.27,0,0,0-.09-.55.94.94,0,0,0-.33-.38.81.81,0,0,0-.46-.15.91.91,0,0,0-.65.29A1.22,1.22,0,0,0,39.69,168.05Z"/><path class="cls-7" d="M20.21,178l1.24-.51h.17v.94a2.3,2.3,0,0,1,.63-.74,1.17,1.17,0,0,1,.66-.21,1.29,1.29,0,0,1,1,.47,2.25,2.25,0,0,1,.49,1.51,2.52,2.52,0,0,1-.59,1.73,1.58,1.58,0,0,1-1.24.55,1.53,1.53,0,0,1-.56-.09,1.28,1.28,0,0,1-.4-.26v1.22a1.8,1.8,0,0,0,.05.53.39.39,0,0,0,.18.18,1.14,1.14,0,0,0,.45.06v.17H20.19v-.17h.11a.68.68,0,0,0,.41-.09.27.27,0,0,0,.13-.16,1.79,1.79,0,0,0,.05-.54v-3.81a1.64,1.64,0,0,0,0-.49.27.27,0,0,0-.11-.16.33.33,0,0,0-.21-.06.78.78,0,0,0-.26.07Zm1.41.69v1.51a2.94,2.94,0,0,0,0,.64.82.82,0,0,0,.3.45.92.92,0,0,0,.6.19.88.88,0,0,0,.72-.34,2,2,0,0,0,.35-1.26,2.18,2.18,0,0,0-.4-1.42.85.85,0,0,0-.67-.35.94.94,0,0,0-.42.11A2.48,2.48,0,0,0,21.62,178.68Z"/><path class="cls-7" d="M26.57,178.42h2.77v-1.71a1.92,1.92,0,0,0-.06-.6.41.41,0,0,0-.18-.19.83.83,0,0,0-.4-.11h-.21v-.16H31v.16h-.21a.8.8,0,0,0-.4.11.35.35,0,0,0-.2.21,2.26,2.26,0,0,0-.05.58v3.85a1.8,1.8,0,0,0,.06.59.37.37,0,0,0,.18.19.87.87,0,0,0,.41.11H31v.16H28.49v-.16h.21a.61.61,0,0,0,.53-.22,1.3,1.3,0,0,0,.11-.67v-1.82H26.57v1.82a1.8,1.8,0,0,0,.06.59.37.37,0,0,0,.18.19.83.83,0,0,0,.4.11h.22v.16H24.88v-.16h.21a.61.61,0,0,0,.53-.22,1.3,1.3,0,0,0,.11-.67v-3.85a1.92,1.92,0,0,0-.06-.6.41.41,0,0,0-.18-.19.83.83,0,0,0-.4-.11h-.21v-.16h2.55v.16h-.22a.83.83,0,0,0-.4.11.36.36,0,0,0-.19.21,2.26,2.26,0,0,0-.05.58Z"/><path class="cls-7" d="M31.59,179.26h2.27v.66H31.59Z"/><path class="cls-7" d="M35.7,178.32l.51-.5a1.76,1.76,0,0,1,.43-.26,1.2,1.2,0,0,1,.45-.09,1,1,0,0,1,.65.22,1.08,1.08,0,0,1,.37.63,2.94,2.94,0,0,1,.76-.69,1.35,1.35,0,0,1,.64-.16,1,1,0,0,1,.57.16,1.1,1.1,0,0,1,.4.54,2.61,2.61,0,0,1,.09.8v1.73a1.51,1.51,0,0,0,.06.52.35.35,0,0,0,.16.16.77.77,0,0,0,.39.07v.16h-2v-.16h.09a.68.68,0,0,0,.4-.1.4.4,0,0,0,.15-.22,3.81,3.81,0,0,0,0-.43V179a1.57,1.57,0,0,0-.11-.69.61.61,0,0,0-.55-.29,1,1,0,0,0-.47.12,2.48,2.48,0,0,0-.57.43v2.16a1.81,1.81,0,0,0,0,.52.41.41,0,0,0,.18.16.9.9,0,0,0,.43.07v.16h-2v-.16a.88.88,0,0,0,.46-.08.4.4,0,0,0,.17-.23,2,2,0,0,0,0-.44V179a1.3,1.3,0,0,0-.14-.71.61.61,0,0,0-.54-.28.9.9,0,0,0-.47.13,1.72,1.72,0,0,0-.56.43v2.16a1.51,1.51,0,0,0,0,.52.44.44,0,0,0,.16.17,1,1,0,0,0,.44.06v.16h-2v-.16a.93.93,0,0,0,.39-.06.38.38,0,0,0,.16-.19,1.34,1.34,0,0,0,.06-.5v-1.54a5,5,0,0,0,0-.85.29.29,0,0,0-.1-.2.24.24,0,0,0-.18-.06.71.71,0,0,0-.29.07l-.07-.16,1.22-.49h.19Z"/><path class="cls-7" d="M42.18,179.1a2.05,2.05,0,0,0,.43,1.41,1.34,1.34,0,0,0,1,.51,1.13,1.13,0,0,0,.68-.22,1.57,1.57,0,0,0,.49-.74l.14.08a2.08,2.08,0,0,1-.54,1.1,1.41,1.41,0,0,1-1.11.49,1.6,1.6,0,0,1-1.24-.56,2.19,2.19,0,0,1-.52-1.52,2.31,2.31,0,0,1,.53-1.61,1.76,1.76,0,0,1,1.33-.58,1.48,1.48,0,0,1,1.11.45A1.63,1.63,0,0,1,45,179.1Zm0-.25H44a1.58,1.58,0,0,0-.09-.55.87.87,0,0,0-.33-.38.78.78,0,0,0-.45-.15.93.93,0,0,0-.66.29A1.22,1.22,0,0,0,42.18,178.85Zm.29-3.35h1l.47,1.52h-.16Z"/><path class="cls-7" d="M46.66,176.26v1.33h.94v.3h-.94v2.61a.84.84,0,0,0,.12.53.35.35,0,0,0,.28.14.55.55,0,0,0,.29-.09.58.58,0,0,0,.21-.27h.17a1.44,1.44,0,0,1-.44.65,1,1,0,0,1-.58.22.82.82,0,0,1-.39-.11.72.72,0,0,1-.29-.33,1.67,1.67,0,0,1-.09-.64v-2.71H45.3v-.14a2,2,0,0,0,.5-.33,3.15,3.15,0,0,0,.45-.55,5.78,5.78,0,0,0,.28-.61Z"/><path class="cls-7" d="M49.17,177.47v.9c.34-.6.69-.9,1-.9a.61.61,0,0,1,.4.14.45.45,0,0,1,.16.34.37.37,0,0,1-.12.29.34.34,0,0,1-.27.12.56.56,0,0,1-.34-.15.6.6,0,0,0-.29-.15.26.26,0,0,0-.17.09,2.2,2.2,0,0,0-.41.59v1.93a1.16,1.16,0,0,0,.09.51.41.41,0,0,0,.2.19.8.8,0,0,0,.42.08v.16H47.82v-.16a.89.89,0,0,0,.45-.09.39.39,0,0,0,.16-.23,2.86,2.86,0,0,0,0-.42v-1.56a6.22,6.22,0,0,0,0-.84.3.3,0,0,0-.11-.2.29.29,0,0,0-.19-.06.72.72,0,0,0-.3.07l0-.16,1.22-.49Z"/><path class="cls-7" d="M51.67,179.1a2.1,2.1,0,0,0,.43,1.41,1.34,1.34,0,0,0,1,.51,1.13,1.13,0,0,0,.68-.22,1.57,1.57,0,0,0,.49-.74l.14.08a2.14,2.14,0,0,1-.53,1.1,1.44,1.44,0,0,1-1.12.49,1.62,1.62,0,0,1-1.24-.56,2.18,2.18,0,0,1-.51-1.52,2.31,2.31,0,0,1,.52-1.61,1.76,1.76,0,0,1,1.33-.58,1.48,1.48,0,0,1,1.12.45,1.63,1.63,0,0,1,.43,1.19Zm0-.25h1.86a1.58,1.58,0,0,0-.09-.55.81.81,0,0,0-.33-.38.76.76,0,0,0-.45-.15.91.91,0,0,0-.65.29A1.18,1.18,0,0,0,51.67,178.85Z"/><line class="cls-9" x1="37.95" y1="184.97" x2="82.73" y2="193.37"/><polygon class="cls-7" points="86.2 194.02 80.94 195.1 82.47 193.32 81.69 191.1 86.2 194.02"/></g></g></svg>