<svg width="2533" height="2010" xmlns="http://www.w3.org/2000/svg" xmlns:xlink="http://www.w3.org/1999/xlink" overflow="hidden"><defs><clipPath id="clip0"><rect x="0" y="-27" width="2533" height="2010"/></clipPath></defs><g clip-path="url(#clip0)" transform="matrix(1 0 0 1 0 27)"><rect x="1710.5" y="1325.5" width="821" height="656" stroke="#000000" stroke-width="3.4375" stroke-linejoin="round" stroke-miterlimit="10" fill="#FFFFFF"/><path d="M110 178 110 366.375" stroke="#000000" stroke-width="2.29167" stroke-linejoin="round" stroke-miterlimit="10" fill="none" fill-rule="evenodd"/><path d="M110-27.0002 110 161.375" stroke="#000000" stroke-width="2.29167" stroke-linejoin="round" stroke-miterlimit="10" fill="none" fill-rule="evenodd"/><path d="M110 385 110 573.375" stroke="#000000" stroke-width="2.29167" stroke-linejoin="round" stroke-miterlimit="10" fill="none" fill-rule="evenodd"/><path d="M693-27.0002 693 593.812" stroke="#000000" stroke-width="2.29167" stroke-linejoin="round" stroke-miterlimit="10" fill="none" fill-rule="evenodd"/><text font-family="Cambria Math,Cambria Math_MSFontService,sans-serif" font-weight="400" font-size="46" transform="translate(33.7562 172)">𝑆<tspan font-size="34" x="21.1979" y="9">1</tspan><tspan font-size="46" x="0.0458336" y="206">𝑆</tspan><tspan font-size="34" x="22.2979" y="216">2</tspan></text><path d="M1.71879 22.9167 1.71907 165.458-1.71843 165.458-1.71871 22.9167ZM-13.7499 27.5 0 0 13.7501 27.5ZM13.7503 160.875 0.000360892 188.375-13.7497 160.875Z" fill="#4A7EBB" transform="matrix(1 0 0 -1 159.5 366.875)"/><text font-family="Cambria Math,Cambria Math_MSFontService,sans-serif" font-weight="400" font-size="46" transform="translate(170.133 266)">𝑏</text><path d="M0 0 82.9583 0.000360892" stroke="#000000" stroke-width="2.29167" stroke-linejoin="round" stroke-miterlimit="10" fill="none" fill-rule="evenodd" transform="matrix(-1 0 0 1 174.958 172)"/><path d="M0 0 82.9583 0.000360892" stroke="#000000" stroke-width="2.29167" stroke-linejoin="round" stroke-miterlimit="10" fill="none" fill-rule="evenodd" transform="matrix(-1 0 0 1 174.958 375)"/><path d="M133.417 18.7814 656.375 18.7817 656.375 22.2192 133.417 22.2189ZM138 34.2501 110.5 20.5001 138 6.75015ZM651.792 6.75048 679.292 20.5005 651.792 34.2505Z" fill="#4A7EBB"/><text font-family="Cambria Math,Cambria Math_MSFontService,sans-serif" font-weight="400" font-size="46" transform="translate(380.715 60)">𝐷</text><path d="M0 0 27.7292 0.000360892" stroke="#000000" stroke-width="2.29167" stroke-linejoin="round" stroke-miterlimit="10" fill="none" fill-rule="evenodd" transform="matrix(-1 0 0 1 707.729 117)"/><text font-family="Cambria Math,Cambria Math_MSFontService,sans-serif" font-weight="400" font-size="46" transform="translate(727.696 129)">𝑀<tspan font-size="46" x="-5.55701" y="152">𝑂</tspan></text><path d="M0.0033768-1.14583 9.17-1.11881 9.16325 1.17284-0.0033768 1.14583ZM16.045-1.09855 25.2116-1.07154 25.2048 1.22012 16.0382 1.1931ZM32.0866-1.05128 41.2532-1.02426 41.2464 1.26739 32.0798 1.24038ZM48.1282-1.004 57.2948-0.976988 57.288 1.31467 48.1214 1.28765ZM64.1698-0.956728 73.3364-0.929713 73.3296 1.36194 64.163 1.33493ZM80.2114-0.909452 89.378-0.882438 89.3712 1.40922 80.2046 1.3822ZM96.253-0.862177 105.42-0.835163 105.413 1.45649 96.2462 1.42948ZM112.295-0.814902 121.461-0.787888 121.454 1.50377 112.288 1.47675ZM128.336-0.767627 137.503-0.740613 137.496 1.55104 128.329 1.52403ZM144.378-0.720352 153.544-0.693338 153.538 1.59832 144.371 1.5713ZM160.419-0.673077 169.586-0.646062 169.579 1.64559 160.413 1.61858ZM176.461-0.625802 185.628-0.598787 185.621 1.69287 176.454 1.66585ZM192.503-0.578526 201.669-0.551512 201.662 1.74014 192.496 1.71313ZM208.544-0.531251 217.711-0.504237 217.704 1.78742 208.537 1.76041ZM224.586-0.483976 233.752-0.456962 233.746 1.83469 224.579 1.80768ZM240.627-0.436701 249.794-0.409687 249.787 1.88197 240.621 1.85496ZM256.669-0.389426 265.836-0.362411 265.829 1.92925 256.662 1.90223ZM272.711-0.342151 281.877-0.315136 281.87 1.97652 272.704 1.94951ZM288.752-0.294875 297.919-0.267861 297.912 2.0238 288.745 1.99678ZM304.794-0.2476 313.96-0.220586 313.954 2.07107 304.787 2.04406ZM320.835-0.200325 330.002-0.173311 329.995 2.11835 320.829 2.09133ZM336.877-0.15305 346.044-0.126035 346.037 2.16562 336.87 2.13861ZM352.919-0.105775 362.085-0.0787602 362.078 2.2129 352.912 2.18588ZM368.96-0.0584994 378.127-0.031485 378.12 2.26017 368.953 2.23316ZM385.002-0.0112241 394.168 0.0157902 394.162 2.30745 384.995 2.28043ZM401.043 0.036051 410.21 0.0630653 410.203 2.35472 401.037 2.32771ZM417.085 0.0833261 426.251 0.11034 426.245 2.402 417.078 2.37498ZM433.126 0.130601 442.293 0.157616 442.286 2.44927 433.12 2.42226ZM449.168 0.177876 458.335 0.204891 458.328 2.49655 449.161 2.46953ZM465.21 0.225152 474.376 0.252166 474.369 2.54382 465.203 2.51681ZM481.251 0.272427 490.418 0.299441 490.411 2.5911 481.244 2.56408ZM497.293 0.319702 506.459 0.346716 506.453 2.63837 497.286 2.61136ZM513.334 0.366977 522.501 0.393991 522.494 2.68565 513.328 2.65863ZM529.376 0.414252 538.543 0.441266 538.536 2.73292 529.369 2.70591ZM545.418 0.461527 554.584 0.488542 554.577 2.7802 545.411 2.75318ZM561.459 0.508802 570.626 0.535817 570.619 2.82747 561.452 2.80046ZM577.501 0.556077 586.667 0.583092 586.661 2.87475 577.494 2.84773ZM593.542 0.603353 602.709 0.630367 602.702 2.92202 593.536 2.89501ZM609.584 0.650628 618.751 0.677642 618.744 2.9693 609.577 2.94228ZM625.626 0.697903 634.792 0.724917 634.785 3.01657 625.619 2.98956ZM641.667 0.745178 650.834 0.772192 650.827 3.06385 641.66 3.03683ZM657.709 0.792453 664.468 0.812374 664.462 3.10403 657.702 3.08411ZM-0.0270144 9.16663C-5.0896 9.15171-9.18155 5.03557-9.16663-0.0270144-9.15171-5.0896-5.03557-9.18155 0.0270144-9.16663 5.0896-9.15171 9.18155-5.03557 9.16663 0.0270144 9.15171 5.0896 5.03557 9.18155-0.0270144 9.16663ZM664.492-7.20842C669.555-7.1935 673.646-3.07737 673.632 1.98522 673.617 7.0478 669.501 11.1397 664.438 11.1248 659.375 11.1099 655.283 6.99378 655.298 1.93119 655.313-3.1314 659.429-7.22334 664.492-7.20842Z" transform="matrix(1 0 0 -1 29.9999 276.958)"/></g></svg>