<svg width="2560" height="2008" xmlns="http://www.w3.org/2000/svg" xmlns:xlink="http://www.w3.org/1999/xlink" overflow="hidden"><defs><clipPath id="clip0"><rect x="-28" y="-27" width="2560" height="2008"/></clipPath></defs><g clip-path="url(#clip0)" transform="translate(28 27)"><rect x="1711" y="1325" width="821" height="656" fill="#FFFFFF"/><path d="M-17.9999 275.854-8.8332 275.854-8.8332 278.146-17.9999 278.146ZM-1.9582 275.854 7.20847 275.854 7.20847 278.146-1.9582 278.146ZM14.0835 275.854 23.2501 275.854 23.2501 278.146 14.0835 278.146ZM30.1251 275.854 39.2918 275.854 39.2918 278.146 30.1251 278.146ZM46.1668 275.854 55.3335 275.854 55.3335 278.146 46.1668 278.146ZM62.2085 275.854 71.3751 275.854 71.3751 278.146 62.2085 278.146ZM78.2501 275.854 87.4168 275.854 87.4168 278.146 78.2501 278.146ZM94.2918 275.854 103.458 275.854 103.458 278.146 94.2918 278.146ZM110.333 275.854 119.5 275.854 119.5 278.146 110.333 278.146ZM126.375 275.854 135.542 275.854 135.542 278.146 126.375 278.146ZM142.417 275.854 151.583 275.854 151.583 278.146 142.417 278.146ZM158.458 275.854 167.625 275.854 167.625 278.146 158.458 278.146ZM174.5 275.854 183.667 275.854 183.667 278.146 174.5 278.146ZM190.542 275.854 199.708 275.854 199.708 278.146 190.542 278.146ZM206.583 275.854 215.75 275.854 215.75 278.146 206.583 278.146ZM222.625 275.854 231.792 275.854 231.792 278.146 222.625 278.146ZM238.667 275.854 247.833 275.854 247.833 278.146 238.667 278.146ZM254.708 275.854 263.875 275.854 263.875 278.146 254.708 278.146ZM270.75 275.854 279.917 275.854 279.917 278.146 270.75 278.146ZM286.792 275.854 295.958 275.854 295.958 278.146 286.792 278.146ZM302.833 275.854 312 275.854 312 278.146 302.833 278.146ZM318.875 275.854 328.042 275.854 328.042 278.146 318.875 278.146ZM334.917 275.854 344.083 275.854 344.083 278.146 334.917 278.146ZM350.958 275.854 360.125 275.854 360.125 278.146 350.958 278.146ZM367 275.854 376.167 275.854 376.167 278.146 367 278.146ZM383.042 275.854 392.208 275.854 392.208 278.146 383.042 278.146ZM399.083 275.854 408.25 275.854 408.25 278.146 399.083 278.146ZM415.125 275.854 424.292 275.854 424.292 278.146 415.125 278.146ZM431.167 275.854 440.333 275.854 440.333 278.146 431.167 278.146ZM447.208 275.854 456.375 275.854 456.375 278.146 447.208 278.146ZM463.25 275.854 472.417 275.854 472.417 278.146 463.25 278.146ZM479.292 275.854 488.458 275.854 488.458 278.146 479.292 278.146ZM495.333 275.854 504.5 275.854 504.5 278.146 495.333 278.146ZM511.375 275.854 520.542 275.854 520.542 278.146 511.375 278.146ZM527.417 275.854 536.583 275.855 536.583 278.146 527.417 278.146ZM543.458 275.855 552.625 275.855 552.625 278.146 543.458 278.146ZM559.5 275.855 568.667 275.855 568.667 278.146 559.5 278.146ZM575.542 275.855 584.708 275.855 584.708 278.146 575.542 278.146ZM591.583 275.855 600.75 275.855 600.75 278.146 591.583 278.146ZM607.625 275.855 616.792 275.855 616.792 278.146 607.625 278.146ZM623.667 275.855 632.833 275.855 632.833 278.146 623.667 278.146ZM639.708 275.855 648.875 275.855 648.875 278.146 639.708 278.146ZM655.75 275.855 664.917 275.855 664.917 278.146 655.75 278.146ZM671.792 275.855 680.958 275.855 680.958 278.146 671.792 278.146ZM687.833 275.855 693.333 275.855 693.333 278.146 687.833 278.146ZM-17.9999 286.167C-23.0625 286.167-27.1665 282.063-27.1665 277-27.1665 271.937-23.0625 267.833-17.9999 267.833-12.9373 267.833-8.8332 271.937-8.8332 277-8.8332 282.063-12.9373 286.167-17.9999 286.167ZM693.333 267.834C698.396 267.834 702.5 271.938 702.5 277 702.5 282.063 698.396 286.167 693.333 286.167 688.271 286.167 684.167 282.063 684.167 277 684.167 271.938 688.271 267.834 693.333 267.834Z"/><path d="M110 178 110 366.375" stroke="#000000" stroke-width="2.29167" stroke-linejoin="round" stroke-miterlimit="10" fill="none" fill-rule="evenodd"/><path d="M110-27.0002 110 161.375" stroke="#000000" stroke-width="2.29167" stroke-linejoin="round" stroke-miterlimit="10" fill="none" fill-rule="evenodd"/><path d="M110 385 110 573.375" stroke="#000000" stroke-width="2.29167" stroke-linejoin="round" stroke-miterlimit="10" fill="none" fill-rule="evenodd"/><path d="M693-27.0002 693 593.812" stroke="#000000" stroke-width="2.29167" stroke-linejoin="round" stroke-miterlimit="10" fill="none" fill-rule="evenodd"/><text font-family="Cambria Math,Cambria Math_MSFontService,sans-serif" font-weight="400" font-size="46" transform="translate(33.7562 172)">𝑆<tspan font-size="34" x="21.1979" y="9">1</tspan><tspan font-size="46" x="0.0458336" y="206">𝑆</tspan><tspan font-size="34" x="22.2979" y="216">2</tspan></text><path d="M1.71879 22.9167 1.71907 165.458-1.71843 165.458-1.71871 22.9167ZM-13.7499 27.5 0 0 13.7501 27.5ZM13.7503 160.875 0.000360892 188.375-13.7497 160.875Z" fill="#4A7EBB" transform="matrix(1 0 0 -1 159.5 366.875)"/><text font-family="Cambria Math,Cambria Math_MSFontService,sans-serif" font-weight="400" font-size="46" transform="translate(170.133 266)">𝑏</text><path d="M0 0 82.9583 0.000360892" stroke="#000000" stroke-width="2.29167" stroke-linejoin="round" stroke-miterlimit="10" fill="none" fill-rule="evenodd" transform="matrix(-1 0 0 1 174.958 172)"/><path d="M0 0 82.9583 0.000360892" stroke="#000000" stroke-width="2.29167" stroke-linejoin="round" stroke-miterlimit="10" fill="none" fill-rule="evenodd" transform="matrix(-1 0 0 1 174.958 375)"/><path d="M133.417 18.7814 656.375 18.7817 656.375 22.2192 133.417 22.2189ZM138 34.2501 110.5 20.5001 138 6.75015ZM651.792 6.75048 679.292 20.5005 651.792 34.2505Z" fill="#4A7EBB"/><text font-family="Cambria Math,Cambria Math_MSFontService,sans-serif" font-weight="400" font-size="46" transform="translate(380.715 60)">𝐷</text><path d="M0 0 27.7292 0.000360892" stroke="#000000" stroke-width="2.29167" stroke-linejoin="round" stroke-miterlimit="10" fill="none" fill-rule="evenodd" transform="matrix(-1 0 0 1 707.729 117)"/><text font-family="Cambria Math,Cambria Math_MSFontService,sans-serif" font-weight="400" font-size="46" transform="translate(727.696 129)">𝑀<tspan font-size="46" x="-5.55701" y="152">𝑂</tspan></text></g></svg>