<svg width="638" height="404" xmlns="http://www.w3.org/2000/svg" xmlns:xlink="http://www.w3.org/1999/xlink" overflow="hidden"><defs><clipPath id="clip0"><rect x="0" y="0" width="638" height="404"/></clipPath><clipPath id="clip1"><rect x="12" y="13" width="625" height="391"/></clipPath><clipPath id="clip2"><rect x="12" y="13" width="625" height="391"/></clipPath></defs><g clip-path="url(#clip0)"><rect x="0" y="0" width="638" height="404" fill="#FFFFFF"/><g clip-path="url(#clip1)"><g clip-path="url(#clip2)"><path d="M195.288 207.599C195.288 214.164 189.966 219.486 183.401 219.486 176.836 219.486 171.514 214.164 171.514 207.599 171.514 201.034 176.836 195.712 183.401 195.712 189.966 195.712 195.288 201.034 195.288 207.599Z" stroke="#878787" stroke-width="6.01698" stroke-linecap="round" stroke-miterlimit="10" fill="none" transform="matrix(1.69033 0 0 1 14.1334 13.0001)"/><path d="M219.486 207.599C219.486 227.529 203.33 243.685 183.401 243.685 163.471 243.685 147.315 227.529 147.315 207.599 147.315 187.67 163.471 171.514 183.401 171.514 203.33 171.514 219.486 187.67 219.486 207.599Z" stroke="#878787" stroke-width="6.01698" stroke-linecap="round" stroke-miterlimit="10" fill="none" transform="matrix(1.69033 0 0 1 14.1334 13.0001)"/><path d="M207.599 207.599C207.599 220.964 196.765 231.798 183.401 231.798 170.036 231.798 159.202 220.964 159.202 207.599 159.202 194.235 170.036 183.401 183.401 183.401 196.765 183.401 207.599 194.235 207.599 207.599Z" stroke="#878787" stroke-width="6.01698" stroke-linecap="round" stroke-miterlimit="10" fill="none" transform="matrix(1.69033 0 0 1 14.1334 13.0001)"/><path d="M243.685 207.599C243.685 240.893 216.695 267.884 183.401 267.884 150.106 267.884 123.116 240.893 123.116 207.599 123.116 174.305 150.106 147.315 183.401 147.315 216.695 147.315 243.685 174.305 243.685 207.599Z" stroke="#878787" stroke-width="6.01698" stroke-linecap="round" stroke-miterlimit="10" fill="none" transform="matrix(1.69033 0 0 1 14.1334 13.0001)"/><path d="M231.373 207.599C231.373 234.094 209.895 255.572 183.401 255.572 156.906 255.572 135.428 234.094 135.428 207.599 135.428 181.105 156.906 159.626 183.401 159.626 209.895 159.626 231.373 181.105 231.373 207.599Z" stroke="#878787" stroke-width="6.01698" stroke-linecap="round" stroke-miterlimit="10" fill="none" transform="matrix(1.69033 0 0 1 14.1334 13.0001)"/><path d="M255.572 207.599C255.572 247.458 223.26 279.771 183.401 279.771 143.541 279.771 111.229 247.458 111.229 207.599 111.229 167.74 143.541 135.428 183.401 135.428 223.26 135.428 255.572 167.74 255.572 207.599Z" stroke="#878787" stroke-width="6.01698" stroke-linecap="round" stroke-miterlimit="10" fill="none" transform="matrix(1.69033 0 0 1 14.1334 13.0001)"/><path d="M267.459 207.599C267.459 254.024 229.825 291.658 183.401 291.658 136.976 291.658 99.342 254.024 99.342 207.599 99.342 161.175 136.976 123.541 183.401 123.541 229.825 123.541 267.459 161.175 267.459 207.599Z" stroke="#878787" stroke-width="6.01698" stroke-linecap="round" stroke-miterlimit="10" fill="none" transform="matrix(1.69033 0 0 1 14.1334 13.0001)"/><path d="M279.771 207.599C279.771 260.823 236.624 303.969 183.401 303.969 130.177 303.969 87.0304 260.823 87.0304 207.599 87.0304 154.375 130.177 111.229 183.401 111.229 236.624 111.229 279.771 154.375 279.771 207.599Z" stroke="#878787" stroke-width="6.01698" stroke-linecap="round" stroke-miterlimit="10" fill="none" transform="matrix(1.69033 0 0 1 14.1334 13.0001)"/><path d="M291.658 207.599C291.658 267.388 243.189 315.857 183.401 315.857 123.612 315.857 75.1433 267.388 75.1433 207.599 75.1433 147.81 123.612 99.342 183.401 99.342 243.189 99.342 291.658 147.81 291.658 207.599Z" stroke="#878787" stroke-width="6.01698" stroke-linecap="round" stroke-miterlimit="10" fill="none" transform="matrix(1.69033 0 0 1 14.1334 13.0001)"/><path d="M303.545 207.599C303.545 273.953 249.754 327.744 183.401 327.744 117.047 327.744 63.2562 273.953 63.2562 207.599 63.2562 141.245 117.047 87.4549 183.401 87.4549 249.754 87.4549 303.545 141.245 303.545 207.599Z" stroke="#878787" stroke-width="6.01698" stroke-linecap="round" stroke-miterlimit="10" fill="none" transform="matrix(1.69033 0 0 1 14.1334 13.0001)"/><path d="M315.857 207.599C315.857 280.753 256.554 340.055 183.401 340.055 110.247 340.055 50.9446 280.753 50.9446 207.599 50.9446 134.446 110.247 75.1433 183.401 75.1433 256.554 75.1433 315.857 134.446 315.857 207.599Z" stroke="#878787" stroke-width="6.01698" stroke-linecap="round" stroke-miterlimit="10" fill="none" transform="matrix(1.69033 0 0 1 14.1334 13.0001)"/><path d="M327.744 207.599C327.744 287.318 263.119 351.942 183.401 351.942 103.682 351.942 39.0575 287.318 39.0575 207.599 39.0575 127.881 103.682 63.2562 183.401 63.2562 263.119 63.2562 327.744 127.881 327.744 207.599Z" stroke="#878787" stroke-width="6.01698" stroke-linecap="round" stroke-miterlimit="10" fill="none" transform="matrix(1.69033 0 0 1 14.1334 13.0001)"/><path d="M340.055 207.599C340.055 294.117 269.919 364.254 183.401 364.254 96.8826 364.254 26.7459 294.117 26.7459 207.599 26.7459 121.081 96.8826 50.9446 183.401 50.9446 269.919 50.9446 340.055 121.081 340.055 207.599Z" stroke="#878787" stroke-width="6.01698" stroke-linecap="round" stroke-miterlimit="10" fill="none" transform="matrix(1.69033 0 0 1 14.1334 13.0001)"/><path d="M351.942 207.599C351.942 300.682 276.484 376.141 183.401 376.141 90.3176 376.141 14.8588 300.682 14.8588 207.599 14.8588 114.516 90.3176 39.0575 183.401 39.0575 276.484 39.0575 351.942 114.516 351.942 207.599Z" stroke="#878787" stroke-width="6.01698" stroke-linecap="round" stroke-miterlimit="10" fill="none" transform="matrix(1.69033 0 0 1 14.1334 13.0001)"/><path d="M363.829 207.599C363.829 307.247 283.049 388.028 183.401 388.028 83.7525 388.028 2.97176 307.247 2.97176 207.599 2.97176 107.951 83.7525 27.1705 183.401 27.1705 283.049 27.1705 363.829 107.951 363.829 207.599Z" stroke="#878787" stroke-width="6.01698" stroke-linecap="round" stroke-miterlimit="10" fill="none" transform="matrix(1.69033 0 0 1 14.1334 13.0001)"/><path d="M195.288 183.401C195.288 189.966 189.966 195.288 183.401 195.288 176.836 195.288 171.514 189.966 171.514 183.401 171.514 176.836 176.836 171.514 183.401 171.514 189.966 171.514 195.288 176.836 195.288 183.401Z" stroke="#878787" stroke-width="6.01698" stroke-linecap="round" stroke-miterlimit="10" fill="none" transform="matrix(1.69033 0 0 1 14.1334 13.0001)"/><path d="M219.486 183.401C219.486 203.33 203.33 219.486 183.401 219.486 163.471 219.486 147.315 203.33 147.315 183.401 147.315 163.471 163.471 147.315 183.401 147.315 203.33 147.315 219.486 163.471 219.486 183.401Z" stroke="#878787" stroke-width="6.01698" stroke-linecap="round" stroke-miterlimit="10" fill="none" transform="matrix(1.69033 0 0 1 14.1334 13.0001)"/><path d="M207.599 183.401C207.599 196.765 196.765 207.599 183.401 207.599 170.036 207.599 159.202 196.765 159.202 183.401 159.202 170.036 170.036 159.202 183.401 159.202 196.765 159.202 207.599 170.036 207.599 183.401Z" stroke="#878787" stroke-width="6.01698" stroke-linecap="round" stroke-miterlimit="10" fill="none" transform="matrix(1.69033 0 0 1 14.1334 13.0001)"/><path d="M243.685 183.401C243.685 216.695 216.695 243.685 183.401 243.685 150.106 243.685 123.116 216.695 123.116 183.401 123.116 150.106 150.106 123.116 183.401 123.116 216.695 123.116 243.685 150.106 243.685 183.401Z" stroke="#878787" stroke-width="6.01698" stroke-linecap="round" stroke-miterlimit="10" fill="none" transform="matrix(1.69033 0 0 1 14.1334 13.0001)"/><path d="M231.373 183.401C231.373 209.895 209.895 231.373 183.401 231.373 156.906 231.373 135.428 209.895 135.428 183.401 135.428 156.906 156.906 135.428 183.401 135.428 209.895 135.428 231.373 156.906 231.373 183.401Z" stroke="#878787" stroke-width="6.01698" stroke-linecap="round" stroke-miterlimit="10" fill="none" transform="matrix(1.69033 0 0 1 14.1334 13.0001)"/><path d="M255.572 183.401C255.572 223.26 223.26 255.572 183.401 255.572 143.541 255.572 111.229 223.26 111.229 183.401 111.229 143.541 143.541 111.229 183.401 111.229 223.26 111.229 255.572 143.541 255.572 183.401Z" stroke="#878787" stroke-width="6.01698" stroke-linecap="round" stroke-miterlimit="10" fill="none" transform="matrix(1.69033 0 0 1 14.1334 13.0001)"/><path d="M267.459 183.401C267.459 229.825 229.825 267.459 183.401 267.459 136.976 267.459 99.342 229.825 99.342 183.401 99.342 136.976 136.976 99.342 183.401 99.342 229.825 99.342 267.459 136.976 267.459 183.401Z" stroke="#878787" stroke-width="6.01698" stroke-linecap="round" stroke-miterlimit="10" fill="none" transform="matrix(1.69033 0 0 1 14.1334 13.0001)"/><path d="M279.771 183.401C279.771 236.624 236.624 279.771 183.401 279.771 130.177 279.771 87.0304 236.624 87.0304 183.401 87.0304 130.177 130.177 87.0304 183.401 87.0304 236.624 87.0304 279.771 130.177 279.771 183.401Z" stroke="#878787" stroke-width="6.01698" stroke-linecap="round" stroke-miterlimit="10" fill="none" transform="matrix(1.69033 0 0 1 14.1334 13.0001)"/><path d="M291.658 183.401C291.658 243.189 243.189 291.658 183.401 291.658 123.612 291.658 75.1433 243.189 75.1433 183.401 75.1433 123.612 123.612 75.1433 183.401 75.1433 243.189 75.1433 291.658 123.612 291.658 183.401Z" stroke="#878787" stroke-width="6.01698" stroke-linecap="round" stroke-miterlimit="10" fill="none" transform="matrix(1.69033 0 0 1 14.1334 13.0001)"/><path d="M303.545 183.401C303.545 249.754 249.754 303.545 183.401 303.545 117.047 303.545 63.2562 249.754 63.2562 183.401 63.2562 117.047 117.047 63.2562 183.401 63.2562 249.754 63.2562 303.545 117.047 303.545 183.401Z" stroke="#878787" stroke-width="6.01698" stroke-linecap="round" stroke-miterlimit="10" fill="none" transform="matrix(1.69033 0 0 1 14.1334 13.0001)"/><path d="M315.857 183.401C315.857 256.554 256.554 315.857 183.401 315.857 110.247 315.857 50.9446 256.554 50.9446 183.401 50.9446 110.247 110.247 50.9446 183.401 50.9446 256.554 50.9446 315.857 110.247 315.857 183.401Z" stroke="#878787" stroke-width="6.01698" stroke-linecap="round" stroke-miterlimit="10" fill="none" transform="matrix(1.69033 0 0 1 14.1334 13.0001)"/><path d="M327.744 183.401C327.744 263.119 263.119 327.744 183.401 327.744 103.682 327.744 39.0575 263.119 39.0575 183.401 39.0575 103.682 103.682 39.0575 183.401 39.0575 263.119 39.0575 327.744 103.682 327.744 183.401Z" stroke="#878787" stroke-width="6.01698" stroke-linecap="round" stroke-miterlimit="10" fill="none" transform="matrix(1.69033 0 0 1 14.1334 13.0001)"/><path d="M340.055 183.401C340.055 269.919 269.919 340.055 183.401 340.055 96.8826 340.055 26.7459 269.919 26.7459 183.401 26.7459 96.8826 96.8826 26.7459 183.401 26.7459 269.919 26.7459 340.055 96.8826 340.055 183.401Z" stroke="#878787" stroke-width="6.01698" stroke-linecap="round" stroke-miterlimit="10" fill="none" transform="matrix(1.69033 0 0 1 14.1334 13.0001)"/><path d="M351.942 183.401C351.942 276.484 276.484 351.942 183.401 351.942 90.3176 351.942 14.8588 276.484 14.8588 183.401 14.8588 90.3176 90.3176 14.8588 183.401 14.8588 276.484 14.8588 351.942 90.3176 351.942 183.401Z" stroke="#878787" stroke-width="6.01698" stroke-linecap="round" stroke-miterlimit="10" fill="none" transform="matrix(1.69033 0 0 1 14.1334 13.0001)"/><path d="M363.829 183.401C363.829 283.049 283.049 363.829 183.401 363.829 83.7525 363.829 2.97176 283.049 2.97176 183.401 2.97176 83.7525 83.7525 2.97176 183.401 2.97176 283.049 2.97176 363.829 83.7525 363.829 183.401Z" stroke="#878787" stroke-width="6.01698" stroke-linecap="round" stroke-miterlimit="10" fill="none" transform="matrix(1.69033 0 0 1 14.1334 13.0001)"/><path d="M297.601 166.844C297.601 170.126 294.94 172.787 291.658 172.787 288.375 172.787 285.714 170.126 285.714 166.844 285.714 163.561 288.375 160.9 291.658 160.9 294.94 160.9 297.601 163.561 297.601 166.844Z" transform="matrix(1.69033 0 0 1 14.1334 13.0001)"/><path d="M285.714 195.712C285.714 198.995 283.053 201.656 279.771 201.656 276.488 201.656 273.827 198.995 273.827 195.712 273.827 192.43 276.488 189.769 279.771 189.769 283.053 189.769 285.714 192.43 285.714 195.712Z" transform="matrix(1.69033 0 0 1 14.1334 13.0001)"/></g></g><path d="M0 0 0.000360892 23.7409" stroke="#000000" stroke-width="6.875" stroke-linejoin="round" stroke-miterlimit="10" fill="none" fill-rule="evenodd" transform="matrix(1 0 0 -1 325.5 194.241)"/><path d="M0 0 53.4171 0.000360892" stroke="#000000" stroke-width="6.875" stroke-linejoin="round" stroke-miterlimit="10" fill="none" fill-rule="evenodd" transform="matrix(-1 0 0 1 324.917 173.5)"/><path d="M0 0 0.000360892 23.6042" stroke="#000000" stroke-width="6.875" stroke-linejoin="round" stroke-miterlimit="10" fill="none" fill-rule="evenodd" transform="matrix(1 0 0 -1 325.5 223.104)"/><path d="M0 0 53.4171 0.000360892" stroke="#000000" stroke-width="6.875" stroke-linejoin="round" stroke-miterlimit="10" fill="none" fill-rule="evenodd" transform="matrix(-1 0 0 1 324.917 202.5)"/><text font-family="Times New Roman,Times New Roman_MSFontService,sans-serif" font-weight="400" font-size="46" transform="matrix(1 0 0 1 491.877 246)">A<tspan x="24.6429" y="-86">B</tspan></text></g></svg>