<svg width="830" height="655" xmlns="http://www.w3.org/2000/svg" xmlns:xlink="http://www.w3.org/1999/xlink" overflow="hidden"><defs><clipPath id="clip0"><rect x="-9" y="0" width="830" height="655"/></clipPath></defs><g clip-path="url(#clip0)" transform="translate(9 0)"><rect x="0" y="0" width="820" height="655" fill="#FFFFFF"/><path d="M1.00003 317.854 10.1667 317.854 10.1667 320.146 1.00003 320.146ZM17.0417 317.854 26.2084 317.854 26.2084 320.146 17.0417 320.146ZM33.0834 317.854 42.25 317.854 42.25 320.146 33.0834 320.146ZM49.125 317.854 58.2917 317.854 58.2917 320.146 49.125 320.146ZM65.1667 317.854 74.3334 317.854 74.3334 320.146 65.1667 320.146ZM81.2084 317.854 90.375 317.854 90.375 320.146 81.2084 320.146ZM97.25 317.854 106.417 317.854 106.417 320.146 97.25 320.146ZM113.292 317.854 122.458 317.854 122.458 320.146 113.292 320.146ZM129.333 317.854 138.5 317.854 138.5 320.146 129.333 320.146ZM145.375 317.854 154.542 317.854 154.542 320.146 145.375 320.146ZM161.417 317.854 170.583 317.854 170.583 320.146 161.417 320.146ZM177.458 317.854 186.625 317.854 186.625 320.146 177.458 320.146ZM193.5 317.854 202.667 317.854 202.667 320.146 193.5 320.146ZM209.542 317.854 218.708 317.854 218.708 320.146 209.542 320.146ZM225.583 317.854 234.75 317.854 234.75 320.146 225.583 320.146ZM241.625 317.854 250.792 317.854 250.792 320.146 241.625 320.146ZM257.667 317.854 266.833 317.854 266.833 320.146 257.667 320.146ZM273.708 317.854 282.875 317.854 282.875 320.146 273.708 320.146ZM289.75 317.854 298.917 317.854 298.917 320.146 289.75 320.146ZM305.792 317.854 314.958 317.854 314.958 320.146 305.792 320.146ZM321.833 317.854 331 317.854 331 320.146 321.833 320.146ZM337.875 317.854 347.042 317.854 347.042 320.146 337.875 320.146ZM353.917 317.854 363.083 317.854 363.083 320.146 353.917 320.146ZM369.958 317.854 379.125 317.854 379.125 320.146 369.958 320.146ZM386 317.854 395.167 317.854 395.167 320.146 386 320.146ZM402.042 317.854 411.208 317.854 411.208 320.146 402.042 320.146ZM418.083 317.854 427.25 317.854 427.25 320.146 418.083 320.146ZM434.125 317.854 443.292 317.854 443.292 320.146 434.125 320.146ZM450.167 317.854 459.333 317.854 459.333 320.146 450.167 320.146ZM466.208 317.854 475.375 317.854 475.375 320.146 466.208 320.146ZM482.25 317.854 491.417 317.854 491.417 320.146 482.25 320.146ZM498.292 317.854 507.458 317.854 507.458 320.146 498.292 320.146ZM514.333 317.854 523.5 317.854 523.5 320.146 514.333 320.146ZM530.375 317.854 539.542 317.854 539.542 320.146 530.375 320.146ZM546.417 317.854 555.583 317.854 555.583 320.146 546.417 320.146ZM562.458 317.854 571.625 317.854 571.625 320.146 562.458 320.146ZM578.5 317.854 587.667 317.854 587.667 320.146 578.5 320.146ZM594.542 317.854 603.708 317.854 603.708 320.146 594.542 320.146ZM610.583 317.854 619.75 317.854 619.75 320.146 610.583 320.146ZM626.625 317.854 635.792 317.854 635.792 320.146 626.625 320.146ZM642.667 317.854 651.833 317.854 651.833 320.146 642.667 320.146ZM658.708 317.854 667.875 317.854 667.875 320.146 658.708 320.146ZM674.75 317.855 683.917 317.855 683.917 320.146 674.75 320.146ZM690.792 317.855 699.958 317.855 699.958 320.146 690.792 320.146ZM706.833 317.855 712.333 317.855 712.333 320.146 706.833 320.146ZM1.00003 328.167C-4.06258 328.167-8.16664 324.063-8.16663 319-8.16663 313.937-4.06257 309.833 1.00004 309.833 6.06265 309.833 10.1667 313.937 10.1667 319 10.1667 324.063 6.06264 328.167 1.00003 328.167ZM712.333 309.834C717.396 309.834 721.5 313.938 721.5 319 721.5 324.063 717.396 328.167 712.333 328.167 707.271 328.167 703.167 324.063 703.167 319 703.167 313.938 707.271 309.834 712.333 309.834Z"/><path d="M129 220 129 408.375" stroke="#000000" stroke-width="2.29167" stroke-linejoin="round" stroke-miterlimit="10" fill="none" fill-rule="evenodd"/><path d="M129 15.0001 129 203.375" stroke="#000000" stroke-width="2.29167" stroke-linejoin="round" stroke-miterlimit="10" fill="none" fill-rule="evenodd"/><path d="M129 427 129 615.375" stroke="#000000" stroke-width="2.29167" stroke-linejoin="round" stroke-miterlimit="10" fill="none" fill-rule="evenodd"/><path d="M712 15.0001 712 635.813" stroke="#000000" stroke-width="2.29167" stroke-linejoin="round" stroke-miterlimit="10" fill="none" fill-rule="evenodd"/><text font-family="Cambria Math,Cambria Math_MSFontService,sans-serif" font-weight="400" font-size="46" transform="translate(52.4534 214)">𝑆<tspan font-size="34" x="21.1979" y="9">1</tspan><tspan x="0.0458336" y="206">𝑆</tspan><tspan font-size="34" x="22.2979" y="216">2</tspan></text><path d="M1.71879 22.9167 1.71907 165.458-1.71843 165.458-1.71871 22.9167ZM-13.7499 27.5 0 0 13.7501 27.5ZM13.7503 160.875 0.000360892 188.375-13.7497 160.875Z" fill="#4A7EBB" transform="matrix(1 0 0 -1 178.5 408.875)"/><text font-family="Cambria Math,Cambria Math_MSFontService,sans-serif" font-weight="400" font-size="46" transform="translate(188.83 308)">𝑏</text><path d="M0 0 82.9583 0.000360892" stroke="#000000" stroke-width="2.29167" stroke-linejoin="round" stroke-miterlimit="10" fill="none" fill-rule="evenodd" transform="matrix(-1 0 0 1 192.958 214)"/><path d="M0 0 82.9583 0.000360892" stroke="#000000" stroke-width="2.29167" stroke-linejoin="round" stroke-miterlimit="10" fill="none" fill-rule="evenodd" transform="matrix(-1 0 0 1 193.958 417)"/><path d="M152.417 60.7813 675.375 60.7817 675.375 64.2192 152.417 64.2188ZM157 76.2501 129.5 62.5001 157 48.7501ZM670.792 48.7504 698.292 62.5004 670.792 76.2504Z" fill="#4A7EBB"/><text font-family="Cambria Math,Cambria Math_MSFontService,sans-serif" font-weight="400" font-size="46" transform="translate(399.412 103)">𝐷</text><path d="M0 0 27.7292 0.000360892" stroke="#000000" stroke-width="2.29167" stroke-linejoin="round" stroke-miterlimit="10" fill="none" fill-rule="evenodd" transform="matrix(-1 0 0 1 726.729 159)"/><text font-family="Cambria Math,Cambria Math_MSFontService,sans-serif" font-weight="400" font-size="46" transform="translate(746.393 172)">𝑀</text></g></svg>