<svg width="369" height="285" xmlns="http://www.w3.org/2000/svg" xmlns:xlink="http://www.w3.org/1999/xlink" overflow="hidden"><defs><clipPath id="clip0"><rect x="2172" y="2282" width="369" height="285"/></clipPath><clipPath id="clip1"><rect x="2172" y="2282" width="366" height="282"/></clipPath><clipPath id="clip2"><rect x="2172" y="2282" width="366" height="282"/></clipPath><clipPath id="clip3"><rect x="2172" y="2282" width="366" height="282"/></clipPath><clipPath id="clip4"><rect x="2199" y="2282" width="339" height="262"/></clipPath><clipPath id="clip5"><rect x="2199" y="2282" width="339" height="262"/></clipPath><clipPath id="clip6"><rect x="2172" y="2282" width="366" height="282"/></clipPath><clipPath id="clip7"><rect x="2119" y="2442" width="655" height="59"/></clipPath><clipPath id="clip8"><rect x="2172" y="2282" width="366" height="282"/></clipPath><clipPath id="clip9"><rect x="2172" y="2282" width="367" height="283"/></clipPath><clipPath id="clip10"><rect x="2172" y="2282" width="367" height="283"/></clipPath><clipPath id="clip11"><rect x="2172" y="2282" width="367" height="283"/></clipPath><clipPath id="clip12"><rect x="2172" y="2282" width="367" height="283"/></clipPath><clipPath id="clip13"><rect x="2172" y="2282" width="367" height="283"/></clipPath><clipPath id="clip14"><rect x="2172" y="2282" width="367" height="283"/></clipPath></defs><g clip-path="url(#clip0)" transform="translate(-2172 -2282)"><rect x="2173" y="2283" width="366" height="282" fill="#FFFFFF"/><g clip-path="url(#clip1)"><path d="M1.71875-2.39492e-06 1.71909 240.666-1.71841 240.666-1.71875 2.39492e-06ZM0.000335347 240.667 13.7503 231.5 0.000360892 259-13.7497 231.5Z" transform="matrix(1 0 0 -1 2199.5 2541.5)"/></g><g clip-path="url(#clip2)"><path d="M2199.5 2409.78 2520.17 2409.78 2520.17 2413.22 2199.5 2413.22ZM2520.17 2411.5 2511 2397.75 2538.5 2411.5 2511 2425.25Z"/></g><g clip-path="url(#clip3)"><path d="M2199.5 2411.5 2199.5 2425.5M2369.58 2411.5 2369.58 2425.5M2538.5 2411.5 2538.5 2425.5" stroke="#000000" stroke-width="3.4375" stroke-linejoin="round" stroke-miterlimit="10" fill="none"/></g><g clip-path="url(#clip4)"><path d="M2199.5 2325.5C2200.63 2325.85 2201.76 2325.86 2202.89 2326.56 2204.02 2327.27 2205.15 2328.34 2206.28 2329.73 2207.41 2331.13 2208.54 2332.88 2209.67 2334.93 2210.8 2336.98 2211.93 2339.37 2213.06 2342.02 2214.19 2344.67 2215.32 2347.65 2216.45 2350.84 2217.58 2354.02 2218.71 2357.51 2219.84 2361.16 2220.97 2364.81 2222.1 2368.71 2223.23 2372.73 2224.36 2376.75 2225.49 2380.98 2226.62 2385.27 2227.75 2389.56 2228.88 2394.01 2230.01 2398.47 2231.14 2402.92 2232.27 2407.49 2233.4 2412 2234.53 2416.51 2235.66 2421.08 2236.79 2425.53 2237.92 2429.99 2239.05 2434.44 2240.18 2438.73 2241.31 2443.02 2242.44 2447.25 2243.57 2451.27 2244.7 2455.29 2245.83 2459.19 2246.96 2462.84 2248.09 2466.49 2249.22 2469.98 2250.35 2473.16 2251.48 2476.35 2252.61 2479.33 2253.74 2481.98 2254.87 2484.63 2256 2487.02 2257.13 2489.07 2258.26 2491.12 2259.39 2492.87 2260.52 2494.27 2261.65 2495.66 2262.78 2496.73 2263.91 2497.43 2265.04 2498.14 2266.17 2498.5 2267.3 2498.5 2268.43 2498.5 2269.56 2498.14 2270.69 2497.43 2271.82 2496.73 2272.95 2495.66 2274.08 2494.27 2275.21 2492.87 2276.34 2491.12 2277.47 2489.07 2278.6 2487.02 2279.73 2484.63 2280.86 2481.98 2281.99 2479.33 2283.12 2476.35 2284.25 2473.16 2285.38 2469.98 2286.51 2466.49 2287.64 2462.84 2288.77 2459.19 2289.9 2455.29 2291.03 2451.27 2292.16 2447.25 2293.29 2443.02 2294.42 2438.73 2295.55 2434.44 2296.68 2429.99 2297.81 2425.53 2298.94 2421.08 2300.07 2416.51 2301.2 2412 2302.33 2407.49 2303.46 2402.92 2304.59 2398.47 2305.72 2394.01 2306.85 2389.56 2307.98 2385.27 2309.11 2380.98 2310.24 2376.75 2311.37 2372.73 2312.5 2368.71 2313.63 2364.81 2314.76 2361.16 2315.89 2357.51 2317.02 2354.02 2318.15 2350.84 2319.28 2347.65 2320.41 2344.67 2321.54 2342.02 2322.67 2339.37 2323.8 2336.98 2324.93 2334.93 2326.06 2332.88 2327.19 2331.13 2328.32 2329.73 2329.45 2328.34 2330.58 2327.27 2331.71 2326.56 2332.84 2325.86 2333.97 2325.5 2335.1 2325.5 2336.23 2325.5 2337.36 2325.86 2338.49 2326.56 2339.62 2327.27 2340.75 2328.34 2341.88 2329.73 2343.01 2331.13 2344.14 2332.88 2345.27 2334.93 2346.4 2336.98 2347.53 2339.37 2348.66 2342.02 2349.79 2344.67 2350.92 2347.65 2352.05 2350.84 2353.18 2354.02 2354.31 2357.51 2355.44 2361.16 2356.57 2364.81 2357.7 2368.71 2358.83 2372.73 2359.96 2376.75 2361.09 2380.98 2362.22 2385.27 2363.35 2389.56 2364.48 2394.01 2365.61 2398.47 2366.74 2402.92 2367.87 2407.49 2369 2412 2370.13 2416.51 2371.26 2421.08 2372.39 2425.53 2373.52 2429.99 2374.65 2434.44 2375.78 2438.73 2376.91 2443.02 2378.04 2447.25 2379.17 2451.27 2380.3 2455.29 2381.43 2459.19 2382.56 2462.84 2383.69 2466.49 2384.82 2469.98 2385.95 2473.16 2387.08 2476.35 2388.21 2479.33 2389.34 2481.98 2390.47 2484.63 2391.6 2487.02 2392.73 2489.07 2393.86 2491.12 2394.99 2492.87 2396.12 2494.27 2397.25 2495.66 2398.38 2496.73 2399.51 2497.43 2400.64 2498.14 2401.77 2498.5 2402.9 2498.5 2404.03 2498.5 2405.16 2498.14 2406.29 2497.43 2407.42 2496.73 2408.55 2495.66 2409.68 2494.27 2410.81 2492.87 2411.94 2491.12 2413.07 2489.07 2414.2 2487.02 2415.33 2484.63 2416.46 2481.98 2417.59 2479.33 2418.72 2476.35 2419.85 2473.16 2420.98 2469.98 2422.11 2466.49 2423.24 2462.84 2424.37 2459.19 2425.5 2455.29 2426.63 2451.27 2427.76 2447.25 2428.89 2443.02 2430.02 2438.73 2431.15 2434.44 2432.28 2429.99 2433.41 2425.53 2434.54 2421.08 2435.67 2416.51 2436.8 2412 2437.93 2407.49 2439.06 2402.92 2440.19 2398.47 2441.32 2394.01 2442.45 2389.56 2443.58 2385.27 2444.71 2380.98 2445.84 2376.75 2446.97 2372.73 2448.1 2368.71 2449.23 2364.81 2450.36 2361.16 2451.49 2357.51 2452.62 2354.02 2453.75 2350.84 2454.88 2347.65 2456.01 2344.67 2457.14 2342.02 2458.27 2339.37 2459.4 2336.98 2460.53 2334.93 2461.66 2332.88 2462.79 2331.13 2463.92 2329.73 2465.05 2328.34 2466.18 2327.27 2467.31 2326.56 2468.44 2325.86 2469.57 2325.5 2470.7 2325.5 2471.83 2325.5 2472.96 2325.86 2474.09 2326.56 2475.22 2327.27 2476.35 2328.34 2477.48 2329.73 2478.61 2331.13 2479.74 2332.88 2480.87 2334.93 2482 2336.98 2483.13 2339.37 2484.26 2342.02 2485.39 2344.67 2486.52 2347.65 2487.65 2350.84 2488.78 2354.02 2489.91 2357.51 2491.04 2361.16 2492.17 2364.81 2493.3 2368.71 2494.43 2372.73 2495.56 2376.75 2496.69 2380.98 2497.82 2385.27 2498.95 2389.56 2500.08 2394.01 2501.21 2398.47 2502.34 2402.92 2503.47 2407.49 2504.6 2412 2505.73 2416.51 2506.86 2421.08 2507.99 2425.53 2509.12 2429.99 2510.25 2434.44 2511.38 2438.73 2512.51 2443.02 2513.64 2447.25 2514.77 2451.27 2515.9 2455.29 2517.03 2459.19 2518.16 2462.84 2519.29 2466.49 2520.42 2469.98 2521.55 2473.16 2522.68 2476.35 2523.81 2479.33 2524.94 2481.98 2526.07 2484.63 2527.2 2487.02 2528.33 2489.07 2529.46 2491.12 2530.59 2492.87 2531.72 2494.27 2532.85 2495.66 2533.98 2496.73 2535.11 2497.43 2536.24 2498.14 2537.37 2498.15 2538.5 2498.5" stroke="#4F81BD" stroke-width="3.4375" stroke-linecap="round" stroke-linejoin="round" stroke-miterlimit="10" fill="none"/></g><g clip-path="url(#clip5)"><path d="M2199.5 2412.5C2200.63 2412.5 2201.76 2412.5 2202.89 2412.5 2204.02 2412.5 2205.15 2412.49 2206.28 2412.49 2207.41 2412.49 2208.54 2412.48 2209.67 2412.47 2210.8 2412.46 2211.93 2412.45 2213.06 2412.44 2214.19 2412.42 2215.32 2412.4 2216.45 2412.38 2217.58 2412.35 2218.71 2412.32 2219.84 2412.29 2220.97 2412.25 2222.1 2412.21 2223.23 2412.17 2224.36 2412.13 2225.49 2412.08 2226.62 2412.03 2227.75 2411.98 2228.88 2411.93 2230.01 2411.88 2231.14 2411.83 2232.27 2411.78 2233.4 2411.73 2234.53 2411.69 2235.66 2411.65 2236.79 2411.62 2237.92 2411.58 2239.05 2411.56 2240.18 2411.54 2241.31 2411.52 2242.44 2411.51 2243.57 2411.5 2244.7 2411.5 2245.83 2411.5 2246.96 2411.51 2248.09 2411.52 2249.22 2411.53 2250.35 2411.54 2251.48 2411.56 2252.61 2411.58 2253.74 2411.6 2254.87 2411.61 2256 2411.63 2257.13 2411.65 2258.26 2411.66 2259.39 2411.68 2260.52 2411.69 2261.65 2411.71 2262.78 2411.72 2263.91 2411.72 2265.04 2411.73 2266.17 2411.73 2267.3 2411.73 2268.43 2411.73 2269.56 2411.73 2270.69 2411.72 2271.82 2411.72 2272.95 2411.71 2274.08 2411.69 2275.21 2411.68 2276.34 2411.66 2277.47 2411.65 2278.6 2411.63 2279.73 2411.61 2280.86 2411.6 2281.99 2411.58 2283.12 2411.56 2284.25 2411.54 2285.38 2411.53 2286.51 2411.52 2287.64 2411.51 2288.77 2411.5 2289.9 2411.5 2291.03 2411.5 2292.16 2411.51 2293.29 2411.52 2294.42 2411.54 2295.55 2411.56 2296.68 2411.58 2297.81 2411.62 2298.94 2411.65 2300.07 2411.69 2301.2 2411.73 2302.33 2411.78 2303.46 2411.83 2304.59 2411.88 2305.72 2411.93 2306.85 2411.98 2307.98 2412.03 2309.11 2412.08 2310.24 2412.13 2311.37 2412.17 2312.5 2412.21 2313.63 2412.25 2314.76 2412.29 2315.89 2412.32 2317.02 2412.35 2318.15 2412.38 2319.28 2412.4 2320.41 2412.42 2321.54 2412.44 2322.67 2412.45 2323.8 2412.46 2324.93 2412.47 2326.06 2412.48 2327.19 2412.49 2328.32 2412.49 2329.45 2412.49 2330.58 2412.5 2331.71 2412.5 2332.84 2412.5 2333.97 2412.5 2335.1 2412.5 2336.23 2412.5 2337.36 2412.5 2338.49 2412.5 2339.62 2412.5 2340.75 2412.49 2341.88 2412.49 2343.01 2412.49 2344.14 2412.48 2345.27 2412.47 2346.4 2412.46 2347.53 2412.45 2348.66 2412.44 2349.79 2412.42 2350.92 2412.4 2352.05 2412.38 2353.18 2412.35 2354.31 2412.32 2355.44 2412.29 2356.57 2412.25 2357.7 2412.21 2358.83 2412.17 2359.96 2412.13 2361.09 2412.08 2362.22 2412.03 2363.35 2411.98 2364.48 2411.93 2365.61 2411.88 2366.74 2411.83 2367.87 2411.78 2369 2411.73 2370.13 2411.69 2371.26 2411.65 2372.39 2411.62 2373.52 2411.58 2374.65 2411.56 2375.78 2411.54 2376.91 2411.52 2378.04 2411.51 2379.17 2411.5 2380.3 2411.5 2381.43 2411.5 2382.56 2411.51 2383.69 2411.52 2384.82 2411.53 2385.95 2411.54 2387.08 2411.56 2388.21 2411.58 2389.34 2411.6 2390.47 2411.61 2391.6 2411.63 2392.73 2411.65 2393.86 2411.66 2394.99 2411.68 2396.12 2411.69 2397.25 2411.71 2398.38 2411.72 2399.51 2411.72 2400.64 2411.73 2401.77 2411.73 2402.9 2411.73 2404.03 2411.73 2405.16 2411.73 2406.29 2411.72 2407.42 2411.72 2408.55 2411.71 2409.68 2411.69 2410.81 2411.68 2411.94 2411.66 2413.07 2411.65 2414.2 2411.63 2415.33 2411.61 2416.46 2411.6 2417.59 2411.58 2418.72 2411.56 2419.85 2411.54 2420.98 2411.53 2422.11 2411.52 2423.24 2411.51 2424.37 2411.5 2425.5 2411.5 2426.63 2411.5 2427.76 2411.51 2428.89 2411.52 2430.02 2411.54 2431.15 2411.56 2432.28 2411.58 2433.41 2411.62 2434.54 2411.65 2435.67 2411.69 2436.8 2411.73 2437.93 2411.78 2439.06 2411.83 2440.19 2411.88 2441.32 2411.93 2442.45 2411.98 2443.58 2412.03 2444.71 2412.08 2445.84 2412.13 2446.97 2412.17 2448.1 2412.21 2449.23 2412.25 2450.36 2412.29 2451.49 2412.32 2452.62 2412.35 2453.75 2412.38 2454.88 2412.4 2456.01 2412.42 2457.14 2412.44 2458.27 2412.45 2459.4 2412.46 2460.53 2412.47 2461.66 2412.48 2462.79 2412.49 2463.92 2412.49 2465.05 2412.49 2466.18 2412.5 2467.31 2412.5 2468.44 2412.5 2469.57 2412.5 2470.7 2412.5 2471.83 2412.5 2472.96 2412.5 2474.09 2412.5 2475.22 2412.5 2476.35 2412.49 2477.48 2412.49 2478.61 2412.49 2479.74 2412.48 2480.87 2412.47 2482 2412.46 2483.13 2412.45 2484.26 2412.44 2485.39 2412.42 2486.52 2412.4 2487.65 2412.38 2488.78 2412.35 2489.91 2412.32 2491.04 2412.29 2492.17 2412.25 2493.3 2412.21 2494.43 2412.17 2495.56 2412.13 2496.69 2412.08 2497.82 2412.03 2498.95 2411.98 2500.08 2411.93 2501.21 2411.88 2502.34 2411.83 2503.47 2411.78 2504.6 2411.73 2505.73 2411.69 2506.86 2411.65 2507.99 2411.62 2509.12 2411.58 2510.25 2411.56 2511.38 2411.54 2512.51 2411.52 2513.64 2411.51 2514.77 2411.5 2515.9 2411.5 2517.03 2411.5 2518.16 2411.51 2519.29 2411.52 2520.42 2411.53 2521.55 2411.54 2522.68 2411.56 2523.81 2411.58 2524.94 2411.6 2526.07 2411.61 2527.2 2411.63 2528.33 2411.65 2529.46 2411.66 2530.59 2411.68 2531.72 2411.69 2532.85 2411.71 2533.98 2411.72 2535.11 2411.72 2536.24 2411.73 2537.37 2411.73 2538.5 2411.73" stroke="#C0504D" stroke-width="3.4375" stroke-linecap="round" stroke-linejoin="round" stroke-miterlimit="10" fill="none"/></g><g clip-path="url(#clip6)"><g clip-path="url(#clip7)"><text font-family="Calibri,Calibri_MSFontService,sans-serif" font-weight="400" font-size="37" transform="matrix(1 0 0 1 2400.23 2484)">temps</text></g></g><g clip-path="url(#clip8)"><text font-family="Calibri,Calibri_MSFontService,sans-serif" font-weight="400" font-size="32" transform="matrix(1 0 0 1 2260.88 2328)">Hauteur d'eau</text></g><rect x="2173.5" y="2283.5" width="366" height="282" stroke="#D9D9D9" stroke-width="3.4375" stroke-linejoin="round" stroke-miterlimit="10" fill="none"/><g clip-path="url(#clip9)"><text font-family="Cambria Math,Cambria Math_MSFontService,sans-serif" font-weight="400" font-size="37" transform="translate(2484.46 2334)">(</text></g><g clip-path="url(#clip10)"><text font-family="Cambria Math,Cambria Math_MSFontService,sans-serif" font-weight="400" font-size="37" transform="translate(2499.68 2334)">1</text></g><g clip-path="url(#clip11)"><text font-family="Cambria Math,Cambria Math_MSFontService,sans-serif" font-weight="400" font-size="37" transform="translate(2519.98 2334)">)</text></g><g clip-path="url(#clip12)"><text font-family="Cambria Math,Cambria Math_MSFontService,sans-serif" font-weight="400" font-size="37" transform="translate(2460.6 2450)">(</text></g><g clip-path="url(#clip13)"><text font-family="Cambria Math,Cambria Math_MSFontService,sans-serif" font-weight="400" font-size="37" transform="translate(2475.82 2450)">2</text></g><g clip-path="url(#clip14)"><text font-family="Cambria Math,Cambria Math_MSFontService,sans-serif" font-weight="400" font-size="37" transform="translate(2496.12 2450)">)</text></g></g></svg>