<svg width="1046" height="653" xmlns="http://www.w3.org/2000/svg" xmlns:xlink="http://www.w3.org/1999/xlink" overflow="hidden"><defs><clipPath id="clip0"><rect x="1376" y="69" width="1046" height="653"/></clipPath><clipPath id="clip1"><rect x="1376" y="70" width="1043" height="649"/></clipPath><clipPath id="clip2"><rect x="1376" y="70" width="1043" height="649"/></clipPath><clipPath id="clip3"><rect x="1376" y="70" width="1043" height="649"/></clipPath><clipPath id="clip4"><rect x="1376" y="70" width="1043" height="649"/></clipPath><clipPath id="clip5"><rect x="1376" y="70" width="1043" height="649"/></clipPath><clipPath id="clip6"><rect x="1376" y="70" width="1043" height="649"/></clipPath><clipPath id="clip7"><rect x="1376" y="70" width="1043" height="649"/></clipPath><clipPath id="clip8"><rect x="1376" y="70" width="1043" height="649"/></clipPath><clipPath id="clip9"><rect x="1511" y="142" width="849" height="473"/></clipPath><clipPath id="clip10"><rect x="1376" y="70" width="1043" height="649"/></clipPath><clipPath id="clip11"><rect x="1376" y="70" width="1043" height="649"/></clipPath><clipPath id="clip12"><rect x="1376" y="70" width="1043" height="649"/></clipPath><clipPath id="clip13"><rect x="1376" y="70" width="1043" height="649"/></clipPath><clipPath id="clip14"><rect x="1376" y="70" width="1043" height="649"/></clipPath><clipPath id="clip15"><rect x="1376" y="70" width="1043" height="649"/></clipPath><clipPath id="clip16"><rect x="1376" y="70" width="1043" height="649"/></clipPath><clipPath id="clip17"><rect x="1376" y="70" width="1043" height="649"/></clipPath><clipPath id="clip18"><rect x="1376" y="70" width="1043" height="649"/></clipPath><clipPath id="clip19"><rect x="1376" y="70" width="1043" height="649"/></clipPath><clipPath id="clip20"><rect x="1376" y="70" width="1043" height="649"/></clipPath><clipPath id="clip21"><rect x="1376" y="70" width="1043" height="649"/></clipPath><clipPath id="clip22"><rect x="1376" y="70" width="1043" height="649"/></clipPath><clipPath id="clip23"><rect x="1376" y="70" width="1043" height="649"/></clipPath><clipPath id="clip24"><rect x="1376" y="70" width="1043" height="649"/></clipPath><clipPath id="clip25"><rect x="1376" y="70" width="1043" height="649"/></clipPath><clipPath id="clip26"><rect x="1376" y="70" width="1043" height="649"/></clipPath><clipPath id="clip27"><rect x="1376" y="70" width="1043" height="649"/></clipPath><clipPath id="clip28"><rect x="1376" y="70" width="1043" height="649"/></clipPath><clipPath id="clip29"><rect x="1376" y="70" width="1043" height="649"/></clipPath><clipPath id="clip30"><rect x="1376" y="70" width="1043" height="649"/></clipPath><clipPath id="clip31"><rect x="1376" y="70" width="1043" height="649"/></clipPath><clipPath id="clip32"><rect x="1376" y="70" width="1043" height="649"/></clipPath><clipPath id="clip33"><rect x="1376" y="70" width="1043" height="649"/></clipPath><clipPath id="clip34"><rect x="1376" y="70" width="1044" height="650"/></clipPath><clipPath id="clip35"><rect x="1376" y="70" width="1044" height="650"/></clipPath><clipPath id="clip36"><rect x="1376" y="70" width="1044" height="650"/></clipPath><clipPath id="clip37"><rect x="1376" y="70" width="1044" height="650"/></clipPath><clipPath id="clip38"><rect x="1376" y="70" width="1044" height="650"/></clipPath><clipPath id="clip39"><rect x="1200" y="436" width="1992" height="126"/></clipPath></defs><g clip-path="url(#clip0)" transform="translate(-1376 -69)"><rect x="1377" y="70.0001" width="1043" height="650" fill="#FFFFFF"/><g clip-path="url(#clip1)"><path d="M1511.5 602.52 2357.5 602.52M1511.5 593.52 2357.5 593.52M1511.5 584.519 2357.5 584.519M1511.5 574.519 2357.5 574.519M1511.5 555.518 2357.5 555.518M1511.5 546.518 2357.5 546.518M1511.5 537.518 2357.5 537.518M1511.5 527.518 2357.5 527.518M1511.5 508.517 2357.5 508.517M1511.5 499.517 2357.5 499.517M1511.5 490.516 2357.5 490.516M1511.5 480.516 2357.5 480.516M1511.5 461.515 2357.5 461.515M1511.5 452.515 2357.5 452.515M1511.5 443.515 2357.5 443.515M1511.5 433.514 2357.5 433.514M1511.5 414.514 2357.5 414.514M1511.5 405.513 2357.5 405.513M1511.5 396.513 2357.5 396.513M1511.5 386.513 2357.5 386.513M1511.5 367.512 2357.5 367.512M1511.5 358.512 2357.5 358.512M1511.5 349.512 2357.5 349.512M1511.5 339.511 2357.5 339.511M1511.5 321.511 2357.5 321.511M1511.5 311.51 2357.5 311.51M1511.5 302.51 2357.5 302.51M1511.5 292.51 2357.5 292.51M1511.5 274.509 2357.5 274.509M1511.5 264.509 2357.5 264.509M1511.5 255.509 2357.5 255.509M1511.5 245.508 2357.5 245.508M1511.5 227.508 2357.5 227.508M1511.5 217.507 2357.5 217.507M1511.5 208.507 2357.5 208.507M1511.5 198.507 2357.5 198.507M1511.5 180.506 2357.5 180.506M1511.5 170.506 2357.5 170.506M1511.5 161.505 2357.5 161.505M1511.5 151.505 2357.5 151.505" stroke="#F2F2F2" stroke-width="3.4375" stroke-linejoin="round" stroke-miterlimit="10" fill="none"/></g><g clip-path="url(#clip2)"><path d="M1511.5 565.519 2357.5 565.519M1511.5 518.517 2357.5 518.517M1511.5 471.516 2357.5 471.516M1511.5 424.514 2357.5 424.514M1511.5 377.513 2357.5 377.513M1511.5 330.511 2357.5 330.511M1511.5 283.509 2357.5 283.509M1511.5 236.508 2357.5 236.508M1511.5 189.506 2357.5 189.506M1511.5 142.5 2357.5 142.5" stroke="#D9D9D9" stroke-width="3.4375" stroke-linejoin="round" stroke-miterlimit="10" fill="none"/></g><g clip-path="url(#clip3)"><path d="M1532.55 142.5 1532.55 612.5M1553.55 142.5 1553.55 612.5M1574.55 142.5 1574.55 612.5M1596.55 142.5 1596.55 612.5M1638.55 142.5 1638.55 612.5M1659.55 142.5 1659.55 612.5M1680.56 142.5 1680.56 612.5M1701.56 142.5 1701.56 612.5M1744.56 142.5 1744.56 612.5M1765.56 142.5 1765.56 612.5M1786.56 142.5 1786.56 612.5M1807.56 142.5 1807.56 612.5M1849.56 142.5 1849.56 612.5M1870.56 142.5 1870.56 612.5M1891.56 142.5 1891.56 612.5M1913.56 142.5 1913.56 612.5M1955.56 142.5 1955.56 612.5M1976.57 142.5 1976.57 612.5M1997.57 142.5 1997.57 612.5M2018.57 142.5 2018.57 612.5M2061.57 142.5 2061.57 612.5M2082.57 142.5 2082.57 612.5M2103.57 142.5 2103.57 612.5M2124.57 142.5 2124.57 612.5M2166.57 142.5 2166.57 612.5M2187.57 142.5 2187.57 612.5M2209.57 142.5 2209.57 612.5M2230.57 142.5 2230.57 612.5M2272.57 142.5 2272.57 612.5M2293.58 142.5 2293.58 612.5M2314.58 142.5 2314.58 612.5M2335.58 142.5 2335.58 612.5" stroke="#F2F2F2" stroke-width="3.4375" stroke-linejoin="round" stroke-miterlimit="10" fill="none"/></g><g clip-path="url(#clip4)"><path d="M1511.5 142.5 1511.5 612.5M1617.55 142.5 1617.55 612.5M1722.56 142.5 1722.56 612.5M1828.56 142.5 1828.56 612.5M2039.57 142.5 2039.57 612.5M2145.57 142.5 2145.57 612.5M2251.57 142.5 2251.57 612.5M2357.5 142.5 2357.5 612.5" stroke="#D9D9D9" stroke-width="3.4375" stroke-linejoin="round" stroke-miterlimit="10" fill="none"/></g><g clip-path="url(#clip5)"><path d="M0 0 0.000360892 470" stroke="#BFBFBF" stroke-width="3.4375" stroke-linejoin="round" stroke-miterlimit="10" fill="none" fill-rule="evenodd" transform="matrix(1 0 0 -1 1934.5 612.5)"/></g><g clip-path="url(#clip6)"><path d="M1925.5 612.5 1934.5 612.5M1925.5 565.519 1934.5 565.519M1925.5 518.517 1934.5 518.517M1925.5 471.516 1934.5 471.516M1925.5 424.514 1934.5 424.514M1925.5 377.513 1934.5 377.513M1925.5 330.511 1934.5 330.511M1925.5 283.509 1934.5 283.509M1925.5 236.508 1934.5 236.508M1925.5 189.506 1934.5 189.506M1925.5 142.5 1934.5 142.5" stroke="#BFBFBF" stroke-width="3.4375" stroke-linejoin="round" stroke-miterlimit="10" fill="none"/></g><g clip-path="url(#clip7)"><path d="M1511.5 612.5 2357.5 612.5" stroke="#BFBFBF" stroke-width="3.4375" stroke-linejoin="round" stroke-miterlimit="10" fill="none" fill-rule="evenodd"/></g><g clip-path="url(#clip8)"><path d="M1511.5 612.5 1511.5 621.5M1617.55 612.5 1617.55 621.5M1722.56 612.5 1722.56 621.5M1828.56 612.5 1828.56 621.5M1934.56 612.5 1934.56 621.5M2039.57 612.5 2039.57 621.5M2145.57 612.5 2145.57 621.5M2251.57 612.5 2251.57 621.5M2357.5 612.5 2357.5 621.5" stroke="#BFBFBF" stroke-width="3.4375" stroke-linejoin="round" stroke-miterlimit="10" fill="none"/></g><g clip-path="url(#clip9)"><path d="M1511.5 612.085C1515.02 612.179 1518.55 612.373 1522.07 612.368 1525.6 612.363 1529.12 612.253 1532.65 612.054 1536.17 611.855 1539.7 611.517 1543.22 611.175 1546.75 610.833 1550.27 610.372 1553.8 610.003 1557.32 609.634 1560.85 609.217 1564.38 608.96 1567.9 608.703 1571.42 608.497 1574.95 608.46 1578.47 608.422 1582 608.525 1585.53 608.735 1589.05 608.944 1592.57 609.335 1596.1 609.716 1599.62 610.098 1603.15 610.629 1606.68 611.023 1610.2 611.417 1613.72 611.862 1617.25 612.08 1620.77 612.299 1624.3 612.433 1627.83 612.333 1631.35 612.233 1634.88 611.93 1638.4 611.482 1641.92 611.032 1645.45 610.327 1648.98 609.638 1652.5 608.949 1656.03 608.051 1659.55 607.347 1663.07 606.644 1666.6 605.871 1670.13 605.417 1673.65 604.963 1677.18 604.63 1680.7 604.625 1684.22 604.62 1687.75 604.906 1691.28 605.386 1694.8 605.865 1698.33 606.71 1701.85 607.505 1705.37 608.299 1708.9 609.39 1712.43 610.152 1715.95 610.914 1719.48 611.761 1723 612.077 1726.52 612.393 1730.05 612.5 1733.57 612.046 1737.1 611.592 1740.62 610.655 1744.15 609.352 1747.67 608.048 1751.2 606.125 1754.72 604.223 1758.25 602.321 1761.77 599.885 1765.3 597.939 1768.82 595.993 1772.35 593.836 1775.87 592.547 1779.4 591.257 1782.92 590.246 1786.45 590.202 1789.97 590.158 1793.5 590.893 1797.02 592.284 1800.55 593.675 1804.07 596.158 1807.6 598.548 1811.12 600.938 1814.65 604.367 1818.17 606.622 1821.7 608.876 1825.22 611.651 1828.75 612.075 1832.27 612.5 1835.8 612.486 1839.32 609.168 1842.85 605.85 1846.37 600.871 1849.9 592.169 1853.42 583.466 1856.95 571.902 1860.47 556.951 1864 541.999 1867.52 523.348 1871.05 502.462 1874.57 481.576 1878.1 456.81 1881.62 431.634 1885.15 406.458 1888.67 378.048 1892.2 351.407 1895.72 324.765 1899.25 296.343 1902.77 271.783 1906.3 247.223 1909.82 222.921 1913.35 204.047 1916.87 185.173 1920.4 168.795 1923.93 158.538 1927.05 149.455 1931.38 142.5 1934.5 142.5 1937.62 142.5 1941.95 149.455 1945.07 158.538 1948.6 168.795 1952.12 185.173 1955.65 204.047 1959.17 222.921 1962.7 247.223 1966.22 271.783 1969.75 296.343 1973.27 324.765 1976.8 351.407 1980.32 378.048 1983.85 406.458 1987.38 431.634 1990.9 456.81 1994.42 481.576 1997.95 502.462 2001.47 523.348 2005 541.999 2008.53 556.951 2012.05 571.902 2015.57 583.466 2019.1 592.169 2022.62 600.871 2026.15 605.85 2029.68 609.168 2033.2 612.486 2036.72 612.5 2040.25 612.075 2043.77 611.651 2047.3 608.876 2050.83 606.622 2054.35 604.367 2057.88 600.938 2061.4 598.548 2064.92 596.158 2068.45 593.675 2071.98 592.284 2075.5 590.893 2079.02 590.158 2082.55 590.202 2086.07 590.246 2089.6 591.257 2093.12 592.547 2096.65 593.836 2100.18 595.993 2103.7 597.939 2107.22 599.885 2110.75 602.321 2114.28 604.223 2117.8 606.125 2121.32 608.048 2124.85 609.352 2128.38 610.655 2131.9 611.592 2135.43 612.046 2138.95 612.5 2142.48 612.393 2146 612.077 2149.52 611.761 2153.05 610.914 2156.57 610.152 2160.1 609.39 2163.62 608.299 2167.15 607.505 2170.67 606.71 2174.2 605.865 2177.72 605.386 2181.25 604.906 2184.77 604.62 2188.3 604.625 2191.82 604.63 2195.35 604.963 2198.87 605.417 2202.4 605.871 2205.92 606.644 2209.45 607.347 2212.97 608.051 2216.5 608.949 2220.02 609.638 2223.55 610.327 2227.07 611.032 2230.6 611.482 2234.12 611.93 2237.65 612.233 2241.17 612.333 2244.7 612.433 2248.22 612.299 2251.75 612.08 2255.27 611.862 2258.8 611.417 2262.32 611.023 2265.85 610.629 2269.37 610.098 2272.9 609.716 2276.42 609.335 2279.95 608.944 2283.47 608.735 2287 608.525 2290.52 608.422 2294.05 608.46 2297.57 608.497 2301.1 608.703 2304.62 608.96 2308.15 609.217 2311.67 609.634 2315.2 610.003 2318.72 610.372 2322.25 610.833 2325.77 611.175 2329.3 611.517 2332.82 611.855 2336.35 612.054 2339.87 612.253 2343.4 612.363 2346.92 612.368 2350.45 612.373 2353.97 612.179 2357.5 612.085" stroke="#000000" stroke-width="3.4375" stroke-linecap="round" stroke-linejoin="round" stroke-miterlimit="10" fill="none"/></g><g clip-path="url(#clip10)"><text fill="#595959" font-family="Calibri,Calibri_MSFontService,sans-serif" font-weight="400" font-size="28" transform="matrix(1 0 0 1 1451.31 620)">0,0</text></g><g clip-path="url(#clip11)"><text fill="#595959" font-family="Calibri,Calibri_MSFontService,sans-serif" font-weight="400" font-size="28" transform="matrix(1 0 0 1 1451.31 573)">0,1</text></g><g clip-path="url(#clip12)"><text fill="#595959" font-family="Calibri,Calibri_MSFontService,sans-serif" font-weight="400" font-size="28" transform="matrix(1 0 0 1 1451.31 526)">0,2</text></g><g clip-path="url(#clip13)"><text fill="#595959" font-family="Calibri,Calibri_MSFontService,sans-serif" font-weight="400" font-size="28" transform="matrix(1 0 0 1 1451.31 479)">0,3</text></g><g clip-path="url(#clip14)"><text fill="#595959" font-family="Calibri,Calibri_MSFontService,sans-serif" font-weight="400" font-size="28" transform="matrix(1 0 0 1 1451.31 432)">0,4</text></g><g clip-path="url(#clip15)"><text fill="#595959" font-family="Calibri,Calibri_MSFontService,sans-serif" font-weight="400" font-size="28" transform="matrix(1 0 0 1 1451.31 385)">0,5</text></g><g clip-path="url(#clip16)"><text fill="#595959" font-family="Calibri,Calibri_MSFontService,sans-serif" font-weight="400" font-size="28" transform="matrix(1 0 0 1 1451.31 338)">0,6</text></g><g clip-path="url(#clip17)"><text fill="#595959" font-family="Calibri,Calibri_MSFontService,sans-serif" font-weight="400" font-size="28" transform="matrix(1 0 0 1 1451.31 291)">0,7</text></g><g clip-path="url(#clip18)"><text fill="#595959" font-family="Calibri,Calibri_MSFontService,sans-serif" font-weight="400" font-size="28" transform="matrix(1 0 0 1 1451.31 244)">0,8</text></g><g clip-path="url(#clip19)"><text fill="#595959" font-family="Calibri,Calibri_MSFontService,sans-serif" font-weight="400" font-size="28" transform="matrix(1 0 0 1 1451.31 197)">0,9</text></g><g clip-path="url(#clip20)"><text fill="#595959" font-family="Calibri,Calibri_MSFontService,sans-serif" font-weight="400" font-size="28" transform="matrix(1 0 0 1 1451.31 150)">1,0</text></g><g clip-path="url(#clip21)"><text fill="#595959" font-family="Calibri,Calibri_MSFontService,sans-serif" font-weight="400" font-size="28" transform="matrix(1 0 0 1 1500.38 656)">-4</text></g><g clip-path="url(#clip22)"><text fill="#595959" font-family="Calibri,Calibri_MSFontService,sans-serif" font-weight="400" font-size="28" transform="matrix(1 0 0 1 1606.07 656)">-3</text></g><g clip-path="url(#clip23)"><text fill="#595959" font-family="Calibri,Calibri_MSFontService,sans-serif" font-weight="400" font-size="28" transform="matrix(1 0 0 1 1711.75 656)">-2</text></g><g clip-path="url(#clip24)"><text fill="#595959" font-family="Calibri,Calibri_MSFontService,sans-serif" font-weight="400" font-size="28" transform="matrix(1 0 0 1 1817.44 656)">-1</text></g><g clip-path="url(#clip25)"><text fill="#595959" font-family="Calibri,Calibri_MSFontService,sans-serif" font-weight="400" font-size="28" transform="matrix(1 0 0 1 1927.33 656)">0</text></g><g clip-path="url(#clip26)"><text fill="#595959" font-family="Calibri,Calibri_MSFontService,sans-serif" font-weight="400" font-size="28" transform="matrix(1 0 0 1 2033.02 656)">1</text></g><g clip-path="url(#clip27)"><text fill="#595959" font-family="Calibri,Calibri_MSFontService,sans-serif" font-weight="400" font-size="28" transform="matrix(1 0 0 1 2138.71 656)">2</text></g><g clip-path="url(#clip28)"><text fill="#595959" font-family="Calibri,Calibri_MSFontService,sans-serif" font-weight="400" font-size="28" transform="matrix(1 0 0 1 2244.39 656)">3</text></g><g clip-path="url(#clip29)"><text fill="#595959" font-family="Calibri,Calibri_MSFontService,sans-serif" font-weight="400" font-size="28" transform="matrix(1 0 0 1 2350.08 656)">4</text></g><g clip-path="url(#clip30)"><text fill="#595959" font-family="Calibri,Calibri_MSFontService,sans-serif" font-weight="400" font-size="28" transform="matrix(6.12323e-17 -1 1 6.12323e-17 1434.27 492)">Intensité lumineuse</text></g><g clip-path="url(#clip31)"><text fill="#595959" font-family="Calibri,Calibri_MSFontService,sans-serif" font-weight="400" font-size="28" transform="matrix(1 0 0 1 1632.95 688)">Position sur l'écran (par rapport à l'axe) unité : </text></g><g clip-path="url(#clip32)"><text fill="#595959" font-family="Symbol,Symbol_MSFontService,sans-serif" font-weight="400" font-size="28" transform="matrix(1 0 0 1 2157.26 688)"></text></g><g clip-path="url(#clip33)"><text fill="#595959" font-family="Calibri,Calibri_MSFontService,sans-serif" font-weight="400" font-size="28" transform="matrix(1 0 0 1 2172.36 688)">D/a</text></g><rect x="1377.5" y="70.5" width="1043" height="650" stroke="#D9D9D9" stroke-width="3.4375" stroke-linejoin="round" stroke-miterlimit="10" fill="none"/><g clip-path="url(#clip34)"><path d="M0 0 0.000360892 129.921" stroke="#000000" stroke-width="2.29167" stroke-miterlimit="8" fill="none" fill-rule="evenodd" transform="matrix(1 0 0 -1 1830 634.921)"/></g><g clip-path="url(#clip35)"><path d="M0 0 0.000360892 129.921" stroke="#000000" stroke-width="2.29167" stroke-miterlimit="8" fill="none" fill-rule="evenodd" transform="matrix(1 0 0 -1 2037 635.921)"/></g><g clip-path="url(#clip36)"><path d="M1847.33 529.859 2017.67 529.908 2017.67 532.199 1847.33 532.151ZM1847.33 531.005 1856.5 540.175 1829 531 1856.5 521.841ZM2017.67 531.053 2008.51 521.884 2036.01 531.059 2008.5 540.217Z"/></g><g clip-path="url(#clip37)"><text font-family="Calibri,Calibri_MSFontService,sans-serif" font-weight="400" font-size="37" transform="matrix(1 0 0 1 2053.75 488)">Largeur de la tâche</text></g><g clip-path="url(#clip38)"><g clip-path="url(#clip39)"><text font-family="Calibri,Calibri_MSFontService,sans-serif" font-weight="400" font-size="37" transform="matrix(1 0 0 1 2053.75 533)">centrale</text></g></g></g></svg>