<svg width="820" height="622" xmlns="http://www.w3.org/2000/svg" xmlns:xlink="http://www.w3.org/1999/xlink" overflow="hidden"><defs><clipPath id="clip0"><rect x="1730" y="2681" width="820" height="622"/></clipPath></defs><g clip-path="url(#clip0)" transform="translate(-1730 -2681)"><path d="M1740 2983.85 1749.17 2983.85 1749.17 2986.15 1740 2986.15ZM1756.04 2983.85 1765.21 2983.85 1765.21 2986.15 1756.04 2986.15ZM1772.08 2983.85 1781.25 2983.85 1781.25 2986.15 1772.08 2986.15ZM1788.13 2983.85 1797.29 2983.85 1797.29 2986.15 1788.13 2986.15ZM1804.17 2983.85 1813.33 2983.85 1813.33 2986.15 1804.17 2986.15ZM1820.21 2983.85 1829.38 2983.85 1829.38 2986.15 1820.21 2986.15ZM1836.25 2983.85 1845.42 2983.85 1845.42 2986.15 1836.25 2986.15ZM1852.29 2983.85 1861.46 2983.85 1861.46 2986.15 1852.29 2986.15ZM1868.33 2983.85 1877.5 2983.85 1877.5 2986.15 1868.33 2986.15ZM1884.38 2983.85 1893.54 2983.85 1893.54 2986.15 1884.38 2986.15ZM1900.42 2983.85 1909.58 2983.85 1909.58 2986.15 1900.42 2986.15ZM1916.46 2983.85 1925.63 2983.85 1925.63 2986.15 1916.46 2986.15ZM1932.5 2983.85 1941.67 2983.85 1941.67 2986.15 1932.5 2986.15ZM1948.54 2983.85 1957.71 2983.85 1957.71 2986.15 1948.54 2986.15ZM1964.58 2983.85 1973.75 2983.85 1973.75 2986.15 1964.58 2986.15ZM1980.63 2983.85 1989.79 2983.85 1989.79 2986.15 1980.63 2986.15ZM1996.67 2983.85 2005.83 2983.85 2005.83 2986.15 1996.67 2986.15ZM2012.71 2983.85 2021.88 2983.85 2021.88 2986.15 2012.71 2986.15ZM2028.75 2983.85 2037.92 2983.85 2037.92 2986.15 2028.75 2986.15ZM2044.79 2983.85 2053.96 2983.85 2053.96 2986.15 2044.79 2986.15ZM2060.83 2983.85 2070 2983.85 2070 2986.15 2060.83 2986.15ZM2076.88 2983.85 2086.04 2983.85 2086.04 2986.15 2076.88 2986.15ZM2092.92 2983.85 2102.08 2983.85 2102.08 2986.15 2092.92 2986.15ZM2108.96 2983.85 2118.12 2983.85 2118.12 2986.15 2108.96 2986.15ZM2125 2983.85 2134.17 2983.85 2134.17 2986.15 2125 2986.15ZM2141.04 2983.85 2150.21 2983.85 2150.21 2986.15 2141.04 2986.15ZM2157.08 2983.85 2166.25 2983.85 2166.25 2986.15 2157.08 2986.15ZM2173.12 2983.85 2182.29 2983.85 2182.29 2986.15 2173.12 2986.15ZM2189.17 2983.85 2198.33 2983.85 2198.33 2986.15 2189.17 2986.15ZM2205.21 2983.85 2214.38 2983.85 2214.38 2986.15 2205.21 2986.15ZM2221.25 2983.85 2230.42 2983.85 2230.42 2986.15 2221.25 2986.15ZM2237.29 2983.85 2246.46 2983.85 2246.46 2986.15 2237.29 2986.15ZM2253.33 2983.85 2262.5 2983.85 2262.5 2986.15 2253.33 2986.15ZM2269.38 2983.85 2278.54 2983.85 2278.54 2986.15 2269.38 2986.15ZM2285.42 2983.85 2294.58 2983.85 2294.58 2986.15 2285.42 2986.15ZM2301.46 2983.85 2310.62 2983.85 2310.62 2986.15 2301.46 2986.15ZM2317.5 2983.85 2326.67 2983.85 2326.67 2986.15 2317.5 2986.15ZM2333.54 2983.85 2342.71 2983.85 2342.71 2986.15 2333.54 2986.15ZM2349.58 2983.85 2358.75 2983.85 2358.75 2986.15 2349.58 2986.15ZM2365.62 2983.85 2374.79 2983.85 2374.79 2986.15 2365.62 2986.15ZM2381.67 2983.85 2390.83 2983.85 2390.83 2986.15 2381.67 2986.15ZM2397.71 2983.85 2406.88 2983.85 2406.88 2986.15 2397.71 2986.15ZM2413.75 2983.85 2422.92 2983.85 2422.92 2986.15 2413.75 2986.15ZM2429.79 2983.85 2438.96 2983.85 2438.96 2986.15 2429.79 2986.15ZM2445.83 2983.85 2451.33 2983.85 2451.33 2986.15 2445.83 2986.15ZM1740 2994.17C1734.94 2994.17 1730.83 2990.06 1730.83 2985 1730.83 2979.94 1734.94 2975.83 1740 2975.83 1745.06 2975.83 1749.17 2979.94 1749.17 2985 1749.17 2990.06 1745.06 2994.17 1740 2994.17ZM2451.33 2975.83C2456.4 2975.83 2460.5 2979.94 2460.5 2985 2460.5 2990.06 2456.4 2994.17 2451.33 2994.17 2446.27 2994.17 2442.17 2990.06 2442.17 2985 2442.17 2979.94 2446.27 2975.83 2451.33 2975.83Z"/><path d="M1868 2886 1868 3074.38" stroke="#000000" stroke-width="2.29167" stroke-linejoin="round" stroke-miterlimit="10" fill="none" fill-rule="evenodd"/><path d="M1868 2681 1868 2869.38" stroke="#000000" stroke-width="2.29167" stroke-linejoin="round" stroke-miterlimit="10" fill="none" fill-rule="evenodd"/><path d="M1868 3093 1868 3281.38" stroke="#000000" stroke-width="2.29167" stroke-linejoin="round" stroke-miterlimit="10" fill="none" fill-rule="evenodd"/><path d="M2452 2681 2452 3301.81" stroke="#000000" stroke-width="2.29167" stroke-linejoin="round" stroke-miterlimit="10" fill="none" fill-rule="evenodd"/><text font-family="Cambria Math,Cambria Math_MSFontService,sans-serif" font-weight="400" font-size="46" transform="translate(1792.08 2880)">𝑆<tspan font-size="34" x="21.1979" y="9">1</tspan><tspan font-size="46" x="0.0457764" y="206">𝑆</tspan><tspan font-size="34" x="22.298" y="215">2</tspan></text><path d="M1.71879 22.9167 1.71907 165.458-1.71843 165.458-1.71871 22.9167ZM-13.7499 27.5 0 0 13.7501 27.5ZM13.7503 160.875 0.000360892 188.375-13.7497 160.875Z" fill="#4A7EBB" transform="matrix(1 0 0 -1 1918.5 3074.88)"/><text font-family="Cambria Math,Cambria Math_MSFontService,sans-serif" font-weight="400" font-size="46" transform="translate(1928.45 2973)">𝑏</text><path d="M0 0 82.9583 0.000360892" stroke="#000000" stroke-width="2.29167" stroke-linejoin="round" stroke-miterlimit="10" fill="none" fill-rule="evenodd" transform="matrix(-1 0 0 1 1932.96 2879)"/><path d="M0 0 82.9583 0.000360892" stroke="#000000" stroke-width="2.29167" stroke-linejoin="round" stroke-miterlimit="10" fill="none" fill-rule="evenodd" transform="matrix(-1 0 0 1 1932.96 3083)"/><path d="M1891.42 2726.78 2414.38 2726.78 2414.38 2730.22 1891.42 2730.22ZM1896 2742.25 1868.5 2728.5 1896 2714.75ZM2409.79 2714.75 2437.29 2728.5 2409.79 2742.25Z" fill="#4A7EBB"/><text font-family="Cambria Math,Cambria Math_MSFontService,sans-serif" font-weight="400" font-size="46" transform="translate(2139.04 2768)">𝐷</text><path d="M0 0 27.7292 0.000360892" stroke="#000000" stroke-width="2.29167" stroke-linejoin="round" stroke-miterlimit="10" fill="none" fill-rule="evenodd" transform="matrix(-1 0 0 1 2465.73 2824)"/><text font-family="Cambria Math,Cambria Math_MSFontService,sans-serif" font-weight="400" font-size="46" transform="translate(2485.93 2837)">𝑃<tspan font-size="46" x="-12.1863" y="168">𝑂</tspan></text></g></svg>